#VRML V2.0 utf8

Shape {
  appearance Appearance {
    material Material {
      diffuseColor 0.1098 0.1098 0.1098
      specularColor 0.0784 0.0784 0.0784
      ambientIntensity 0.2
      transparency 0.0000
      shininess 0.5
    }
  }
  geometry IndexedFaceSet {
    ccw TRUE
    solid FALSE
    coord DEF co Coordinate {
      point [
        0.192618 0.012963 0.049213,
        0.147967 0.012963 0.049213,
        0.192618 0.118110 0.049213,
        0.038498 0.728346 0.049213,
        0.208462 0.118110 0.049213,
        0.954724 0.728346 0.049213,
        0.208462 0.000000 0.049213,
        0.954724 -0.000720 0.049213,
        0.077681 0.106587 0.049213,
        0.052138 0.017912 0.049213,
        0.063325 0.104722 0.049213,
        0.050021 0.019085 0.049213,
        0.050021 0.099025 0.049213,
        0.050021 0.114869 0.049213,
        0.089310 0.105284 0.049213,
        0.098104 0.102106 0.049213,
        0.106473 0.096496 0.049213,
        0.113572 0.088583 0.049213,
        0.118392 0.079447 0.049213,
        0.121517 0.066659 0.049213,
        0.122040 0.057795 0.049213,
        0.120846 0.045018 0.049213,
        0.117640 0.034859 0.049213,
        0.080337 0.011523 0.049213,
        0.107237 0.020861 0.049213,
        0.091297 0.012745 0.049213,
        0.099984 0.015938 0.049213,
        0.112730 0.026655 0.049213,
        0.064659 0.013263 0.049213,
        0.108583 0.004030 0.049213,
        0.147967 0.000000 0.049213,
        0.097077 0.000072 0.049213,
        0.089452 -0.000720 0.049213,
        0.124726 0.098070 0.049213,
        0.114459 0.108014 0.049213,
        0.103429 0.114501 0.049213,
        0.090477 0.118439 0.049213,
        0.118208 0.010228 0.049213,
        0.127045 0.019621 0.049213,
        0.133287 0.030893 0.049213,
        0.136789 0.043420 0.049213,
        0.137884 0.056827 0.049213,
        0.136191 0.073593 0.049213,
        0.131652 0.087021 0.049213,
        0.077816 0.119551 0.049213,
        0.063677 0.118575 0.049213,
        0.050021 0.006122 0.049213,
        0.062611 0.000952 0.049213,
        0.038498 -0.000720 0.049213,
        0.074546 -0.000720 0.049213,
        0.038498 -0.728346 0.049213,
        0.079290 -0.001385 0.049213,
        0.954724 -0.728346 0.049213,
        0.082520 -0.001441 0.049213,
        -0.033520 0.118110 0.049213,
        -0.954724 0.728346 0.049213,
        0.026976 0.118110 0.049213,
        -0.163153 -0.000000 0.049213,
        -0.148613 0.032371 0.049213,
        -0.141840 0.021807 0.049213,
        -0.207805 0.118110 0.049213,
        -0.223649 0.118110 0.049213,
        -0.147131 0.090155 0.049213,
        -0.152076 0.078633 0.049213,
        -0.954724 -0.000720 0.049213,
        0.011131 0.105147 0.049213,
        0.011131 0.066257 0.049213,
        -0.033520 0.105147 0.049213,
        -0.030639 0.066257 0.049213,
        -0.132118 0.012499 0.049213,
        -0.119786 0.005332 0.049213,
        -0.106176 0.001276 0.049213,
        -0.030639 0.053294 0.049213,
        -0.059446 -0.000000 0.049213,
        -0.059446 0.118110 0.049213,
        -0.123667 0.111435 0.049213,
        -0.135365 0.103823 0.049213,
        -0.139963 0.099559 0.049213,
        -0.154289 0.066325 0.049213,
        -0.154511 0.060541 0.049213,
        -0.152854 0.044734 0.049213,
        -0.092778 0.118110 0.049213,
        -0.109841 0.116286 0.049213,
        -0.269741 -0.000000 0.049213,
        -0.252456 -0.000000 0.049213,
        -0.091562 -0.000000 0.049213,
        0.011131 0.053294 0.049213,
        0.011131 0.012963 0.049213,
        -0.036401 0.012963 0.049213,
        -0.036401 -0.000000 0.049213,
        0.026976 0.000000 0.049213,
        -0.240506 0.033128 0.049213,
        -0.191713 0.033128 0.049213,
        -0.180437 -0.000000 0.049213,
        -0.954724 -0.728346 0.049213,
        0.832677 0.767717 0.364173,
        0.994094 0.767717 0.364173,
        0.832677 0.767717 0.285433,
        0.994094 0.767717 0.285433,
        0.667323 0.767717 0.285433,
        0.332677 0.767717 0.285433,
        0.667323 0.767717 0.364173,
        0.332677 0.767717 0.364173,
        0.167323 0.767717 0.285433,
        -0.167323 0.767717 0.285433,
        0.167323 0.767717 0.364173,
        -0.167323 0.767717 0.364173,
        -0.332677 0.767717 0.285433,
        -0.667323 0.767717 0.285433,
        -0.332677 0.767717 0.364173,
        -0.667323 0.767717 0.364173,
        -0.994094 0.767717 0.285433,
        -0.994094 0.767717 0.364173,
        -0.832677 0.767717 0.285433,
        -0.832677 0.767717 0.364173,
        0.832677 -0.767717 0.285433,
        0.994094 -0.767717 0.285433,
        0.832677 -0.767717 0.364173,
        0.994094 -0.767717 0.364173,
        0.667323 -0.767717 0.364173,
        0.332677 -0.767717 0.364173,
        0.667323 -0.767717 0.285433,
        0.332677 -0.767717 0.285433,
        0.167323 -0.767717 0.364173,
        -0.167323 -0.767717 0.364173,
        0.167323 -0.767717 0.285433,
        -0.167323 -0.767717 0.285433,
        -0.994094 -0.767717 0.364173,
        -0.994094 -0.767717 0.285433,
        -0.832677 -0.767717 0.364173,
        -0.832677 -0.767717 0.285433,
        -0.332677 -0.767717 0.364173,
        -0.667323 -0.767717 0.364173,
        -0.332677 -0.767717 0.285433,
        -0.667323 -0.767717 0.285433,
        -0.954724 -0.608607 0.600394,
        -0.725652 -0.435940 0.600394,
        -0.755541 -0.423559 0.600394,
        -0.781207 -0.403865 0.600394,
        -0.800902 -0.378199 0.600394,
        -0.813282 -0.348310 0.600394,
        -0.817505 -0.316235 0.600394,
        -0.813282 -0.284160 0.600394,
        -0.954724 0.728346 0.600394,
        -0.800902 -0.254271 0.600394,
        -0.569649 -0.316235 0.600394,
        0.954724 -0.608607 0.600394,
        -0.573872 -0.284160 0.600394,
        0.954724 0.728346 0.600394,
        -0.586252 -0.254271 0.600394,
        -0.605947 -0.228605 0.600394,
        -0.573872 -0.348310 0.600394,
        -0.586252 -0.378199 0.600394,
        -0.605947 -0.403865 0.600394,
        -0.631613 -0.423559 0.600394,
        -0.661502 -0.435940 0.600394,
        -0.693577 -0.440163 0.600394,
        -0.781207 -0.228605 0.600394,
        -0.755541 -0.208910 0.600394,
        -0.725652 -0.196530 0.600394,
        -0.693577 -0.192307 0.600394,
        -0.661502 -0.196530 0.600394,
        -0.631613 -0.208910 0.600394,
        0.970906 -0.744528 0.503307,
        -0.970906 -0.744528 0.503307,
      ]
    }
    coordIndex [
      0, 1, 2, -1,
      2, 1, 3, -1,
      2, 3, 4, -1,
      4, 3, 5, -1,
      4, 5, 6, -1,
      6, 5, 7, -1,
      8, 9, 10, -1,
      10, 9, 11, -1,
      10, 11, 12, -1,
      12, 11, 3, -1,
      12, 3, 13, -1,
      8, 14, 9, -1,
      9, 14, 15, -1,
      9, 15, 16, -1,
      16, 17, 9, -1,
      9, 17, 18, -1,
      9, 18, 19, -1,
      19, 20, 9, -1,
      9, 20, 21, -1,
      9, 21, 22, -1,
      23, 24, 25, -1,
      25, 24, 26, -1,
      22, 27, 9, -1,
      9, 27, 24, -1,
      9, 24, 28, -1,
      28, 24, 23, -1,
      29, 30, 31, -1,
      31, 30, 32, -1,
      33, 34, 3, -1,
      3, 34, 35, -1,
      3, 35, 36, -1,
      29, 37, 30, -1,
      30, 37, 38, -1,
      30, 38, 1, -1,
      1, 38, 39, -1,
      1, 39, 40, -1,
      40, 41, 1, -1,
      1, 41, 42, -1,
      1, 42, 3, -1,
      3, 42, 43, -1,
      3, 43, 33, -1,
      36, 44, 3, -1,
      3, 44, 45, -1,
      3, 45, 13, -1,
      46, 47, 48, -1,
      48, 47, 49, -1,
      48, 49, 50, -1,
      50, 49, 51, -1,
      50, 51, 52, -1,
      52, 51, 53, -1,
      52, 53, 7, -1,
      7, 53, 32, -1,
      7, 32, 6, -1,
      6, 32, 30, -1,
      54, 55, 56, -1,
      56, 55, 3, -1,
      56, 3, 48, -1,
      48, 3, 11, -1,
      48, 11, 46, -1,
      57, 58, 59, -1,
      60, 61, 55, -1,
      60, 62, 63, -1,
      55, 61, 64, -1,
      65, 66, 67, -1,
      67, 66, 68, -1,
      59, 69, 57, -1,
      57, 69, 70, -1,
      57, 70, 71, -1,
      72, 73, 68, -1,
      68, 73, 74, -1,
      68, 74, 67, -1,
      67, 74, 54, -1,
      75, 76, 60, -1,
      60, 76, 77, -1,
      60, 77, 62, -1,
      63, 78, 60, -1,
      60, 78, 79, -1,
      60, 79, 57, -1,
      57, 79, 80, -1,
      57, 80, 58, -1,
      54, 74, 55, -1,
      55, 74, 81, -1,
      55, 81, 60, -1,
      60, 81, 82, -1,
      60, 82, 75, -1,
      83, 84, 48, -1,
      48, 85, 73, -1,
      86, 87, 72, -1,
      72, 87, 88, -1,
      72, 88, 73, -1,
      73, 88, 89, -1,
      73, 89, 48, -1,
      48, 89, 90, -1,
      48, 90, 56, -1,
      91, 92, 84, -1,
      84, 92, 93, -1,
      84, 93, 48, -1,
      48, 93, 57, -1,
      48, 57, 85, -1,
      85, 57, 71, -1,
      50, 94, 48, -1,
      48, 94, 64, -1,
      48, 64, 83, -1,
      83, 64, 61, -1,
      95, 96, 97, -1,
      97, 96, 98, -1,
      99, 100, 101, -1,
      101, 100, 102, -1,
      103, 104, 105, -1,
      105, 104, 106, -1,
      107, 108, 109, -1,
      109, 108, 110, -1,
      111, 112, 113, -1,
      113, 112, 114, -1,
      115, 116, 117, -1,
      117, 116, 118, -1,
      119, 120, 121, -1,
      121, 120, 122, -1,
      123, 124, 125, -1,
      125, 124, 126, -1,
      127, 128, 129, -1,
      129, 128, 130, -1,
      131, 132, 133, -1,
      133, 132, 134, -1,
      128, 127, 111, -1,
      111, 127, 112, -1,
      98, 96, 116, -1,
      116, 96, 118, -1,
      135, 136, 137, -1,
      137, 138, 135, -1,
      135, 138, 139, -1,
      135, 139, 140, -1,
      140, 141, 135, -1,
      135, 141, 142, -1,
      135, 142, 143, -1,
      143, 142, 144, -1,
      145, 146, 147, -1,
      147, 146, 148, -1,
      147, 148, 149, -1,
      149, 148, 150, -1,
      145, 151, 146, -1,
      146, 151, 152, -1,
      146, 152, 153, -1,
      153, 154, 146, -1,
      146, 154, 155, -1,
      146, 155, 135, -1,
      135, 155, 156, -1,
      135, 156, 136, -1,
      144, 157, 143, -1,
      143, 157, 158, -1,
      143, 158, 159, -1,
      159, 160, 143, -1,
      143, 160, 161, -1,
      143, 161, 148, -1,
      148, 161, 162, -1,
      148, 162, 150, -1,
      94, 128, 64, -1,
      64, 128, 111, -1,
      64, 111, 55, -1,
      130, 128, 94, -1,
      125, 126, 50, -1,
      50, 126, 133, -1,
      50, 133, 94, -1,
      94, 133, 134, -1,
      94, 134, 130, -1,
      116, 115, 52, -1,
      52, 115, 121, -1,
      52, 121, 50, -1,
      50, 121, 122, -1,
      50, 122, 125, -1,
      97, 98, 5, -1,
      111, 113, 55, -1,
      55, 113, 108, -1,
      55, 108, 3, -1,
      3, 108, 107, -1,
      3, 107, 104, -1,
      104, 103, 3, -1,
      3, 103, 100, -1,
      3, 100, 5, -1,
      5, 100, 99, -1,
      5, 99, 97, -1,
      5, 98, 7, -1,
      7, 98, 116, -1,
      7, 116, 52, -1,
      96, 148, 118, -1,
      118, 148, 146, -1,
      118, 146, 163, -1,
      101, 148, 95, -1,
      95, 148, 96, -1,
      101, 102, 148, -1,
      148, 102, 105, -1,
      148, 105, 143, -1,
      143, 105, 106, -1,
      143, 106, 109, -1,
      109, 110, 143, -1,
      143, 110, 114, -1,
      143, 114, 112, -1,
      127, 129, 164, -1,
      164, 129, 132, -1,
      132, 131, 164, -1,
      164, 131, 124, -1,
      164, 124, 163, -1,
      163, 124, 123, -1,
      163, 123, 120, -1,
      120, 119, 163, -1,
      163, 119, 117, -1,
      163, 117, 118, -1,
      143, 112, 135, -1,
      135, 112, 127, -1,
      135, 127, 164, -1,
      163, 146, 164, -1,
      164, 146, 135, -1,
    ]
  }
}

Shape {
  appearance Appearance {
    material Material {
      diffuseColor 0.4118 0.4118 0.4118
      specularColor 0.1647 0.1647 0.1647
      ambientIntensity 0.2
      transparency 0.0000
      shininess 0.5
    }
  }
  geometry IndexedFaceSet {
    ccw TRUE
    solid FALSE
    coord DEF co Coordinate {
      point [
        -0.725652 -0.435940 0.600394,
        -0.755541 -0.423559 0.600394,
        -0.781207 -0.403865 0.600394,
        -0.800902 -0.378199 0.600394,
        -0.813282 -0.348310 0.600394,
        -0.817505 -0.316235 0.600394,
        -0.813282 -0.284160 0.600394,
        -0.800902 -0.254271 0.600394,
        -0.569649 -0.316235 0.600394,
        -0.573872 -0.284160 0.600394,
        -0.586252 -0.254271 0.600394,
        -0.605947 -0.228605 0.600394,
        -0.573872 -0.348310 0.600394,
        -0.586252 -0.378199 0.600394,
        -0.605947 -0.403865 0.600394,
        -0.631613 -0.423559 0.600394,
        -0.661502 -0.435940 0.600394,
        -0.693577 -0.440163 0.600394,
        -0.781207 -0.228605 0.600394,
        -0.755541 -0.208910 0.600394,
        -0.725652 -0.196530 0.600394,
        -0.693577 -0.192307 0.600394,
        -0.661502 -0.196530 0.600394,
        -0.631613 -0.208910 0.600394,
        -0.693577 -0.192307 0.592520,
        -0.725652 -0.196530 0.592520,
        -0.755541 -0.208910 0.592520,
        -0.781207 -0.228605 0.592520,
        -0.800902 -0.254271 0.592520,
        -0.813282 -0.284160 0.592520,
        -0.817505 -0.316235 0.592520,
        -0.813282 -0.348310 0.592520,
        -0.800902 -0.378199 0.592520,
        -0.781207 -0.403865 0.592520,
        -0.755541 -0.423559 0.592520,
        -0.725652 -0.435940 0.592520,
        -0.693577 -0.440163 0.592520,
        -0.661502 -0.435940 0.592520,
        -0.631613 -0.423559 0.592520,
        -0.605947 -0.403865 0.592520,
        -0.586252 -0.378199 0.592520,
        -0.573872 -0.348310 0.592520,
        -0.569649 -0.316235 0.592520,
        -0.573872 -0.284160 0.592520,
        -0.586252 -0.254271 0.592520,
        -0.605947 -0.228605 0.592520,
        -0.631613 -0.208910 0.592520,
        -0.661502 -0.196530 0.592520,
        -0.693577 -0.316235 0.592520,
      ]
    }
    coordIndex [
      24, 21, 25, -1,
      25, 21, 20, -1,
      25, 20, 26, -1,
      26, 20, 19, -1,
      26, 19, 27, -1,
      27, 19, 18, -1,
      27, 18, 28, -1,
      28, 18, 7, -1,
      28, 7, 29, -1,
      29, 7, 6, -1,
      29, 6, 30, -1,
      30, 6, 5, -1,
      30, 5, 31, -1,
      31, 5, 4, -1,
      31, 4, 32, -1,
      32, 4, 3, -1,
      32, 3, 33, -1,
      33, 3, 2, -1,
      33, 2, 34, -1,
      34, 2, 1, -1,
      34, 1, 35, -1,
      35, 1, 0, -1,
      35, 0, 36, -1,
      36, 0, 17, -1,
      36, 17, 37, -1,
      37, 17, 16, -1,
      37, 16, 38, -1,
      38, 16, 15, -1,
      38, 15, 39, -1,
      39, 15, 14, -1,
      39, 14, 40, -1,
      40, 14, 13, -1,
      40, 13, 41, -1,
      41, 13, 12, -1,
      41, 12, 42, -1,
      42, 12, 8, -1,
      42, 8, 43, -1,
      43, 8, 9, -1,
      43, 9, 44, -1,
      44, 9, 10, -1,
      44, 10, 45, -1,
      45, 10, 11, -1,
      45, 11, 46, -1,
      46, 11, 23, -1,
      46, 23, 47, -1,
      47, 23, 22, -1,
      47, 22, 24, -1,
      24, 22, 21, -1,
      46, 47, 48, -1,
      48, 47, 24, -1,
      48, 24, 25, -1,
      43, 44, 48, -1,
      48, 44, 45, -1,
      48, 45, 46, -1,
      40, 41, 48, -1,
      48, 41, 42, -1,
      48, 42, 43, -1,
      37, 38, 48, -1,
      48, 38, 39, -1,
      48, 39, 40, -1,
      34, 35, 48, -1,
      48, 35, 36, -1,
      48, 36, 37, -1,
      31, 32, 48, -1,
      48, 32, 33, -1,
      48, 33, 34, -1,
      28, 29, 48, -1,
      48, 29, 30, -1,
      48, 30, 31, -1,
      25, 26, 48, -1,
      48, 26, 27, -1,
      48, 27, 28, -1,
    ]
  }
}

Shape {
  appearance Appearance {
    material Material {
      diffuseColor 0.7765 0.7569 0.7373
      specularColor 0.3882 0.3765 0.3686
      ambientIntensity 0.2
      transparency 0.0000
      shininess 0.5
    }
  }
  geometry IndexedFaceSet {
    ccw TRUE
    solid FALSE
    coord DEF co Coordinate {
      point [
        0.832677 0.767717 0.364173,
        0.832677 0.767717 0.285433,
        0.667323 0.767717 0.285433,
        0.332677 0.767717 0.285433,
        0.667323 0.767717 0.364173,
        0.332677 0.767717 0.364173,
        0.167323 0.767717 0.285433,
        -0.167323 0.767717 0.285433,
        0.167323 0.767717 0.364173,
        -0.167323 0.767717 0.364173,
        -0.332677 0.767717 0.285433,
        -0.667323 0.767717 0.285433,
        -0.332677 0.767717 0.364173,
        -0.667323 0.767717 0.364173,
        -0.832677 0.767717 0.285433,
        -0.832677 0.767717 0.364173,
        0.832677 -0.767717 0.285433,
        0.832677 -0.767717 0.364173,
        0.667323 -0.767717 0.364173,
        0.332677 -0.767717 0.364173,
        0.667323 -0.767717 0.285433,
        0.332677 -0.767717 0.285433,
        0.167323 -0.767717 0.364173,
        -0.167323 -0.767717 0.364173,
        0.167323 -0.767717 0.285433,
        -0.167323 -0.767717 0.285433,
        -0.832677 -0.767717 0.364173,
        -0.832677 -0.767717 0.285433,
        -0.332677 -0.767717 0.364173,
        -0.667323 -0.767717 0.364173,
        -0.332677 -0.767717 0.285433,
        -0.667323 -0.767717 0.285433,
        -0.667323 -1.181102 0.078740,
        -0.832677 -1.181102 0.078740,
        -0.667323 -1.181102 -0.000000,
        -0.832677 -1.181102 -0.000000,
        -0.832677 -0.892801 0.285433,
        -0.667323 -0.892801 0.285433,
        -0.667323 -0.892801 0.364173,
        -0.832677 -0.892801 0.364173,
        -0.832677 -0.897452 0.284876,
        -0.667323 -0.897452 0.284876,
        -0.832677 -0.901840 0.283235,
        -0.667323 -0.901840 0.283235,
        -0.832677 -0.905716 0.280604,
        -0.667323 -0.905716 0.280604,
        -0.832677 -0.908860 0.277133,
        -0.667323 -0.908860 0.277133,
        -0.832677 -0.911095 0.273016,
        -0.667323 -0.911095 0.273016,
        -0.832677 -0.912294 0.268488,
        -0.667323 -0.912294 0.268488,
        -0.667323 -0.916056 0.361387,
        -0.667323 -0.937994 0.353184,
        -0.667323 -0.957374 0.340030,
        -0.667323 -0.973096 0.322670,
        -0.667323 -0.984272 0.302087,
        -0.667323 -0.990269 0.279446,
        -0.832677 -0.990269 0.279446,
        -0.832677 -0.984272 0.302087,
        -0.832677 -0.973096 0.322670,
        -0.832677 -0.957374 0.340030,
        -0.832677 -0.937994 0.353184,
        -0.832677 -0.916056 0.361387,
        -0.832677 -0.938120 0.084727,
        -0.667323 -0.938120 0.084727,
        -0.667323 -1.016094 0.095685,
        -0.832677 -1.016094 0.095685,
        -0.667323 -1.035588 -0.000000,
        -0.832677 -1.035588 -0.000000,
        -0.832677 -1.012333 0.002787,
        -0.667323 -1.012333 0.002787,
        -0.832677 -0.990394 0.010989,
        -0.667323 -0.990394 0.010989,
        -0.832677 -0.971015 0.024143,
        -0.667323 -0.971015 0.024143,
        -0.832677 -0.955293 0.041503,
        -0.667323 -0.955293 0.041503,
        -0.832677 -0.944117 0.062086,
        -0.667323 -0.944117 0.062086,
        -0.667323 -1.035588 0.078740,
        -0.667323 -1.030937 0.079298,
        -0.667323 -1.026549 0.080938,
        -0.667323 -1.022673 0.083569,
        -0.667323 -1.019529 0.087041,
        -0.667323 -1.017294 0.091157,
        -0.832677 -1.017294 0.091157,
        -0.832677 -1.019529 0.087041,
        -0.832677 -1.022673 0.083569,
        -0.832677 -1.026549 0.080938,
        -0.832677 -1.030937 0.079298,
        -0.832677 -1.035588 0.078740,
        -0.167323 -1.181102 0.078740,
        -0.332677 -1.181102 0.078740,
        -0.167323 -1.181102 -0.000000,
        -0.332677 -1.181102 -0.000000,
        -0.332677 -0.892801 0.285433,
        -0.167323 -0.892801 0.285433,
        -0.167323 -0.892801 0.364173,
        -0.332677 -0.892801 0.364173,
        -0.332677 -0.897452 0.284876,
        -0.167323 -0.897452 0.284876,
        -0.332677 -0.901840 0.283235,
        -0.167323 -0.901840 0.283235,
        -0.332677 -0.905716 0.280604,
        -0.167323 -0.905716 0.280604,
        -0.332677 -0.908860 0.277133,
        -0.167323 -0.908860 0.277133,
        -0.332677 -0.911095 0.273016,
        -0.167323 -0.911095 0.273016,
        -0.332677 -0.912294 0.268488,
        -0.167323 -0.912294 0.268488,
        -0.167323 -0.916056 0.361387,
        -0.167323 -0.937994 0.353184,
        -0.167323 -0.957374 0.340030,
        -0.167323 -0.973096 0.322670,
        -0.167323 -0.984272 0.302087,
        -0.167323 -0.990269 0.279446,
        -0.332677 -0.990269 0.279446,
        -0.332677 -0.984272 0.302087,
        -0.332677 -0.973096 0.322670,
        -0.332677 -0.957374 0.340030,
        -0.332677 -0.937994 0.353184,
        -0.332677 -0.916056 0.361387,
        -0.332677 -0.938120 0.084727,
        -0.167323 -0.938120 0.084727,
        -0.167323 -1.016094 0.095685,
        -0.332677 -1.016094 0.095685,
        -0.167323 -1.035588 -0.000000,
        -0.332677 -1.035588 -0.000000,
        -0.332677 -1.012333 0.002787,
        -0.167323 -1.012333 0.002787,
        -0.332677 -0.990394 0.010989,
        -0.167323 -0.990394 0.010989,
        -0.332677 -0.971015 0.024143,
        -0.167323 -0.971015 0.024143,
        -0.332677 -0.955293 0.041503,
        -0.167323 -0.955293 0.041503,
        -0.332677 -0.944117 0.062086,
        -0.167323 -0.944117 0.062086,
        -0.167323 -1.035588 0.078740,
        -0.167323 -1.030937 0.079298,
        -0.167323 -1.026549 0.080938,
        -0.167323 -1.022673 0.083569,
        -0.167323 -1.019529 0.087041,
        -0.167323 -1.017294 0.091157,
        -0.332677 -1.017294 0.091157,
        -0.332677 -1.019529 0.087041,
        -0.332677 -1.022673 0.083569,
        -0.332677 -1.026549 0.080938,
        -0.332677 -1.030937 0.079298,
        -0.332677 -1.035588 0.078740,
        0.332677 -1.181102 0.078740,
        0.167323 -1.181102 0.078740,
        0.332677 -1.181102 -0.000000,
        0.167323 -1.181102 -0.000000,
        0.167323 -0.892801 0.285433,
        0.332677 -0.892801 0.285433,
        0.332677 -0.892801 0.364173,
        0.167323 -0.892801 0.364173,
        0.167323 -0.897452 0.284876,
        0.332677 -0.897452 0.284876,
        0.167323 -0.901840 0.283235,
        0.332677 -0.901840 0.283235,
        0.167323 -0.905716 0.280604,
        0.332677 -0.905716 0.280604,
        0.167323 -0.908860 0.277133,
        0.332677 -0.908860 0.277133,
        0.167323 -0.911095 0.273016,
        0.332677 -0.911095 0.273016,
        0.167323 -0.912294 0.268488,
        0.332677 -0.912294 0.268488,
        0.332677 -0.916056 0.361387,
        0.332677 -0.937994 0.353184,
        0.332677 -0.957374 0.340030,
        0.332677 -0.973096 0.322670,
        0.332677 -0.984272 0.302087,
        0.332677 -0.990269 0.279446,
        0.167323 -0.990269 0.279446,
        0.167323 -0.984272 0.302087,
        0.167323 -0.973096 0.322670,
        0.167323 -0.957374 0.340030,
        0.167323 -0.937994 0.353184,
        0.167323 -0.916056 0.361387,
        0.167323 -0.938120 0.084727,
        0.332677 -0.938120 0.084727,
        0.332677 -1.016094 0.095685,
        0.167323 -1.016094 0.095685,
        0.332677 -1.035588 -0.000000,
        0.167323 -1.035588 -0.000000,
        0.167323 -1.012333 0.002787,
        0.332677 -1.012333 0.002787,
        0.167323 -0.990394 0.010989,
        0.332677 -0.990394 0.010989,
        0.167323 -0.971015 0.024143,
        0.332677 -0.971015 0.024143,
        0.167323 -0.955293 0.041503,
        0.332677 -0.955293 0.041503,
        0.167323 -0.944117 0.062086,
        0.332677 -0.944117 0.062086,
        0.332677 -1.035588 0.078740,
        0.332677 -1.030937 0.079298,
        0.332677 -1.026549 0.080938,
        0.332677 -1.022673 0.083569,
        0.332677 -1.019529 0.087041,
        0.332677 -1.017294 0.091157,
        0.167323 -1.017294 0.091157,
        0.167323 -1.019529 0.087041,
        0.167323 -1.022673 0.083569,
        0.167323 -1.026549 0.080938,
        0.167323 -1.030937 0.079298,
        0.167323 -1.035588 0.078740,
        0.832677 -1.181102 0.078740,
        0.667323 -1.181102 0.078740,
        0.832677 -1.181102 -0.000000,
        0.667323 -1.181102 -0.000000,
        0.667323 -0.892801 0.285433,
        0.832677 -0.892801 0.285433,
        0.832677 -0.892801 0.364173,
        0.667323 -0.892801 0.364173,
        0.667323 -0.897452 0.284876,
        0.832677 -0.897452 0.284876,
        0.667323 -0.901840 0.283235,
        0.832677 -0.901840 0.283235,
        0.667323 -0.905716 0.280604,
        0.832677 -0.905716 0.280604,
        0.667323 -0.908860 0.277133,
        0.832677 -0.908860 0.277133,
        0.667323 -0.911095 0.273016,
        0.832677 -0.911095 0.273016,
        0.667323 -0.912294 0.268488,
        0.832677 -0.912294 0.268488,
        0.832677 -0.916056 0.361387,
        0.832677 -0.937994 0.353184,
        0.832677 -0.957374 0.340030,
        0.832677 -0.973096 0.322670,
        0.832677 -0.984272 0.302087,
        0.832677 -0.990269 0.279446,
        0.667323 -0.990269 0.279446,
        0.667323 -0.984272 0.302087,
        0.667323 -0.973096 0.322670,
        0.667323 -0.957374 0.340030,
        0.667323 -0.937994 0.353184,
        0.667323 -0.916056 0.361387,
        0.667323 -0.938120 0.084727,
        0.832677 -0.938120 0.084727,
        0.832677 -1.016094 0.095685,
        0.667323 -1.016094 0.095685,
        0.832677 -1.035588 -0.000000,
        0.667323 -1.035588 -0.000000,
        0.667323 -1.012333 0.002787,
        0.832677 -1.012333 0.002787,
        0.667323 -0.990394 0.010989,
        0.832677 -0.990394 0.010989,
        0.667323 -0.971015 0.024143,
        0.832677 -0.971015 0.024143,
        0.667323 -0.955293 0.041503,
        0.832677 -0.955293 0.041503,
        0.667323 -0.944117 0.062086,
        0.832677 -0.944117 0.062086,
        0.832677 -1.035588 0.078740,
        0.832677 -1.030937 0.079298,
        0.832677 -1.026549 0.080938,
        0.832677 -1.022673 0.083569,
        0.832677 -1.019529 0.087041,
        0.832677 -1.017294 0.091157,
        0.667323 -1.017294 0.091157,
        0.667323 -1.019529 0.087041,
        0.667323 -1.022673 0.083569,
        0.667323 -1.026549 0.080938,
        0.667323 -1.030937 0.079298,
        0.667323 -1.035588 0.078740,
        -0.832677 1.181102 0.078740,
        -0.667323 1.181102 0.078740,
        -0.832677 1.181102 -0.000000,
        -0.667323 1.181102 -0.000000,
        -0.832677 0.892801 0.364173,
        -0.667323 0.892801 0.364173,
        -0.667323 0.892801 0.285433,
        -0.832677 0.892801 0.285433,
        -0.667323 0.990269 0.279446,
        -0.832677 0.990269 0.279446,
        -0.832677 0.984272 0.302087,
        -0.667323 0.984272 0.302087,
        -0.832677 0.973096 0.322670,
        -0.667323 0.973096 0.322670,
        -0.832677 0.957374 0.340030,
        -0.667323 0.957374 0.340030,
        -0.832677 0.937994 0.353184,
        -0.667323 0.937994 0.353184,
        -0.832677 0.916056 0.361387,
        -0.667323 0.916056 0.361387,
        -0.667323 0.912294 0.268488,
        -0.667323 0.911095 0.273016,
        -0.667323 0.908860 0.277133,
        -0.667323 0.905716 0.280604,
        -0.667323 0.901840 0.283235,
        -0.667323 0.897452 0.284876,
        -0.832677 0.897452 0.284876,
        -0.832677 0.901840 0.283235,
        -0.832677 0.905716 0.280604,
        -0.832677 0.908860 0.277133,
        -0.832677 0.911095 0.273016,
        -0.832677 0.912294 0.268488,
        -0.832677 1.016094 0.095685,
        -0.667323 1.016094 0.095685,
        -0.667323 0.938120 0.084727,
        -0.832677 0.938120 0.084727,
        -0.832677 1.017294 0.091157,
        -0.667323 1.017294 0.091157,
        -0.832677 1.019529 0.087041,
        -0.667323 1.019529 0.087041,
        -0.832677 1.022673 0.083569,
        -0.667323 1.022673 0.083569,
        -0.832677 1.026549 0.080938,
        -0.667323 1.026549 0.080938,
        -0.832677 1.030937 0.079298,
        -0.667323 1.030937 0.079298,
        -0.832677 1.035588 0.078740,
        -0.667323 1.035588 0.078740,
        -0.667323 0.944117 0.062086,
        -0.667323 0.955293 0.041503,
        -0.667323 0.971015 0.024143,
        -0.667323 0.990394 0.010989,
        -0.667323 1.012333 0.002787,
        -0.667323 1.035588 -0.000000,
        -0.832677 1.035588 -0.000000,
        -0.832677 1.012333 0.002787,
        -0.832677 0.990394 0.010989,
        -0.832677 0.971015 0.024143,
        -0.832677 0.955293 0.041503,
        -0.832677 0.944117 0.062086,
        -0.332677 1.181102 0.078740,
        -0.167323 1.181102 0.078740,
        -0.332677 1.181102 -0.000000,
        -0.167323 1.181102 -0.000000,
        -0.332677 0.892801 0.285433,
        -0.167323 0.892801 0.285433,
        -0.167323 0.892801 0.364173,
        -0.332677 0.892801 0.364173,
        -0.332677 0.912294 0.268488,
        -0.167323 0.912294 0.268488,
        -0.332677 0.911095 0.273016,
        -0.167323 0.911095 0.273016,
        -0.332677 0.908860 0.277133,
        -0.167323 0.908860 0.277133,
        -0.332677 0.905716 0.280604,
        -0.167323 0.905716 0.280604,
        -0.332677 0.901840 0.283235,
        -0.167323 0.901840 0.283235,
        -0.332677 0.897452 0.284876,
        -0.167323 0.897452 0.284876,
        -0.167323 0.990269 0.279446,
        -0.167323 0.984272 0.302087,
        -0.167323 0.973096 0.322670,
        -0.167323 0.957374 0.340030,
        -0.167323 0.937994 0.353184,
        -0.167323 0.916056 0.361387,
        -0.332677 0.916056 0.361387,
        -0.332677 0.937994 0.353184,
        -0.332677 0.957374 0.340030,
        -0.332677 0.973096 0.322670,
        -0.332677 0.984272 0.302087,
        -0.332677 0.990269 0.279446,
        -0.332677 0.938120 0.084727,
        -0.167323 0.938120 0.084727,
        -0.167323 1.016094 0.095685,
        -0.332677 1.016094 0.095685,
        -0.332677 0.944117 0.062086,
        -0.167323 0.944117 0.062086,
        -0.332677 0.955293 0.041503,
        -0.167323 0.955293 0.041503,
        -0.332677 0.971015 0.024143,
        -0.167323 0.971015 0.024143,
        -0.332677 0.990394 0.010989,
        -0.167323 0.990394 0.010989,
        -0.332677 1.012333 0.002787,
        -0.167323 1.012333 0.002787,
        -0.332677 1.035588 -0.000000,
        -0.167323 1.035588 -0.000000,
        -0.167323 1.017294 0.091157,
        -0.167323 1.019529 0.087041,
        -0.167323 1.022673 0.083569,
        -0.167323 1.026549 0.080938,
        -0.167323 1.030937 0.079298,
        -0.167323 1.035588 0.078740,
        -0.332677 1.035588 0.078740,
        -0.332677 1.030937 0.079298,
        -0.332677 1.026549 0.080938,
        -0.332677 1.022673 0.083569,
        -0.332677 1.019529 0.087041,
        -0.332677 1.017294 0.091157,
        0.167323 1.181102 0.078740,
        0.332677 1.181102 0.078740,
        0.167323 1.181102 -0.000000,
        0.332677 1.181102 -0.000000,
        0.167323 0.892801 0.285433,
        0.332677 0.892801 0.285433,
        0.332677 0.892801 0.364173,
        0.167323 0.892801 0.364173,
        0.167323 0.912294 0.268488,
        0.332677 0.912294 0.268488,
        0.167323 0.911095 0.273016,
        0.332677 0.911095 0.273016,
        0.167323 0.908860 0.277133,
        0.332677 0.908860 0.277133,
        0.167323 0.905716 0.280604,
        0.332677 0.905716 0.280604,
        0.167323 0.901840 0.283235,
        0.332677 0.901840 0.283235,
        0.167323 0.897452 0.284876,
        0.332677 0.897452 0.284876,
        0.332677 0.990269 0.279446,
        0.332677 0.984272 0.302087,
        0.332677 0.973096 0.322670,
        0.332677 0.957374 0.340030,
        0.332677 0.937994 0.353184,
        0.332677 0.916056 0.361387,
        0.167323 0.916056 0.361387,
        0.167323 0.937994 0.353184,
        0.167323 0.957374 0.340030,
        0.167323 0.973096 0.322670,
        0.167323 0.984272 0.302087,
        0.167323 0.990269 0.279446,
        0.167323 0.938120 0.084727,
        0.332677 0.938120 0.084727,
        0.332677 1.016094 0.095685,
        0.167323 1.016094 0.095685,
        0.167323 0.944117 0.062086,
        0.332677 0.944117 0.062086,
        0.167323 0.955293 0.041503,
        0.332677 0.955293 0.041503,
        0.167323 0.971015 0.024143,
        0.332677 0.971015 0.024143,
        0.167323 0.990394 0.010989,
        0.332677 0.990394 0.010989,
        0.167323 1.012333 0.002787,
        0.332677 1.012333 0.002787,
        0.167323 1.035588 -0.000000,
        0.332677 1.035588 -0.000000,
        0.332677 1.017294 0.091157,
        0.332677 1.019529 0.087041,
        0.332677 1.022673 0.083569,
        0.332677 1.026549 0.080938,
        0.332677 1.030937 0.079298,
        0.332677 1.035588 0.078740,
        0.167323 1.035588 0.078740,
        0.167323 1.030937 0.079298,
        0.167323 1.026549 0.080938,
        0.167323 1.022673 0.083569,
        0.167323 1.019529 0.087041,
        0.167323 1.017294 0.091157,
        0.667323 1.181102 0.078740,
        0.832677 1.181102 0.078740,
        0.667323 1.181102 -0.000000,
        0.832677 1.181102 -0.000000,
        0.667323 0.892801 0.285433,
        0.832677 0.892801 0.285433,
        0.832677 0.892801 0.364173,
        0.667323 0.892801 0.364173,
        0.667323 0.912294 0.268488,
        0.832677 0.912294 0.268488,
        0.667323 0.911095 0.273016,
        0.832677 0.911095 0.273016,
        0.667323 0.908860 0.277133,
        0.832677 0.908860 0.277133,
        0.667323 0.905716 0.280604,
        0.832677 0.905716 0.280604,
        0.667323 0.901840 0.283235,
        0.832677 0.901840 0.283235,
        0.667323 0.897452 0.284876,
        0.832677 0.897452 0.284876,
        0.832677 0.990269 0.279446,
        0.832677 0.984272 0.302087,
        0.832677 0.973096 0.322670,
        0.832677 0.957374 0.340030,
        0.832677 0.937994 0.353184,
        0.832677 0.916056 0.361387,
        0.667323 0.916056 0.361387,
        0.667323 0.937994 0.353184,
        0.667323 0.957374 0.340030,
        0.667323 0.973096 0.322670,
        0.667323 0.984272 0.302087,
        0.667323 0.990269 0.279446,
        0.667323 0.938120 0.084727,
        0.832677 0.938120 0.084727,
        0.832677 1.016094 0.095685,
        0.667323 1.016094 0.095685,
        0.667323 0.944117 0.062086,
        0.832677 0.944117 0.062086,
        0.667323 0.955293 0.041503,
        0.832677 0.955293 0.041503,
        0.667323 0.971015 0.024143,
        0.832677 0.971015 0.024143,
        0.667323 0.990394 0.010989,
        0.832677 0.990394 0.010989,
        0.667323 1.012333 0.002787,
        0.832677 1.012333 0.002787,
        0.667323 1.035588 -0.000000,
        0.832677 1.035588 -0.000000,
        0.832677 1.017294 0.091157,
        0.832677 1.019529 0.087041,
        0.832677 1.022673 0.083569,
        0.832677 1.026549 0.080938,
        0.832677 1.030937 0.079298,
        0.832677 1.035588 0.078740,
        0.667323 1.035588 0.078740,
        0.667323 1.030937 0.079298,
        0.667323 1.026549 0.080938,
        0.667323 1.022673 0.083569,
        0.667323 1.019529 0.087041,
        0.667323 1.017294 0.091157,
      ]
    }
    coordIndex [
      32, 33, 34, -1,
      34, 33, 35, -1,
      36, 27, 37, -1,
      37, 27, 31, -1,
      37, 31, 38, -1,
      38, 31, 29, -1,
      38, 29, 39, -1,
      39, 29, 26, -1,
      26, 27, 39, -1,
      39, 27, 36, -1,
      36, 37, 40, -1,
      40, 37, 41, -1,
      40, 41, 42, -1,
      42, 41, 43, -1,
      42, 43, 44, -1,
      44, 43, 45, -1,
      44, 45, 46, -1,
      46, 45, 47, -1,
      46, 47, 48, -1,
      48, 47, 49, -1,
      48, 49, 50, -1,
      50, 49, 51, -1,
      37, 38, 41, -1,
      41, 38, 52, -1,
      41, 52, 43, -1,
      43, 52, 53, -1,
      43, 53, 45, -1,
      45, 53, 54, -1,
      45, 54, 47, -1,
      47, 54, 55, -1,
      47, 55, 49, -1,
      49, 55, 56, -1,
      49, 56, 51, -1,
      51, 56, 57, -1,
      58, 57, 56, -1,
      58, 56, 59, -1,
      59, 56, 55, -1,
      59, 55, 60, -1,
      60, 55, 54, -1,
      60, 54, 61, -1,
      61, 54, 53, -1,
      61, 53, 62, -1,
      62, 53, 52, -1,
      62, 52, 63, -1,
      63, 52, 38, -1,
      63, 38, 39, -1,
      50, 58, 48, -1,
      48, 58, 59, -1,
      48, 59, 46, -1,
      46, 59, 60, -1,
      46, 60, 44, -1,
      44, 60, 61, -1,
      44, 61, 42, -1,
      42, 61, 62, -1,
      42, 62, 40, -1,
      40, 62, 63, -1,
      40, 63, 36, -1,
      36, 63, 39, -1,
      64, 50, 65, -1,
      65, 50, 51, -1,
      65, 51, 66, -1,
      66, 51, 57, -1,
      66, 57, 67, -1,
      67, 57, 58, -1,
      58, 50, 67, -1,
      67, 50, 64, -1,
      68, 69, 70, -1,
      68, 70, 71, -1,
      71, 70, 72, -1,
      71, 72, 73, -1,
      73, 72, 74, -1,
      73, 74, 75, -1,
      75, 74, 76, -1,
      75, 76, 77, -1,
      77, 76, 78, -1,
      77, 78, 79, -1,
      79, 78, 64, -1,
      79, 64, 65, -1,
      80, 68, 81, -1,
      81, 68, 71, -1,
      81, 71, 82, -1,
      82, 71, 73, -1,
      82, 73, 83, -1,
      83, 73, 75, -1,
      83, 75, 84, -1,
      84, 75, 77, -1,
      84, 77, 85, -1,
      85, 77, 79, -1,
      85, 79, 66, -1,
      66, 79, 65, -1,
      66, 67, 85, -1,
      85, 67, 86, -1,
      85, 86, 84, -1,
      84, 86, 87, -1,
      84, 87, 83, -1,
      83, 87, 88, -1,
      83, 88, 82, -1,
      82, 88, 89, -1,
      82, 89, 81, -1,
      81, 89, 90, -1,
      81, 90, 80, -1,
      80, 90, 91, -1,
      67, 64, 86, -1,
      86, 64, 78, -1,
      86, 78, 87, -1,
      87, 78, 76, -1,
      87, 76, 88, -1,
      88, 76, 74, -1,
      88, 74, 89, -1,
      89, 74, 72, -1,
      89, 72, 90, -1,
      90, 72, 70, -1,
      90, 70, 91, -1,
      91, 70, 69, -1,
      35, 69, 34, -1,
      34, 69, 68, -1,
      34, 68, 32, -1,
      32, 68, 80, -1,
      32, 80, 33, -1,
      33, 80, 91, -1,
      91, 69, 33, -1,
      33, 69, 35, -1,
      92, 93, 94, -1,
      94, 93, 95, -1,
      96, 30, 97, -1,
      97, 30, 25, -1,
      97, 25, 98, -1,
      98, 25, 23, -1,
      98, 23, 99, -1,
      99, 23, 28, -1,
      28, 30, 99, -1,
      99, 30, 96, -1,
      96, 97, 100, -1,
      100, 97, 101, -1,
      100, 101, 102, -1,
      102, 101, 103, -1,
      102, 103, 104, -1,
      104, 103, 105, -1,
      104, 105, 106, -1,
      106, 105, 107, -1,
      106, 107, 108, -1,
      108, 107, 109, -1,
      108, 109, 110, -1,
      110, 109, 111, -1,
      97, 98, 101, -1,
      101, 98, 112, -1,
      101, 112, 103, -1,
      103, 112, 113, -1,
      103, 113, 105, -1,
      105, 113, 114, -1,
      105, 114, 107, -1,
      107, 114, 115, -1,
      107, 115, 109, -1,
      109, 115, 116, -1,
      109, 116, 111, -1,
      111, 116, 117, -1,
      118, 117, 116, -1,
      118, 116, 119, -1,
      119, 116, 115, -1,
      119, 115, 120, -1,
      120, 115, 114, -1,
      120, 114, 121, -1,
      121, 114, 113, -1,
      121, 113, 122, -1,
      122, 113, 112, -1,
      122, 112, 123, -1,
      123, 112, 98, -1,
      123, 98, 99, -1,
      110, 118, 108, -1,
      108, 118, 119, -1,
      108, 119, 106, -1,
      106, 119, 120, -1,
      106, 120, 104, -1,
      104, 120, 121, -1,
      104, 121, 102, -1,
      102, 121, 122, -1,
      102, 122, 100, -1,
      100, 122, 123, -1,
      100, 123, 96, -1,
      96, 123, 99, -1,
      124, 110, 125, -1,
      125, 110, 111, -1,
      125, 111, 126, -1,
      126, 111, 117, -1,
      126, 117, 127, -1,
      127, 117, 118, -1,
      118, 110, 127, -1,
      127, 110, 124, -1,
      128, 129, 130, -1,
      128, 130, 131, -1,
      131, 130, 132, -1,
      131, 132, 133, -1,
      133, 132, 134, -1,
      133, 134, 135, -1,
      135, 134, 136, -1,
      135, 136, 137, -1,
      137, 136, 138, -1,
      137, 138, 139, -1,
      139, 138, 124, -1,
      139, 124, 125, -1,
      140, 128, 141, -1,
      141, 128, 131, -1,
      141, 131, 142, -1,
      142, 131, 133, -1,
      142, 133, 143, -1,
      143, 133, 135, -1,
      143, 135, 144, -1,
      144, 135, 137, -1,
      144, 137, 145, -1,
      145, 137, 139, -1,
      145, 139, 126, -1,
      126, 139, 125, -1,
      126, 127, 145, -1,
      145, 127, 146, -1,
      145, 146, 144, -1,
      144, 146, 147, -1,
      144, 147, 143, -1,
      143, 147, 148, -1,
      143, 148, 142, -1,
      142, 148, 149, -1,
      142, 149, 141, -1,
      141, 149, 150, -1,
      141, 150, 140, -1,
      140, 150, 151, -1,
      127, 124, 146, -1,
      146, 124, 138, -1,
      146, 138, 147, -1,
      147, 138, 136, -1,
      147, 136, 148, -1,
      148, 136, 134, -1,
      148, 134, 149, -1,
      149, 134, 132, -1,
      149, 132, 150, -1,
      150, 132, 130, -1,
      150, 130, 151, -1,
      151, 130, 129, -1,
      95, 129, 94, -1,
      94, 129, 128, -1,
      94, 128, 92, -1,
      92, 128, 140, -1,
      92, 140, 93, -1,
      93, 140, 151, -1,
      151, 129, 93, -1,
      93, 129, 95, -1,
      152, 153, 154, -1,
      154, 153, 155, -1,
      156, 24, 157, -1,
      157, 24, 21, -1,
      157, 21, 158, -1,
      158, 21, 19, -1,
      158, 19, 159, -1,
      159, 19, 22, -1,
      22, 24, 159, -1,
      159, 24, 156, -1,
      156, 157, 160, -1,
      160, 157, 161, -1,
      160, 161, 162, -1,
      162, 161, 163, -1,
      162, 163, 164, -1,
      164, 163, 165, -1,
      164, 165, 166, -1,
      166, 165, 167, -1,
      166, 167, 168, -1,
      168, 167, 169, -1,
      168, 169, 170, -1,
      170, 169, 171, -1,
      157, 158, 161, -1,
      161, 158, 172, -1,
      161, 172, 163, -1,
      163, 172, 173, -1,
      163, 173, 165, -1,
      165, 173, 174, -1,
      165, 174, 167, -1,
      167, 174, 175, -1,
      167, 175, 169, -1,
      169, 175, 176, -1,
      169, 176, 171, -1,
      171, 176, 177, -1,
      178, 177, 176, -1,
      178, 176, 179, -1,
      179, 176, 175, -1,
      179, 175, 180, -1,
      180, 175, 174, -1,
      180, 174, 181, -1,
      181, 174, 173, -1,
      181, 173, 182, -1,
      182, 173, 172, -1,
      182, 172, 183, -1,
      183, 172, 158, -1,
      183, 158, 159, -1,
      170, 178, 168, -1,
      168, 178, 179, -1,
      168, 179, 166, -1,
      166, 179, 180, -1,
      166, 180, 164, -1,
      164, 180, 181, -1,
      164, 181, 162, -1,
      162, 181, 182, -1,
      162, 182, 160, -1,
      160, 182, 183, -1,
      160, 183, 156, -1,
      156, 183, 159, -1,
      184, 170, 185, -1,
      185, 170, 171, -1,
      185, 171, 186, -1,
      186, 171, 177, -1,
      186, 177, 187, -1,
      187, 177, 178, -1,
      178, 170, 187, -1,
      187, 170, 184, -1,
      188, 189, 190, -1,
      188, 190, 191, -1,
      191, 190, 192, -1,
      191, 192, 193, -1,
      193, 192, 194, -1,
      193, 194, 195, -1,
      195, 194, 196, -1,
      195, 196, 197, -1,
      197, 196, 198, -1,
      197, 198, 199, -1,
      199, 198, 184, -1,
      199, 184, 185, -1,
      200, 188, 201, -1,
      201, 188, 191, -1,
      201, 191, 202, -1,
      202, 191, 193, -1,
      202, 193, 203, -1,
      203, 193, 195, -1,
      203, 195, 204, -1,
      204, 195, 197, -1,
      204, 197, 205, -1,
      205, 197, 199, -1,
      205, 199, 186, -1,
      186, 199, 185, -1,
      186, 187, 205, -1,
      205, 187, 206, -1,
      205, 206, 204, -1,
      204, 206, 207, -1,
      204, 207, 203, -1,
      203, 207, 208, -1,
      203, 208, 202, -1,
      202, 208, 209, -1,
      202, 209, 201, -1,
      201, 209, 210, -1,
      201, 210, 200, -1,
      200, 210, 211, -1,
      187, 184, 206, -1,
      206, 184, 198, -1,
      206, 198, 207, -1,
      207, 198, 196, -1,
      207, 196, 208, -1,
      208, 196, 194, -1,
      208, 194, 209, -1,
      209, 194, 192, -1,
      209, 192, 210, -1,
      210, 192, 190, -1,
      210, 190, 211, -1,
      211, 190, 189, -1,
      155, 189, 154, -1,
      154, 189, 188, -1,
      154, 188, 152, -1,
      152, 188, 200, -1,
      152, 200, 153, -1,
      153, 200, 211, -1,
      211, 189, 153, -1,
      153, 189, 155, -1,
      212, 213, 214, -1,
      214, 213, 215, -1,
      216, 20, 217, -1,
      217, 20, 16, -1,
      217, 16, 218, -1,
      218, 16, 17, -1,
      218, 17, 219, -1,
      219, 17, 18, -1,
      18, 20, 219, -1,
      219, 20, 216, -1,
      216, 217, 220, -1,
      220, 217, 221, -1,
      220, 221, 222, -1,
      222, 221, 223, -1,
      222, 223, 224, -1,
      224, 223, 225, -1,
      224, 225, 226, -1,
      226, 225, 227, -1,
      226, 227, 228, -1,
      228, 227, 229, -1,
      228, 229, 230, -1,
      230, 229, 231, -1,
      217, 218, 221, -1,
      221, 218, 232, -1,
      221, 232, 223, -1,
      223, 232, 233, -1,
      223, 233, 225, -1,
      225, 233, 234, -1,
      225, 234, 227, -1,
      227, 234, 235, -1,
      227, 235, 229, -1,
      229, 235, 236, -1,
      229, 236, 231, -1,
      231, 236, 237, -1,
      238, 237, 236, -1,
      238, 236, 239, -1,
      239, 236, 235, -1,
      239, 235, 240, -1,
      240, 235, 234, -1,
      240, 234, 241, -1,
      241, 234, 233, -1,
      241, 233, 242, -1,
      242, 233, 232, -1,
      242, 232, 243, -1,
      243, 232, 218, -1,
      243, 218, 219, -1,
      230, 238, 228, -1,
      228, 238, 239, -1,
      228, 239, 226, -1,
      226, 239, 240, -1,
      226, 240, 224, -1,
      224, 240, 241, -1,
      224, 241, 222, -1,
      222, 241, 242, -1,
      222, 242, 220, -1,
      220, 242, 243, -1,
      220, 243, 216, -1,
      216, 243, 219, -1,
      244, 230, 245, -1,
      245, 230, 231, -1,
      245, 231, 246, -1,
      246, 231, 237, -1,
      246, 237, 247, -1,
      247, 237, 238, -1,
      238, 230, 247, -1,
      247, 230, 244, -1,
      248, 249, 250, -1,
      248, 250, 251, -1,
      251, 250, 252, -1,
      251, 252, 253, -1,
      253, 252, 254, -1,
      253, 254, 255, -1,
      255, 254, 256, -1,
      255, 256, 257, -1,
      257, 256, 258, -1,
      257, 258, 259, -1,
      259, 258, 244, -1,
      259, 244, 245, -1,
      260, 248, 261, -1,
      261, 248, 251, -1,
      261, 251, 262, -1,
      262, 251, 253, -1,
      262, 253, 263, -1,
      263, 253, 255, -1,
      263, 255, 264, -1,
      264, 255, 257, -1,
      264, 257, 265, -1,
      265, 257, 259, -1,
      265, 259, 246, -1,
      246, 259, 245, -1,
      246, 247, 265, -1,
      265, 247, 266, -1,
      265, 266, 264, -1,
      264, 266, 267, -1,
      264, 267, 263, -1,
      263, 267, 268, -1,
      263, 268, 262, -1,
      262, 268, 269, -1,
      262, 269, 261, -1,
      261, 269, 270, -1,
      261, 270, 260, -1,
      260, 270, 271, -1,
      247, 244, 266, -1,
      266, 244, 258, -1,
      266, 258, 267, -1,
      267, 258, 256, -1,
      267, 256, 268, -1,
      268, 256, 254, -1,
      268, 254, 269, -1,
      269, 254, 252, -1,
      269, 252, 270, -1,
      270, 252, 250, -1,
      270, 250, 271, -1,
      271, 250, 249, -1,
      215, 249, 214, -1,
      214, 249, 248, -1,
      214, 248, 212, -1,
      212, 248, 260, -1,
      212, 260, 213, -1,
      213, 260, 271, -1,
      271, 249, 213, -1,
      213, 249, 215, -1,
      272, 273, 274, -1,
      274, 273, 275, -1,
      276, 15, 277, -1,
      277, 15, 13, -1,
      277, 13, 278, -1,
      278, 13, 11, -1,
      278, 11, 279, -1,
      279, 11, 14, -1,
      14, 15, 279, -1,
      279, 15, 276, -1,
      280, 281, 282, -1,
      280, 282, 283, -1,
      283, 282, 284, -1,
      283, 284, 285, -1,
      285, 284, 286, -1,
      285, 286, 287, -1,
      287, 286, 288, -1,
      287, 288, 289, -1,
      289, 288, 290, -1,
      289, 290, 291, -1,
      291, 290, 276, -1,
      291, 276, 277, -1,
      292, 280, 293, -1,
      293, 280, 283, -1,
      293, 283, 294, -1,
      294, 283, 285, -1,
      294, 285, 295, -1,
      295, 285, 287, -1,
      295, 287, 296, -1,
      296, 287, 289, -1,
      296, 289, 297, -1,
      297, 289, 291, -1,
      297, 291, 278, -1,
      278, 291, 277, -1,
      278, 279, 297, -1,
      297, 279, 298, -1,
      297, 298, 296, -1,
      296, 298, 299, -1,
      296, 299, 295, -1,
      295, 299, 300, -1,
      295, 300, 294, -1,
      294, 300, 301, -1,
      294, 301, 293, -1,
      293, 301, 302, -1,
      293, 302, 292, -1,
      292, 302, 303, -1,
      279, 276, 298, -1,
      298, 276, 290, -1,
      298, 290, 299, -1,
      299, 290, 288, -1,
      299, 288, 300, -1,
      300, 288, 286, -1,
      300, 286, 301, -1,
      301, 286, 284, -1,
      301, 284, 302, -1,
      302, 284, 282, -1,
      302, 282, 303, -1,
      303, 282, 281, -1,
      304, 281, 305, -1,
      305, 281, 280, -1,
      305, 280, 306, -1,
      306, 280, 292, -1,
      306, 292, 307, -1,
      307, 292, 303, -1,
      303, 281, 307, -1,
      307, 281, 304, -1,
      304, 305, 308, -1,
      308, 305, 309, -1,
      308, 309, 310, -1,
      310, 309, 311, -1,
      310, 311, 312, -1,
      312, 311, 313, -1,
      312, 313, 314, -1,
      314, 313, 315, -1,
      314, 315, 316, -1,
      316, 315, 317, -1,
      316, 317, 318, -1,
      318, 317, 319, -1,
      305, 306, 309, -1,
      309, 306, 320, -1,
      309, 320, 311, -1,
      311, 320, 321, -1,
      311, 321, 313, -1,
      313, 321, 322, -1,
      313, 322, 315, -1,
      315, 322, 323, -1,
      315, 323, 317, -1,
      317, 323, 324, -1,
      317, 324, 319, -1,
      319, 324, 325, -1,
      326, 325, 324, -1,
      326, 324, 327, -1,
      327, 324, 323, -1,
      327, 323, 328, -1,
      328, 323, 322, -1,
      328, 322, 329, -1,
      329, 322, 321, -1,
      329, 321, 330, -1,
      330, 321, 320, -1,
      330, 320, 331, -1,
      331, 320, 306, -1,
      331, 306, 307, -1,
      318, 326, 316, -1,
      316, 326, 327, -1,
      316, 327, 314, -1,
      314, 327, 328, -1,
      314, 328, 312, -1,
      312, 328, 329, -1,
      312, 329, 310, -1,
      310, 329, 330, -1,
      310, 330, 308, -1,
      308, 330, 331, -1,
      308, 331, 304, -1,
      304, 331, 307, -1,
      272, 318, 273, -1,
      273, 318, 319, -1,
      273, 319, 275, -1,
      275, 319, 325, -1,
      275, 325, 274, -1,
      274, 325, 326, -1,
      326, 318, 274, -1,
      274, 318, 272, -1,
      332, 333, 334, -1,
      334, 333, 335, -1,
      10, 336, 7, -1,
      7, 336, 337, -1,
      7, 337, 9, -1,
      9, 337, 338, -1,
      9, 338, 12, -1,
      12, 338, 339, -1,
      10, 12, 336, -1,
      336, 12, 339, -1,
      340, 341, 342, -1,
      342, 341, 343, -1,
      342, 343, 344, -1,
      344, 343, 345, -1,
      344, 345, 346, -1,
      346, 345, 347, -1,
      346, 347, 348, -1,
      348, 347, 349, -1,
      348, 349, 350, -1,
      350, 349, 351, -1,
      350, 351, 336, -1,
      336, 351, 337, -1,
      341, 352, 343, -1,
      343, 352, 353, -1,
      343, 353, 345, -1,
      345, 353, 354, -1,
      345, 354, 347, -1,
      347, 354, 355, -1,
      347, 355, 349, -1,
      349, 355, 356, -1,
      349, 356, 351, -1,
      351, 356, 357, -1,
      351, 357, 337, -1,
      337, 357, 338, -1,
      339, 338, 357, -1,
      339, 357, 358, -1,
      358, 357, 356, -1,
      358, 356, 359, -1,
      359, 356, 355, -1,
      359, 355, 360, -1,
      360, 355, 354, -1,
      360, 354, 361, -1,
      361, 354, 353, -1,
      361, 353, 362, -1,
      362, 353, 352, -1,
      362, 352, 363, -1,
      336, 339, 350, -1,
      350, 339, 358, -1,
      350, 358, 348, -1,
      348, 358, 359, -1,
      348, 359, 346, -1,
      346, 359, 360, -1,
      346, 360, 344, -1,
      344, 360, 361, -1,
      344, 361, 342, -1,
      342, 361, 362, -1,
      342, 362, 340, -1,
      340, 362, 363, -1,
      340, 364, 341, -1,
      341, 364, 365, -1,
      341, 365, 352, -1,
      352, 365, 366, -1,
      352, 366, 363, -1,
      363, 366, 367, -1,
      340, 363, 364, -1,
      364, 363, 367, -1,
      365, 364, 368, -1,
      365, 368, 369, -1,
      369, 368, 370, -1,
      369, 370, 371, -1,
      371, 370, 372, -1,
      371, 372, 373, -1,
      373, 372, 374, -1,
      373, 374, 375, -1,
      375, 374, 376, -1,
      375, 376, 377, -1,
      377, 376, 378, -1,
      377, 378, 379, -1,
      366, 365, 380, -1,
      380, 365, 369, -1,
      380, 369, 381, -1,
      381, 369, 371, -1,
      381, 371, 382, -1,
      382, 371, 373, -1,
      382, 373, 383, -1,
      383, 373, 375, -1,
      383, 375, 384, -1,
      384, 375, 377, -1,
      384, 377, 385, -1,
      385, 377, 379, -1,
      385, 386, 384, -1,
      384, 386, 387, -1,
      384, 387, 383, -1,
      383, 387, 388, -1,
      383, 388, 382, -1,
      382, 388, 389, -1,
      382, 389, 381, -1,
      381, 389, 390, -1,
      381, 390, 380, -1,
      380, 390, 391, -1,
      380, 391, 366, -1,
      366, 391, 367, -1,
      386, 378, 387, -1,
      387, 378, 376, -1,
      387, 376, 388, -1,
      388, 376, 374, -1,
      388, 374, 389, -1,
      389, 374, 372, -1,
      389, 372, 390, -1,
      390, 372, 370, -1,
      390, 370, 391, -1,
      391, 370, 368, -1,
      391, 368, 367, -1,
      367, 368, 364, -1,
      378, 334, 379, -1,
      379, 334, 335, -1,
      379, 335, 385, -1,
      385, 335, 333, -1,
      385, 333, 386, -1,
      386, 333, 332, -1,
      378, 386, 334, -1,
      334, 386, 332, -1,
      392, 393, 394, -1,
      394, 393, 395, -1,
      6, 396, 3, -1,
      3, 396, 397, -1,
      3, 397, 5, -1,
      5, 397, 398, -1,
      5, 398, 8, -1,
      8, 398, 399, -1,
      6, 8, 396, -1,
      396, 8, 399, -1,
      400, 401, 402, -1,
      402, 401, 403, -1,
      402, 403, 404, -1,
      404, 403, 405, -1,
      404, 405, 406, -1,
      406, 405, 407, -1,
      406, 407, 408, -1,
      408, 407, 409, -1,
      408, 409, 410, -1,
      410, 409, 411, -1,
      410, 411, 396, -1,
      396, 411, 397, -1,
      401, 412, 403, -1,
      403, 412, 413, -1,
      403, 413, 405, -1,
      405, 413, 414, -1,
      405, 414, 407, -1,
      407, 414, 415, -1,
      407, 415, 409, -1,
      409, 415, 416, -1,
      409, 416, 411, -1,
      411, 416, 417, -1,
      411, 417, 397, -1,
      397, 417, 398, -1,
      399, 398, 417, -1,
      399, 417, 418, -1,
      418, 417, 416, -1,
      418, 416, 419, -1,
      419, 416, 415, -1,
      419, 415, 420, -1,
      420, 415, 414, -1,
      420, 414, 421, -1,
      421, 414, 413, -1,
      421, 413, 422, -1,
      422, 413, 412, -1,
      422, 412, 423, -1,
      396, 399, 410, -1,
      410, 399, 418, -1,
      410, 418, 408, -1,
      408, 418, 419, -1,
      408, 419, 406, -1,
      406, 419, 420, -1,
      406, 420, 404, -1,
      404, 420, 421, -1,
      404, 421, 402, -1,
      402, 421, 422, -1,
      402, 422, 400, -1,
      400, 422, 423, -1,
      400, 424, 401, -1,
      401, 424, 425, -1,
      401, 425, 412, -1,
      412, 425, 426, -1,
      412, 426, 423, -1,
      423, 426, 427, -1,
      400, 423, 424, -1,
      424, 423, 427, -1,
      425, 424, 428, -1,
      425, 428, 429, -1,
      429, 428, 430, -1,
      429, 430, 431, -1,
      431, 430, 432, -1,
      431, 432, 433, -1,
      433, 432, 434, -1,
      433, 434, 435, -1,
      435, 434, 436, -1,
      435, 436, 437, -1,
      437, 436, 438, -1,
      437, 438, 439, -1,
      426, 425, 440, -1,
      440, 425, 429, -1,
      440, 429, 441, -1,
      441, 429, 431, -1,
      441, 431, 442, -1,
      442, 431, 433, -1,
      442, 433, 443, -1,
      443, 433, 435, -1,
      443, 435, 444, -1,
      444, 435, 437, -1,
      444, 437, 445, -1,
      445, 437, 439, -1,
      445, 446, 444, -1,
      444, 446, 447, -1,
      444, 447, 443, -1,
      443, 447, 448, -1,
      443, 448, 442, -1,
      442, 448, 449, -1,
      442, 449, 441, -1,
      441, 449, 450, -1,
      441, 450, 440, -1,
      440, 450, 451, -1,
      440, 451, 426, -1,
      426, 451, 427, -1,
      446, 438, 447, -1,
      447, 438, 436, -1,
      447, 436, 448, -1,
      448, 436, 434, -1,
      448, 434, 449, -1,
      449, 434, 432, -1,
      449, 432, 450, -1,
      450, 432, 430, -1,
      450, 430, 451, -1,
      451, 430, 428, -1,
      451, 428, 427, -1,
      427, 428, 424, -1,
      438, 394, 439, -1,
      439, 394, 395, -1,
      439, 395, 445, -1,
      445, 395, 393, -1,
      445, 393, 446, -1,
      446, 393, 392, -1,
      438, 446, 394, -1,
      394, 446, 392, -1,
      452, 453, 454, -1,
      454, 453, 455, -1,
      2, 456, 1, -1,
      1, 456, 457, -1,
      1, 457, 0, -1,
      0, 457, 458, -1,
      0, 458, 4, -1,
      4, 458, 459, -1,
      2, 4, 456, -1,
      456, 4, 459, -1,
      460, 461, 462, -1,
      462, 461, 463, -1,
      462, 463, 464, -1,
      464, 463, 465, -1,
      464, 465, 466, -1,
      466, 465, 467, -1,
      466, 467, 468, -1,
      468, 467, 469, -1,
      468, 469, 470, -1,
      470, 469, 471, -1,
      470, 471, 456, -1,
      456, 471, 457, -1,
      461, 472, 463, -1,
      463, 472, 473, -1,
      463, 473, 465, -1,
      465, 473, 474, -1,
      465, 474, 467, -1,
      467, 474, 475, -1,
      467, 475, 469, -1,
      469, 475, 476, -1,
      469, 476, 471, -1,
      471, 476, 477, -1,
      471, 477, 457, -1,
      457, 477, 458, -1,
      459, 458, 477, -1,
      459, 477, 478, -1,
      478, 477, 476, -1,
      478, 476, 479, -1,
      479, 476, 475, -1,
      479, 475, 480, -1,
      480, 475, 474, -1,
      480, 474, 481, -1,
      481, 474, 473, -1,
      481, 473, 482, -1,
      482, 473, 472, -1,
      482, 472, 483, -1,
      456, 459, 470, -1,
      470, 459, 478, -1,
      470, 478, 468, -1,
      468, 478, 479, -1,
      468, 479, 466, -1,
      466, 479, 480, -1,
      466, 480, 464, -1,
      464, 480, 481, -1,
      464, 481, 462, -1,
      462, 481, 482, -1,
      462, 482, 460, -1,
      460, 482, 483, -1,
      460, 484, 461, -1,
      461, 484, 485, -1,
      461, 485, 472, -1,
      472, 485, 486, -1,
      472, 486, 483, -1,
      483, 486, 487, -1,
      460, 483, 484, -1,
      484, 483, 487, -1,
      485, 484, 488, -1,
      485, 488, 489, -1,
      489, 488, 490, -1,
      489, 490, 491, -1,
      491, 490, 492, -1,
      491, 492, 493, -1,
      493, 492, 494, -1,
      493, 494, 495, -1,
      495, 494, 496, -1,
      495, 496, 497, -1,
      497, 496, 498, -1,
      497, 498, 499, -1,
      486, 485, 500, -1,
      500, 485, 489, -1,
      500, 489, 501, -1,
      501, 489, 491, -1,
      501, 491, 502, -1,
      502, 491, 493, -1,
      502, 493, 503, -1,
      503, 493, 495, -1,
      503, 495, 504, -1,
      504, 495, 497, -1,
      504, 497, 505, -1,
      505, 497, 499, -1,
      505, 506, 504, -1,
      504, 506, 507, -1,
      504, 507, 503, -1,
      503, 507, 508, -1,
      503, 508, 502, -1,
      502, 508, 509, -1,
      502, 509, 501, -1,
      501, 509, 510, -1,
      501, 510, 500, -1,
      500, 510, 511, -1,
      500, 511, 486, -1,
      486, 511, 487, -1,
      506, 498, 507, -1,
      507, 498, 496, -1,
      507, 496, 508, -1,
      508, 496, 494, -1,
      508, 494, 509, -1,
      509, 494, 492, -1,
      509, 492, 510, -1,
      510, 492, 490, -1,
      510, 490, 511, -1,
      511, 490, 488, -1,
      511, 488, 487, -1,
      487, 488, 484, -1,
      498, 454, 499, -1,
      499, 454, 455, -1,
      499, 455, 505, -1,
      505, 455, 453, -1,
      505, 453, 506, -1,
      506, 453, 452, -1,
      498, 506, 454, -1,
      454, 506, 452, -1,
    ]
  }
}

Shape {
  appearance Appearance {
    material Material {
      diffuseColor 1.0000 1.0000 1.0000
      specularColor 0.8784 0.8784 0.8784
      ambientIntensity 0.2
      transparency 0.0000
      shininess 0.5
    }
  }
  geometry IndexedFaceSet {
    ccw TRUE
    solid FALSE
    coord DEF co Coordinate {
      point [
        0.192618 0.012963 0.049213,
        0.147967 0.012963 0.049213,
        0.192618 0.118110 0.049213,
        0.208462 0.118110 0.049213,
        0.208462 0.000000 0.049213,
        0.077681 0.106587 0.049213,
        0.052138 0.017912 0.049213,
        0.063325 0.104722 0.049213,
        0.050021 0.019085 0.049213,
        0.050021 0.099025 0.049213,
        0.050021 0.114869 0.049213,
        0.089310 0.105284 0.049213,
        0.098104 0.102106 0.049213,
        0.106473 0.096496 0.049213,
        0.113572 0.088583 0.049213,
        0.118392 0.079447 0.049213,
        0.121517 0.066659 0.049213,
        0.122040 0.057795 0.049213,
        0.120846 0.045018 0.049213,
        0.117640 0.034859 0.049213,
        0.080337 0.011523 0.049213,
        0.107237 0.020861 0.049213,
        0.091297 0.012745 0.049213,
        0.099984 0.015938 0.049213,
        0.112730 0.026655 0.049213,
        0.064659 0.013263 0.049213,
        0.108583 0.004030 0.049213,
        0.147967 0.000000 0.049213,
        0.097077 0.000072 0.049213,
        0.089452 -0.000720 0.049213,
        0.124726 0.098070 0.049213,
        0.114459 0.108014 0.049213,
        0.103429 0.114501 0.049213,
        0.090477 0.118439 0.049213,
        0.118208 0.010228 0.049213,
        0.127045 0.019621 0.049213,
        0.133287 0.030893 0.049213,
        0.136789 0.043420 0.049213,
        0.137884 0.056827 0.049213,
        0.136191 0.073593 0.049213,
        0.131652 0.087021 0.049213,
        0.077816 0.119551 0.049213,
        0.063677 0.118575 0.049213,
        0.050021 0.006122 0.049213,
        0.062611 0.000952 0.049213,
        0.074546 -0.000720 0.049213,
        0.079290 -0.001385 0.049213,
        0.082520 -0.001441 0.049213,
        -0.033520 0.118110 0.049213,
        0.026976 0.118110 0.049213,
        -0.163153 -0.000000 0.049213,
        -0.148613 0.032371 0.049213,
        -0.141840 0.021807 0.049213,
        -0.207805 0.118110 0.049213,
        -0.223649 0.118110 0.049213,
        -0.147131 0.090155 0.049213,
        -0.152076 0.078633 0.049213,
        0.011131 0.105147 0.049213,
        0.011131 0.066257 0.049213,
        -0.033520 0.105147 0.049213,
        -0.030639 0.066257 0.049213,
        -0.132118 0.012499 0.049213,
        -0.119786 0.005332 0.049213,
        -0.106176 0.001276 0.049213,
        -0.030639 0.053294 0.049213,
        -0.059446 -0.000000 0.049213,
        -0.059446 0.118110 0.049213,
        -0.123667 0.111435 0.049213,
        -0.135365 0.103823 0.049213,
        -0.139963 0.099559 0.049213,
        -0.154289 0.066325 0.049213,
        -0.154511 0.060541 0.049213,
        -0.152854 0.044734 0.049213,
        -0.092778 0.118110 0.049213,
        -0.109841 0.116286 0.049213,
        -0.269741 -0.000000 0.049213,
        -0.252456 -0.000000 0.049213,
        -0.091562 -0.000000 0.049213,
        0.011131 0.053294 0.049213,
        0.011131 0.012963 0.049213,
        -0.036401 0.012963 0.049213,
        -0.036401 -0.000000 0.049213,
        0.026976 0.000000 0.049213,
        -0.240506 0.033128 0.049213,
        -0.191713 0.033128 0.049213,
        -0.180437 -0.000000 0.049213,
        -0.195696 0.046092 0.053150,
        -0.191713 0.033128 0.053150,
        -0.235194 0.046092 0.053150,
        -0.240506 0.033128 0.053150,
        -0.213319 0.095424 0.053150,
        -0.207805 0.118110 0.053150,
        -0.163153 -0.000000 0.053150,
        -0.180437 -0.000000 0.053150,
        -0.214455 0.099521 0.053150,
        -0.215209 0.103707 0.053150,
        -0.223649 0.118110 0.053150,
        -0.215592 0.103707 0.053150,
        -0.216362 0.099533 0.053150,
        -0.217415 0.095424 0.053150,
        -0.269741 -0.000000 0.053150,
        -0.252456 -0.000000 0.053150,
        -0.217415 0.095424 0.049213,
        -0.216362 0.099533 0.049213,
        -0.215592 0.103707 0.049213,
        -0.215209 0.103707 0.049213,
        -0.214455 0.099521 0.049213,
        -0.213319 0.095424 0.049213,
        -0.195696 0.046092 0.049213,
        -0.235194 0.046092 0.049213,
        -0.092778 0.118110 0.053150,
        -0.059446 0.118110 0.053150,
        -0.109841 0.116286 0.053150,
        -0.123667 0.111435 0.053150,
        -0.135365 0.103823 0.053150,
        -0.139963 0.099559 0.053150,
        -0.147131 0.090155 0.053150,
        -0.152076 0.078633 0.053150,
        -0.154289 0.066325 0.053150,
        -0.154511 0.060541 0.053150,
        -0.152854 0.044734 0.053150,
        -0.148613 0.032371 0.053150,
        -0.141840 0.021807 0.053150,
        -0.132118 0.012499 0.053150,
        -0.119786 0.005332 0.053150,
        -0.106176 0.001276 0.053150,
        -0.091562 -0.000000 0.053150,
        -0.059446 -0.000000 0.053150,
        -0.138667 0.060203 0.053150,
        -0.137664 0.071957 0.053150,
        -0.134907 0.081283 0.053150,
        -0.130841 0.088532 0.053150,
        -0.125113 0.094637 0.053150,
        -0.116497 0.100221 0.053150,
        -0.106759 0.103645 0.053150,
        -0.092710 0.105147 0.053150,
        -0.075291 0.105147 0.053150,
        -0.075291 0.012963 0.053150,
        -0.092057 0.012963 0.053150,
        -0.104498 0.014119 0.053150,
        -0.114459 0.017226 0.053150,
        -0.122414 0.021931 0.053150,
        -0.129024 0.028434 0.053150,
        -0.134075 0.036600 0.053150,
        -0.137182 0.045878 0.053150,
        -0.092057 0.012963 0.049213,
        -0.075291 0.012963 0.049213,
        -0.104498 0.014119 0.049213,
        -0.114459 0.017226 0.049213,
        -0.122414 0.021931 0.049213,
        -0.129024 0.028434 0.049213,
        -0.134075 0.036600 0.049213,
        -0.137182 0.045878 0.049213,
        -0.138667 0.060203 0.049213,
        -0.137664 0.071957 0.049213,
        -0.134907 0.081283 0.049213,
        -0.130841 0.088532 0.049213,
        -0.125113 0.094637 0.049213,
        -0.116497 0.100221 0.049213,
        -0.106759 0.103645 0.049213,
        -0.092710 0.105147 0.049213,
        -0.075291 0.105147 0.049213,
        0.026976 0.118110 0.053150,
        0.026976 0.000000 0.053150,
        -0.033520 0.118110 0.053150,
        -0.033520 0.105147 0.053150,
        0.011131 0.105147 0.053150,
        0.011131 0.066257 0.053150,
        -0.030639 0.066257 0.053150,
        -0.030639 0.053294 0.053150,
        0.011131 0.053294 0.053150,
        0.011131 0.012963 0.053150,
        -0.036401 0.012963 0.053150,
        -0.036401 -0.000000 0.053150,
        0.082520 -0.001441 0.053150,
        0.097077 0.000072 0.053150,
        0.108583 0.004030 0.053150,
        0.118208 0.010228 0.053150,
        0.127045 0.019621 0.053150,
        0.133287 0.030893 0.053150,
        0.136789 0.043420 0.053150,
        0.137884 0.056827 0.053150,
        0.136191 0.073593 0.053150,
        0.131652 0.087021 0.053150,
        0.124726 0.098070 0.053150,
        0.114459 0.108014 0.053150,
        0.103429 0.114501 0.053150,
        0.090477 0.118439 0.053150,
        0.077816 0.119551 0.053150,
        0.063677 0.118575 0.053150,
        0.050021 0.114869 0.053150,
        0.050021 0.099025 0.053150,
        0.063325 0.104722 0.053150,
        0.077681 0.106587 0.053150,
        0.089310 0.105284 0.053150,
        0.098104 0.102106 0.053150,
        0.106473 0.096496 0.053150,
        0.113572 0.088583 0.053150,
        0.118392 0.079447 0.053150,
        0.121517 0.066659 0.053150,
        0.122040 0.057795 0.053150,
        0.120846 0.045018 0.053150,
        0.117640 0.034859 0.053150,
        0.112730 0.026655 0.053150,
        0.107237 0.020861 0.053150,
        0.099984 0.015938 0.053150,
        0.091297 0.012745 0.053150,
        0.080337 0.011523 0.053150,
        0.064659 0.013263 0.053150,
        0.052138 0.017912 0.053150,
        0.050021 0.019085 0.053150,
        0.050021 0.006122 0.053150,
        0.062611 0.000952 0.053150,
        0.079290 -0.001385 0.053150,
        0.208462 0.118110 0.053150,
        0.208462 0.000000 0.053150,
        0.192618 0.118110 0.053150,
        0.192618 0.012963 0.053150,
        0.147967 0.012963 0.053150,
        0.147967 0.000000 0.053150,
      ]
    }
    coordIndex [
      86, 87, 88, -1,
      88, 87, 89, -1,
      90, 91, 86, -1,
      86, 91, 92, -1,
      86, 92, 87, -1,
      87, 92, 93, -1,
      90, 94, 91, -1,
      91, 94, 95, -1,
      91, 95, 96, -1,
      96, 95, 97, -1,
      96, 97, 98, -1,
      98, 99, 96, -1,
      96, 99, 88, -1,
      96, 88, 100, -1,
      100, 88, 89, -1,
      100, 89, 101, -1,
      89, 83, 101, -1,
      101, 83, 76, -1,
      87, 84, 89, -1,
      89, 84, 83, -1,
      93, 85, 87, -1,
      87, 85, 84, -1,
      92, 50, 93, -1,
      93, 50, 85, -1,
      91, 53, 92, -1,
      92, 53, 50, -1,
      96, 54, 91, -1,
      91, 54, 53, -1,
      100, 75, 96, -1,
      96, 75, 54, -1,
      100, 101, 75, -1,
      75, 101, 76, -1,
      102, 99, 98, -1,
      102, 98, 103, -1,
      103, 98, 97, -1,
      103, 97, 104, -1,
      95, 105, 97, -1,
      97, 105, 104, -1,
      105, 95, 94, -1,
      105, 94, 106, -1,
      106, 94, 90, -1,
      106, 90, 107, -1,
      86, 108, 90, -1,
      90, 108, 107, -1,
      88, 109, 86, -1,
      86, 109, 108, -1,
      102, 109, 99, -1,
      99, 109, 88, -1,
      110, 73, 111, -1,
      111, 73, 66, -1,
      73, 110, 112, -1,
      73, 112, 74, -1,
      74, 112, 113, -1,
      74, 113, 67, -1,
      67, 113, 114, -1,
      67, 114, 68, -1,
      68, 114, 115, -1,
      68, 115, 69, -1,
      69, 115, 116, -1,
      69, 116, 55, -1,
      55, 116, 117, -1,
      55, 117, 56, -1,
      56, 117, 118, -1,
      56, 118, 70, -1,
      70, 118, 119, -1,
      70, 119, 71, -1,
      71, 119, 120, -1,
      71, 120, 72, -1,
      72, 120, 121, -1,
      72, 121, 51, -1,
      51, 121, 122, -1,
      51, 122, 52, -1,
      52, 122, 123, -1,
      52, 123, 61, -1,
      61, 123, 124, -1,
      61, 124, 62, -1,
      62, 124, 125, -1,
      62, 125, 63, -1,
      63, 125, 126, -1,
      63, 126, 77, -1,
      127, 65, 126, -1,
      126, 65, 77, -1,
      127, 111, 65, -1,
      65, 111, 66, -1,
      120, 119, 128, -1,
      128, 119, 118, -1,
      128, 118, 129, -1,
      129, 118, 117, -1,
      129, 117, 130, -1,
      130, 117, 116, -1,
      130, 116, 131, -1,
      131, 116, 115, -1,
      131, 115, 132, -1,
      132, 115, 114, -1,
      132, 114, 133, -1,
      133, 114, 113, -1,
      133, 113, 134, -1,
      134, 113, 112, -1,
      134, 112, 135, -1,
      135, 112, 110, -1,
      135, 110, 136, -1,
      136, 110, 111, -1,
      136, 111, 137, -1,
      137, 111, 127, -1,
      137, 127, 138, -1,
      138, 127, 126, -1,
      138, 126, 139, -1,
      139, 126, 125, -1,
      139, 125, 140, -1,
      140, 125, 124, -1,
      140, 124, 141, -1,
      141, 124, 123, -1,
      141, 123, 142, -1,
      142, 123, 122, -1,
      142, 122, 143, -1,
      143, 122, 121, -1,
      143, 121, 144, -1,
      144, 121, 120, -1,
      144, 120, 128, -1,
      138, 145, 137, -1,
      137, 145, 146, -1,
      145, 138, 139, -1,
      145, 139, 147, -1,
      147, 139, 140, -1,
      147, 140, 148, -1,
      148, 140, 141, -1,
      148, 141, 149, -1,
      149, 141, 142, -1,
      149, 142, 150, -1,
      150, 142, 143, -1,
      150, 143, 151, -1,
      151, 143, 144, -1,
      151, 144, 152, -1,
      152, 144, 128, -1,
      152, 128, 153, -1,
      153, 128, 129, -1,
      153, 129, 154, -1,
      154, 129, 130, -1,
      154, 130, 155, -1,
      155, 130, 131, -1,
      155, 131, 156, -1,
      156, 131, 132, -1,
      156, 132, 157, -1,
      157, 132, 133, -1,
      157, 133, 158, -1,
      158, 133, 134, -1,
      158, 134, 159, -1,
      159, 134, 135, -1,
      159, 135, 160, -1,
      136, 161, 135, -1,
      135, 161, 160, -1,
      146, 161, 137, -1,
      137, 161, 136, -1,
      162, 49, 163, -1,
      163, 49, 82, -1,
      164, 48, 162, -1,
      162, 48, 49, -1,
      165, 59, 164, -1,
      164, 59, 48, -1,
      166, 57, 165, -1,
      165, 57, 59, -1,
      167, 58, 166, -1,
      166, 58, 57, -1,
      168, 60, 167, -1,
      167, 60, 58, -1,
      169, 64, 168, -1,
      168, 64, 60, -1,
      170, 78, 169, -1,
      169, 78, 64, -1,
      171, 79, 170, -1,
      170, 79, 78, -1,
      172, 80, 171, -1,
      171, 80, 79, -1,
      173, 81, 172, -1,
      172, 81, 80, -1,
      173, 163, 81, -1,
      81, 163, 82, -1,
      163, 173, 172, -1,
      172, 171, 163, -1,
      163, 171, 170, -1,
      163, 170, 162, -1,
      165, 164, 166, -1,
      166, 164, 162, -1,
      166, 162, 167, -1,
      167, 162, 170, -1,
      167, 170, 168, -1,
      168, 170, 169, -1,
      29, 47, 174, -1,
      29, 174, 28, -1,
      174, 175, 28, -1,
      28, 175, 176, -1,
      28, 176, 26, -1,
      26, 176, 177, -1,
      26, 177, 34, -1,
      34, 177, 178, -1,
      34, 178, 35, -1,
      35, 178, 179, -1,
      35, 179, 36, -1,
      36, 179, 180, -1,
      36, 180, 37, -1,
      37, 180, 181, -1,
      37, 181, 38, -1,
      38, 181, 182, -1,
      38, 182, 39, -1,
      39, 182, 183, -1,
      39, 183, 40, -1,
      40, 183, 184, -1,
      40, 184, 30, -1,
      30, 184, 185, -1,
      30, 185, 31, -1,
      31, 185, 186, -1,
      31, 186, 32, -1,
      32, 186, 187, -1,
      32, 187, 33, -1,
      33, 187, 188, -1,
      33, 188, 41, -1,
      41, 188, 189, -1,
      41, 189, 42, -1,
      42, 189, 190, -1,
      42, 190, 10, -1,
      191, 9, 190, -1,
      190, 9, 10, -1,
      9, 191, 192, -1,
      9, 192, 7, -1,
      7, 192, 193, -1,
      7, 193, 5, -1,
      5, 193, 194, -1,
      5, 194, 11, -1,
      11, 194, 195, -1,
      11, 195, 12, -1,
      12, 195, 196, -1,
      12, 196, 13, -1,
      13, 196, 197, -1,
      13, 197, 14, -1,
      14, 197, 198, -1,
      14, 198, 15, -1,
      15, 198, 199, -1,
      15, 199, 16, -1,
      16, 199, 200, -1,
      16, 200, 17, -1,
      17, 200, 201, -1,
      17, 201, 18, -1,
      18, 201, 202, -1,
      18, 202, 19, -1,
      19, 202, 203, -1,
      19, 203, 24, -1,
      24, 203, 204, -1,
      24, 204, 21, -1,
      21, 204, 205, -1,
      21, 205, 23, -1,
      23, 205, 206, -1,
      23, 206, 22, -1,
      22, 206, 207, -1,
      22, 207, 20, -1,
      20, 207, 208, -1,
      20, 208, 25, -1,
      25, 208, 209, -1,
      25, 209, 6, -1,
      6, 209, 210, -1,
      6, 210, 8, -1,
      211, 43, 210, -1,
      210, 43, 8, -1,
      44, 43, 212, -1,
      212, 43, 211, -1,
      44, 212, 45, -1,
      45, 212, 213, -1,
      45, 213, 46, -1,
      46, 213, 174, -1,
      46, 174, 47, -1,
      206, 174, 207, -1,
      207, 174, 213, -1,
      207, 213, 208, -1,
      208, 213, 212, -1,
      208, 212, 209, -1,
      209, 212, 211, -1,
      209, 211, 210, -1,
      191, 190, 192, -1,
      192, 190, 189, -1,
      192, 189, 193, -1,
      193, 189, 188, -1,
      193, 188, 194, -1,
      194, 188, 187, -1,
      194, 187, 195, -1,
      195, 187, 186, -1,
      195, 186, 196, -1,
      196, 186, 185, -1,
      196, 185, 197, -1,
      197, 185, 184, -1,
      197, 184, 198, -1,
      198, 184, 183, -1,
      198, 183, 199, -1,
      199, 183, 182, -1,
      199, 182, 200, -1,
      200, 182, 181, -1,
      200, 181, 201, -1,
      201, 181, 180, -1,
      201, 180, 202, -1,
      202, 180, 179, -1,
      202, 179, 203, -1,
      203, 179, 178, -1,
      203, 178, 204, -1,
      204, 178, 177, -1,
      204, 177, 205, -1,
      205, 177, 176, -1,
      205, 176, 206, -1,
      206, 176, 175, -1,
      206, 175, 174, -1,
      214, 3, 215, -1,
      215, 3, 4, -1,
      216, 2, 214, -1,
      214, 2, 3, -1,
      217, 0, 216, -1,
      216, 0, 2, -1,
      218, 1, 217, -1,
      217, 1, 0, -1,
      219, 27, 218, -1,
      218, 27, 1, -1,
      219, 215, 27, -1,
      27, 215, 4, -1,
      216, 214, 217, -1,
      217, 214, 215, -1,
      217, 215, 218, -1,
      218, 215, 219, -1,
    ]
  }
}

Shape {
  appearance Appearance {
    material Material {
      diffuseColor 0.1098 0.1098 0.1098
      specularColor 0.0784 0.0784 0.0784
      ambientIntensity 0.2
      transparency 0.0000
      shininess 0.5
    }
  }
  geometry IndexedFaceSet {
    ccw TRUE
    solid FALSE
    coord DEF co Coordinate {
      point [
        -0.217415 0.095424 0.049213,
        -0.216362 0.099533 0.049213,
        -0.215592 0.103707 0.049213,
        -0.215209 0.103707 0.049213,
        -0.214455 0.099521 0.049213,
        -0.213319 0.095424 0.049213,
        -0.195696 0.046092 0.049213,
        -0.235194 0.046092 0.049213,
        -0.092057 0.012963 0.049213,
        -0.075291 0.012963 0.049213,
        -0.104498 0.014119 0.049213,
        -0.114459 0.017226 0.049213,
        -0.122414 0.021931 0.049213,
        -0.129024 0.028434 0.049213,
        -0.134075 0.036600 0.049213,
        -0.137182 0.045878 0.049213,
        -0.138667 0.060203 0.049213,
        -0.137664 0.071957 0.049213,
        -0.134907 0.081283 0.049213,
        -0.130841 0.088532 0.049213,
        -0.125113 0.094637 0.049213,
        -0.116497 0.100221 0.049213,
        -0.106759 0.103645 0.049213,
        -0.092710 0.105147 0.049213,
        -0.075291 0.105147 0.049213,
      ]
    }
    coordIndex [
      6, 7, 5, -1,
      5, 7, 0, -1,
      5, 0, 4, -1,
      4, 0, 1, -1,
      4, 1, 3, -1,
      3, 1, 2, -1,
      23, 24, 9, -1,
      15, 16, 23, -1,
      15, 23, 14, -1,
      16, 17, 23, -1,
      23, 17, 18, -1,
      23, 18, 22, -1,
      9, 8, 23, -1,
      23, 8, 10, -1,
      23, 10, 11, -1,
      19, 20, 18, -1,
      18, 20, 21, -1,
      18, 21, 22, -1,
      11, 12, 23, -1,
      23, 12, 13, -1,
      23, 13, 14, -1,
    ]
  }
}
