#VRML V2.0 utf8

Shape {
  appearance Appearance {
    material Material {
      diffuseColor 0.2510 0.2510 0.2510
      specularColor 0.1255 0.1255 0.1255
      ambientIntensity 0.2
      transparency 0.0000
      shininess 0.5
    }
  }
  geometry IndexedFaceSet {
    ccw TRUE
    solid FALSE
    coord DEF co Coordinate {
      point [
        0.629921 0.334646 0.007874,
        0.629921 0.118110 0.007874,
        0.629528 0.118109 0.007874,
        0.037461 -0.014251 0.007874,
        0.037461 -0.022893 0.007874,
        0.029779 -0.027454 0.007874,
        0.045854 -0.026339 0.007874,
        0.046330 0.042841 0.007874,
        0.038872 -0.015033 0.007874,
        0.055901 0.044084 0.007874,
        0.063654 0.043213 0.007874,
        0.069548 0.041086 0.007874,
        0.074998 0.037440 0.007874,
        0.079753 0.032191 0.007874,
        0.085473 0.011556 0.007874,
        0.084676 0.003031 0.007874,
        0.082537 -0.003741 0.007874,
        0.065016 -0.018469 0.007874,
        0.057671 -0.019292 0.007874,
        0.070753 -0.016356 0.007874,
        0.075585 -0.013099 0.007874,
        0.079280 -0.009201 0.007874,
        0.047219 -0.018132 0.007874,
        0.143088 -0.026974 0.007874,
        0.063757 -0.027454 0.007874,
        0.102758 -0.026974 0.007874,
        0.068830 -0.026928 0.007874,
        0.076462 -0.024302 0.007874,
        0.082999 0.026111 0.007874,
        0.085098 0.017682 0.007874,
        0.132526 0.051766 0.007874,
        0.029779 0.334646 0.007874,
        0.432677 0.334252 0.007874,
        0.629528 0.334252 0.007874,
        0.037461 0.049606 0.007874,
        0.037461 0.039043 0.007874,
        0.082796 -0.020257 0.007874,
        0.088710 -0.014030 0.007874,
        0.102758 -0.018332 0.007874,
        0.092905 -0.006543 0.007874,
        0.132526 -0.018332 0.007874,
        0.091880 0.031027 0.007874,
        0.087265 0.038389 0.007874,
        0.080157 0.045225 0.007874,
        0.072678 0.049530 0.007874,
        0.063900 0.052080 0.007874,
        0.095275 0.001791 0.007874,
        0.096036 0.010911 0.007874,
        0.094904 0.022105 0.007874,
        0.055991 0.052726 0.007874,
        0.046565 0.052076 0.007874,
        0.629528 -0.118109 0.007874,
        0.629921 -0.118110 0.007874,
        0.629528 -0.334252 0.007874,
        0.629921 -0.334646 0.007874,
        0.432677 -0.334252 0.007874,
        0.053811 -0.027454 0.007874,
        0.056974 -0.027898 0.007874,
        0.029779 -0.334646 0.007874,
        0.059127 -0.027935 0.007874,
        0.432677 -0.027454 0.007874,
        0.143088 0.051766 0.007874,
        -0.020154 -0.026974 0.007874,
        0.022097 -0.026974 0.007874,
        -0.104655 -0.026974 0.007874,
        -0.094962 -0.005393 0.007874,
        -0.090446 -0.012436 0.007874,
        0.022097 0.051766 0.007874,
        -0.083965 -0.018642 0.007874,
        -0.075744 -0.023419 0.007874,
        -0.066671 -0.026124 0.007874,
        -0.629528 0.118109 0.007874,
        -0.629921 0.118110 0.007874,
        -0.629528 0.334252 0.007874,
        -0.629921 0.334646 0.007874,
        -0.432677 0.334252 0.007874,
        -0.018233 0.051766 0.007874,
        -0.134423 0.051766 0.007874,
        -0.144985 0.051766 0.007874,
        -0.432677 -0.027454 0.007874,
        0.011535 0.043124 0.007874,
        0.011535 0.017197 0.007874,
        -0.018233 0.043124 0.007874,
        -0.016313 0.017197 0.007874,
        -0.035518 0.051766 0.007874,
        -0.016313 0.008555 0.007874,
        0.011535 0.008555 0.007874,
        0.011535 -0.018332 0.007874,
        -0.020154 -0.018332 0.007874,
        -0.035518 -0.026974 0.007874,
        -0.056928 -0.026974 0.007874,
        -0.069114 0.050550 0.007874,
        -0.078327 0.047315 0.007874,
        -0.086897 0.041571 0.007874,
        -0.175713 -0.026974 0.007874,
        -0.164191 -0.026974 0.007874,
        -0.086979 0.041499 0.007874,
        -0.092547 0.035325 0.007874,
        -0.096207 0.028553 0.007874,
        -0.057738 0.051766 0.007874,
        -0.098322 0.020795 0.007874,
        -0.098894 0.013386 0.007874,
        -0.097789 0.002848 0.007874,
        -0.156224 -0.004889 0.007874,
        -0.123695 -0.004889 0.007874,
        -0.116178 -0.026974 0.007874,
        -0.629921 -0.334646 0.007874,
        -0.629921 -0.118110 0.007874,
        -0.629528 -0.118109 0.007874,
        -0.432677 -0.334252 0.007874,
        -0.629528 -0.334252 0.007874,
        -0.629921 0.334646 0.228346,
        -0.629921 0.118110 0.228346,
        -0.629528 0.118109 0.228346,
        0.629921 -0.118110 0.228346,
        0.629528 -0.118109 0.228346,
        0.629921 -0.334646 0.228346,
        0.629528 -0.334252 0.228346,
        0.432677 0.334252 0.228346,
        -0.432677 0.334252 0.228346,
        0.432677 -0.334252 0.228346,
        -0.432677 -0.334252 0.228346,
        -0.629921 -0.334646 0.228346,
        -0.629528 -0.334252 0.228346,
        -0.629921 -0.118110 0.228346,
        -0.629528 -0.118109 0.228346,
        0.629528 0.118109 0.228346,
        0.629921 0.118110 0.228346,
        0.629528 0.334252 0.228346,
        0.629921 0.334646 0.228346,
        -0.629528 0.334252 0.228346,
      ]
    }
    coordIndex [
      0, 1, 2, -1,
      3, 4, 5, -1,
      5, 4, 6, -1,
      3, 7, 8, -1,
      8, 7, 9, -1,
      8, 9, 10, -1,
      10, 11, 8, -1,
      8, 11, 12, -1,
      8, 12, 13, -1,
      14, 15, 8, -1,
      8, 15, 16, -1,
      17, 18, 19, -1,
      19, 18, 20, -1,
      16, 21, 8, -1,
      8, 21, 20, -1,
      8, 20, 22, -1,
      22, 20, 18, -1,
      23, 24, 25, -1,
      25, 24, 26, -1,
      25, 26, 27, -1,
      13, 28, 8, -1,
      8, 28, 29, -1,
      8, 29, 14, -1,
      30, 31, 32, -1,
      32, 31, 0, -1,
      32, 0, 33, -1,
      33, 0, 2, -1,
      31, 34, 35, -1,
      27, 36, 25, -1,
      25, 36, 37, -1,
      25, 37, 38, -1,
      38, 37, 39, -1,
      38, 39, 40, -1,
      41, 42, 30, -1,
      30, 42, 43, -1,
      30, 43, 31, -1,
      31, 43, 44, -1,
      31, 44, 45, -1,
      39, 46, 40, -1,
      40, 46, 47, -1,
      40, 47, 30, -1,
      30, 47, 48, -1,
      30, 48, 41, -1,
      45, 49, 31, -1,
      31, 49, 50, -1,
      31, 50, 34, -1,
      51, 52, 53, -1,
      53, 52, 54, -1,
      53, 54, 55, -1,
      56, 57, 58, -1,
      58, 57, 59, -1,
      58, 59, 24, -1,
      54, 58, 55, -1,
      55, 58, 24, -1,
      55, 24, 60, -1,
      60, 24, 23, -1,
      60, 23, 32, -1,
      32, 23, 61, -1,
      32, 61, 30, -1,
      62, 63, 5, -1,
      64, 65, 66, -1,
      63, 67, 5, -1,
      5, 67, 31, -1,
      5, 31, 3, -1,
      3, 31, 35, -1,
      3, 35, 7, -1,
      66, 68, 64, -1,
      64, 68, 69, -1,
      64, 69, 70, -1,
      71, 72, 73, -1,
      73, 72, 74, -1,
      73, 74, 75, -1,
      75, 74, 31, -1,
      75, 31, 76, -1,
      76, 31, 67, -1,
      77, 78, 75, -1,
      75, 78, 79, -1,
      80, 81, 82, -1,
      82, 81, 83, -1,
      82, 83, 84, -1,
      84, 83, 85, -1,
      86, 87, 85, -1,
      85, 87, 88, -1,
      85, 88, 84, -1,
      84, 88, 62, -1,
      84, 62, 89, -1,
      89, 62, 5, -1,
      89, 5, 90, -1,
      91, 92, 77, -1,
      77, 92, 93, -1,
      94, 95, 5, -1,
      93, 96, 77, -1,
      77, 96, 97, -1,
      77, 97, 98, -1,
      91, 77, 99, -1,
      99, 77, 75, -1,
      99, 75, 84, -1,
      84, 75, 76, -1,
      84, 76, 82, -1,
      98, 100, 77, -1,
      77, 100, 101, -1,
      77, 101, 64, -1,
      64, 101, 102, -1,
      64, 102, 65, -1,
      103, 104, 95, -1,
      95, 104, 105, -1,
      95, 105, 5, -1,
      5, 105, 64, -1,
      5, 64, 90, -1,
      90, 64, 70, -1,
      106, 107, 108, -1,
      78, 94, 79, -1,
      79, 94, 5, -1,
      79, 5, 109, -1,
      6, 56, 5, -1,
      5, 56, 58, -1,
      5, 58, 109, -1,
      109, 58, 106, -1,
      109, 106, 110, -1,
      110, 106, 108, -1,
      111, 112, 113, -1,
      114, 115, 116, -1,
      116, 115, 117, -1,
      118, 119, 120, -1,
      120, 119, 121, -1,
      117, 120, 116, -1,
      116, 120, 121, -1,
      116, 121, 122, -1,
      122, 121, 123, -1,
      122, 123, 124, -1,
      124, 123, 125, -1,
      126, 127, 128, -1,
      128, 127, 129, -1,
      113, 130, 111, -1,
      111, 130, 119, -1,
      111, 119, 129, -1,
      129, 119, 118, -1,
      129, 118, 128, -1,
    ]
  }
}

Shape {
  appearance Appearance {
    material Material {
      diffuseColor 1.0000 1.0000 1.0000
      specularColor 0.8784 0.8784 0.8784
      ambientIntensity 0.2
      transparency 0.0000
      shininess 0.5
    }
  }
  geometry IndexedFaceSet {
    ccw TRUE
    solid FALSE
    coord DEF co Coordinate {
      point [
        0.629921 0.118110 0.007874,
        0.629528 0.118109 0.007874,
        0.629528 -0.118109 0.007874,
        0.629921 -0.118110 0.007874,
        -0.629528 0.118109 0.007874,
        -0.629921 0.118110 0.007874,
        -0.629921 -0.118110 0.007874,
        -0.629528 -0.118109 0.007874,
        -0.629921 0.118110 0.228346,
        -0.629528 0.118109 0.228346,
        0.629921 -0.118110 0.228346,
        0.629528 -0.118109 0.228346,
        -0.629921 -0.118110 0.228346,
        -0.629528 -0.118109 0.228346,
        0.629528 0.118109 0.228346,
        0.629921 0.118110 0.228346,
      ]
    }
    coordIndex [
      0, 15, 1, -1,
      1, 15, 14, -1,
      2, 11, 3, -1,
      3, 11, 10, -1,
      4, 9, 5, -1,
      5, 9, 8, -1,
      6, 12, 7, -1,
      7, 12, 13, -1,
    ]
  }
}

Shape {
  appearance Appearance {
    material Material {
      diffuseColor 0.2510 0.2510 0.2510
      specularColor 0.1255 0.1255 0.1255
      ambientIntensity 0.2
      transparency 0.0000
      shininess 0.5
    }
  }
  geometry IndexedFaceSet {
    ccw TRUE
    solid FALSE
    coord DEF co Coordinate {
      point [
        0.629921 0.334646 0.007874,
        0.629921 0.118110 0.007874,
        0.029779 0.334646 0.007874,
        0.629921 -0.118110 0.007874,
        0.629921 -0.334646 0.007874,
        0.029779 -0.334646 0.007874,
        -0.629921 0.118110 0.007874,
        -0.629921 0.334646 0.007874,
        -0.629921 -0.334646 0.007874,
        -0.629921 -0.118110 0.007874,
        -0.629921 0.334646 0.228346,
        -0.629921 0.118110 0.228346,
        0.629921 -0.118110 0.228346,
        0.629921 -0.334646 0.228346,
        -0.629921 -0.334646 0.228346,
        -0.629921 -0.118110 0.228346,
        0.629921 0.118110 0.228346,
        0.629921 0.334646 0.228346,
      ]
    }
    coordIndex [
      12, 13, 3, -1,
      3, 13, 4, -1,
      11, 10, 6, -1,
      6, 10, 7, -1,
      1, 0, 16, -1,
      16, 0, 17, -1,
      7, 10, 2, -1,
      2, 10, 17, -1,
      2, 17, 0, -1,
      9, 8, 15, -1,
      15, 8, 14, -1,
      14, 8, 13, -1,
      13, 8, 5, -1,
      13, 5, 4, -1,
    ]
  }
}

Shape {
  appearance Appearance {
    material Material {
      diffuseColor 0.8549 0.8549 0.8549
      specularColor 0.4275 0.4275 0.4275
      ambientIntensity 0.2
      transparency 0.0000
      shininess 0.5
    }
  }
  geometry IndexedFaceSet {
    ccw TRUE
    solid FALSE
    coord DEF co Coordinate {
      point [
        0.629528 0.118109 0.007874,
        0.432677 0.334252 0.007874,
        0.629528 0.334252 0.007874,
        0.629528 -0.118109 0.007874,
        0.629528 -0.334252 0.007874,
        0.432677 -0.334252 0.007874,
        0.432677 -0.027454 0.007874,
        -0.629528 0.118109 0.007874,
        -0.629528 0.334252 0.007874,
        -0.432677 0.334252 0.007874,
        -0.432677 -0.027454 0.007874,
        -0.629528 -0.118109 0.007874,
        -0.432677 -0.334252 0.007874,
        -0.629528 -0.334252 0.007874,
        -0.629528 0.118109 0.228346,
        0.629528 -0.118109 0.228346,
        0.629528 -0.334252 0.228346,
        0.432677 0.334252 0.228346,
        -0.432677 0.334252 0.228346,
        0.432677 -0.334252 0.228346,
        -0.432677 -0.334252 0.228346,
        -0.629528 -0.334252 0.228346,
        -0.629528 -0.118109 0.228346,
        0.629528 0.118109 0.228346,
        0.629528 0.334252 0.228346,
        -0.629528 0.334252 0.228346,
        -0.432677 -0.334252 0.236220,
        -0.629528 -0.334252 0.236220,
        -0.432677 0.334252 0.236220,
        -0.629528 0.334252 0.236220,
        -0.629528 0.334252 0.000000,
        -0.629528 0.098425 0.000000,
        -0.629528 0.098425 0.236220,
        -0.629528 -0.098425 0.236220,
        -0.629528 -0.098425 0.000000,
        -0.629528 -0.334252 0.000000,
        -0.604053 0.095071 0.236220,
        -0.604053 0.095071 0.000000,
        -0.580315 0.085239 0.236220,
        -0.580315 0.085239 0.000000,
        -0.559930 0.069597 0.236220,
        -0.559930 0.069597 0.000000,
        -0.544289 0.049213 0.236220,
        -0.544289 0.049213 0.000000,
        -0.534456 0.025474 0.236220,
        -0.534456 0.025474 0.000000,
        -0.531102 -0.000000 0.236220,
        -0.531102 -0.000000 0.000000,
        -0.534456 -0.025474 0.236220,
        -0.534456 -0.025474 0.000000,
        -0.544289 -0.049213 0.236220,
        -0.544289 -0.049213 0.000000,
        -0.559930 -0.069597 0.236220,
        -0.559930 -0.069597 0.000000,
        -0.580315 -0.085239 0.236220,
        -0.580315 -0.085239 0.000000,
        -0.604053 -0.095071 0.236220,
        -0.604053 -0.095071 0.000000,
        -0.432677 -0.334252 0.000000,
        -0.432677 0.334252 0.000000,
        0.432677 0.334252 0.236220,
        0.629528 0.334252 0.236220,
        0.432677 -0.334252 0.236220,
        0.629528 -0.334252 0.236220,
        0.629528 0.098425 0.236220,
        0.629528 0.098425 0.000000,
        0.629528 0.334252 0.000000,
        0.629528 -0.334252 0.000000,
        0.629528 -0.098425 0.000000,
        0.629528 -0.098425 0.236220,
        0.432677 0.334252 0.000000,
        0.432677 -0.334252 0.000000,
        0.604053 -0.095071 0.236220,
        0.604053 -0.095071 0.000000,
        0.580315 -0.085239 0.236220,
        0.580315 -0.085239 0.000000,
        0.559930 -0.069597 0.236220,
        0.559930 -0.069597 0.000000,
        0.544289 -0.049213 0.236220,
        0.544289 -0.049213 0.000000,
        0.534456 -0.025474 0.236220,
        0.534456 -0.025474 0.000000,
        0.531102 0.000000 0.236220,
        0.531102 0.000000 0.000000,
        0.534456 0.025474 0.236220,
        0.534456 0.025474 0.000000,
        0.544289 0.049213 0.236220,
        0.544289 0.049213 0.000000,
        0.559930 0.069597 0.236220,
        0.559930 0.069597 0.000000,
        0.580315 0.085239 0.236220,
        0.580315 0.085239 0.000000,
        0.604053 0.095071 0.236220,
        0.604053 0.095071 0.000000,
      ]
    }
    coordIndex [
      20, 26, 21, -1,
      21, 26, 27, -1,
      18, 28, 20, -1,
      20, 28, 26, -1,
      25, 29, 18, -1,
      18, 29, 28, -1,
      8, 30, 7, -1,
      7, 30, 31, -1,
      7, 31, 14, -1,
      14, 31, 32, -1,
      14, 32, 25, -1,
      25, 32, 29, -1,
      21, 27, 22, -1,
      22, 27, 33, -1,
      22, 33, 11, -1,
      11, 33, 34, -1,
      11, 34, 13, -1,
      13, 34, 35, -1,
      32, 31, 36, -1,
      36, 31, 37, -1,
      36, 37, 38, -1,
      38, 37, 39, -1,
      38, 39, 40, -1,
      40, 39, 41, -1,
      40, 41, 42, -1,
      42, 41, 43, -1,
      42, 43, 44, -1,
      44, 43, 45, -1,
      44, 45, 46, -1,
      46, 45, 47, -1,
      46, 47, 48, -1,
      48, 47, 49, -1,
      48, 49, 50, -1,
      50, 49, 51, -1,
      50, 51, 52, -1,
      52, 51, 53, -1,
      52, 53, 54, -1,
      54, 53, 55, -1,
      54, 55, 56, -1,
      56, 55, 57, -1,
      56, 57, 33, -1,
      33, 57, 34, -1,
      35, 58, 13, -1,
      13, 58, 12, -1,
      12, 58, 10, -1,
      10, 58, 59, -1,
      10, 59, 9, -1,
      59, 30, 9, -1,
      9, 30, 8, -1,
      29, 32, 28, -1,
      28, 32, 36, -1,
      36, 38, 28, -1,
      28, 38, 40, -1,
      28, 40, 42, -1,
      50, 52, 26, -1,
      33, 27, 56, -1,
      56, 27, 26, -1,
      56, 26, 54, -1,
      54, 26, 52, -1,
      42, 44, 28, -1,
      28, 44, 46, -1,
      28, 46, 26, -1,
      26, 46, 48, -1,
      26, 48, 50, -1,
      58, 35, 34, -1,
      59, 43, 41, -1,
      34, 57, 58, -1,
      58, 57, 55, -1,
      58, 55, 53, -1,
      58, 47, 59, -1,
      59, 47, 45, -1,
      59, 45, 43, -1,
      53, 51, 58, -1,
      58, 51, 49, -1,
      58, 49, 47, -1,
      31, 30, 37, -1,
      37, 30, 59, -1,
      37, 59, 39, -1,
      39, 59, 41, -1,
      17, 60, 24, -1,
      24, 60, 61, -1,
      19, 62, 17, -1,
      17, 62, 60, -1,
      16, 63, 19, -1,
      19, 63, 62, -1,
      24, 61, 23, -1,
      23, 61, 64, -1,
      23, 64, 0, -1,
      0, 64, 65, -1,
      0, 65, 2, -1,
      2, 65, 66, -1,
      4, 67, 3, -1,
      3, 67, 68, -1,
      3, 68, 15, -1,
      15, 68, 69, -1,
      15, 69, 16, -1,
      16, 69, 63, -1,
      66, 70, 2, -1,
      2, 70, 1, -1,
      1, 70, 6, -1,
      6, 70, 71, -1,
      6, 71, 5, -1,
      71, 67, 5, -1,
      5, 67, 4, -1,
      69, 68, 72, -1,
      72, 68, 73, -1,
      72, 73, 74, -1,
      74, 73, 75, -1,
      74, 75, 76, -1,
      76, 75, 77, -1,
      76, 77, 78, -1,
      78, 77, 79, -1,
      78, 79, 80, -1,
      80, 79, 81, -1,
      80, 81, 82, -1,
      82, 81, 83, -1,
      82, 83, 84, -1,
      84, 83, 85, -1,
      84, 85, 86, -1,
      86, 85, 87, -1,
      86, 87, 88, -1,
      88, 87, 89, -1,
      88, 89, 90, -1,
      90, 89, 91, -1,
      90, 91, 92, -1,
      92, 91, 93, -1,
      92, 93, 64, -1,
      64, 93, 65, -1,
      63, 69, 62, -1,
      62, 69, 72, -1,
      72, 74, 62, -1,
      62, 74, 76, -1,
      62, 76, 78, -1,
      64, 61, 92, -1,
      92, 61, 60, -1,
      78, 80, 62, -1,
      62, 80, 82, -1,
      62, 82, 60, -1,
      60, 82, 84, -1,
      60, 84, 86, -1,
      86, 88, 60, -1,
      60, 88, 90, -1,
      60, 90, 92, -1,
      79, 77, 71, -1,
      66, 65, 70, -1,
      70, 65, 93, -1,
      68, 67, 73, -1,
      73, 67, 71, -1,
      73, 71, 75, -1,
      75, 71, 77, -1,
      93, 91, 70, -1,
      70, 91, 89, -1,
      70, 89, 87, -1,
      87, 85, 70, -1,
      70, 85, 83, -1,
      70, 83, 71, -1,
      71, 83, 81, -1,
      71, 81, 79, -1,
    ]
  }
}

Shape {
  appearance Appearance {
    material Material {
      diffuseColor 1.0000 1.0000 1.0000
      specularColor 0.8784 0.8784 0.8784
      ambientIntensity 0.2
      transparency 0.0000
      shininess 0.5
    }
  }
  geometry IndexedFaceSet {
    ccw TRUE
    solid FALSE
    coord DEF co Coordinate {
      point [
        0.037461 -0.014251 0.007874,
        0.037461 -0.022893 0.007874,
        0.045854 -0.026339 0.007874,
        0.046330 0.042841 0.007874,
        0.038872 -0.015033 0.007874,
        0.055901 0.044084 0.007874,
        0.063654 0.043213 0.007874,
        0.069548 0.041086 0.007874,
        0.074998 0.037440 0.007874,
        0.079753 0.032191 0.007874,
        0.085473 0.011556 0.007874,
        0.084676 0.003031 0.007874,
        0.082537 -0.003741 0.007874,
        0.065016 -0.018469 0.007874,
        0.057671 -0.019292 0.007874,
        0.070753 -0.016356 0.007874,
        0.075585 -0.013099 0.007874,
        0.079280 -0.009201 0.007874,
        0.047219 -0.018132 0.007874,
        0.143088 -0.026974 0.007874,
        0.063757 -0.027454 0.007874,
        0.102758 -0.026974 0.007874,
        0.068830 -0.026928 0.007874,
        0.076462 -0.024302 0.007874,
        0.082999 0.026111 0.007874,
        0.085098 0.017682 0.007874,
        0.132526 0.051766 0.007874,
        0.037461 0.049606 0.007874,
        0.037461 0.039043 0.007874,
        0.082796 -0.020257 0.007874,
        0.088710 -0.014030 0.007874,
        0.102758 -0.018332 0.007874,
        0.092905 -0.006543 0.007874,
        0.132526 -0.018332 0.007874,
        0.091880 0.031027 0.007874,
        0.087265 0.038389 0.007874,
        0.080157 0.045225 0.007874,
        0.072678 0.049530 0.007874,
        0.063900 0.052080 0.007874,
        0.095275 0.001791 0.007874,
        0.096036 0.010911 0.007874,
        0.094904 0.022105 0.007874,
        0.055991 0.052726 0.007874,
        0.046565 0.052076 0.007874,
        0.053811 -0.027454 0.007874,
        0.056974 -0.027898 0.007874,
        0.059127 -0.027935 0.007874,
        0.143088 0.051766 0.007874,
        -0.020154 -0.026974 0.007874,
        0.022097 -0.026974 0.007874,
        -0.104655 -0.026974 0.007874,
        -0.094962 -0.005393 0.007874,
        -0.090446 -0.012436 0.007874,
        0.022097 0.051766 0.007874,
        -0.083965 -0.018642 0.007874,
        -0.075744 -0.023419 0.007874,
        -0.066671 -0.026124 0.007874,
        -0.018233 0.051766 0.007874,
        -0.134423 0.051766 0.007874,
        -0.144985 0.051766 0.007874,
        0.011535 0.043124 0.007874,
        0.011535 0.017197 0.007874,
        -0.018233 0.043124 0.007874,
        -0.016313 0.017197 0.007874,
        -0.035518 0.051766 0.007874,
        -0.016313 0.008555 0.007874,
        0.011535 0.008555 0.007874,
        0.011535 -0.018332 0.007874,
        -0.020154 -0.018332 0.007874,
        -0.035518 -0.026974 0.007874,
        -0.056928 -0.026974 0.007874,
        -0.069114 0.050550 0.007874,
        -0.078327 0.047315 0.007874,
        -0.086897 0.041571 0.007874,
        -0.175713 -0.026974 0.007874,
        -0.164191 -0.026974 0.007874,
        -0.086979 0.041499 0.007874,
        -0.092547 0.035325 0.007874,
        -0.096207 0.028553 0.007874,
        -0.057738 0.051766 0.007874,
        -0.098322 0.020795 0.007874,
        -0.098894 0.013386 0.007874,
        -0.097789 0.002848 0.007874,
        -0.156224 -0.004889 0.007874,
        -0.123695 -0.004889 0.007874,
        -0.116178 -0.026974 0.007874,
        -0.144985 0.051766 0.011811,
        -0.175713 -0.026974 0.011811,
        -0.164191 -0.026974 0.011811,
        -0.156224 -0.004889 0.011811,
        -0.123695 -0.004889 0.011811,
        -0.116178 -0.026974 0.011811,
        -0.104655 -0.026974 0.011811,
        -0.134423 0.051766 0.011811,
        -0.126351 0.003754 0.011811,
        -0.152683 0.003754 0.011811,
        -0.138099 0.036642 0.011811,
        -0.138857 0.039373 0.011811,
        -0.139359 0.042163 0.011811,
        -0.139614 0.042163 0.011811,
        -0.140128 0.039381 0.011811,
        -0.140830 0.036642 0.011811,
        -0.126351 0.003754 0.007874,
        -0.152683 0.003754 0.007874,
        -0.138099 0.036642 0.007874,
        -0.138857 0.039373 0.007874,
        -0.139359 0.042163 0.007874,
        -0.139614 0.042163 0.007874,
        -0.140128 0.039381 0.007874,
        -0.140830 0.036642 0.007874,
        -0.056928 -0.026974 0.011811,
        -0.035518 -0.026974 0.011811,
        -0.035518 0.051766 0.011811,
        -0.057738 0.051766 0.011811,
        -0.098894 0.013386 0.011811,
        -0.098322 0.020795 0.011811,
        -0.096207 0.028553 0.011811,
        -0.092547 0.035325 0.011811,
        -0.086979 0.041499 0.011811,
        -0.086897 0.041571 0.011811,
        -0.078327 0.047315 0.011811,
        -0.069114 0.050550 0.011811,
        -0.066671 -0.026124 0.011811,
        -0.075744 -0.023419 0.011811,
        -0.083965 -0.018642 0.011811,
        -0.090446 -0.012436 0.011811,
        -0.094962 -0.005393 0.011811,
        -0.097789 0.002848 0.011811,
        -0.083089 0.032082 0.011811,
        -0.079264 0.036143 0.011811,
        -0.073512 0.039859 0.011811,
        -0.067013 0.042133 0.011811,
        -0.057693 0.043124 0.011811,
        -0.046080 0.043124 0.011811,
        -0.046080 -0.018332 0.011811,
        -0.057258 -0.018332 0.011811,
        -0.065565 -0.017559 0.011811,
        -0.072191 -0.015491 0.011811,
        -0.077561 -0.012302 0.011811,
        -0.081978 -0.007940 0.011811,
        -0.085299 -0.002511 0.011811,
        -0.087608 0.004891 0.011811,
        -0.088331 0.013161 0.011811,
        -0.087662 0.020998 0.011811,
        -0.085824 0.027226 0.011811,
        -0.057693 0.043124 0.007874,
        -0.046080 0.043124 0.007874,
        -0.067013 0.042133 0.007874,
        -0.073512 0.039859 0.007874,
        -0.079264 0.036143 0.007874,
        -0.083089 0.032082 0.007874,
        -0.085824 0.027226 0.007874,
        -0.087662 0.020998 0.007874,
        -0.088331 0.013161 0.007874,
        -0.087608 0.004891 0.007874,
        -0.085299 -0.002511 0.007874,
        -0.081978 -0.007940 0.007874,
        -0.077561 -0.012302 0.007874,
        -0.072191 -0.015491 0.007874,
        -0.065565 -0.017559 0.007874,
        -0.057258 -0.018332 0.007874,
        -0.046080 -0.018332 0.007874,
        -0.020154 -0.018332 0.011811,
        -0.020154 -0.026974 0.011811,
        0.022097 -0.026974 0.011811,
        0.022097 0.051766 0.011811,
        -0.018233 0.051766 0.011811,
        -0.018233 0.043124 0.011811,
        0.011535 0.043124 0.011811,
        0.011535 0.017197 0.011811,
        -0.016313 0.017197 0.011811,
        -0.016313 0.008555 0.011811,
        0.011535 0.008555 0.011811,
        0.011535 -0.018332 0.011811,
        0.037461 -0.014251 0.011811,
        0.037461 -0.022893 0.011811,
        0.045854 -0.026339 0.011811,
        0.059127 -0.027935 0.011811,
        0.056974 -0.027898 0.011811,
        0.096036 0.010911 0.011811,
        0.095275 0.001791 0.011811,
        0.092905 -0.006543 0.011811,
        0.088710 -0.014030 0.011811,
        0.082796 -0.020257 0.011811,
        0.076462 -0.024302 0.011811,
        0.068830 -0.026928 0.011811,
        0.055991 0.052726 0.011811,
        0.063900 0.052080 0.011811,
        0.072678 0.049530 0.011811,
        0.080157 0.045225 0.011811,
        0.087265 0.038389 0.011811,
        0.091880 0.031027 0.011811,
        0.094904 0.022105 0.011811,
        0.037461 0.049606 0.011811,
        0.046565 0.052076 0.011811,
        0.037461 0.039043 0.011811,
        0.055901 0.044084 0.011811,
        0.046330 0.042841 0.011811,
        0.085473 0.011556 0.011811,
        0.085098 0.017682 0.011811,
        0.082999 0.026111 0.011811,
        0.079753 0.032191 0.011811,
        0.074998 0.037440 0.011811,
        0.069548 0.041086 0.011811,
        0.063654 0.043213 0.011811,
        0.057671 -0.019292 0.011811,
        0.065016 -0.018469 0.011811,
        0.070753 -0.016356 0.011811,
        0.075585 -0.013099 0.011811,
        0.079280 -0.009201 0.011811,
        0.082537 -0.003741 0.011811,
        0.084676 0.003031 0.011811,
        0.038872 -0.015033 0.011811,
        0.047219 -0.018132 0.011811,
        0.102758 -0.018332 0.011811,
        0.102758 -0.026974 0.011811,
        0.143088 -0.026974 0.011811,
        0.143088 0.051766 0.011811,
        0.132526 0.051766 0.011811,
        0.132526 -0.018332 0.011811,
      ]
    }
    coordIndex [
      86, 87, 59, -1,
      59, 87, 74, -1,
      87, 88, 74, -1,
      74, 88, 75, -1,
      88, 89, 75, -1,
      75, 89, 83, -1,
      89, 90, 83, -1,
      83, 90, 84, -1,
      90, 91, 84, -1,
      84, 91, 85, -1,
      91, 92, 85, -1,
      85, 92, 50, -1,
      92, 93, 50, -1,
      50, 93, 58, -1,
      93, 86, 58, -1,
      58, 86, 59, -1,
      94, 90, 95, -1,
      95, 90, 89, -1,
      96, 93, 94, -1,
      94, 93, 92, -1,
      94, 92, 90, -1,
      90, 92, 91, -1,
      96, 97, 93, -1,
      93, 97, 98, -1,
      93, 98, 86, -1,
      86, 98, 99, -1,
      86, 99, 100, -1,
      100, 101, 86, -1,
      86, 101, 95, -1,
      86, 95, 87, -1,
      87, 95, 89, -1,
      87, 89, 88, -1,
      94, 95, 102, -1,
      102, 95, 103, -1,
      96, 94, 104, -1,
      104, 94, 102, -1,
      96, 104, 105, -1,
      96, 105, 97, -1,
      97, 105, 106, -1,
      97, 106, 98, -1,
      99, 98, 107, -1,
      107, 98, 106, -1,
      99, 107, 108, -1,
      99, 108, 100, -1,
      100, 108, 109, -1,
      100, 109, 101, -1,
      95, 101, 103, -1,
      103, 101, 109, -1,
      110, 111, 70, -1,
      70, 111, 69, -1,
      111, 112, 69, -1,
      69, 112, 64, -1,
      112, 113, 64, -1,
      64, 113, 79, -1,
      114, 81, 80, -1,
      114, 80, 115, -1,
      115, 80, 78, -1,
      115, 78, 116, -1,
      116, 78, 77, -1,
      116, 77, 117, -1,
      117, 77, 76, -1,
      117, 76, 118, -1,
      118, 76, 73, -1,
      118, 73, 119, -1,
      119, 73, 72, -1,
      119, 72, 120, -1,
      120, 72, 71, -1,
      120, 71, 121, -1,
      121, 71, 79, -1,
      121, 79, 113, -1,
      110, 70, 56, -1,
      110, 56, 122, -1,
      122, 56, 55, -1,
      122, 55, 123, -1,
      123, 55, 54, -1,
      123, 54, 124, -1,
      124, 54, 52, -1,
      124, 52, 125, -1,
      125, 52, 51, -1,
      125, 51, 126, -1,
      126, 51, 82, -1,
      126, 82, 127, -1,
      127, 82, 81, -1,
      127, 81, 114, -1,
      116, 117, 128, -1,
      128, 117, 118, -1,
      128, 118, 129, -1,
      129, 118, 119, -1,
      129, 119, 130, -1,
      130, 119, 120, -1,
      130, 120, 131, -1,
      131, 120, 121, -1,
      131, 121, 132, -1,
      132, 121, 113, -1,
      132, 113, 133, -1,
      133, 113, 112, -1,
      133, 112, 134, -1,
      134, 112, 111, -1,
      134, 111, 135, -1,
      135, 111, 110, -1,
      135, 110, 136, -1,
      136, 110, 122, -1,
      136, 122, 137, -1,
      137, 122, 123, -1,
      137, 123, 138, -1,
      138, 123, 124, -1,
      138, 124, 139, -1,
      139, 124, 125, -1,
      139, 125, 140, -1,
      140, 125, 126, -1,
      140, 126, 141, -1,
      141, 126, 127, -1,
      141, 127, 142, -1,
      142, 127, 114, -1,
      142, 114, 143, -1,
      143, 114, 115, -1,
      143, 115, 144, -1,
      144, 115, 116, -1,
      144, 116, 128, -1,
      132, 133, 145, -1,
      145, 133, 146, -1,
      132, 145, 147, -1,
      132, 147, 131, -1,
      131, 147, 148, -1,
      131, 148, 130, -1,
      130, 148, 149, -1,
      130, 149, 129, -1,
      129, 149, 150, -1,
      129, 150, 128, -1,
      128, 150, 151, -1,
      128, 151, 144, -1,
      144, 151, 152, -1,
      144, 152, 143, -1,
      143, 152, 153, -1,
      143, 153, 142, -1,
      142, 153, 154, -1,
      142, 154, 141, -1,
      141, 154, 155, -1,
      141, 155, 140, -1,
      140, 155, 156, -1,
      140, 156, 139, -1,
      139, 156, 157, -1,
      139, 157, 138, -1,
      138, 157, 158, -1,
      138, 158, 137, -1,
      137, 158, 159, -1,
      137, 159, 136, -1,
      136, 159, 160, -1,
      136, 160, 135, -1,
      134, 135, 161, -1,
      161, 135, 160, -1,
      133, 134, 146, -1,
      146, 134, 161, -1,
      162, 163, 68, -1,
      68, 163, 48, -1,
      163, 164, 48, -1,
      48, 164, 49, -1,
      164, 165, 49, -1,
      49, 165, 53, -1,
      165, 166, 53, -1,
      53, 166, 57, -1,
      166, 167, 57, -1,
      57, 167, 62, -1,
      167, 168, 62, -1,
      62, 168, 60, -1,
      168, 169, 60, -1,
      60, 169, 61, -1,
      169, 170, 61, -1,
      61, 170, 63, -1,
      170, 171, 63, -1,
      63, 171, 65, -1,
      171, 172, 65, -1,
      65, 172, 66, -1,
      172, 173, 66, -1,
      66, 173, 67, -1,
      173, 162, 67, -1,
      67, 162, 68, -1,
      164, 163, 162, -1,
      162, 173, 164, -1,
      164, 173, 172, -1,
      164, 172, 165, -1,
      167, 166, 168, -1,
      168, 166, 165, -1,
      168, 165, 169, -1,
      169, 165, 172, -1,
      169, 172, 170, -1,
      170, 172, 171, -1,
      174, 175, 0, -1,
      0, 175, 1, -1,
      1, 175, 176, -1,
      177, 46, 45, -1,
      177, 45, 178, -1,
      178, 45, 44, -1,
      178, 44, 176, -1,
      176, 44, 2, -1,
      176, 2, 1, -1,
      179, 40, 39, -1,
      179, 39, 180, -1,
      180, 39, 32, -1,
      180, 32, 181, -1,
      181, 32, 30, -1,
      181, 30, 182, -1,
      182, 30, 29, -1,
      182, 29, 183, -1,
      183, 29, 23, -1,
      183, 23, 184, -1,
      184, 23, 22, -1,
      184, 22, 185, -1,
      185, 22, 177, -1,
      177, 22, 20, -1,
      177, 20, 46, -1,
      186, 42, 38, -1,
      186, 38, 187, -1,
      187, 38, 37, -1,
      187, 37, 188, -1,
      188, 37, 36, -1,
      188, 36, 189, -1,
      189, 36, 35, -1,
      189, 35, 190, -1,
      190, 35, 34, -1,
      190, 34, 191, -1,
      191, 34, 41, -1,
      191, 41, 192, -1,
      192, 41, 40, -1,
      192, 40, 179, -1,
      193, 27, 43, -1,
      193, 43, 194, -1,
      194, 43, 42, -1,
      194, 42, 186, -1,
      193, 195, 27, -1,
      27, 195, 28, -1,
      196, 5, 3, -1,
      196, 3, 197, -1,
      197, 3, 28, -1,
      197, 28, 195, -1,
      198, 10, 25, -1,
      198, 25, 199, -1,
      199, 25, 24, -1,
      199, 24, 200, -1,
      200, 24, 9, -1,
      200, 9, 201, -1,
      201, 9, 8, -1,
      201, 8, 202, -1,
      202, 8, 7, -1,
      202, 7, 203, -1,
      203, 7, 6, -1,
      203, 6, 204, -1,
      204, 6, 5, -1,
      204, 5, 196, -1,
      205, 14, 13, -1,
      205, 13, 206, -1,
      206, 13, 15, -1,
      206, 15, 207, -1,
      207, 15, 16, -1,
      207, 16, 208, -1,
      208, 16, 17, -1,
      208, 17, 209, -1,
      209, 17, 12, -1,
      209, 12, 210, -1,
      210, 12, 11, -1,
      210, 11, 211, -1,
      211, 11, 10, -1,
      211, 10, 198, -1,
      174, 0, 4, -1,
      174, 4, 212, -1,
      212, 4, 18, -1,
      212, 18, 213, -1,
      213, 18, 14, -1,
      213, 14, 205, -1,
      206, 177, 205, -1,
      205, 177, 178, -1,
      205, 178, 213, -1,
      213, 178, 176, -1,
      213, 176, 212, -1,
      212, 176, 175, -1,
      212, 175, 174, -1,
      195, 193, 197, -1,
      197, 193, 194, -1,
      197, 194, 196, -1,
      196, 194, 186, -1,
      196, 186, 204, -1,
      204, 186, 187, -1,
      204, 187, 203, -1,
      203, 187, 188, -1,
      203, 188, 202, -1,
      202, 188, 189, -1,
      202, 189, 201, -1,
      201, 189, 190, -1,
      201, 190, 200, -1,
      200, 190, 191, -1,
      200, 191, 199, -1,
      199, 191, 192, -1,
      199, 192, 198, -1,
      198, 192, 179, -1,
      198, 179, 211, -1,
      211, 179, 180, -1,
      211, 180, 210, -1,
      210, 180, 181, -1,
      210, 181, 209, -1,
      209, 181, 182, -1,
      209, 182, 208, -1,
      208, 182, 183, -1,
      208, 183, 207, -1,
      207, 183, 184, -1,
      207, 184, 206, -1,
      206, 184, 185, -1,
      206, 185, 177, -1,
      214, 215, 31, -1,
      31, 215, 21, -1,
      215, 216, 21, -1,
      21, 216, 19, -1,
      216, 217, 19, -1,
      19, 217, 47, -1,
      217, 218, 47, -1,
      47, 218, 26, -1,
      218, 219, 26, -1,
      26, 219, 33, -1,
      219, 214, 33, -1,
      33, 214, 31, -1,
      218, 217, 219, -1,
      219, 217, 216, -1,
      219, 216, 214, -1,
      214, 216, 215, -1,
    ]
  }
}

Shape {
  appearance Appearance {
    material Material {
      diffuseColor 0.2510 0.2510 0.2510
      specularColor 0.1255 0.1255 0.1255
      ambientIntensity 0.2
      transparency 0.0000
      shininess 0.5
    }
  }
  geometry IndexedFaceSet {
    ccw TRUE
    solid FALSE
    coord DEF co Coordinate {
      point [
        -0.126351 0.003754 0.007874,
        -0.152683 0.003754 0.007874,
        -0.138099 0.036642 0.007874,
        -0.138857 0.039373 0.007874,
        -0.139359 0.042163 0.007874,
        -0.139614 0.042163 0.007874,
        -0.140128 0.039381 0.007874,
        -0.140830 0.036642 0.007874,
        -0.057693 0.043124 0.007874,
        -0.046080 0.043124 0.007874,
        -0.067013 0.042133 0.007874,
        -0.073512 0.039859 0.007874,
        -0.079264 0.036143 0.007874,
        -0.083089 0.032082 0.007874,
        -0.085824 0.027226 0.007874,
        -0.087662 0.020998 0.007874,
        -0.088331 0.013161 0.007874,
        -0.087608 0.004891 0.007874,
        -0.085299 -0.002511 0.007874,
        -0.081978 -0.007940 0.007874,
        -0.077561 -0.012302 0.007874,
        -0.072191 -0.015491 0.007874,
        -0.065565 -0.017559 0.007874,
        -0.057258 -0.018332 0.007874,
        -0.046080 -0.018332 0.007874,
      ]
    }
    coordIndex [
      0, 1, 2, -1,
      2, 1, 7, -1,
      2, 7, 3, -1,
      3, 7, 6, -1,
      3, 6, 4, -1,
      4, 6, 5, -1,
      9, 24, 8, -1,
      8, 24, 23, -1,
      8, 23, 22, -1,
      16, 15, 8, -1,
      8, 15, 14, -1,
      8, 14, 10, -1,
      22, 21, 8, -1,
      8, 21, 20, -1,
      8, 20, 19, -1,
      19, 18, 8, -1,
      8, 18, 17, -1,
      8, 17, 16, -1,
      13, 12, 14, -1,
      14, 12, 11, -1,
      14, 11, 10, -1,
    ]
  }
}
