#VRML V2.0 utf8

Shape {
  appearance Appearance {
    material Material {
      diffuseColor 0.2510 0.2510 0.2510
      specularColor 0.1255 0.1255 0.1255
      ambientIntensity 0.2
      transparency 0.0000
      shininess 0.5
    }
  }
  geometry IndexedFaceSet {
    ccw TRUE
    solid FALSE
    coord DEF co Coordinate {
      point [
        -0.015007 -0.014372 -0.236220,
        -0.015007 -0.018693 -0.236220,
        -0.018848 -0.018933 -0.236220,
        0.006118 -0.018693 -0.236220,
        -0.014047 0.016356 -0.236220,
        0.000837 0.016356 -0.236220,
        0.000837 0.003393 -0.236220,
        0.013800 -0.016652 -0.236220,
        0.013800 -0.012331 -0.236220,
        0.006118 0.020677 -0.236220,
        0.000837 -0.000928 -0.236220,
        0.000837 -0.014372 -0.236220,
        -0.013087 -0.000928 -0.236220,
        -0.013087 0.003393 -0.236220,
        0.033301 -0.017356 -0.236220,
        0.046448 -0.018693 -0.236220,
        0.029485 -0.018670 -0.236220,
        0.026948 -0.018933 -0.236220,
        -0.014047 0.020677 -0.236220,
        -0.018848 0.308285 -0.236220,
        0.041010 0.010308 -0.236220,
        0.038702 0.013989 -0.236220,
        0.061332 0.020677 -0.236220,
        0.026897 0.016401 -0.236220,
        0.029844 0.015337 -0.236220,
        0.014506 -0.012722 -0.236220,
        0.032569 0.013515 -0.236220,
        0.034946 0.010890 -0.236220,
        0.037806 0.000572 -0.236220,
        0.037408 -0.003690 -0.236220,
        0.036338 -0.007076 -0.236220,
        0.027578 -0.014440 -0.236220,
        0.023906 -0.014852 -0.236220,
        0.030446 -0.013384 -0.236220,
        0.032862 -0.011755 -0.236220,
        0.034710 -0.009806 -0.236220,
        0.018679 -0.014272 -0.236220,
        0.036569 0.007850 -0.236220,
        0.037619 0.003635 -0.236220,
        0.035148 0.017407 -0.236220,
        0.066614 0.020677 -0.236220,
        0.554348 0.308285 -0.236220,
        0.066614 -0.018693 -0.236220,
        0.554348 -0.018933 -0.236220,
        0.036468 -0.015334 -0.236220,
        0.039425 -0.012221 -0.236220,
        0.046448 -0.014372 -0.236220,
        0.041522 -0.008477 -0.236220,
        0.061332 -0.014372 -0.236220,
        0.042707 -0.004310 -0.236220,
        0.043088 0.000250 -0.236220,
        0.042521 0.005847 -0.236220,
        0.031408 0.019559 -0.236220,
        0.027019 0.020835 -0.236220,
        0.023065 0.021157 -0.236220,
        0.018352 0.020832 -0.236220,
        0.013800 0.019597 -0.236220,
        0.013800 0.014316 -0.236220,
        0.018235 0.016215 -0.236220,
        0.023020 0.016836 -0.236220,
        0.024633 -0.019173 -0.236220,
        0.554348 -0.308285 -0.236220,
        0.023557 -0.019154 -0.236220,
        -0.018848 -0.308285 -0.236220,
        0.021975 -0.018933 -0.236220,
        -0.554348 -0.308285 -0.236220,
        -0.554348 -0.018933 -0.236220,
        0.017997 -0.018375 -0.236220,
        -0.063019 -0.018693 -0.236220,
        -0.057258 -0.018693 -0.236220,
        -0.052411 -0.007902 -0.236220,
        -0.050154 -0.011424 -0.236220,
        -0.046913 -0.014526 -0.236220,
        -0.042802 -0.016915 -0.236220,
        -0.072142 0.020677 -0.236220,
        -0.554348 0.308285 -0.236220,
        -0.077423 0.020677 -0.236220,
        -0.092787 -0.018693 -0.236220,
        -0.087026 -0.018693 -0.236220,
        -0.083042 -0.007650 -0.236220,
        -0.066778 -0.007650 -0.236220,
        -0.022689 0.020677 -0.236220,
        -0.033800 0.020677 -0.236220,
        -0.048420 0.015544 -0.236220,
        -0.051204 0.012457 -0.236220,
        -0.053034 0.009071 -0.236220,
        -0.039487 0.020069 -0.236220,
        -0.044094 0.018452 -0.236220,
        -0.048379 0.015580 -0.236220,
        -0.038266 -0.018267 -0.236220,
        -0.033394 -0.018693 -0.236220,
        -0.022689 -0.018693 -0.236220,
        -0.054091 0.005192 -0.236220,
        -0.054377 0.001487 -0.236220,
        -0.053825 -0.003781 -0.236220,
        -0.452756 -0.324803 -0.000000,
        -0.570866 -0.324803 0.000000,
        -0.452756 -0.320674 -0.059055,
        -0.295276 -0.320674 -0.059055,
        0.570866 -0.324803 0.000000,
        0.452756 -0.324803 -0.000000,
        0.452756 -0.320674 -0.059055,
        0.295276 -0.320674 -0.059055,
        0.295276 -0.324803 -0.000000,
        -0.295276 -0.324803 0.000000,
        -0.563983 -0.317920 0.098425,
        -0.452756 -0.323977 0.011811,
        -0.295276 -0.323977 0.011811,
        0.563983 -0.317920 0.098425,
        0.452756 -0.323977 0.011811,
        0.295276 -0.323977 0.011811,
        0.570866 0.324803 0.000000,
        -0.570866 0.324803 0.000000,
        -0.078740 0.324803 0.000000,
        -0.078740 0.320674 -0.059055,
        0.078740 0.324803 0.000000,
        0.078740 0.320674 -0.059055,
        0.563983 0.317920 0.098425,
        -0.078740 0.323977 0.011811,
        -0.563983 0.317920 0.098425,
        0.078740 0.323977 0.011811,
        -0.320648 -0.190715 0.098425,
        -0.326989 -0.206026 0.098425,
        -0.337078 -0.219173 0.098425,
        -0.350225 -0.229261 0.098425,
        -0.365535 -0.235603 0.098425,
        -0.381966 -0.237766 0.098425,
        -0.398396 -0.235603 0.098425,
        -0.413706 -0.229261 0.098425,
        -0.426854 -0.219173 0.098425,
        -0.436942 -0.206026 0.098425,
        -0.436942 -0.142544 0.098425,
        -0.426854 -0.129397 0.098425,
        -0.413706 -0.119309 0.098425,
        -0.398396 -0.112967 0.098425,
        -0.381966 -0.110804 0.098425,
        -0.365535 -0.112967 0.098425,
        -0.350225 -0.119309 0.098425,
        -0.337078 -0.129397 0.098425,
        -0.326989 -0.142544 0.098425,
        -0.320648 -0.157855 0.098425,
        -0.318485 -0.174285 0.098425,
        -0.443283 -0.190715 0.098425,
        -0.445447 -0.174285 0.098425,
        -0.443283 -0.157855 0.098425,
      ]
    }
    coordIndex [
      0, 1, 2, -1,
      2, 1, 3, -1,
      4, 5, 6, -1,
      7, 3, 8, -1,
      8, 3, 9, -1,
      10, 11, 12, -1,
      12, 11, 0, -1,
      12, 0, 13, -1,
      14, 15, 16, -1,
      16, 15, 17, -1,
      6, 13, 4, -1,
      4, 13, 0, -1,
      4, 0, 18, -1,
      18, 0, 19, -1,
      18, 19, 9, -1,
      20, 21, 22, -1,
      23, 24, 25, -1,
      25, 24, 26, -1,
      25, 26, 27, -1,
      28, 29, 25, -1,
      25, 29, 30, -1,
      31, 32, 33, -1,
      33, 32, 34, -1,
      30, 35, 25, -1,
      25, 35, 34, -1,
      25, 34, 36, -1,
      36, 34, 32, -1,
      27, 37, 25, -1,
      25, 37, 38, -1,
      25, 38, 28, -1,
      21, 39, 22, -1,
      22, 39, 19, -1,
      22, 19, 40, -1,
      40, 19, 41, -1,
      40, 41, 42, -1,
      42, 41, 43, -1,
      14, 44, 15, -1,
      15, 44, 45, -1,
      15, 45, 46, -1,
      46, 45, 47, -1,
      46, 47, 48, -1,
      47, 49, 48, -1,
      48, 49, 50, -1,
      48, 50, 22, -1,
      22, 50, 51, -1,
      22, 51, 20, -1,
      39, 52, 19, -1,
      19, 52, 53, -1,
      19, 53, 54, -1,
      54, 55, 19, -1,
      19, 55, 56, -1,
      19, 56, 9, -1,
      9, 56, 57, -1,
      9, 57, 8, -1,
      8, 57, 58, -1,
      8, 58, 25, -1,
      25, 58, 59, -1,
      25, 59, 23, -1,
      15, 42, 17, -1,
      17, 42, 43, -1,
      17, 43, 60, -1,
      60, 43, 61, -1,
      60, 61, 62, -1,
      62, 61, 63, -1,
      62, 63, 64, -1,
      65, 66, 63, -1,
      63, 66, 2, -1,
      63, 2, 64, -1,
      64, 2, 3, -1,
      64, 3, 67, -1,
      67, 3, 7, -1,
      68, 69, 2, -1,
      70, 71, 69, -1,
      69, 71, 72, -1,
      69, 72, 73, -1,
      19, 74, 75, -1,
      75, 74, 76, -1,
      75, 76, 66, -1,
      66, 76, 77, -1,
      66, 77, 2, -1,
      2, 77, 78, -1,
      2, 78, 68, -1,
      68, 78, 79, -1,
      68, 79, 80, -1,
      0, 2, 19, -1,
      19, 2, 81, -1,
      19, 81, 82, -1,
      83, 84, 74, -1,
      74, 84, 85, -1,
      82, 86, 19, -1,
      19, 86, 87, -1,
      19, 87, 74, -1,
      74, 87, 88, -1,
      74, 88, 83, -1,
      73, 89, 69, -1,
      69, 89, 90, -1,
      69, 90, 2, -1,
      2, 90, 91, -1,
      2, 91, 81, -1,
      85, 92, 74, -1,
      74, 92, 93, -1,
      74, 93, 69, -1,
      69, 93, 94, -1,
      69, 94, 70, -1,
      95, 96, 97, -1,
      97, 96, 65, -1,
      97, 65, 98, -1,
      98, 65, 63, -1,
      99, 100, 61, -1,
      61, 100, 101, -1,
      61, 101, 63, -1,
      63, 101, 102, -1,
      63, 102, 98, -1,
      98, 102, 103, -1,
      98, 103, 104, -1,
      105, 96, 95, -1,
      95, 106, 105, -1,
      105, 106, 107, -1,
      105, 107, 108, -1,
      100, 99, 109, -1,
      109, 99, 108, -1,
      109, 108, 110, -1,
      110, 108, 107, -1,
      110, 107, 103, -1,
      103, 107, 104, -1,
      41, 111, 43, -1,
      43, 111, 99, -1,
      43, 99, 61, -1,
      112, 75, 96, -1,
      96, 75, 66, -1,
      96, 66, 65, -1,
      112, 113, 75, -1,
      75, 113, 114, -1,
      115, 111, 116, -1,
      116, 111, 41, -1,
      116, 41, 114, -1,
      114, 41, 19, -1,
      114, 19, 75, -1,
      117, 108, 111, -1,
      111, 108, 99, -1,
      113, 112, 118, -1,
      118, 112, 119, -1,
      118, 119, 120, -1,
      120, 119, 117, -1,
      120, 117, 115, -1,
      115, 117, 111, -1,
      105, 119, 96, -1,
      96, 119, 112, -1,
      121, 122, 108, -1,
      108, 122, 123, -1,
      123, 124, 108, -1,
      108, 124, 125, -1,
      108, 125, 105, -1,
      105, 125, 126, -1,
      105, 126, 127, -1,
      127, 128, 105, -1,
      105, 128, 129, -1,
      105, 129, 130, -1,
      131, 132, 119, -1,
      119, 132, 133, -1,
      119, 133, 134, -1,
      134, 135, 119, -1,
      119, 135, 136, -1,
      119, 136, 117, -1,
      117, 136, 137, -1,
      117, 137, 138, -1,
      138, 139, 117, -1,
      117, 139, 140, -1,
      117, 140, 108, -1,
      108, 140, 141, -1,
      108, 141, 121, -1,
      130, 142, 105, -1,
      105, 142, 143, -1,
      105, 143, 119, -1,
      119, 143, 144, -1,
      119, 144, 131, -1,
    ]
  }
}

Shape {
  appearance Appearance {
    material Material {
      diffuseColor 1.0000 1.0000 1.0000
      specularColor 0.5020 0.5020 0.5020
      ambientIntensity 0.2
      transparency 0.0000
      shininess 0.5
    }
  }
  geometry IndexedFaceSet {
    ccw TRUE
    solid FALSE
    coord DEF co Coordinate {
      point [
        -0.452756 -0.324803 -0.000000,
        -0.452756 -0.320674 -0.059055,
        -0.295276 -0.320674 -0.059055,
        0.452756 -0.324803 -0.000000,
        0.452756 -0.320674 -0.059055,
        0.295276 -0.320674 -0.059055,
        0.295276 -0.324803 -0.000000,
        -0.295276 -0.324803 0.000000,
        -0.452756 -0.323977 0.011811,
        -0.295276 -0.323977 0.011811,
        0.452756 -0.323977 0.011811,
        0.295276 -0.323977 0.011811,
        -0.078740 0.324803 0.000000,
        -0.078740 0.320674 -0.059055,
        0.078740 0.324803 0.000000,
        0.078740 0.320674 -0.059055,
        -0.078740 0.323977 0.011811,
        0.078740 0.323977 0.011811,
        0.078740 0.348930 0.011811,
        -0.078740 0.348930 0.011811,
        0.078740 0.551181 -0.255906,
        0.078740 0.452648 -0.255906,
        -0.078740 0.551181 -0.255906,
        -0.078740 0.452648 -0.255906,
        0.078740 0.551181 -0.185039,
        -0.078740 0.551181 -0.185039,
        0.078740 0.452648 -0.185039,
        -0.078740 0.452648 -0.185039,
        0.078740 0.450676 -0.184789,
        -0.078740 0.450676 -0.184789,
        0.078740 0.448831 -0.184052,
        -0.078740 0.448831 -0.184052,
        0.078740 0.447228 -0.182877,
        -0.078740 0.447228 -0.182877,
        0.078740 0.445970 -0.181338,
        -0.078740 0.445970 -0.181338,
        0.078740 0.445139 -0.179533,
        -0.078740 0.445139 -0.179533,
        0.078740 0.444785 -0.177578,
        -0.078740 0.444785 -0.177578,
        0.078740 0.439357 -0.074001,
        -0.078740 0.439357 -0.074001,
        -0.078740 0.435290 -0.051511,
        0.078740 0.435290 -0.051511,
        -0.078740 0.425721 -0.030756,
        0.078740 0.425721 -0.030756,
        -0.078740 0.411261 -0.013057,
        0.078740 0.411261 -0.013057,
        -0.078740 0.392830 0.000458,
        0.078740 0.392830 0.000458,
        -0.078740 0.371602 0.008927,
        0.078740 0.371602 0.008927,
        -0.078740 0.348930 -0.059055,
        0.078740 0.348930 -0.059055,
        0.078740 0.353858 -0.059682,
        -0.078740 0.353858 -0.059682,
        0.078740 0.358473 -0.061523,
        -0.078740 0.358473 -0.061523,
        0.078740 0.362480 -0.064461,
        -0.078740 0.362480 -0.064461,
        0.078740 0.365623 -0.068309,
        -0.078740 0.365623 -0.068309,
        0.078740 0.367704 -0.072821,
        -0.078740 0.367704 -0.072821,
        0.078740 0.368587 -0.077710,
        -0.078740 0.368587 -0.077710,
        0.078740 0.374016 -0.181286,
        -0.078740 0.374016 -0.181286,
        -0.078740 0.377552 -0.200843,
        0.078740 0.377552 -0.200843,
        -0.078740 0.385872 -0.218891,
        0.078740 0.385872 -0.218891,
        -0.078740 0.398447 -0.234281,
        0.078740 0.398447 -0.234281,
        -0.078740 0.414474 -0.246033,
        0.078740 0.414474 -0.246033,
        -0.078740 0.432933 -0.253398,
        0.078740 0.432933 -0.253398,
        0.452756 -0.368587 -0.077710,
        0.295276 -0.368587 -0.077710,
        0.452756 -0.367704 -0.072821,
        0.295276 -0.367704 -0.072821,
        0.452756 -0.365623 -0.068309,
        0.295276 -0.365623 -0.068309,
        0.452756 -0.362480 -0.064461,
        0.295276 -0.362480 -0.064461,
        0.452756 -0.358473 -0.061523,
        0.295276 -0.358473 -0.061523,
        0.452756 -0.353858 -0.059682,
        0.295276 -0.353858 -0.059682,
        0.452756 -0.348930 -0.059055,
        0.295276 -0.348930 -0.059055,
        0.452756 -0.348930 0.011811,
        0.295276 -0.348930 0.011811,
        0.295276 -0.371602 0.008927,
        0.452756 -0.371602 0.008927,
        0.295276 -0.392830 0.000458,
        0.452756 -0.392830 0.000458,
        0.295276 -0.411261 -0.013057,
        0.452756 -0.411261 -0.013057,
        0.295276 -0.425721 -0.030756,
        0.452756 -0.425721 -0.030756,
        0.295276 -0.435290 -0.051511,
        0.452756 -0.435290 -0.051511,
        0.295276 -0.439357 -0.074001,
        0.452756 -0.439357 -0.074001,
        0.452756 -0.444785 -0.177578,
        0.295276 -0.444785 -0.177578,
        0.452756 -0.445139 -0.179533,
        0.295276 -0.445139 -0.179533,
        0.452756 -0.445970 -0.181338,
        0.295276 -0.445970 -0.181338,
        0.452756 -0.447228 -0.182877,
        0.295276 -0.447228 -0.182877,
        0.452756 -0.448831 -0.184052,
        0.295276 -0.448831 -0.184052,
        0.452756 -0.450676 -0.184789,
        0.295276 -0.450676 -0.184789,
        0.452756 -0.452648 -0.185039,
        0.295276 -0.452648 -0.185039,
        0.452756 -0.551181 -0.185039,
        0.295276 -0.551181 -0.185039,
        0.452756 -0.551181 -0.255906,
        0.295276 -0.551181 -0.255906,
        0.452756 -0.452648 -0.255906,
        0.295276 -0.452648 -0.255906,
        0.295276 -0.432933 -0.253398,
        0.452756 -0.432933 -0.253398,
        0.295276 -0.414474 -0.246033,
        0.452756 -0.414474 -0.246033,
        0.295276 -0.398447 -0.234281,
        0.452756 -0.398447 -0.234281,
        0.295276 -0.385872 -0.218891,
        0.452756 -0.385872 -0.218891,
        0.295276 -0.377552 -0.200843,
        0.452756 -0.377552 -0.200843,
        0.295276 -0.374016 -0.181286,
        0.452756 -0.374016 -0.181286,
        -0.452756 -0.348930 -0.059055,
        -0.295276 -0.348930 -0.059055,
        -0.452756 -0.353858 -0.059682,
        -0.295276 -0.353858 -0.059682,
        -0.452756 -0.358473 -0.061523,
        -0.295276 -0.358473 -0.061523,
        -0.452756 -0.362480 -0.064461,
        -0.295276 -0.362480 -0.064461,
        -0.452756 -0.365623 -0.068309,
        -0.295276 -0.365623 -0.068309,
        -0.452756 -0.367704 -0.072821,
        -0.295276 -0.367704 -0.072821,
        -0.452756 -0.368587 -0.077710,
        -0.295276 -0.368587 -0.077710,
        -0.452756 -0.374016 -0.181286,
        -0.295276 -0.374016 -0.181286,
        -0.295276 -0.377552 -0.200843,
        -0.452756 -0.377552 -0.200843,
        -0.295276 -0.385872 -0.218891,
        -0.452756 -0.385872 -0.218891,
        -0.295276 -0.398447 -0.234281,
        -0.452756 -0.398447 -0.234281,
        -0.295276 -0.414474 -0.246033,
        -0.452756 -0.414474 -0.246033,
        -0.295276 -0.432933 -0.253398,
        -0.452756 -0.432933 -0.253398,
        -0.295276 -0.452648 -0.255906,
        -0.452756 -0.452648 -0.255906,
        -0.452756 -0.551181 -0.255906,
        -0.295276 -0.551181 -0.255906,
        -0.452756 -0.551181 -0.185039,
        -0.295276 -0.551181 -0.185039,
        -0.452756 -0.452648 -0.185039,
        -0.295276 -0.452648 -0.185039,
        -0.452756 -0.450676 -0.184789,
        -0.295276 -0.450676 -0.184789,
        -0.452756 -0.448831 -0.184052,
        -0.295276 -0.448831 -0.184052,
        -0.452756 -0.447228 -0.182877,
        -0.295276 -0.447228 -0.182877,
        -0.452756 -0.445970 -0.181338,
        -0.295276 -0.445970 -0.181338,
        -0.452756 -0.445139 -0.179533,
        -0.295276 -0.445139 -0.179533,
        -0.452756 -0.444785 -0.177578,
        -0.295276 -0.444785 -0.177578,
        -0.452756 -0.439357 -0.074001,
        -0.295276 -0.439357 -0.074001,
        -0.295276 -0.435290 -0.051511,
        -0.452756 -0.435290 -0.051511,
        -0.295276 -0.425721 -0.030756,
        -0.452756 -0.425721 -0.030756,
        -0.295276 -0.411261 -0.013057,
        -0.452756 -0.411261 -0.013057,
        -0.295276 -0.392830 0.000458,
        -0.452756 -0.392830 0.000458,
        -0.295276 -0.371602 0.008927,
        -0.452756 -0.371602 0.008927,
        -0.295276 -0.348930 0.011811,
        -0.452756 -0.348930 0.011811,
      ]
    }
    coordIndex [
      18, 19, 17, -1,
      17, 19, 16, -1,
      20, 21, 22, -1,
      22, 21, 23, -1,
      24, 20, 25, -1,
      25, 20, 22, -1,
      26, 24, 27, -1,
      27, 24, 25, -1,
      26, 27, 28, -1,
      28, 27, 29, -1,
      28, 29, 30, -1,
      30, 29, 31, -1,
      30, 31, 32, -1,
      32, 31, 33, -1,
      32, 33, 34, -1,
      34, 33, 35, -1,
      34, 35, 36, -1,
      36, 35, 37, -1,
      36, 37, 38, -1,
      38, 37, 39, -1,
      40, 38, 41, -1,
      41, 38, 39, -1,
      40, 41, 42, -1,
      40, 42, 43, -1,
      43, 42, 44, -1,
      43, 44, 45, -1,
      45, 44, 46, -1,
      45, 46, 47, -1,
      47, 46, 48, -1,
      47, 48, 49, -1,
      49, 48, 50, -1,
      49, 50, 51, -1,
      51, 50, 19, -1,
      51, 19, 18, -1,
      52, 53, 13, -1,
      13, 53, 15, -1,
      53, 52, 54, -1,
      54, 52, 55, -1,
      54, 55, 56, -1,
      56, 55, 57, -1,
      56, 57, 58, -1,
      58, 57, 59, -1,
      58, 59, 60, -1,
      60, 59, 61, -1,
      60, 61, 62, -1,
      62, 61, 63, -1,
      62, 63, 64, -1,
      64, 63, 65, -1,
      66, 64, 67, -1,
      67, 64, 65, -1,
      66, 67, 68, -1,
      66, 68, 69, -1,
      69, 68, 70, -1,
      69, 70, 71, -1,
      71, 70, 72, -1,
      71, 72, 73, -1,
      73, 72, 74, -1,
      73, 74, 75, -1,
      75, 74, 76, -1,
      75, 76, 77, -1,
      77, 76, 23, -1,
      77, 23, 21, -1,
      15, 51, 14, -1,
      14, 51, 18, -1,
      14, 18, 17, -1,
      15, 53, 51, -1,
      51, 53, 54, -1,
      51, 54, 49, -1,
      49, 54, 56, -1,
      49, 56, 47, -1,
      47, 56, 58, -1,
      47, 58, 45, -1,
      45, 58, 60, -1,
      45, 60, 43, -1,
      43, 60, 62, -1,
      43, 62, 40, -1,
      40, 62, 64, -1,
      40, 64, 38, -1,
      38, 64, 66, -1,
      38, 66, 36, -1,
      36, 66, 69, -1,
      36, 69, 34, -1,
      34, 69, 71, -1,
      34, 71, 32, -1,
      32, 71, 73, -1,
      32, 73, 30, -1,
      30, 73, 75, -1,
      30, 75, 28, -1,
      28, 75, 77, -1,
      28, 77, 26, -1,
      26, 77, 21, -1,
      26, 21, 24, -1,
      24, 21, 20, -1,
      50, 12, 19, -1,
      19, 12, 16, -1,
      25, 22, 27, -1,
      27, 22, 23, -1,
      27, 23, 29, -1,
      29, 23, 76, -1,
      29, 76, 31, -1,
      31, 76, 74, -1,
      31, 74, 33, -1,
      33, 74, 72, -1,
      33, 72, 35, -1,
      35, 72, 70, -1,
      35, 70, 37, -1,
      37, 70, 68, -1,
      37, 68, 39, -1,
      39, 68, 67, -1,
      39, 67, 41, -1,
      41, 67, 65, -1,
      41, 65, 42, -1,
      42, 65, 63, -1,
      42, 63, 44, -1,
      44, 63, 61, -1,
      44, 61, 46, -1,
      46, 61, 59, -1,
      46, 59, 48, -1,
      48, 59, 57, -1,
      48, 57, 50, -1,
      13, 12, 52, -1,
      52, 12, 50, -1,
      52, 50, 55, -1,
      55, 50, 57, -1,
      78, 79, 80, -1,
      80, 79, 81, -1,
      80, 81, 82, -1,
      82, 81, 83, -1,
      82, 83, 84, -1,
      84, 83, 85, -1,
      84, 85, 86, -1,
      86, 85, 87, -1,
      86, 87, 88, -1,
      88, 87, 89, -1,
      88, 89, 90, -1,
      90, 89, 91, -1,
      4, 90, 5, -1,
      5, 90, 91, -1,
      92, 10, 93, -1,
      93, 10, 11, -1,
      92, 93, 94, -1,
      92, 94, 95, -1,
      95, 94, 96, -1,
      95, 96, 97, -1,
      97, 96, 98, -1,
      97, 98, 99, -1,
      99, 98, 100, -1,
      99, 100, 101, -1,
      101, 100, 102, -1,
      101, 102, 103, -1,
      103, 102, 104, -1,
      103, 104, 105, -1,
      106, 105, 107, -1,
      107, 105, 104, -1,
      106, 107, 108, -1,
      108, 107, 109, -1,
      108, 109, 110, -1,
      110, 109, 111, -1,
      110, 111, 112, -1,
      112, 111, 113, -1,
      112, 113, 114, -1,
      114, 113, 115, -1,
      114, 115, 116, -1,
      116, 115, 117, -1,
      116, 117, 118, -1,
      118, 117, 119, -1,
      120, 118, 121, -1,
      121, 118, 119, -1,
      122, 120, 123, -1,
      123, 120, 121, -1,
      124, 122, 125, -1,
      125, 122, 123, -1,
      124, 125, 126, -1,
      124, 126, 127, -1,
      127, 126, 128, -1,
      127, 128, 129, -1,
      129, 128, 130, -1,
      129, 130, 131, -1,
      131, 130, 132, -1,
      131, 132, 133, -1,
      133, 132, 134, -1,
      133, 134, 135, -1,
      135, 134, 136, -1,
      135, 136, 137, -1,
      78, 137, 79, -1,
      79, 137, 136, -1,
      120, 122, 118, -1,
      118, 122, 124, -1,
      118, 124, 116, -1,
      116, 124, 127, -1,
      116, 127, 114, -1,
      114, 127, 129, -1,
      114, 129, 112, -1,
      112, 129, 131, -1,
      112, 131, 110, -1,
      110, 131, 133, -1,
      110, 133, 108, -1,
      108, 133, 135, -1,
      108, 135, 106, -1,
      106, 135, 137, -1,
      106, 137, 105, -1,
      105, 137, 78, -1,
      105, 78, 103, -1,
      103, 78, 80, -1,
      103, 80, 101, -1,
      101, 80, 82, -1,
      101, 82, 99, -1,
      99, 82, 84, -1,
      99, 84, 97, -1,
      97, 84, 86, -1,
      97, 86, 95, -1,
      95, 3, 92, -1,
      92, 3, 10, -1,
      4, 3, 90, -1,
      90, 3, 95, -1,
      90, 95, 88, -1,
      88, 95, 86, -1,
      5, 94, 6, -1,
      6, 94, 93, -1,
      6, 93, 11, -1,
      123, 121, 125, -1,
      125, 121, 119, -1,
      125, 119, 126, -1,
      126, 119, 117, -1,
      126, 117, 128, -1,
      128, 117, 115, -1,
      128, 115, 130, -1,
      130, 115, 113, -1,
      130, 113, 132, -1,
      132, 113, 111, -1,
      132, 111, 134, -1,
      134, 111, 109, -1,
      134, 109, 136, -1,
      136, 109, 107, -1,
      136, 107, 79, -1,
      79, 107, 104, -1,
      79, 104, 81, -1,
      81, 104, 102, -1,
      81, 102, 83, -1,
      83, 102, 100, -1,
      83, 100, 85, -1,
      85, 100, 98, -1,
      85, 98, 87, -1,
      87, 98, 96, -1,
      87, 96, 89, -1,
      89, 96, 94, -1,
      89, 94, 91, -1,
      91, 94, 5, -1,
      138, 139, 140, -1,
      140, 139, 141, -1,
      140, 141, 142, -1,
      142, 141, 143, -1,
      142, 143, 144, -1,
      144, 143, 145, -1,
      144, 145, 146, -1,
      146, 145, 147, -1,
      146, 147, 148, -1,
      148, 147, 149, -1,
      148, 149, 150, -1,
      150, 149, 151, -1,
      152, 150, 153, -1,
      153, 150, 151, -1,
      152, 153, 154, -1,
      152, 154, 155, -1,
      155, 154, 156, -1,
      155, 156, 157, -1,
      157, 156, 158, -1,
      157, 158, 159, -1,
      159, 158, 160, -1,
      159, 160, 161, -1,
      161, 160, 162, -1,
      161, 162, 163, -1,
      163, 162, 164, -1,
      163, 164, 165, -1,
      166, 165, 167, -1,
      167, 165, 164, -1,
      168, 166, 169, -1,
      169, 166, 167, -1,
      170, 168, 171, -1,
      171, 168, 169, -1,
      170, 171, 172, -1,
      172, 171, 173, -1,
      172, 173, 174, -1,
      174, 173, 175, -1,
      174, 175, 176, -1,
      176, 175, 177, -1,
      176, 177, 178, -1,
      178, 177, 179, -1,
      178, 179, 180, -1,
      180, 179, 181, -1,
      180, 181, 182, -1,
      182, 181, 183, -1,
      184, 182, 185, -1,
      185, 182, 183, -1,
      184, 185, 186, -1,
      184, 186, 187, -1,
      187, 186, 188, -1,
      187, 188, 189, -1,
      189, 188, 190, -1,
      189, 190, 191, -1,
      191, 190, 192, -1,
      191, 192, 193, -1,
      193, 192, 194, -1,
      193, 194, 195, -1,
      195, 194, 196, -1,
      195, 196, 197, -1,
      8, 197, 9, -1,
      9, 197, 196, -1,
      138, 1, 139, -1,
      139, 1, 2, -1,
      1, 195, 0, -1,
      0, 195, 197, -1,
      0, 197, 8, -1,
      166, 168, 165, -1,
      165, 168, 170, -1,
      165, 170, 163, -1,
      163, 170, 172, -1,
      163, 172, 161, -1,
      161, 172, 174, -1,
      161, 174, 159, -1,
      159, 174, 176, -1,
      159, 176, 157, -1,
      157, 176, 178, -1,
      157, 178, 155, -1,
      155, 178, 180, -1,
      155, 180, 152, -1,
      152, 180, 182, -1,
      152, 182, 150, -1,
      150, 182, 184, -1,
      150, 184, 148, -1,
      148, 184, 187, -1,
      148, 187, 146, -1,
      146, 187, 189, -1,
      146, 189, 144, -1,
      144, 189, 191, -1,
      144, 191, 142, -1,
      142, 191, 193, -1,
      142, 193, 140, -1,
      140, 193, 195, -1,
      140, 195, 138, -1,
      138, 195, 1, -1,
      169, 167, 171, -1,
      171, 167, 164, -1,
      171, 164, 173, -1,
      173, 164, 162, -1,
      173, 162, 175, -1,
      175, 162, 160, -1,
      175, 160, 177, -1,
      177, 160, 158, -1,
      177, 158, 179, -1,
      179, 158, 156, -1,
      179, 156, 181, -1,
      181, 156, 154, -1,
      181, 154, 183, -1,
      183, 154, 153, -1,
      183, 153, 185, -1,
      185, 153, 151, -1,
      185, 151, 186, -1,
      186, 151, 149, -1,
      186, 149, 188, -1,
      188, 149, 147, -1,
      188, 147, 190, -1,
      190, 147, 145, -1,
      190, 145, 192, -1,
      192, 145, 143, -1,
      192, 143, 194, -1,
      194, 7, 196, -1,
      196, 7, 9, -1,
      2, 7, 139, -1,
      139, 7, 194, -1,
      139, 194, 141, -1,
      141, 194, 143, -1,
    ]
  }
}

Shape {
  appearance Appearance {
    material Material {
      diffuseColor 0.0000 0.0000 0.0000
      specularColor 0.0000 0.0000 0.0000
      ambientIntensity 0.2
      transparency 0.0000
      shininess 0.5
    }
  }
  geometry IndexedFaceSet {
    ccw TRUE
    solid FALSE
    coord DEF co Coordinate {
      point [
        -0.015007 -0.014372 -0.236220,
        -0.015007 -0.018693 -0.236220,
        0.006118 -0.018693 -0.236220,
        -0.014047 0.016356 -0.236220,
        0.000837 0.016356 -0.236220,
        0.000837 0.003393 -0.236220,
        0.013800 -0.016652 -0.236220,
        0.013800 -0.012331 -0.236220,
        0.006118 0.020677 -0.236220,
        0.000837 -0.000928 -0.236220,
        0.000837 -0.014372 -0.236220,
        -0.013087 -0.000928 -0.236220,
        -0.013087 0.003393 -0.236220,
        0.033301 -0.017356 -0.236220,
        0.046448 -0.018693 -0.236220,
        0.029485 -0.018670 -0.236220,
        0.026948 -0.018933 -0.236220,
        -0.014047 0.020677 -0.236220,
        0.041010 0.010308 -0.236220,
        0.038702 0.013989 -0.236220,
        0.061332 0.020677 -0.236220,
        0.026897 0.016401 -0.236220,
        0.029844 0.015337 -0.236220,
        0.014506 -0.012722 -0.236220,
        0.032569 0.013515 -0.236220,
        0.034946 0.010890 -0.236220,
        0.037806 0.000572 -0.236220,
        0.037408 -0.003690 -0.236220,
        0.036338 -0.007076 -0.236220,
        0.027578 -0.014440 -0.236220,
        0.023906 -0.014852 -0.236220,
        0.030446 -0.013384 -0.236220,
        0.032862 -0.011755 -0.236220,
        0.034710 -0.009806 -0.236220,
        0.018679 -0.014272 -0.236220,
        0.036569 0.007850 -0.236220,
        0.037619 0.003635 -0.236220,
        0.035148 0.017407 -0.236220,
        0.066614 0.020677 -0.236220,
        0.066614 -0.018693 -0.236220,
        0.036468 -0.015334 -0.236220,
        0.039425 -0.012221 -0.236220,
        0.046448 -0.014372 -0.236220,
        0.041522 -0.008477 -0.236220,
        0.061332 -0.014372 -0.236220,
        0.042707 -0.004310 -0.236220,
        0.043088 0.000250 -0.236220,
        0.042521 0.005847 -0.236220,
        0.031408 0.019559 -0.236220,
        0.027019 0.020835 -0.236220,
        0.023065 0.021157 -0.236220,
        0.018352 0.020832 -0.236220,
        0.013800 0.019597 -0.236220,
        0.013800 0.014316 -0.236220,
        0.018235 0.016215 -0.236220,
        0.023020 0.016836 -0.236220,
        0.024633 -0.019173 -0.236220,
        0.023557 -0.019154 -0.236220,
        0.021975 -0.018933 -0.236220,
        0.017997 -0.018375 -0.236220,
        -0.063019 -0.018693 -0.236220,
        -0.057258 -0.018693 -0.236220,
        -0.052411 -0.007902 -0.236220,
        -0.050154 -0.011424 -0.236220,
        -0.046913 -0.014526 -0.236220,
        -0.042802 -0.016915 -0.236220,
        -0.072142 0.020677 -0.236220,
        -0.077423 0.020677 -0.236220,
        -0.092787 -0.018693 -0.236220,
        -0.087026 -0.018693 -0.236220,
        -0.083042 -0.007650 -0.236220,
        -0.066778 -0.007650 -0.236220,
        -0.022689 0.020677 -0.236220,
        -0.033800 0.020677 -0.236220,
        -0.048420 0.015544 -0.236220,
        -0.051204 0.012457 -0.236220,
        -0.053034 0.009071 -0.236220,
        -0.039487 0.020069 -0.236220,
        -0.044094 0.018452 -0.236220,
        -0.048379 0.015580 -0.236220,
        -0.038266 -0.018267 -0.236220,
        -0.033394 -0.018693 -0.236220,
        -0.022689 -0.018693 -0.236220,
        -0.054091 0.005192 -0.236220,
        -0.054377 0.001487 -0.236220,
        -0.053825 -0.003781 -0.236220,
        -0.320648 -0.190715 0.098425,
        -0.326989 -0.206026 0.098425,
        -0.337078 -0.219173 0.098425,
        -0.350225 -0.229261 0.098425,
        -0.365535 -0.235603 0.098425,
        -0.381966 -0.237766 0.098425,
        -0.398396 -0.235603 0.098425,
        -0.413706 -0.229261 0.098425,
        -0.426854 -0.219173 0.098425,
        -0.436942 -0.206026 0.098425,
        -0.436942 -0.142544 0.098425,
        -0.426854 -0.129397 0.098425,
        -0.413706 -0.119309 0.098425,
        -0.398396 -0.112967 0.098425,
        -0.381966 -0.110804 0.098425,
        -0.365535 -0.112967 0.098425,
        -0.350225 -0.119309 0.098425,
        -0.337078 -0.129397 0.098425,
        -0.326989 -0.142544 0.098425,
        -0.320648 -0.157855 0.098425,
        -0.318485 -0.174285 0.098425,
        -0.443283 -0.190715 0.098425,
        -0.445447 -0.174285 0.098425,
        -0.443283 -0.157855 0.098425,
        -0.318485 -0.174285 0.098031,
        -0.320648 -0.157855 0.098031,
        -0.326989 -0.142544 0.098031,
        -0.337078 -0.129397 0.098031,
        -0.350225 -0.119309 0.098031,
        -0.365535 -0.112967 0.098031,
        -0.381966 -0.110804 0.098031,
        -0.398396 -0.112967 0.098031,
        -0.413706 -0.119309 0.098031,
        -0.426854 -0.129397 0.098031,
        -0.436942 -0.142544 0.098031,
        -0.443283 -0.157855 0.098031,
        -0.445447 -0.174285 0.098031,
        -0.443283 -0.190715 0.098031,
        -0.436942 -0.206026 0.098031,
        -0.426854 -0.219173 0.098031,
        -0.413706 -0.229261 0.098031,
        -0.398396 -0.235603 0.098031,
        -0.381966 -0.237766 0.098031,
        -0.365535 -0.235603 0.098031,
        -0.350225 -0.229261 0.098031,
        -0.337078 -0.219173 0.098031,
        -0.326989 -0.206026 0.098031,
        -0.320648 -0.190715 0.098031,
        -0.381966 -0.174285 0.098031,
        -0.077423 0.020677 -0.235827,
        -0.092787 -0.018693 -0.235827,
        -0.087026 -0.018693 -0.235827,
        -0.083042 -0.007650 -0.235827,
        -0.066778 -0.007650 -0.235827,
        -0.063019 -0.018693 -0.235827,
        -0.057258 -0.018693 -0.235827,
        -0.072142 0.020677 -0.235827,
        -0.068106 -0.003329 -0.235827,
        -0.081272 -0.003329 -0.235827,
        -0.073980 0.013115 -0.235827,
        -0.074359 0.014481 -0.235827,
        -0.074610 0.015876 -0.235827,
        -0.074737 0.015876 -0.235827,
        -0.074994 0.014485 -0.235827,
        -0.075345 0.013115 -0.235827,
        -0.068106 -0.003329 -0.236220,
        -0.081272 -0.003329 -0.236220,
        -0.073980 0.013115 -0.236220,
        -0.074359 0.014481 -0.236220,
        -0.074610 0.015876 -0.236220,
        -0.074737 0.015876 -0.236220,
        -0.074994 0.014485 -0.236220,
        -0.075345 0.013115 -0.236220,
        -0.033394 -0.018693 -0.235827,
        -0.022689 -0.018693 -0.235827,
        -0.022689 0.020677 -0.235827,
        -0.033800 0.020677 -0.235827,
        -0.054377 0.001487 -0.235827,
        -0.054091 0.005192 -0.235827,
        -0.053034 0.009071 -0.235827,
        -0.051204 0.012457 -0.235827,
        -0.048420 0.015544 -0.235827,
        -0.048379 0.015580 -0.235827,
        -0.044094 0.018452 -0.235827,
        -0.039487 0.020069 -0.235827,
        -0.038266 -0.018267 -0.235827,
        -0.042802 -0.016915 -0.235827,
        -0.046913 -0.014526 -0.235827,
        -0.050154 -0.011424 -0.235827,
        -0.052411 -0.007902 -0.235827,
        -0.053825 -0.003781 -0.235827,
        -0.046474 0.010835 -0.235827,
        -0.044562 0.012866 -0.235827,
        -0.041687 0.014724 -0.235827,
        -0.038437 0.015861 -0.235827,
        -0.033777 0.016356 -0.235827,
        -0.027970 0.016356 -0.235827,
        -0.027970 -0.014372 -0.235827,
        -0.033559 -0.014372 -0.235827,
        -0.037713 -0.013985 -0.235827,
        -0.041026 -0.012951 -0.235827,
        -0.043711 -0.011357 -0.235827,
        -0.045919 -0.009176 -0.235827,
        -0.047580 -0.006461 -0.235827,
        -0.048734 -0.002760 -0.235827,
        -0.049096 0.001375 -0.235827,
        -0.048761 0.005293 -0.235827,
        -0.047842 0.008407 -0.235827,
        -0.033777 0.016356 -0.236220,
        -0.027970 0.016356 -0.236220,
        -0.038437 0.015861 -0.236220,
        -0.041687 0.014724 -0.236220,
        -0.044562 0.012866 -0.236220,
        -0.046474 0.010835 -0.236220,
        -0.047842 0.008407 -0.236220,
        -0.048761 0.005293 -0.236220,
        -0.049096 0.001375 -0.236220,
        -0.048734 -0.002760 -0.236220,
        -0.047580 -0.006461 -0.236220,
        -0.045919 -0.009176 -0.236220,
        -0.043711 -0.011357 -0.236220,
        -0.041026 -0.012951 -0.236220,
        -0.037713 -0.013985 -0.236220,
        -0.033559 -0.014372 -0.236220,
        -0.027970 -0.014372 -0.236220,
        -0.015007 -0.014372 -0.235827,
        -0.015007 -0.018693 -0.235827,
        0.006118 -0.018693 -0.235827,
        0.006118 0.020677 -0.235827,
        -0.014047 0.020677 -0.235827,
        -0.014047 0.016356 -0.235827,
        0.000837 0.016356 -0.235827,
        0.000837 0.003393 -0.235827,
        -0.013087 0.003393 -0.235827,
        -0.013087 -0.000928 -0.235827,
        0.000837 -0.000928 -0.235827,
        0.000837 -0.014372 -0.235827,
        0.013800 -0.012331 -0.235827,
        0.013800 -0.016652 -0.235827,
        0.017997 -0.018375 -0.235827,
        0.024633 -0.019173 -0.235827,
        0.023557 -0.019154 -0.235827,
        0.029485 -0.018670 -0.235827,
        0.033301 -0.017356 -0.235827,
        0.036468 -0.015334 -0.235827,
        0.039425 -0.012221 -0.235827,
        0.041522 -0.008477 -0.235827,
        0.042707 -0.004310 -0.235827,
        0.043088 0.000250 -0.235827,
        0.023065 0.021157 -0.235827,
        0.027019 0.020835 -0.235827,
        0.031408 0.019559 -0.235827,
        0.035148 0.017407 -0.235827,
        0.038702 0.013989 -0.235827,
        0.041010 0.010308 -0.235827,
        0.042521 0.005847 -0.235827,
        0.013800 0.019597 -0.235827,
        0.018352 0.020832 -0.235827,
        0.013800 0.014316 -0.235827,
        0.023020 0.016836 -0.235827,
        0.018235 0.016215 -0.235827,
        0.037806 0.000572 -0.235827,
        0.037619 0.003635 -0.235827,
        0.036569 0.007850 -0.235827,
        0.034946 0.010890 -0.235827,
        0.032569 0.013515 -0.235827,
        0.029844 0.015337 -0.235827,
        0.026897 0.016401 -0.235827,
        0.023906 -0.014852 -0.235827,
        0.027578 -0.014440 -0.235827,
        0.030446 -0.013384 -0.235827,
        0.032862 -0.011755 -0.235827,
        0.034710 -0.009806 -0.235827,
        0.036338 -0.007076 -0.235827,
        0.037408 -0.003690 -0.235827,
        0.014506 -0.012722 -0.235827,
        0.018679 -0.014272 -0.235827,
        0.046448 -0.014372 -0.235827,
        0.046448 -0.018693 -0.235827,
        0.066614 -0.018693 -0.235827,
        0.066614 0.020677 -0.235827,
        0.061332 0.020677 -0.235827,
        0.061332 -0.014372 -0.235827,
      ]
    }
    coordIndex [
      110, 106, 111, -1,
      111, 106, 105, -1,
      111, 105, 112, -1,
      112, 105, 104, -1,
      112, 104, 113, -1,
      113, 104, 103, -1,
      113, 103, 114, -1,
      114, 103, 102, -1,
      114, 102, 115, -1,
      115, 102, 101, -1,
      115, 101, 116, -1,
      116, 101, 100, -1,
      116, 100, 117, -1,
      117, 100, 99, -1,
      117, 99, 118, -1,
      118, 99, 98, -1,
      118, 98, 119, -1,
      119, 98, 97, -1,
      119, 97, 120, -1,
      120, 97, 96, -1,
      120, 96, 121, -1,
      121, 96, 109, -1,
      121, 109, 122, -1,
      122, 109, 108, -1,
      122, 108, 123, -1,
      123, 108, 107, -1,
      123, 107, 124, -1,
      124, 107, 95, -1,
      124, 95, 125, -1,
      125, 95, 94, -1,
      125, 94, 126, -1,
      126, 94, 93, -1,
      126, 93, 127, -1,
      127, 93, 92, -1,
      127, 92, 128, -1,
      128, 92, 91, -1,
      128, 91, 129, -1,
      129, 91, 90, -1,
      129, 90, 130, -1,
      130, 90, 89, -1,
      130, 89, 131, -1,
      131, 89, 88, -1,
      131, 88, 132, -1,
      132, 88, 87, -1,
      132, 87, 133, -1,
      133, 87, 86, -1,
      133, 86, 110, -1,
      110, 86, 106, -1,
      132, 133, 134, -1,
      134, 133, 110, -1,
      134, 110, 111, -1,
      129, 130, 134, -1,
      134, 130, 131, -1,
      134, 131, 132, -1,
      126, 127, 134, -1,
      134, 127, 128, -1,
      134, 128, 129, -1,
      123, 124, 134, -1,
      134, 124, 125, -1,
      134, 125, 126, -1,
      120, 121, 134, -1,
      134, 121, 122, -1,
      134, 122, 123, -1,
      117, 118, 134, -1,
      134, 118, 119, -1,
      134, 119, 120, -1,
      114, 115, 134, -1,
      134, 115, 116, -1,
      134, 116, 117, -1,
      111, 112, 134, -1,
      134, 112, 113, -1,
      134, 113, 114, -1,
      135, 136, 67, -1,
      67, 136, 68, -1,
      136, 137, 68, -1,
      68, 137, 69, -1,
      137, 138, 69, -1,
      69, 138, 70, -1,
      138, 139, 70, -1,
      70, 139, 71, -1,
      139, 140, 71, -1,
      71, 140, 60, -1,
      140, 141, 60, -1,
      60, 141, 61, -1,
      141, 142, 61, -1,
      61, 142, 66, -1,
      142, 135, 66, -1,
      66, 135, 67, -1,
      143, 139, 144, -1,
      144, 139, 138, -1,
      145, 142, 143, -1,
      143, 142, 141, -1,
      143, 141, 139, -1,
      139, 141, 140, -1,
      145, 146, 142, -1,
      142, 146, 147, -1,
      142, 147, 135, -1,
      135, 147, 148, -1,
      135, 148, 149, -1,
      149, 150, 135, -1,
      135, 150, 144, -1,
      135, 144, 136, -1,
      136, 144, 138, -1,
      136, 138, 137, -1,
      143, 144, 151, -1,
      151, 144, 152, -1,
      145, 143, 153, -1,
      153, 143, 151, -1,
      145, 153, 154, -1,
      145, 154, 146, -1,
      146, 154, 155, -1,
      146, 155, 147, -1,
      148, 147, 156, -1,
      156, 147, 155, -1,
      148, 156, 157, -1,
      148, 157, 149, -1,
      149, 157, 158, -1,
      149, 158, 150, -1,
      144, 150, 152, -1,
      152, 150, 158, -1,
      159, 160, 81, -1,
      81, 160, 82, -1,
      160, 161, 82, -1,
      82, 161, 72, -1,
      161, 162, 72, -1,
      72, 162, 73, -1,
      163, 84, 83, -1,
      163, 83, 164, -1,
      164, 83, 76, -1,
      164, 76, 165, -1,
      165, 76, 75, -1,
      165, 75, 166, -1,
      166, 75, 74, -1,
      166, 74, 167, -1,
      167, 74, 79, -1,
      167, 79, 168, -1,
      168, 79, 78, -1,
      168, 78, 169, -1,
      169, 78, 77, -1,
      169, 77, 170, -1,
      170, 77, 73, -1,
      170, 73, 162, -1,
      159, 81, 80, -1,
      159, 80, 171, -1,
      171, 80, 65, -1,
      171, 65, 172, -1,
      172, 65, 64, -1,
      172, 64, 173, -1,
      173, 64, 63, -1,
      173, 63, 174, -1,
      174, 63, 62, -1,
      174, 62, 175, -1,
      175, 62, 85, -1,
      175, 85, 176, -1,
      176, 85, 84, -1,
      176, 84, 163, -1,
      165, 166, 177, -1,
      177, 166, 167, -1,
      177, 167, 178, -1,
      178, 167, 168, -1,
      178, 168, 179, -1,
      179, 168, 169, -1,
      179, 169, 180, -1,
      180, 169, 170, -1,
      180, 170, 181, -1,
      181, 170, 162, -1,
      181, 162, 182, -1,
      182, 162, 161, -1,
      182, 161, 183, -1,
      183, 161, 160, -1,
      183, 160, 184, -1,
      184, 160, 159, -1,
      184, 159, 185, -1,
      185, 159, 171, -1,
      185, 171, 186, -1,
      186, 171, 172, -1,
      186, 172, 187, -1,
      187, 172, 173, -1,
      187, 173, 188, -1,
      188, 173, 174, -1,
      188, 174, 189, -1,
      189, 174, 175, -1,
      189, 175, 190, -1,
      190, 175, 176, -1,
      190, 176, 191, -1,
      191, 176, 163, -1,
      191, 163, 192, -1,
      192, 163, 164, -1,
      192, 164, 193, -1,
      193, 164, 165, -1,
      193, 165, 177, -1,
      181, 182, 194, -1,
      194, 182, 195, -1,
      181, 194, 196, -1,
      181, 196, 180, -1,
      180, 196, 197, -1,
      180, 197, 179, -1,
      179, 197, 198, -1,
      179, 198, 178, -1,
      178, 198, 199, -1,
      178, 199, 177, -1,
      177, 199, 200, -1,
      177, 200, 193, -1,
      193, 200, 201, -1,
      193, 201, 192, -1,
      192, 201, 202, -1,
      192, 202, 191, -1,
      191, 202, 203, -1,
      191, 203, 190, -1,
      190, 203, 204, -1,
      190, 204, 189, -1,
      189, 204, 205, -1,
      189, 205, 188, -1,
      188, 205, 206, -1,
      188, 206, 187, -1,
      187, 206, 207, -1,
      187, 207, 186, -1,
      186, 207, 208, -1,
      186, 208, 185, -1,
      185, 208, 209, -1,
      185, 209, 184, -1,
      183, 184, 210, -1,
      210, 184, 209, -1,
      182, 183, 195, -1,
      195, 183, 210, -1,
      211, 212, 0, -1,
      0, 212, 1, -1,
      212, 213, 1, -1,
      1, 213, 2, -1,
      213, 214, 2, -1,
      2, 214, 8, -1,
      214, 215, 8, -1,
      8, 215, 17, -1,
      215, 216, 17, -1,
      17, 216, 3, -1,
      216, 217, 3, -1,
      3, 217, 4, -1,
      217, 218, 4, -1,
      4, 218, 5, -1,
      218, 219, 5, -1,
      5, 219, 12, -1,
      219, 220, 12, -1,
      12, 220, 11, -1,
      220, 221, 11, -1,
      11, 221, 9, -1,
      221, 222, 9, -1,
      9, 222, 10, -1,
      222, 211, 10, -1,
      10, 211, 0, -1,
      213, 212, 211, -1,
      211, 222, 213, -1,
      213, 222, 221, -1,
      213, 221, 214, -1,
      216, 215, 217, -1,
      217, 215, 214, -1,
      217, 214, 218, -1,
      218, 214, 221, -1,
      218, 221, 219, -1,
      219, 221, 220, -1,
      223, 224, 7, -1,
      7, 224, 6, -1,
      6, 224, 225, -1,
      226, 56, 57, -1,
      226, 57, 227, -1,
      227, 57, 58, -1,
      227, 58, 225, -1,
      225, 58, 59, -1,
      225, 59, 6, -1,
      56, 226, 16, -1,
      16, 226, 228, -1,
      16, 228, 15, -1,
      15, 228, 229, -1,
      15, 229, 13, -1,
      13, 229, 230, -1,
      13, 230, 40, -1,
      40, 230, 231, -1,
      40, 231, 41, -1,
      41, 231, 232, -1,
      41, 232, 43, -1,
      43, 232, 233, -1,
      43, 233, 45, -1,
      45, 233, 234, -1,
      45, 234, 46, -1,
      235, 50, 49, -1,
      235, 49, 236, -1,
      236, 49, 48, -1,
      236, 48, 237, -1,
      237, 48, 37, -1,
      237, 37, 238, -1,
      238, 37, 19, -1,
      238, 19, 239, -1,
      239, 19, 18, -1,
      239, 18, 240, -1,
      240, 18, 47, -1,
      240, 47, 241, -1,
      241, 47, 46, -1,
      241, 46, 234, -1,
      242, 52, 51, -1,
      242, 51, 243, -1,
      243, 51, 50, -1,
      243, 50, 235, -1,
      242, 244, 52, -1,
      52, 244, 53, -1,
      245, 55, 54, -1,
      245, 54, 246, -1,
      246, 54, 53, -1,
      246, 53, 244, -1,
      247, 26, 36, -1,
      247, 36, 248, -1,
      248, 36, 35, -1,
      248, 35, 249, -1,
      249, 35, 25, -1,
      249, 25, 250, -1,
      250, 25, 24, -1,
      250, 24, 251, -1,
      251, 24, 22, -1,
      251, 22, 252, -1,
      252, 22, 21, -1,
      252, 21, 253, -1,
      253, 21, 55, -1,
      253, 55, 245, -1,
      254, 30, 29, -1,
      254, 29, 255, -1,
      255, 29, 31, -1,
      255, 31, 256, -1,
      256, 31, 32, -1,
      256, 32, 257, -1,
      257, 32, 33, -1,
      257, 33, 258, -1,
      258, 33, 28, -1,
      258, 28, 259, -1,
      259, 28, 27, -1,
      259, 27, 260, -1,
      260, 27, 26, -1,
      260, 26, 247, -1,
      223, 7, 23, -1,
      223, 23, 261, -1,
      261, 23, 34, -1,
      261, 34, 262, -1,
      262, 34, 30, -1,
      262, 30, 254, -1,
      255, 226, 254, -1,
      254, 226, 227, -1,
      254, 227, 262, -1,
      262, 227, 225, -1,
      262, 225, 261, -1,
      261, 225, 224, -1,
      261, 224, 223, -1,
      244, 242, 246, -1,
      246, 242, 243, -1,
      246, 243, 245, -1,
      245, 243, 235, -1,
      245, 235, 253, -1,
      253, 235, 236, -1,
      253, 236, 252, -1,
      252, 236, 237, -1,
      252, 237, 251, -1,
      251, 237, 238, -1,
      251, 238, 250, -1,
      250, 238, 239, -1,
      250, 239, 249, -1,
      249, 239, 240, -1,
      249, 240, 248, -1,
      248, 240, 241, -1,
      248, 241, 247, -1,
      247, 241, 234, -1,
      247, 234, 260, -1,
      260, 234, 233, -1,
      260, 233, 259, -1,
      259, 233, 232, -1,
      259, 232, 258, -1,
      258, 232, 231, -1,
      258, 231, 257, -1,
      257, 231, 230, -1,
      257, 230, 256, -1,
      256, 230, 229, -1,
      256, 229, 255, -1,
      255, 229, 228, -1,
      255, 228, 226, -1,
      263, 264, 42, -1,
      42, 264, 14, -1,
      264, 265, 14, -1,
      14, 265, 39, -1,
      265, 266, 39, -1,
      39, 266, 38, -1,
      266, 267, 38, -1,
      38, 267, 20, -1,
      267, 268, 20, -1,
      20, 268, 44, -1,
      268, 263, 44, -1,
      44, 263, 42, -1,
      267, 266, 268, -1,
      268, 266, 265, -1,
      268, 265, 263, -1,
      263, 265, 264, -1,
    ]
  }
}

Shape {
  appearance Appearance {
    material Material {
      diffuseColor 0.2510 0.2510 0.2510
      specularColor 0.1255 0.1255 0.1255
      ambientIntensity 0.2
      transparency 0.0000
      shininess 0.5
    }
  }
  geometry IndexedFaceSet {
    ccw TRUE
    solid FALSE
    coord DEF co Coordinate {
      point [
        -0.068106 -0.003329 -0.236220,
        -0.081272 -0.003329 -0.236220,
        -0.073980 0.013115 -0.236220,
        -0.074359 0.014481 -0.236220,
        -0.074610 0.015876 -0.236220,
        -0.074737 0.015876 -0.236220,
        -0.074994 0.014485 -0.236220,
        -0.075345 0.013115 -0.236220,
        -0.033777 0.016356 -0.236220,
        -0.027970 0.016356 -0.236220,
        -0.038437 0.015861 -0.236220,
        -0.041687 0.014724 -0.236220,
        -0.044562 0.012866 -0.236220,
        -0.046474 0.010835 -0.236220,
        -0.047842 0.008407 -0.236220,
        -0.048761 0.005293 -0.236220,
        -0.049096 0.001375 -0.236220,
        -0.048734 -0.002760 -0.236220,
        -0.047580 -0.006461 -0.236220,
        -0.045919 -0.009176 -0.236220,
        -0.043711 -0.011357 -0.236220,
        -0.041026 -0.012951 -0.236220,
        -0.037713 -0.013985 -0.236220,
        -0.033559 -0.014372 -0.236220,
        -0.027970 -0.014372 -0.236220,
      ]
    }
    coordIndex [
      0, 1, 2, -1,
      2, 1, 7, -1,
      2, 7, 3, -1,
      3, 7, 6, -1,
      3, 6, 4, -1,
      4, 6, 5, -1,
      9, 24, 8, -1,
      8, 24, 23, -1,
      8, 23, 22, -1,
      16, 15, 8, -1,
      8, 15, 14, -1,
      8, 14, 10, -1,
      22, 21, 8, -1,
      8, 21, 20, -1,
      8, 20, 19, -1,
      19, 18, 8, -1,
      8, 18, 17, -1,
      8, 17, 16, -1,
      13, 12, 14, -1,
      14, 12, 11, -1,
      14, 11, 10, -1,
    ]
  }
}
