#VRML V2.0 utf8

Shape {
  appearance Appearance {
    material Material {
      diffuseColor 0.2510 0.2510 0.2510
      specularColor 0.1255 0.1255 0.1255
      ambientIntensity 0.2
      transparency 0.0000
      shininess 0.5
    }
  }
  geometry IndexedFaceSet {
    ccw TRUE
    solid FALSE
    coord DEF co Coordinate {
      point [
        0.334646 0.177165 0.019685,
        0.334646 0.059055 0.019685,
        0.334252 0.059054 0.019685,
        0.026193 -0.020613 0.019685,
        0.026193 -0.024934 0.019685,
        0.022352 -0.027214 0.019685,
        0.030390 -0.026657 0.019685,
        0.030628 0.007933 0.019685,
        0.026899 -0.021004 0.019685,
        0.035413 0.008555 0.019685,
        0.039290 0.008119 0.019685,
        0.042237 0.007056 0.019685,
        0.044962 0.005233 0.019685,
        0.047339 0.002608 0.019685,
        0.050200 -0.007709 0.019685,
        0.049801 -0.011971 0.019685,
        0.048731 -0.015358 0.019685,
        0.039971 -0.022721 0.019685,
        0.036298 -0.023133 0.019685,
        0.042839 -0.021665 0.019685,
        0.045256 -0.020037 0.019685,
        0.047103 -0.018088 0.019685,
        0.031072 -0.022553 0.019685,
        0.079007 -0.026974 0.019685,
        0.039342 -0.027214 0.019685,
        0.058842 -0.026974 0.019685,
        0.041878 -0.026951 0.019685,
        0.045694 -0.025638 0.019685,
        0.048963 -0.000431 0.019685,
        0.050012 -0.004646 0.019685,
        0.022352 0.177165 0.019685,
        0.026193 0.011315 0.019685,
        0.026193 0.006034 0.019685,
        0.053403 0.002026 0.019685,
        0.051096 0.005707 0.019685,
        0.073726 0.012396 0.019685,
        0.216142 0.176772 0.019685,
        0.334252 0.176772 0.019685,
        0.048861 -0.023616 0.019685,
        0.051818 -0.020502 0.019685,
        0.058842 -0.022653 0.019685,
        0.053915 -0.016759 0.019685,
        0.073726 -0.022653 0.019685,
        0.047541 0.009126 0.019685,
        0.043802 0.011278 0.019685,
        0.039413 0.012553 0.019685,
        0.055100 -0.012591 0.019685,
        0.055481 -0.008032 0.019685,
        0.054915 -0.002435 0.019685,
        0.035458 0.012876 0.019685,
        0.030745 0.012551 0.019685,
        0.334252 -0.059054 0.019685,
        0.334646 -0.059055 0.019685,
        0.334252 -0.176772 0.019685,
        0.334646 -0.177165 0.019685,
        0.216142 -0.176772 0.019685,
        0.034369 -0.027214 0.019685,
        0.035950 -0.027436 0.019685,
        0.022352 -0.177165 0.019685,
        0.037026 -0.027454 0.019685,
        0.216142 -0.027214 0.019685,
        0.079007 0.012396 0.019685,
        -0.002614 -0.026974 0.019685,
        0.018511 -0.026974 0.019685,
        -0.044865 -0.026974 0.019685,
        -0.040018 -0.016184 0.019685,
        -0.037760 -0.019705 0.019685,
        0.018511 0.012396 0.019685,
        -0.034520 -0.022808 0.019685,
        -0.030409 -0.025197 0.019685,
        -0.025872 -0.026549 0.019685,
        -0.334252 0.059054 0.019685,
        -0.334646 0.059055 0.019685,
        -0.334252 0.176772 0.019685,
        -0.334646 0.177165 0.019685,
        -0.216142 0.176772 0.019685,
        -0.001654 0.012396 0.019685,
        -0.059748 0.012396 0.019685,
        -0.065030 0.012396 0.019685,
        -0.216142 -0.027214 0.019685,
        0.013230 0.008075 0.019685,
        0.013230 -0.004889 0.019685,
        -0.001654 0.008075 0.019685,
        -0.000693 -0.004889 0.019685,
        -0.010296 0.012396 0.019685,
        -0.000693 -0.009210 0.019685,
        0.013230 -0.009210 0.019685,
        0.013230 -0.022653 0.019685,
        -0.002614 -0.022653 0.019685,
        -0.010296 -0.026974 0.019685,
        -0.021001 -0.026974 0.019685,
        -0.027094 0.011788 0.019685,
        -0.031700 0.010170 0.019685,
        -0.035985 0.007298 0.019685,
        -0.080394 -0.026974 0.019685,
        -0.074632 -0.026974 0.019685,
        -0.036027 0.007263 0.019685,
        -0.038811 0.004175 0.019685,
        -0.040641 0.000789 0.019685,
        -0.021406 0.012396 0.019685,
        -0.041698 -0.003089 0.019685,
        -0.041984 -0.006794 0.019685,
        -0.041431 -0.012063 0.019685,
        -0.070649 -0.015931 0.019685,
        -0.054385 -0.015931 0.019685,
        -0.050626 -0.026974 0.019685,
        -0.334646 -0.177165 0.019685,
        -0.334646 -0.059055 0.019685,
        -0.334252 -0.059054 0.019685,
        -0.216142 -0.176772 0.019685,
        -0.334252 -0.176772 0.019685,
        -0.334646 0.177165 0.255906,
        -0.334646 0.059055 0.255906,
        -0.334252 0.059054 0.255906,
        0.334646 -0.059055 0.255906,
        0.334252 -0.059054 0.255906,
        0.334646 -0.177165 0.255906,
        0.334252 -0.176772 0.255906,
        0.216142 0.176772 0.255906,
        -0.216142 0.176772 0.255906,
        0.216142 -0.176772 0.255906,
        -0.216142 -0.176772 0.255906,
        -0.334646 -0.177165 0.255906,
        -0.334252 -0.176772 0.255906,
        -0.334646 -0.059055 0.255906,
        -0.334252 -0.059054 0.255906,
        0.334252 0.059054 0.255906,
        0.334646 0.059055 0.255906,
        0.334252 0.176772 0.255906,
        0.334646 0.177165 0.255906,
        -0.334252 0.176772 0.255906,
      ]
    }
    coordIndex [
      0, 1, 2, -1,
      3, 4, 5, -1,
      5, 4, 6, -1,
      3, 7, 8, -1,
      8, 7, 9, -1,
      8, 9, 10, -1,
      10, 11, 8, -1,
      8, 11, 12, -1,
      8, 12, 13, -1,
      14, 15, 8, -1,
      8, 15, 16, -1,
      17, 18, 19, -1,
      19, 18, 20, -1,
      16, 21, 8, -1,
      8, 21, 20, -1,
      8, 20, 22, -1,
      22, 20, 18, -1,
      23, 24, 25, -1,
      25, 24, 26, -1,
      25, 26, 27, -1,
      13, 28, 8, -1,
      8, 28, 29, -1,
      8, 29, 14, -1,
      30, 31, 32, -1,
      33, 34, 35, -1,
      35, 34, 30, -1,
      35, 30, 36, -1,
      36, 30, 0, -1,
      36, 0, 37, -1,
      37, 0, 2, -1,
      27, 38, 25, -1,
      25, 38, 39, -1,
      25, 39, 40, -1,
      40, 39, 41, -1,
      40, 41, 42, -1,
      34, 43, 30, -1,
      30, 43, 44, -1,
      30, 44, 45, -1,
      41, 46, 42, -1,
      42, 46, 47, -1,
      42, 47, 35, -1,
      35, 47, 48, -1,
      35, 48, 33, -1,
      45, 49, 30, -1,
      30, 49, 50, -1,
      30, 50, 31, -1,
      51, 52, 53, -1,
      53, 52, 54, -1,
      53, 54, 55, -1,
      56, 57, 58, -1,
      58, 57, 59, -1,
      58, 59, 24, -1,
      54, 58, 55, -1,
      55, 58, 24, -1,
      55, 24, 60, -1,
      60, 24, 23, -1,
      60, 23, 36, -1,
      36, 23, 61, -1,
      36, 61, 35, -1,
      62, 63, 5, -1,
      64, 65, 66, -1,
      63, 67, 5, -1,
      5, 67, 30, -1,
      5, 30, 3, -1,
      3, 30, 32, -1,
      3, 32, 7, -1,
      66, 68, 64, -1,
      64, 68, 69, -1,
      64, 69, 70, -1,
      71, 72, 73, -1,
      73, 72, 74, -1,
      73, 74, 75, -1,
      75, 74, 30, -1,
      75, 30, 76, -1,
      76, 30, 67, -1,
      77, 78, 75, -1,
      75, 78, 79, -1,
      80, 81, 82, -1,
      82, 81, 83, -1,
      82, 83, 84, -1,
      84, 83, 85, -1,
      86, 87, 85, -1,
      85, 87, 88, -1,
      85, 88, 84, -1,
      84, 88, 62, -1,
      84, 62, 89, -1,
      89, 62, 5, -1,
      89, 5, 90, -1,
      91, 92, 77, -1,
      77, 92, 93, -1,
      94, 95, 5, -1,
      93, 96, 77, -1,
      77, 96, 97, -1,
      77, 97, 98, -1,
      91, 77, 99, -1,
      99, 77, 75, -1,
      99, 75, 84, -1,
      84, 75, 76, -1,
      84, 76, 82, -1,
      98, 100, 77, -1,
      77, 100, 101, -1,
      77, 101, 64, -1,
      64, 101, 102, -1,
      64, 102, 65, -1,
      103, 104, 95, -1,
      95, 104, 105, -1,
      95, 105, 5, -1,
      5, 105, 64, -1,
      5, 64, 90, -1,
      90, 64, 70, -1,
      106, 107, 108, -1,
      78, 94, 79, -1,
      79, 94, 5, -1,
      79, 5, 109, -1,
      6, 56, 5, -1,
      5, 56, 58, -1,
      5, 58, 109, -1,
      109, 58, 106, -1,
      109, 106, 110, -1,
      110, 106, 108, -1,
      111, 112, 113, -1,
      114, 115, 116, -1,
      116, 115, 117, -1,
      118, 119, 120, -1,
      120, 119, 121, -1,
      117, 120, 116, -1,
      116, 120, 121, -1,
      116, 121, 122, -1,
      122, 121, 123, -1,
      122, 123, 124, -1,
      124, 123, 125, -1,
      126, 127, 128, -1,
      128, 127, 129, -1,
      113, 130, 111, -1,
      111, 130, 119, -1,
      111, 119, 129, -1,
      129, 119, 118, -1,
      129, 118, 128, -1,
    ]
  }
}

Shape {
  appearance Appearance {
    material Material {
      diffuseColor 1.0000 1.0000 1.0000
      specularColor 0.8784 0.8784 0.8784
      ambientIntensity 0.2
      transparency 0.0000
      shininess 0.5
    }
  }
  geometry IndexedFaceSet {
    ccw TRUE
    solid FALSE
    coord DEF co Coordinate {
      point [
        0.334646 0.059055 0.019685,
        0.334252 0.059054 0.019685,
        0.334252 -0.059054 0.019685,
        0.334646 -0.059055 0.019685,
        -0.334252 0.059054 0.019685,
        -0.334646 0.059055 0.019685,
        -0.334646 -0.059055 0.019685,
        -0.334252 -0.059054 0.019685,
        -0.334646 0.059055 0.255906,
        -0.334252 0.059054 0.255906,
        0.334646 -0.059055 0.255906,
        0.334252 -0.059054 0.255906,
        -0.334646 -0.059055 0.255906,
        -0.334252 -0.059054 0.255906,
        0.334252 0.059054 0.255906,
        0.334646 0.059055 0.255906,
      ]
    }
    coordIndex [
      0, 15, 1, -1,
      1, 15, 14, -1,
      2, 11, 3, -1,
      3, 11, 10, -1,
      4, 9, 5, -1,
      5, 9, 8, -1,
      6, 12, 7, -1,
      7, 12, 13, -1,
    ]
  }
}

Shape {
  appearance Appearance {
    material Material {
      diffuseColor 0.2510 0.2510 0.2510
      specularColor 0.1255 0.1255 0.1255
      ambientIntensity 0.2
      transparency 0.0000
      shininess 0.5
    }
  }
  geometry IndexedFaceSet {
    ccw TRUE
    solid FALSE
    coord DEF co Coordinate {
      point [
        0.334646 0.177165 0.019685,
        0.334646 0.059055 0.019685,
        0.022352 0.177165 0.019685,
        0.334646 -0.059055 0.019685,
        0.334646 -0.177165 0.019685,
        0.022352 -0.177165 0.019685,
        -0.334646 0.059055 0.019685,
        -0.334646 0.177165 0.019685,
        -0.334646 -0.177165 0.019685,
        -0.334646 -0.059055 0.019685,
        -0.334646 0.177165 0.255906,
        -0.334646 0.059055 0.255906,
        0.334646 -0.059055 0.255906,
        0.334646 -0.177165 0.255906,
        -0.334646 -0.177165 0.255906,
        -0.334646 -0.059055 0.255906,
        0.334646 0.059055 0.255906,
        0.334646 0.177165 0.255906,
      ]
    }
    coordIndex [
      12, 13, 3, -1,
      3, 13, 4, -1,
      11, 10, 6, -1,
      6, 10, 7, -1,
      1, 0, 16, -1,
      16, 0, 17, -1,
      7, 10, 2, -1,
      2, 10, 17, -1,
      2, 17, 0, -1,
      9, 8, 15, -1,
      15, 8, 14, -1,
      14, 8, 13, -1,
      13, 8, 5, -1,
      13, 5, 4, -1,
    ]
  }
}

Shape {
  appearance Appearance {
    material Material {
      diffuseColor 0.8549 0.8549 0.8549
      specularColor 0.4275 0.4275 0.4275
      ambientIntensity 0.2
      transparency 0.0000
      shininess 0.5
    }
  }
  geometry IndexedFaceSet {
    ccw TRUE
    solid FALSE
    coord DEF co Coordinate {
      point [
        0.334252 0.059054 0.019685,
        0.216142 0.176772 0.019685,
        0.334252 0.176772 0.019685,
        0.334252 -0.059054 0.019685,
        0.334252 -0.176772 0.019685,
        0.216142 -0.176772 0.019685,
        0.216142 -0.027214 0.019685,
        -0.334252 0.059054 0.019685,
        -0.334252 0.176772 0.019685,
        -0.216142 0.176772 0.019685,
        -0.216142 -0.027214 0.019685,
        -0.334252 -0.059054 0.019685,
        -0.216142 -0.176772 0.019685,
        -0.334252 -0.176772 0.019685,
        -0.334252 0.059054 0.255906,
        0.334252 -0.059054 0.255906,
        0.334252 -0.176772 0.255906,
        0.216142 0.176772 0.255906,
        -0.216142 0.176772 0.255906,
        0.216142 -0.176772 0.255906,
        -0.216142 -0.176772 0.255906,
        -0.334252 -0.176772 0.255906,
        -0.334252 -0.059054 0.255906,
        0.334252 0.059054 0.255906,
        0.334252 0.176772 0.255906,
        -0.334252 0.176772 0.255906,
        -0.216142 -0.176772 0.275591,
        -0.334252 -0.176772 0.275591,
        -0.216142 0.176772 0.275591,
        -0.334252 0.176772 0.275591,
        -0.334252 0.176772 0.000000,
        -0.334252 0.040170 0.000000,
        -0.334252 0.040170 0.275591,
        -0.334252 -0.040129 0.275591,
        -0.334252 -0.040129 0.000000,
        -0.334252 -0.176772 0.000000,
        -0.324643 0.039004 0.275591,
        -0.324643 0.039004 0.000000,
        -0.315593 0.035571 0.275591,
        -0.315593 0.035571 0.000000,
        -0.307628 0.030073 0.275591,
        -0.307628 0.030073 0.000000,
        -0.301209 0.022828 0.275591,
        -0.301209 0.022828 0.000000,
        -0.296711 0.014258 0.275591,
        -0.296711 0.014258 0.000000,
        -0.294395 0.004860 0.275591,
        -0.294395 0.004860 0.000000,
        -0.294395 -0.004819 0.275591,
        -0.294395 -0.004819 0.000000,
        -0.296711 -0.014217 0.275591,
        -0.296711 -0.014217 0.000000,
        -0.301209 -0.022787 0.275591,
        -0.301209 -0.022787 0.000000,
        -0.307628 -0.030032 0.275591,
        -0.307628 -0.030032 0.000000,
        -0.315593 -0.035530 0.275591,
        -0.315593 -0.035530 0.000000,
        -0.324643 -0.038963 0.275591,
        -0.324643 -0.038963 0.000000,
        -0.216142 -0.176772 0.000000,
        -0.216142 0.176772 0.000000,
        0.216142 0.176772 0.275591,
        0.334252 0.176772 0.275591,
        0.216142 -0.176772 0.275591,
        0.334252 -0.176772 0.275591,
        0.334252 0.040749 0.275591,
        0.334252 0.040749 0.000000,
        0.334252 0.176772 0.000000,
        0.334252 -0.176772 0.000000,
        0.334252 -0.039550 0.000000,
        0.334252 -0.039550 0.275591,
        0.216142 0.176772 0.000000,
        0.216142 -0.176772 0.000000,
        0.324643 -0.038384 0.275591,
        0.324643 -0.038384 0.000000,
        0.315593 -0.034952 0.275591,
        0.315593 -0.034952 0.000000,
        0.307628 -0.029453 0.275591,
        0.307628 -0.029453 0.000000,
        0.301209 -0.022208 0.275591,
        0.301209 -0.022208 0.000000,
        0.296711 -0.013638 0.275591,
        0.296711 -0.013638 0.000000,
        0.294395 -0.004240 0.275591,
        0.294395 -0.004240 0.000000,
        0.294395 0.005439 0.275591,
        0.294395 0.005439 0.000000,
        0.296711 0.014837 0.275591,
        0.296711 0.014837 0.000000,
        0.301209 0.023407 0.275591,
        0.301209 0.023407 0.000000,
        0.307628 0.030652 0.275591,
        0.307628 0.030652 0.000000,
        0.315593 0.036150 0.275591,
        0.315593 0.036150 0.000000,
        0.324643 0.039583 0.275591,
        0.324643 0.039583 0.000000,
      ]
    }
    coordIndex [
      20, 26, 21, -1,
      21, 26, 27, -1,
      18, 28, 20, -1,
      20, 28, 26, -1,
      25, 29, 18, -1,
      18, 29, 28, -1,
      8, 30, 7, -1,
      7, 30, 31, -1,
      7, 31, 14, -1,
      14, 31, 32, -1,
      14, 32, 25, -1,
      25, 32, 29, -1,
      21, 27, 22, -1,
      22, 27, 33, -1,
      22, 33, 11, -1,
      11, 33, 34, -1,
      11, 34, 13, -1,
      13, 34, 35, -1,
      32, 31, 36, -1,
      36, 31, 37, -1,
      36, 37, 38, -1,
      38, 37, 39, -1,
      38, 39, 40, -1,
      40, 39, 41, -1,
      40, 41, 42, -1,
      42, 41, 43, -1,
      42, 43, 44, -1,
      44, 43, 45, -1,
      44, 45, 46, -1,
      46, 45, 47, -1,
      46, 47, 48, -1,
      48, 47, 49, -1,
      48, 49, 50, -1,
      50, 49, 51, -1,
      50, 51, 52, -1,
      52, 51, 53, -1,
      52, 53, 54, -1,
      54, 53, 55, -1,
      54, 55, 56, -1,
      56, 55, 57, -1,
      56, 57, 58, -1,
      58, 57, 59, -1,
      58, 59, 33, -1,
      33, 59, 34, -1,
      35, 60, 13, -1,
      13, 60, 12, -1,
      12, 60, 10, -1,
      10, 60, 61, -1,
      10, 61, 9, -1,
      61, 30, 9, -1,
      9, 30, 8, -1,
      50, 52, 26, -1,
      42, 28, 40, -1,
      40, 28, 38, -1,
      38, 28, 36, -1,
      36, 28, 29, -1,
      36, 29, 32, -1,
      42, 44, 28, -1,
      28, 44, 46, -1,
      28, 46, 26, -1,
      26, 46, 48, -1,
      26, 48, 50, -1,
      52, 54, 26, -1,
      26, 54, 56, -1,
      26, 56, 27, -1,
      27, 56, 58, -1,
      27, 58, 33, -1,
      45, 43, 61, -1,
      53, 60, 55, -1,
      55, 60, 57, -1,
      43, 41, 61, -1,
      61, 41, 39, -1,
      61, 39, 30, -1,
      30, 39, 37, -1,
      30, 37, 31, -1,
      57, 60, 59, -1,
      59, 60, 35, -1,
      59, 35, 34, -1,
      53, 51, 60, -1,
      60, 51, 49, -1,
      60, 49, 61, -1,
      61, 49, 47, -1,
      61, 47, 45, -1,
      17, 62, 24, -1,
      24, 62, 63, -1,
      19, 64, 17, -1,
      17, 64, 62, -1,
      16, 65, 19, -1,
      19, 65, 64, -1,
      24, 63, 23, -1,
      23, 63, 66, -1,
      23, 66, 0, -1,
      0, 66, 67, -1,
      0, 67, 2, -1,
      2, 67, 68, -1,
      4, 69, 3, -1,
      3, 69, 70, -1,
      3, 70, 15, -1,
      15, 70, 71, -1,
      15, 71, 16, -1,
      16, 71, 65, -1,
      68, 72, 2, -1,
      2, 72, 1, -1,
      1, 72, 6, -1,
      6, 72, 73, -1,
      6, 73, 5, -1,
      73, 69, 5, -1,
      5, 69, 4, -1,
      71, 70, 74, -1,
      74, 70, 75, -1,
      74, 75, 76, -1,
      76, 75, 77, -1,
      76, 77, 78, -1,
      78, 77, 79, -1,
      78, 79, 80, -1,
      80, 79, 81, -1,
      80, 81, 82, -1,
      82, 81, 83, -1,
      82, 83, 84, -1,
      84, 83, 85, -1,
      84, 85, 86, -1,
      86, 85, 87, -1,
      86, 87, 88, -1,
      88, 87, 89, -1,
      88, 89, 90, -1,
      90, 89, 91, -1,
      90, 91, 92, -1,
      92, 91, 93, -1,
      92, 93, 94, -1,
      94, 93, 95, -1,
      94, 95, 96, -1,
      96, 95, 97, -1,
      96, 97, 66, -1,
      66, 97, 67, -1,
      62, 88, 90, -1,
      80, 64, 78, -1,
      78, 64, 76, -1,
      90, 92, 62, -1,
      62, 92, 94, -1,
      62, 94, 63, -1,
      63, 94, 96, -1,
      63, 96, 66, -1,
      76, 64, 74, -1,
      74, 64, 65, -1,
      74, 65, 71, -1,
      80, 82, 64, -1,
      64, 82, 84, -1,
      64, 84, 62, -1,
      62, 84, 86, -1,
      62, 86, 88, -1,
      68, 67, 97, -1,
      83, 81, 73, -1,
      93, 91, 72, -1,
      68, 97, 72, -1,
      72, 97, 95, -1,
      72, 95, 93, -1,
      91, 89, 72, -1,
      72, 89, 87, -1,
      72, 87, 73, -1,
      73, 87, 85, -1,
      73, 85, 83, -1,
      81, 79, 73, -1,
      73, 79, 77, -1,
      73, 77, 69, -1,
      69, 77, 75, -1,
      69, 75, 70, -1,
    ]
  }
}

Shape {
  appearance Appearance {
    material Material {
      diffuseColor 1.0000 1.0000 1.0000
      specularColor 0.8784 0.8784 0.8784
      ambientIntensity 0.2
      transparency 0.0000
      shininess 0.5
    }
  }
  geometry IndexedFaceSet {
    ccw TRUE
    solid FALSE
    coord DEF co Coordinate {
      point [
        0.026193 -0.020613 0.019685,
        0.026193 -0.024934 0.019685,
        0.030390 -0.026657 0.019685,
        0.030628 0.007933 0.019685,
        0.026899 -0.021004 0.019685,
        0.035413 0.008555 0.019685,
        0.039290 0.008119 0.019685,
        0.042237 0.007056 0.019685,
        0.044962 0.005233 0.019685,
        0.047339 0.002608 0.019685,
        0.050200 -0.007709 0.019685,
        0.049801 -0.011971 0.019685,
        0.048731 -0.015358 0.019685,
        0.039971 -0.022721 0.019685,
        0.036298 -0.023133 0.019685,
        0.042839 -0.021665 0.019685,
        0.045256 -0.020037 0.019685,
        0.047103 -0.018088 0.019685,
        0.031072 -0.022553 0.019685,
        0.079007 -0.026974 0.019685,
        0.039342 -0.027214 0.019685,
        0.058842 -0.026974 0.019685,
        0.041878 -0.026951 0.019685,
        0.045694 -0.025638 0.019685,
        0.048963 -0.000431 0.019685,
        0.050012 -0.004646 0.019685,
        0.026193 0.011315 0.019685,
        0.026193 0.006034 0.019685,
        0.053403 0.002026 0.019685,
        0.051096 0.005707 0.019685,
        0.073726 0.012396 0.019685,
        0.048861 -0.023616 0.019685,
        0.051818 -0.020502 0.019685,
        0.058842 -0.022653 0.019685,
        0.053915 -0.016759 0.019685,
        0.073726 -0.022653 0.019685,
        0.047541 0.009126 0.019685,
        0.043802 0.011278 0.019685,
        0.039413 0.012553 0.019685,
        0.055100 -0.012591 0.019685,
        0.055481 -0.008032 0.019685,
        0.054915 -0.002435 0.019685,
        0.035458 0.012876 0.019685,
        0.030745 0.012551 0.019685,
        0.034369 -0.027214 0.019685,
        0.035950 -0.027436 0.019685,
        0.037026 -0.027454 0.019685,
        0.079007 0.012396 0.019685,
        -0.002614 -0.026974 0.019685,
        0.018511 -0.026974 0.019685,
        -0.044865 -0.026974 0.019685,
        -0.040018 -0.016184 0.019685,
        -0.037760 -0.019705 0.019685,
        0.018511 0.012396 0.019685,
        -0.034520 -0.022808 0.019685,
        -0.030409 -0.025197 0.019685,
        -0.025872 -0.026549 0.019685,
        -0.001654 0.012396 0.019685,
        -0.059748 0.012396 0.019685,
        -0.065030 0.012396 0.019685,
        0.013230 0.008075 0.019685,
        0.013230 -0.004889 0.019685,
        -0.001654 0.008075 0.019685,
        -0.000693 -0.004889 0.019685,
        -0.010296 0.012396 0.019685,
        -0.000693 -0.009210 0.019685,
        0.013230 -0.009210 0.019685,
        0.013230 -0.022653 0.019685,
        -0.002614 -0.022653 0.019685,
        -0.010296 -0.026974 0.019685,
        -0.021001 -0.026974 0.019685,
        -0.027094 0.011788 0.019685,
        -0.031700 0.010170 0.019685,
        -0.035985 0.007298 0.019685,
        -0.080394 -0.026974 0.019685,
        -0.074632 -0.026974 0.019685,
        -0.036027 0.007263 0.019685,
        -0.038811 0.004175 0.019685,
        -0.040641 0.000789 0.019685,
        -0.021406 0.012396 0.019685,
        -0.041698 -0.003089 0.019685,
        -0.041984 -0.006794 0.019685,
        -0.041431 -0.012063 0.019685,
        -0.070649 -0.015931 0.019685,
        -0.054385 -0.015931 0.019685,
        -0.050626 -0.026974 0.019685,
        -0.065030 0.012396 0.023622,
        -0.080394 -0.026974 0.023622,
        -0.074632 -0.026974 0.023622,
        -0.070649 -0.015931 0.023622,
        -0.054385 -0.015931 0.023622,
        -0.050626 -0.026974 0.023622,
        -0.044865 -0.026974 0.023622,
        -0.059748 0.012396 0.023622,
        -0.055713 -0.011610 0.023622,
        -0.068878 -0.011610 0.023622,
        -0.061587 0.004834 0.023622,
        -0.061965 0.006199 0.023622,
        -0.062217 0.007594 0.023622,
        -0.062344 0.007594 0.023622,
        -0.062601 0.006204 0.023622,
        -0.062952 0.004834 0.023622,
        -0.055713 -0.011610 0.019685,
        -0.068878 -0.011610 0.019685,
        -0.061587 0.004834 0.019685,
        -0.061965 0.006199 0.019685,
        -0.062217 0.007594 0.019685,
        -0.062344 0.007594 0.019685,
        -0.062601 0.006204 0.019685,
        -0.062952 0.004834 0.019685,
        -0.021001 -0.026974 0.023622,
        -0.010296 -0.026974 0.023622,
        -0.010296 0.012396 0.023622,
        -0.021406 0.012396 0.023622,
        -0.041984 -0.006794 0.023622,
        -0.041698 -0.003089 0.023622,
        -0.040641 0.000789 0.023622,
        -0.038811 0.004175 0.023622,
        -0.036027 0.007263 0.023622,
        -0.035985 0.007298 0.023622,
        -0.031700 0.010170 0.023622,
        -0.027094 0.011788 0.023622,
        -0.025872 -0.026549 0.023622,
        -0.030409 -0.025197 0.023622,
        -0.034520 -0.022808 0.023622,
        -0.037760 -0.019705 0.023622,
        -0.040018 -0.016184 0.023622,
        -0.041431 -0.012063 0.023622,
        -0.034081 0.002554 0.023622,
        -0.032169 0.004584 0.023622,
        -0.029293 0.006442 0.023622,
        -0.026043 0.007580 0.023622,
        -0.021384 0.008075 0.023622,
        -0.015577 0.008075 0.023622,
        -0.015577 -0.022653 0.023622,
        -0.021166 -0.022653 0.023622,
        -0.025320 -0.022267 0.023622,
        -0.028633 -0.021232 0.023622,
        -0.031318 -0.019638 0.023622,
        -0.033526 -0.017457 0.023622,
        -0.035186 -0.014743 0.023622,
        -0.036341 -0.011042 0.023622,
        -0.036703 -0.006907 0.023622,
        -0.036368 -0.002988 0.023622,
        -0.035449 0.000126 0.023622,
        -0.021384 0.008075 0.019685,
        -0.015577 0.008075 0.019685,
        -0.026043 0.007580 0.019685,
        -0.029293 0.006442 0.019685,
        -0.032169 0.004584 0.019685,
        -0.034081 0.002554 0.019685,
        -0.035449 0.000126 0.019685,
        -0.036368 -0.002988 0.019685,
        -0.036703 -0.006907 0.019685,
        -0.036341 -0.011042 0.019685,
        -0.035186 -0.014743 0.019685,
        -0.033526 -0.017457 0.019685,
        -0.031318 -0.019638 0.019685,
        -0.028633 -0.021232 0.019685,
        -0.025320 -0.022267 0.019685,
        -0.021166 -0.022653 0.019685,
        -0.015577 -0.022653 0.019685,
        -0.002614 -0.022653 0.023622,
        -0.002614 -0.026974 0.023622,
        0.018511 -0.026974 0.023622,
        0.018511 0.012396 0.023622,
        -0.001654 0.012396 0.023622,
        -0.001654 0.008075 0.023622,
        0.013230 0.008075 0.023622,
        0.013230 -0.004889 0.023622,
        -0.000693 -0.004889 0.023622,
        -0.000693 -0.009210 0.023622,
        0.013230 -0.009210 0.023622,
        0.013230 -0.022653 0.023622,
        0.026193 -0.020613 0.023622,
        0.026193 -0.024934 0.023622,
        0.030390 -0.026657 0.023622,
        0.037026 -0.027454 0.023622,
        0.035950 -0.027436 0.023622,
        0.055481 -0.008032 0.023622,
        0.055100 -0.012591 0.023622,
        0.053915 -0.016759 0.023622,
        0.051818 -0.020502 0.023622,
        0.048861 -0.023616 0.023622,
        0.045694 -0.025638 0.023622,
        0.041878 -0.026951 0.023622,
        0.035458 0.012876 0.023622,
        0.039413 0.012553 0.023622,
        0.043802 0.011278 0.023622,
        0.047541 0.009126 0.023622,
        0.051096 0.005707 0.023622,
        0.053403 0.002026 0.023622,
        0.054915 -0.002435 0.023622,
        0.026193 0.011315 0.023622,
        0.030745 0.012551 0.023622,
        0.026193 0.006034 0.023622,
        0.035413 0.008555 0.023622,
        0.030628 0.007933 0.023622,
        0.050200 -0.007709 0.023622,
        0.050012 -0.004646 0.023622,
        0.048963 -0.000431 0.023622,
        0.047339 0.002608 0.023622,
        0.044962 0.005233 0.023622,
        0.042237 0.007056 0.023622,
        0.039290 0.008119 0.023622,
        0.036298 -0.023133 0.023622,
        0.039971 -0.022721 0.023622,
        0.042839 -0.021665 0.023622,
        0.045256 -0.020037 0.023622,
        0.047103 -0.018088 0.023622,
        0.048731 -0.015358 0.023622,
        0.049801 -0.011971 0.023622,
        0.026899 -0.021004 0.023622,
        0.031072 -0.022553 0.023622,
        0.058842 -0.022653 0.023622,
        0.058842 -0.026974 0.023622,
        0.079007 -0.026974 0.023622,
        0.079007 0.012396 0.023622,
        0.073726 0.012396 0.023622,
        0.073726 -0.022653 0.023622,
      ]
    }
    coordIndex [
      86, 87, 59, -1,
      59, 87, 74, -1,
      87, 88, 74, -1,
      74, 88, 75, -1,
      88, 89, 75, -1,
      75, 89, 83, -1,
      89, 90, 83, -1,
      83, 90, 84, -1,
      90, 91, 84, -1,
      84, 91, 85, -1,
      91, 92, 85, -1,
      85, 92, 50, -1,
      92, 93, 50, -1,
      50, 93, 58, -1,
      93, 86, 58, -1,
      58, 86, 59, -1,
      94, 90, 95, -1,
      95, 90, 89, -1,
      96, 93, 94, -1,
      94, 93, 92, -1,
      94, 92, 90, -1,
      90, 92, 91, -1,
      96, 97, 93, -1,
      93, 97, 98, -1,
      93, 98, 86, -1,
      86, 98, 99, -1,
      86, 99, 100, -1,
      100, 101, 86, -1,
      86, 101, 95, -1,
      86, 95, 87, -1,
      87, 95, 89, -1,
      87, 89, 88, -1,
      94, 95, 102, -1,
      102, 95, 103, -1,
      96, 94, 104, -1,
      104, 94, 102, -1,
      96, 104, 105, -1,
      96, 105, 97, -1,
      97, 105, 106, -1,
      97, 106, 98, -1,
      99, 98, 107, -1,
      107, 98, 106, -1,
      99, 107, 108, -1,
      99, 108, 100, -1,
      100, 108, 109, -1,
      100, 109, 101, -1,
      95, 101, 103, -1,
      103, 101, 109, -1,
      110, 111, 70, -1,
      70, 111, 69, -1,
      111, 112, 69, -1,
      69, 112, 64, -1,
      112, 113, 64, -1,
      64, 113, 79, -1,
      114, 81, 80, -1,
      114, 80, 115, -1,
      115, 80, 78, -1,
      115, 78, 116, -1,
      116, 78, 77, -1,
      116, 77, 117, -1,
      117, 77, 76, -1,
      117, 76, 118, -1,
      118, 76, 73, -1,
      118, 73, 119, -1,
      119, 73, 72, -1,
      119, 72, 120, -1,
      120, 72, 71, -1,
      120, 71, 121, -1,
      121, 71, 79, -1,
      121, 79, 113, -1,
      110, 70, 56, -1,
      110, 56, 122, -1,
      122, 56, 55, -1,
      122, 55, 123, -1,
      123, 55, 54, -1,
      123, 54, 124, -1,
      124, 54, 52, -1,
      124, 52, 125, -1,
      125, 52, 51, -1,
      125, 51, 126, -1,
      126, 51, 82, -1,
      126, 82, 127, -1,
      127, 82, 81, -1,
      127, 81, 114, -1,
      116, 117, 128, -1,
      128, 117, 118, -1,
      128, 118, 129, -1,
      129, 118, 119, -1,
      129, 119, 130, -1,
      130, 119, 120, -1,
      130, 120, 131, -1,
      131, 120, 121, -1,
      131, 121, 132, -1,
      132, 121, 113, -1,
      132, 113, 133, -1,
      133, 113, 112, -1,
      133, 112, 134, -1,
      134, 112, 111, -1,
      134, 111, 135, -1,
      135, 111, 110, -1,
      135, 110, 136, -1,
      136, 110, 122, -1,
      136, 122, 137, -1,
      137, 122, 123, -1,
      137, 123, 138, -1,
      138, 123, 124, -1,
      138, 124, 139, -1,
      139, 124, 125, -1,
      139, 125, 140, -1,
      140, 125, 126, -1,
      140, 126, 141, -1,
      141, 126, 127, -1,
      141, 127, 142, -1,
      142, 127, 114, -1,
      142, 114, 143, -1,
      143, 114, 115, -1,
      143, 115, 144, -1,
      144, 115, 116, -1,
      144, 116, 128, -1,
      132, 133, 145, -1,
      145, 133, 146, -1,
      132, 145, 147, -1,
      132, 147, 131, -1,
      131, 147, 148, -1,
      131, 148, 130, -1,
      130, 148, 149, -1,
      130, 149, 129, -1,
      129, 149, 150, -1,
      129, 150, 128, -1,
      128, 150, 151, -1,
      128, 151, 144, -1,
      144, 151, 152, -1,
      144, 152, 143, -1,
      143, 152, 153, -1,
      143, 153, 142, -1,
      142, 153, 154, -1,
      142, 154, 141, -1,
      141, 154, 155, -1,
      141, 155, 140, -1,
      140, 155, 156, -1,
      140, 156, 139, -1,
      139, 156, 157, -1,
      139, 157, 138, -1,
      138, 157, 158, -1,
      138, 158, 137, -1,
      137, 158, 159, -1,
      137, 159, 136, -1,
      136, 159, 160, -1,
      136, 160, 135, -1,
      134, 135, 161, -1,
      161, 135, 160, -1,
      133, 134, 146, -1,
      146, 134, 161, -1,
      162, 163, 68, -1,
      68, 163, 48, -1,
      163, 164, 48, -1,
      48, 164, 49, -1,
      164, 165, 49, -1,
      49, 165, 53, -1,
      165, 166, 53, -1,
      53, 166, 57, -1,
      166, 167, 57, -1,
      57, 167, 62, -1,
      167, 168, 62, -1,
      62, 168, 60, -1,
      168, 169, 60, -1,
      60, 169, 61, -1,
      169, 170, 61, -1,
      61, 170, 63, -1,
      170, 171, 63, -1,
      63, 171, 65, -1,
      171, 172, 65, -1,
      65, 172, 66, -1,
      172, 173, 66, -1,
      66, 173, 67, -1,
      173, 162, 67, -1,
      67, 162, 68, -1,
      164, 163, 162, -1,
      162, 173, 164, -1,
      164, 173, 172, -1,
      164, 172, 165, -1,
      167, 166, 168, -1,
      168, 166, 165, -1,
      168, 165, 169, -1,
      169, 165, 172, -1,
      169, 172, 170, -1,
      170, 172, 171, -1,
      174, 175, 0, -1,
      0, 175, 1, -1,
      1, 175, 176, -1,
      177, 46, 45, -1,
      177, 45, 178, -1,
      178, 45, 44, -1,
      178, 44, 176, -1,
      176, 44, 2, -1,
      176, 2, 1, -1,
      179, 40, 39, -1,
      179, 39, 180, -1,
      180, 39, 34, -1,
      180, 34, 181, -1,
      181, 34, 32, -1,
      181, 32, 182, -1,
      182, 32, 31, -1,
      182, 31, 183, -1,
      183, 31, 23, -1,
      183, 23, 184, -1,
      184, 23, 22, -1,
      184, 22, 185, -1,
      185, 22, 177, -1,
      177, 22, 20, -1,
      177, 20, 46, -1,
      186, 42, 38, -1,
      186, 38, 187, -1,
      187, 38, 37, -1,
      187, 37, 188, -1,
      188, 37, 36, -1,
      188, 36, 189, -1,
      189, 36, 29, -1,
      189, 29, 190, -1,
      190, 29, 28, -1,
      190, 28, 191, -1,
      191, 28, 41, -1,
      191, 41, 192, -1,
      192, 41, 40, -1,
      192, 40, 179, -1,
      193, 26, 43, -1,
      193, 43, 194, -1,
      194, 43, 42, -1,
      194, 42, 186, -1,
      193, 195, 26, -1,
      26, 195, 27, -1,
      196, 5, 3, -1,
      196, 3, 197, -1,
      197, 3, 27, -1,
      197, 27, 195, -1,
      198, 10, 25, -1,
      198, 25, 199, -1,
      199, 25, 24, -1,
      199, 24, 200, -1,
      200, 24, 9, -1,
      200, 9, 201, -1,
      201, 9, 8, -1,
      201, 8, 202, -1,
      202, 8, 7, -1,
      202, 7, 203, -1,
      203, 7, 6, -1,
      203, 6, 204, -1,
      204, 6, 5, -1,
      204, 5, 196, -1,
      205, 14, 13, -1,
      205, 13, 206, -1,
      206, 13, 15, -1,
      206, 15, 207, -1,
      207, 15, 16, -1,
      207, 16, 208, -1,
      208, 16, 17, -1,
      208, 17, 209, -1,
      209, 17, 12, -1,
      209, 12, 210, -1,
      210, 12, 11, -1,
      210, 11, 211, -1,
      211, 11, 10, -1,
      211, 10, 198, -1,
      174, 0, 4, -1,
      174, 4, 212, -1,
      212, 4, 18, -1,
      212, 18, 213, -1,
      213, 18, 14, -1,
      213, 14, 205, -1,
      206, 177, 205, -1,
      205, 177, 178, -1,
      205, 178, 213, -1,
      213, 178, 176, -1,
      213, 176, 212, -1,
      212, 176, 175, -1,
      212, 175, 174, -1,
      195, 193, 197, -1,
      197, 193, 194, -1,
      197, 194, 196, -1,
      196, 194, 186, -1,
      196, 186, 204, -1,
      204, 186, 187, -1,
      204, 187, 203, -1,
      203, 187, 188, -1,
      203, 188, 202, -1,
      202, 188, 189, -1,
      202, 189, 201, -1,
      201, 189, 190, -1,
      201, 190, 200, -1,
      200, 190, 191, -1,
      200, 191, 199, -1,
      199, 191, 192, -1,
      199, 192, 198, -1,
      198, 192, 179, -1,
      198, 179, 211, -1,
      211, 179, 180, -1,
      211, 180, 210, -1,
      210, 180, 181, -1,
      210, 181, 209, -1,
      209, 181, 182, -1,
      209, 182, 208, -1,
      208, 182, 183, -1,
      208, 183, 207, -1,
      207, 183, 184, -1,
      207, 184, 206, -1,
      206, 184, 185, -1,
      206, 185, 177, -1,
      214, 215, 33, -1,
      33, 215, 21, -1,
      215, 216, 21, -1,
      21, 216, 19, -1,
      216, 217, 19, -1,
      19, 217, 47, -1,
      217, 218, 47, -1,
      47, 218, 30, -1,
      218, 219, 30, -1,
      30, 219, 35, -1,
      219, 214, 35, -1,
      35, 214, 33, -1,
      218, 217, 219, -1,
      219, 217, 216, -1,
      219, 216, 214, -1,
      214, 216, 215, -1,
    ]
  }
}

Shape {
  appearance Appearance {
    material Material {
      diffuseColor 0.2510 0.2510 0.2510
      specularColor 0.1255 0.1255 0.1255
      ambientIntensity 0.2
      transparency 0.0000
      shininess 0.5
    }
  }
  geometry IndexedFaceSet {
    ccw TRUE
    solid FALSE
    coord DEF co Coordinate {
      point [
        -0.055713 -0.011610 0.019685,
        -0.068878 -0.011610 0.019685,
        -0.061587 0.004834 0.019685,
        -0.061965 0.006199 0.019685,
        -0.062217 0.007594 0.019685,
        -0.062344 0.007594 0.019685,
        -0.062601 0.006204 0.019685,
        -0.062952 0.004834 0.019685,
        -0.021384 0.008075 0.019685,
        -0.015577 0.008075 0.019685,
        -0.026043 0.007580 0.019685,
        -0.029293 0.006442 0.019685,
        -0.032169 0.004584 0.019685,
        -0.034081 0.002554 0.019685,
        -0.035449 0.000126 0.019685,
        -0.036368 -0.002988 0.019685,
        -0.036703 -0.006907 0.019685,
        -0.036341 -0.011042 0.019685,
        -0.035186 -0.014743 0.019685,
        -0.033526 -0.017457 0.019685,
        -0.031318 -0.019638 0.019685,
        -0.028633 -0.021232 0.019685,
        -0.025320 -0.022267 0.019685,
        -0.021166 -0.022653 0.019685,
        -0.015577 -0.022653 0.019685,
      ]
    }
    coordIndex [
      0, 1, 2, -1,
      2, 1, 7, -1,
      2, 7, 3, -1,
      3, 7, 6, -1,
      3, 6, 4, -1,
      4, 6, 5, -1,
      9, 24, 8, -1,
      8, 24, 23, -1,
      8, 23, 22, -1,
      16, 15, 8, -1,
      8, 15, 14, -1,
      8, 14, 10, -1,
      22, 21, 8, -1,
      8, 21, 20, -1,
      8, 20, 19, -1,
      19, 18, 8, -1,
      8, 18, 17, -1,
      8, 17, 16, -1,
      13, 12, 14, -1,
      14, 12, 11, -1,
      14, 11, 10, -1,
    ]
  }
}
