#VRML V2.0 utf8

Shape {
  appearance Appearance {
    material Material {
      diffuseColor 0.5882 0.5725 0.5255
      specularColor 0.0431 0.0392 0.0392
      ambientIntensity 0.2
      transparency 0.0000
      shininess 0.5
    }
  }
  geometry IndexedFaceSet {
    ccw TRUE
    solid FALSE
    coord DEF co Coordinate {
      point [
        -0.964567 -1.594488 0.226378,
        -0.964567 -1.594488 -0.009843,
        -0.885827 -1.594488 0.068898,
        -0.856299 -1.594488 -0.009843,
        0.885827 -1.594488 0.068898,
        -0.856299 -1.594488 -0.127953,
        -0.781496 -1.594488 -0.127953,
        -0.781496 -1.594488 -0.029528,
        -1.003937 -1.594488 0.442913,
        -1.279528 -1.594488 0.226378,
        -1.505906 -1.594488 0.442913,
        -1.279528 -1.594488 -0.679134,
        -0.885827 -1.594488 0.757874,
        -1.003937 -1.594488 0.718504,
        -0.694882 -1.594488 -0.127953,
        -0.620079 -1.594488 -0.127953,
        -0.694882 -1.594488 -0.029528,
        -0.620079 -1.594488 -0.009843,
        0.885827 -1.594488 0.757874,
        1.003937 -1.594488 0.442913,
        1.003937 -1.594488 0.718504,
        1.624016 -1.594488 0.836614,
        -1.624016 -1.594488 0.836614,
        -0.127953 -1.594488 -0.009843,
        0.127953 -1.594488 -0.009843,
        1.279528 -1.594488 -0.679134,
        1.505906 -1.594488 0.442913,
        1.279528 -1.594488 0.226378,
        0.964567 -1.594488 0.226378,
        -0.364173 -1.594488 -0.127953,
        -0.289370 -1.594488 -0.127953,
        -0.364173 -1.594488 -0.009843,
        -0.289370 -1.594488 -0.029528,
        -0.202756 -1.594488 -0.029528,
        -0.202756 -1.594488 -0.127953,
        -0.127953 -1.594488 -0.127953,
        0.127953 -1.594488 -0.127953,
        0.202756 -1.594488 -0.127953,
        0.202756 -1.594488 -0.029528,
        0.964567 -1.594488 -0.009843,
        0.856299 -1.594488 -0.009843,
        1.505906 -1.594488 0.718504,
        1.624016 -1.594488 -0.836614,
        -0.040811 -1.594488 -0.836614,
        -1.624016 -1.594488 -0.836614,
        -1.505906 -1.594488 0.718504,
        0.289370 -1.594488 -0.127953,
        0.364173 -1.594488 -0.127953,
        0.289370 -1.594488 -0.029528,
        0.364173 -1.594488 -0.009843,
        0.620079 -1.594488 -0.127953,
        0.694882 -1.594488 -0.127953,
        0.620079 -1.594488 -0.009843,
        0.694882 -1.594488 -0.029528,
        0.781496 -1.594488 -0.029528,
        0.781496 -1.594488 -0.127953,
        0.856299 -1.594488 -0.127953,
        -0.307279 -0.855277 -0.836614,
        -0.333685 -0.855277 -0.836614,
        -0.040811 -0.854077 -0.836614,
        -0.113542 -1.052128 -0.836614,
        -0.060015 -1.052128 -0.836614,
        -0.381698 -1.052128 -0.836614,
        -0.361780 -0.996913 -0.836614,
        -0.280459 -0.996913 -0.836614,
        -0.144006 -0.858317 -0.836614,
        -0.167050 -0.866404 -0.836614,
        -0.186550 -0.879093 -0.836614,
        -0.232859 -1.052128 -0.836614,
        -0.161143 -1.043000 -0.836614,
        -0.138483 -1.049893 -0.836614,
        -0.261667 -1.052128 -0.836614,
        -1.427165 -1.515748 -0.836614,
        -0.410505 -1.052128 -0.836614,
        -0.208655 -0.998082 -0.836614,
        -0.197611 -1.015445 -0.836614,
        -0.181522 -1.031000 -0.836614,
        -1.624016 -1.515748 -0.836614,
        -0.115567 -0.855277 -0.836614,
        -0.060015 -0.855277 -0.836614,
        -0.194194 -0.886180 -0.836614,
        -0.205998 -0.901596 -0.836614,
        -0.214287 -0.920702 -0.836614,
        -0.218080 -0.941498 -0.836614,
        -0.218456 -0.951227 -0.836614,
        -0.215699 -0.977568 -0.836614,
        0.084022 -0.855277 -0.836614,
        0.151361 -0.854077 -0.836614,
        0.145191 -0.854503 -0.836614,
        0.122431 -0.860679 -0.836614,
        0.122431 -0.887085 -0.836614,
        0.084022 -1.052128 -0.836614,
        0.266041 -0.929467 -0.836614,
        0.258465 -0.907043 -0.836614,
        0.360092 -0.855277 -0.836614,
        0.168531 -0.874482 -0.836614,
        0.125959 -1.022274 -0.836614,
        0.144604 -0.877591 -0.836614,
        0.122431 -1.020319 -0.836614,
        0.246717 -0.888403 -0.836614,
        0.229538 -0.871883 -0.836614,
        0.211138 -0.861157 -0.836614,
        -0.016804 -0.855277 -0.836614,
        -0.016804 -0.876883 -0.836614,
        0.189543 -0.854672 -0.836614,
        0.182657 -0.854077 -0.836614,
        0.386499 -0.855277 -0.836614,
        1.427165 -1.515748 -0.836614,
        1.624016 -1.515748 -0.836614,
        0.187913 -0.876654 -0.836614,
        0.202570 -0.881952 -0.836614,
        0.216517 -0.891302 -0.836614,
        0.228350 -0.904490 -0.836614,
        0.236383 -0.919715 -0.836614,
        0.241591 -0.941028 -0.836614,
        0.242462 -0.955803 -0.836614,
        0.240472 -0.977098 -0.836614,
        0.235128 -0.994030 -0.836614,
        0.172957 -1.032923 -0.836614,
        0.217791 -1.017359 -0.836614,
        0.191224 -1.030885 -0.836614,
        0.205703 -1.025565 -0.836614,
        0.226944 -1.007702 -0.836614,
        0.146827 -1.030022 -0.836614,
        0.268869 -0.957416 -0.836614,
        0.360092 -1.030522 -0.836614,
        0.266934 -0.980385 -0.836614,
        0.285673 -1.052128 -0.836614,
        0.386499 -1.052128 -0.836614,
        0.143415 -1.050541 -0.836614,
        0.171213 -1.054436 -0.836614,
        -0.021606 -1.052128 -0.836614,
        0.057615 -0.876883 -0.836614,
        0.057615 -0.941699 -0.836614,
        -0.012003 -0.941699 -0.836614,
        -0.012003 -0.963305 -0.836614,
        0.122431 -1.041925 -0.836614,
        0.260833 -1.001507 -0.836614,
        0.285673 -1.030522 -0.836614,
        0.250322 -1.020032 -0.836614,
        0.235914 -1.035212 -0.836614,
        -0.021606 -1.030522 -0.836614,
        0.057615 -0.963305 -0.836614,
        0.057615 -1.030522 -0.836614,
        0.219931 -1.045464 -0.836614,
        0.200817 -1.052017 -0.836614,
        0.176595 -1.054528 -0.836614,
        -0.040811 -0.275591 -0.836614,
        0.168756 -0.852876 -0.836614,
        1.427165 -0.275591 -0.836614,
        1.427165 -0.787402 -0.836614,
        1.427165 -0.854077 -0.836614,
        1.427165 -1.496063 -0.836614,
        -1.427165 -0.275591 -0.836614,
        -1.427165 -0.787402 -0.836614,
        -1.427165 -0.854077 -0.836614,
        -1.427165 -1.496063 -0.836614,
        0.285433 -0.196850 -0.757874,
        0.285433 -0.196850 -0.482283,
        0.698819 -0.196850 -0.757874,
        0.698819 -0.196850 -0.482283,
        -0.206693 -0.196850 -0.757874,
        -0.206693 -0.196850 -0.482283,
        0.206693 -0.196850 -0.757874,
        0.206693 -0.196850 -0.482283,
        -0.698819 -0.196850 -0.757874,
        -0.698819 -0.196850 -0.482283,
        -0.285433 -0.196850 -0.757874,
        -0.285433 -0.196850 -0.482283,
        -1.624016 -0.196850 -0.639764,
        -1.624016 -0.196850 -0.482283,
        -1.427165 -0.196850 -0.639764,
        -0.777559 -0.196850 -0.482283,
        -1.427165 -0.196850 -0.757874,
        -0.777559 -0.196850 -0.757874,
        1.427165 -1.496063 -0.639764,
        1.427165 -1.515748 -0.639764,
        1.427165 -0.019685 0.049213,
        1.427165 -0.000000 0.049213,
        1.427165 -0.000000 0.068898,
        -1.427165 -0.652984 -0.718504,
        -1.427165 -0.275591 -0.757874,
        -1.427165 -0.314961 -0.718504,
        -1.427165 -0.306200 -0.717517,
        -1.427165 -0.297879 -0.714605,
        -1.427165 -0.290414 -0.709915,
        -1.427165 -0.284180 -0.703681,
        -1.427165 -0.279489 -0.696216,
        -1.427165 -0.276578 -0.687894,
        -1.427165 -0.275591 -0.679134,
        -1.427165 -0.275591 -0.639764,
        -1.427165 -0.680822 -0.730035,
        -1.427165 -0.674857 -0.725139,
        -1.427165 -0.660665 -0.719260,
        -1.427165 -0.668050 -0.721501,
        -1.427165 -1.496063 -0.639764,
        -1.427165 -1.515748 -0.639764,
        -1.505906 -1.496063 -0.639764,
        -1.624016 -1.515748 -0.639764,
        -1.505906 -0.275591 -0.639764,
        -1.505906 -0.236220 0.049213,
        -1.624016 -0.236220 0.049213,
        -1.505906 -0.236220 0.797244,
        -1.624016 -0.236220 0.836614,
        -1.427165 -0.236220 0.797244,
        -1.427165 -0.236220 0.836614,
        -1.427165 -0.019685 0.049213,
        -1.427165 -0.000000 0.049213,
        -1.505906 -0.019685 0.049213,
        -1.624016 -0.000000 0.049213,
        -1.427165 -0.000000 0.797244,
        -1.427165 -0.000000 0.836614,
        -1.427165 -0.000000 0.068898,
        1.624016 -0.000000 0.049213,
        1.624016 0.000000 -0.482283,
        -1.624016 0.000000 -0.482283,
        -0.885827 -0.000000 0.108268,
        0.885827 -0.000000 0.108268,
        -0.885827 -0.000000 0.718504,
        0.885827 -0.000000 0.718504,
        1.427165 -0.000000 0.836614,
        1.427165 -0.000000 0.797244,
        1.624016 -1.515748 -0.639764,
        1.624016 -0.196850 -0.639764,
        1.624016 -0.196850 -0.482283,
        1.624016 -0.236220 0.049213,
        1.624016 -0.236220 0.836614,
        1.427165 -0.236220 0.836614,
        -0.202756 -1.515748 -0.206693,
        -0.202756 -0.610236 -0.206693,
        -0.127953 -1.515748 -0.206693,
        -0.127953 -0.610236 -0.206693,
        0.289370 -1.515748 -0.206693,
        0.289370 -0.610236 -0.206693,
        0.364173 -1.515748 -0.206693,
        0.364173 -0.610236 -0.206693,
        0.781496 -1.515748 -0.206693,
        0.781496 -0.610236 -0.206693,
        0.856299 -1.515748 -0.206693,
        0.856299 -0.610236 -0.206693,
        1.003937 -1.555118 -0.009843,
        0.856299 -0.610236 -0.009843,
        1.003937 -0.610236 -0.009843,
        0.364173 -0.610236 -0.009843,
        0.620079 -0.610236 -0.009843,
        -0.127953 -0.610236 -0.009843,
        0.127953 -0.610236 -0.009843,
        -0.694882 -1.515748 -0.206693,
        -0.694882 -0.610236 -0.206693,
        -0.620079 -1.515748 -0.206693,
        -0.620079 -0.610236 -0.206693,
        -0.620079 -0.610236 -0.009843,
        -0.364173 -0.610236 -0.009843,
        1.003937 -1.555118 0.187008,
        1.003937 -0.610236 0.187008,
        1.240157 -1.555118 0.187008,
        1.240157 -0.610236 0.187008,
        1.240157 -1.555118 -0.639764,
        1.240157 -0.610236 -0.639764,
        0.777559 -0.610236 -0.639764,
        0.777559 -1.437008 -0.639764,
        0.698819 -1.437008 -0.639764,
        -1.240157 -1.555118 -0.639764,
        -0.206693 -1.437008 -0.639764,
        -0.285433 -1.437008 -0.639764,
        0.206693 -1.437008 -0.639764,
        0.206693 -0.610236 -0.639764,
        -0.206693 -0.610236 -0.639764,
        0.285433 -1.437008 -0.639764,
        0.285433 -0.610236 -0.639764,
        0.698819 -0.610236 -0.639764,
        -0.777559 -0.610236 -0.639764,
        -1.240157 -0.610236 -0.639764,
        -0.777559 -1.437008 -0.639764,
        -0.698819 -1.437008 -0.639764,
        -0.698819 -0.610236 -0.639764,
        -0.285433 -0.610236 -0.639764,
        -1.240157 -1.555118 0.187008,
        -1.240157 -0.610236 0.187008,
        -1.003937 -1.555118 0.187008,
        -1.003937 -0.610236 0.187008,
        -1.003937 -1.555118 -0.009843,
        -1.003937 -0.610236 -0.009843,
        -0.856299 -0.610236 -0.009843,
        -0.206693 -0.610236 -0.521654,
        0.285433 -0.610236 -0.521654,
        0.777559 -0.610236 -0.521654,
        -0.777559 -0.610236 -0.521654,
        -0.777559 -0.610236 -0.285433,
        -0.777559 -0.610236 -0.127953,
        -0.781496 -0.610236 -0.206693,
        -0.698819 -0.610236 -0.521654,
        -0.698819 -0.610236 -0.285433,
        -0.856299 -0.610236 -0.206693,
        -0.206693 -0.610236 -0.285433,
        -0.285433 -0.610236 -0.285433,
        -0.285433 -0.610236 -0.521654,
        -0.285433 -0.610236 -0.127953,
        -0.289370 -0.610236 -0.206693,
        -0.364173 -0.610236 -0.206693,
        0.285433 -0.610236 -0.285433,
        0.206693 -0.610236 -0.285433,
        0.206693 -0.610236 -0.521654,
        0.206693 -0.610236 -0.127953,
        0.202756 -0.610236 -0.206693,
        0.127953 -0.610236 -0.206693,
        0.777559 -0.610236 -0.285433,
        0.698819 -0.610236 -0.285433,
        0.698819 -0.610236 -0.521654,
        0.698819 -0.610236 -0.127953,
        0.694882 -0.610236 -0.206693,
        0.620079 -0.610236 -0.206693,
        -0.698819 -0.610236 -0.127953,
        -0.694882 -0.610236 -0.029528,
        -0.781496 -0.610236 -0.029528,
        0.777559 -0.610236 -0.127953,
        0.781496 -0.610236 -0.029528,
        0.694882 -0.610236 -0.029528,
        -0.206693 -0.610236 -0.127953,
        -0.202756 -0.610236 -0.029528,
        -0.289370 -0.610236 -0.029528,
        0.285433 -0.610236 -0.127953,
        0.289370 -0.610236 -0.029528,
        0.202756 -0.610236 -0.029528,
        -0.856299 -1.515748 -0.206693,
        -0.781496 -1.515748 -0.206693,
        -0.364173 -1.515748 -0.206693,
        -0.289370 -1.515748 -0.206693,
        0.127953 -1.515748 -0.206693,
        0.202756 -1.515748 -0.206693,
        0.620079 -1.515748 -0.206693,
        0.694882 -1.515748 -0.206693,
        1.427165 -0.663174 -0.719845,
        1.427165 -0.672669 -0.723779,
        1.427165 -0.680822 -0.730035,
        1.427165 -0.297879 -0.714605,
        1.427165 -0.306200 -0.717517,
        1.427165 -0.275591 -0.757874,
        1.427165 -0.314961 -0.718504,
        1.427165 -0.652984 -0.718504,
        1.427165 -0.276578 -0.687894,
        1.427165 -0.196850 -0.757874,
        1.427165 -0.275591 -0.679134,
        1.427165 -0.196850 -0.639764,
        1.427165 -0.275591 -0.639764,
        1.427165 -0.279489 -0.696216,
        1.427165 -0.284180 -0.703681,
        1.427165 -0.290414 -0.709915,
        1.505906 -1.496063 -0.639764,
        1.505906 -0.275591 -0.639764,
        0.777559 -0.196850 -0.757874,
        0.777559 -0.196850 -0.482283,
        0.777559 -0.098425 -0.482283,
        0.698819 -0.098425 -0.482283,
        0.206693 -0.098425 -0.482283,
        -0.206693 -0.098425 -0.482283,
        0.285433 -0.098425 -0.482283,
        -0.285433 -0.098425 -0.482283,
        -0.777559 -0.098425 -0.482283,
        -0.698819 -0.098425 -0.482283,
        1.505906 -0.019685 0.049213,
        1.505906 -0.236220 0.049213,
        1.427165 -0.236220 0.797244,
        1.505906 -0.236220 0.797244,
      ]
    }
    coordIndex [
      0, 1, 2, -1,
      2, 1, 3, -1,
      2, 3, 4, -1,
      5, 6, 3, -1,
      3, 6, 7, -1,
      0, 8, 9, -1,
      9, 8, 10, -1,
      9, 10, 11, -1,
      0, 2, 8, -1,
      8, 2, 12, -1,
      8, 12, 13, -1,
      14, 15, 16, -1,
      16, 15, 17, -1,
      18, 4, 19, -1,
      19, 20, 18, -1,
      18, 20, 21, -1,
      18, 21, 12, -1,
      12, 21, 22, -1,
      12, 22, 13, -1,
      23, 24, 4, -1,
      25, 26, 27, -1,
      27, 26, 28, -1,
      29, 30, 31, -1,
      31, 30, 32, -1,
      31, 32, 33, -1,
      34, 35, 33, -1,
      33, 35, 23, -1,
      33, 23, 31, -1,
      31, 23, 4, -1,
      31, 4, 17, -1,
      17, 4, 3, -1,
      17, 3, 16, -1,
      16, 3, 7, -1,
      36, 37, 24, -1,
      24, 37, 38, -1,
      26, 19, 28, -1,
      28, 19, 4, -1,
      28, 4, 39, -1,
      39, 4, 40, -1,
      20, 41, 21, -1,
      21, 41, 26, -1,
      21, 26, 42, -1,
      42, 26, 25, -1,
      42, 25, 43, -1,
      43, 25, 11, -1,
      43, 11, 44, -1,
      44, 11, 10, -1,
      44, 10, 22, -1,
      22, 10, 45, -1,
      22, 45, 13, -1,
      46, 47, 48, -1,
      48, 47, 49, -1,
      50, 51, 52, -1,
      52, 51, 53, -1,
      52, 53, 54, -1,
      55, 56, 54, -1,
      54, 56, 40, -1,
      54, 40, 52, -1,
      52, 40, 4, -1,
      52, 4, 49, -1,
      49, 4, 24, -1,
      49, 24, 48, -1,
      48, 24, 38, -1,
      57, 58, 59, -1,
      60, 61, 43, -1,
      62, 63, 64, -1,
      65, 66, 57, -1,
      57, 66, 67, -1,
      68, 69, 70, -1,
      64, 71, 62, -1,
      62, 71, 72, -1,
      62, 72, 73, -1,
      73, 72, 58, -1,
      74, 75, 68, -1,
      68, 75, 76, -1,
      68, 76, 69, -1,
      77, 72, 44, -1,
      44, 72, 71, -1,
      44, 71, 43, -1,
      43, 71, 68, -1,
      43, 68, 60, -1,
      60, 68, 70, -1,
      65, 57, 78, -1,
      78, 57, 59, -1,
      78, 59, 79, -1,
      67, 80, 57, -1,
      57, 80, 81, -1,
      57, 81, 82, -1,
      82, 83, 57, -1,
      57, 83, 84, -1,
      57, 84, 68, -1,
      68, 84, 85, -1,
      68, 85, 74, -1,
      86, 87, 88, -1,
      88, 89, 86, -1,
      86, 89, 90, -1,
      86, 90, 91, -1,
      92, 93, 94, -1,
      95, 96, 97, -1,
      97, 96, 98, -1,
      97, 98, 90, -1,
      93, 99, 94, -1,
      94, 99, 100, -1,
      94, 100, 101, -1,
      86, 102, 59, -1,
      59, 102, 103, -1,
      101, 104, 94, -1,
      94, 104, 105, -1,
      94, 105, 106, -1,
      107, 108, 42, -1,
      95, 109, 96, -1,
      96, 109, 110, -1,
      96, 110, 111, -1,
      111, 112, 96, -1,
      96, 112, 113, -1,
      96, 113, 114, -1,
      114, 115, 96, -1,
      96, 115, 116, -1,
      96, 116, 117, -1,
      118, 119, 120, -1,
      120, 119, 121, -1,
      117, 122, 96, -1,
      96, 122, 119, -1,
      96, 119, 123, -1,
      123, 119, 118, -1,
      92, 94, 124, -1,
      124, 94, 125, -1,
      124, 125, 126, -1,
      43, 127, 128, -1,
      129, 130, 91, -1,
      91, 130, 131, -1,
      132, 133, 103, -1,
      103, 133, 134, -1,
      103, 134, 135, -1,
      90, 98, 91, -1,
      91, 98, 136, -1,
      91, 136, 129, -1,
      126, 125, 137, -1,
      137, 125, 138, -1,
      137, 138, 139, -1,
      139, 138, 127, -1,
      139, 127, 140, -1,
      141, 131, 43, -1,
      142, 143, 135, -1,
      135, 143, 141, -1,
      135, 141, 103, -1,
      103, 141, 43, -1,
      103, 43, 59, -1,
      59, 43, 61, -1,
      59, 61, 79, -1,
      140, 127, 144, -1,
      144, 127, 43, -1,
      144, 43, 145, -1,
      131, 130, 43, -1,
      43, 130, 146, -1,
      43, 146, 145, -1,
      86, 59, 87, -1,
      87, 59, 147, -1,
      87, 147, 148, -1,
      147, 149, 148, -1,
      148, 149, 150, -1,
      148, 150, 105, -1,
      105, 150, 151, -1,
      105, 151, 106, -1,
      106, 151, 152, -1,
      106, 152, 128, -1,
      128, 152, 107, -1,
      128, 107, 43, -1,
      43, 107, 42, -1,
      153, 147, 154, -1,
      154, 147, 59, -1,
      154, 59, 155, -1,
      155, 59, 58, -1,
      155, 58, 156, -1,
      156, 58, 72, -1,
      157, 158, 159, -1,
      159, 158, 160, -1,
      161, 162, 163, -1,
      163, 162, 164, -1,
      165, 166, 167, -1,
      167, 166, 168, -1,
      169, 170, 171, -1,
      171, 170, 172, -1,
      171, 172, 173, -1,
      173, 172, 174, -1,
      175, 176, 152, -1,
      152, 176, 107, -1,
      177, 178, 179, -1,
      153, 154, 180, -1,
      153, 180, 181, -1,
      181, 180, 182, -1,
      181, 182, 183, -1,
      183, 184, 181, -1,
      181, 184, 185, -1,
      181, 185, 173, -1,
      173, 185, 186, -1,
      186, 187, 173, -1,
      173, 187, 188, -1,
      173, 188, 171, -1,
      171, 188, 189, -1,
      171, 189, 190, -1,
      154, 191, 180, -1,
      180, 191, 192, -1,
      180, 192, 193, -1,
      193, 192, 194, -1,
      156, 72, 195, -1,
      195, 72, 196, -1,
      195, 196, 197, -1,
      197, 196, 198, -1,
      197, 198, 199, -1,
      199, 198, 169, -1,
      199, 169, 190, -1,
      190, 169, 171, -1,
      200, 201, 202, -1,
      202, 201, 203, -1,
      202, 203, 204, -1,
      204, 203, 205, -1,
      206, 207, 208, -1,
      208, 207, 209, -1,
      208, 209, 200, -1,
      200, 209, 201, -1,
      204, 205, 210, -1,
      210, 205, 211, -1,
      206, 212, 207, -1,
      178, 213, 214, -1,
      215, 209, 207, -1,
      216, 217, 178, -1,
      216, 210, 218, -1,
      218, 210, 211, -1,
      218, 211, 219, -1,
      214, 215, 178, -1,
      178, 215, 207, -1,
      178, 207, 216, -1,
      216, 207, 212, -1,
      216, 212, 210, -1,
      211, 220, 219, -1,
      219, 220, 221, -1,
      219, 221, 217, -1,
      217, 221, 179, -1,
      217, 179, 178, -1,
      222, 223, 224, -1,
      21, 42, 222, -1,
      222, 42, 108, -1,
      214, 213, 224, -1,
      224, 213, 225, -1,
      224, 225, 222, -1,
      222, 225, 226, -1,
      222, 226, 21, -1,
      205, 203, 22, -1,
      21, 226, 227, -1,
      220, 211, 227, -1,
      227, 211, 205, -1,
      227, 205, 21, -1,
      21, 205, 22, -1,
      77, 44, 198, -1,
      198, 44, 22, -1,
      198, 22, 201, -1,
      201, 22, 203, -1,
      169, 198, 170, -1,
      170, 198, 201, -1,
      170, 201, 215, -1,
      215, 201, 209, -1,
      228, 229, 230, -1,
      230, 229, 231, -1,
      232, 233, 234, -1,
      234, 233, 235, -1,
      236, 237, 238, -1,
      238, 237, 239, -1,
      39, 40, 240, -1,
      240, 40, 241, -1,
      240, 241, 242, -1,
      49, 243, 52, -1,
      52, 243, 244, -1,
      23, 245, 24, -1,
      24, 245, 246, -1,
      247, 248, 249, -1,
      249, 248, 250, -1,
      17, 251, 31, -1,
      31, 251, 252, -1,
      253, 254, 255, -1,
      255, 254, 256, -1,
      255, 256, 257, -1,
      257, 256, 258, -1,
      257, 258, 259, -1,
      259, 260, 257, -1,
      257, 260, 261, -1,
      257, 261, 262, -1,
      263, 264, 262, -1,
      265, 266, 267, -1,
      267, 263, 265, -1,
      265, 263, 262, -1,
      265, 262, 268, -1,
      268, 262, 261, -1,
      268, 261, 269, -1,
      269, 261, 270, -1,
      271, 272, 273, -1,
      273, 272, 262, -1,
      273, 262, 274, -1,
      274, 262, 264, -1,
      274, 264, 275, -1,
      275, 264, 276, -1,
      262, 272, 277, -1,
      277, 272, 278, -1,
      277, 278, 279, -1,
      279, 278, 280, -1,
      279, 280, 281, -1,
      281, 280, 282, -1,
      282, 283, 281, -1,
      281, 283, 3, -1,
      281, 3, 1, -1,
      240, 242, 253, -1,
      253, 242, 254, -1,
      284, 267, 266, -1,
      285, 269, 270, -1,
      286, 259, 258, -1,
      272, 271, 287, -1,
      288, 289, 290, -1,
      275, 276, 291, -1,
      291, 276, 292, -1,
      291, 292, 287, -1,
      287, 292, 288, -1,
      287, 288, 272, -1,
      272, 288, 290, -1,
      272, 290, 293, -1,
      280, 278, 282, -1,
      282, 278, 272, -1,
      282, 272, 283, -1,
      283, 272, 293, -1,
      266, 294, 284, -1,
      284, 294, 295, -1,
      284, 295, 296, -1,
      295, 297, 298, -1,
      256, 254, 258, -1,
      258, 254, 242, -1,
      276, 296, 292, -1,
      292, 296, 295, -1,
      292, 295, 299, -1,
      299, 295, 298, -1,
      270, 300, 285, -1,
      285, 300, 301, -1,
      285, 301, 302, -1,
      301, 303, 304, -1,
      266, 302, 294, -1,
      294, 302, 301, -1,
      294, 301, 305, -1,
      305, 301, 304, -1,
      258, 306, 286, -1,
      286, 306, 307, -1,
      286, 307, 308, -1,
      307, 309, 310, -1,
      270, 308, 300, -1,
      300, 308, 307, -1,
      300, 307, 311, -1,
      311, 307, 310, -1,
      252, 251, 299, -1,
      299, 251, 250, -1,
      299, 250, 292, -1,
      292, 250, 248, -1,
      292, 248, 312, -1,
      312, 248, 313, -1,
      312, 313, 289, -1,
      289, 313, 314, -1,
      289, 314, 290, -1,
      242, 241, 258, -1,
      258, 241, 239, -1,
      258, 239, 306, -1,
      306, 239, 237, -1,
      306, 237, 315, -1,
      315, 237, 316, -1,
      315, 316, 309, -1,
      309, 316, 317, -1,
      309, 317, 310, -1,
      246, 245, 305, -1,
      305, 245, 231, -1,
      305, 231, 294, -1,
      294, 231, 229, -1,
      294, 229, 318, -1,
      318, 229, 319, -1,
      318, 319, 297, -1,
      297, 319, 320, -1,
      297, 320, 298, -1,
      244, 243, 311, -1,
      311, 243, 235, -1,
      311, 235, 300, -1,
      300, 235, 233, -1,
      300, 233, 321, -1,
      321, 233, 322, -1,
      321, 322, 303, -1,
      303, 322, 323, -1,
      303, 323, 304, -1,
      250, 251, 249, -1,
      249, 251, 17, -1,
      249, 17, 15, -1,
      324, 293, 325, -1,
      325, 293, 290, -1,
      5, 3, 324, -1,
      324, 3, 283, -1,
      324, 283, 293, -1,
      14, 16, 247, -1,
      247, 16, 313, -1,
      247, 313, 248, -1,
      290, 314, 325, -1,
      325, 314, 7, -1,
      325, 7, 6, -1,
      314, 313, 7, -1,
      7, 313, 16, -1,
      249, 15, 247, -1,
      247, 15, 14, -1,
      325, 6, 324, -1,
      324, 6, 5, -1,
      231, 245, 230, -1,
      230, 245, 23, -1,
      230, 23, 35, -1,
      326, 299, 327, -1,
      327, 299, 298, -1,
      29, 31, 326, -1,
      326, 31, 252, -1,
      326, 252, 299, -1,
      235, 243, 234, -1,
      234, 243, 49, -1,
      234, 49, 47, -1,
      328, 305, 329, -1,
      329, 305, 304, -1,
      36, 24, 328, -1,
      328, 24, 246, -1,
      328, 246, 305, -1,
      239, 241, 238, -1,
      238, 241, 40, -1,
      238, 40, 56, -1,
      330, 311, 331, -1,
      331, 311, 310, -1,
      50, 52, 330, -1,
      330, 52, 244, -1,
      330, 244, 311, -1,
      55, 54, 236, -1,
      236, 54, 316, -1,
      236, 316, 237, -1,
      310, 317, 331, -1,
      331, 317, 53, -1,
      331, 53, 51, -1,
      317, 316, 53, -1,
      53, 316, 54, -1,
      46, 48, 232, -1,
      232, 48, 322, -1,
      232, 322, 233, -1,
      304, 323, 329, -1,
      329, 323, 38, -1,
      329, 38, 37, -1,
      323, 322, 38, -1,
      38, 322, 48, -1,
      34, 33, 228, -1,
      228, 33, 319, -1,
      228, 319, 229, -1,
      298, 320, 327, -1,
      327, 320, 32, -1,
      327, 32, 30, -1,
      320, 319, 32, -1,
      32, 319, 33, -1,
      230, 35, 228, -1,
      228, 35, 34, -1,
      327, 30, 326, -1,
      326, 30, 29, -1,
      234, 47, 232, -1,
      232, 47, 46, -1,
      329, 37, 328, -1,
      328, 37, 36, -1,
      238, 56, 236, -1,
      236, 56, 55, -1,
      331, 51, 330, -1,
      330, 51, 50, -1,
      253, 28, 240, -1,
      240, 28, 39, -1,
      255, 27, 253, -1,
      253, 27, 28, -1,
      257, 25, 255, -1,
      255, 25, 27, -1,
      262, 11, 257, -1,
      257, 11, 25, -1,
      277, 9, 262, -1,
      262, 9, 11, -1,
      279, 0, 277, -1,
      277, 0, 9, -1,
      281, 1, 279, -1,
      279, 1, 0, -1,
      332, 333, 149, -1,
      149, 333, 334, -1,
      149, 334, 150, -1,
      335, 336, 337, -1,
      337, 336, 338, -1,
      337, 338, 149, -1,
      149, 338, 339, -1,
      149, 339, 332, -1,
      340, 341, 342, -1,
      342, 341, 343, -1,
      342, 343, 344, -1,
      340, 345, 341, -1,
      341, 345, 346, -1,
      341, 346, 337, -1,
      337, 346, 347, -1,
      337, 347, 335, -1,
      176, 222, 107, -1,
      107, 222, 108, -1,
      176, 175, 348, -1,
      344, 343, 349, -1,
      349, 343, 223, -1,
      349, 223, 348, -1,
      348, 223, 222, -1,
      348, 222, 176, -1,
      198, 196, 77, -1,
      77, 196, 72, -1,
      224, 223, 343, -1,
      341, 350, 343, -1,
      343, 350, 351, -1,
      343, 351, 224, -1,
      224, 351, 214, -1,
      214, 351, 352, -1,
      214, 352, 353, -1,
      164, 162, 354, -1,
      354, 162, 355, -1,
      160, 158, 353, -1,
      353, 158, 356, -1,
      353, 356, 214, -1,
      214, 356, 354, -1,
      214, 354, 215, -1,
      215, 354, 355, -1,
      215, 355, 357, -1,
      172, 170, 358, -1,
      358, 170, 215, -1,
      358, 215, 359, -1,
      359, 215, 357, -1,
      359, 357, 166, -1,
      166, 357, 168, -1,
      153, 181, 147, -1,
      147, 181, 337, -1,
      147, 337, 149, -1,
      173, 174, 181, -1,
      181, 174, 165, -1,
      165, 167, 181, -1,
      181, 167, 161, -1,
      181, 161, 337, -1,
      337, 161, 163, -1,
      337, 163, 157, -1,
      157, 159, 337, -1,
      337, 159, 350, -1,
      337, 350, 341, -1,
      178, 177, 360, -1,
      361, 225, 360, -1,
      360, 225, 213, -1,
      360, 213, 178, -1,
      362, 227, 363, -1,
      363, 227, 226, -1,
      363, 226, 361, -1,
      361, 226, 225, -1,
      220, 227, 221, -1,
      221, 227, 362, -1,
    ]
  }
}

Shape {
  appearance Appearance {
    material Material {
      diffuseColor 0.6667 0.6667 0.6667
      specularColor 0.4667 0.4667 0.4667
      ambientIntensity 0.2
      transparency 0.0000
      shininess 0.5
    }
  }
  geometry IndexedFaceSet {
    ccw TRUE
    solid FALSE
    coord DEF co Coordinate {
      point [
        1.427165 -0.787402 -0.836614,
        1.427165 -0.854077 -0.836614,
        1.427165 -1.496063 -0.836614,
        -1.427165 -0.787402 -0.836614,
        -1.427165 -0.854077 -0.836614,
        -1.427165 -1.496063 -0.836614,
        0.285433 -0.196850 -0.757874,
        0.285433 -0.196850 -0.482283,
        0.698819 -0.196850 -0.757874,
        0.698819 -0.196850 -0.482283,
        -0.206693 -0.196850 -0.757874,
        -0.206693 -0.196850 -0.482283,
        0.206693 -0.196850 -0.757874,
        0.206693 -0.196850 -0.482283,
        -0.698819 -0.196850 -0.757874,
        -0.698819 -0.196850 -0.482283,
        -0.285433 -0.196850 -0.757874,
        -0.285433 -0.196850 -0.482283,
        -0.777559 -0.196850 -0.482283,
        -0.777559 -0.196850 -0.757874,
        1.427165 -1.496063 -0.639764,
        1.427165 -0.019685 0.049213,
        1.427165 -0.000000 0.068898,
        -1.427165 -0.652984 -0.718504,
        -1.427165 -0.314961 -0.718504,
        -1.427165 -0.306200 -0.717517,
        -1.427165 -0.297879 -0.714605,
        -1.427165 -0.290414 -0.709915,
        -1.427165 -0.284180 -0.703681,
        -1.427165 -0.279489 -0.696216,
        -1.427165 -0.276578 -0.687894,
        -1.427165 -0.275591 -0.679134,
        -1.427165 -0.275591 -0.639764,
        -1.427165 -0.680822 -0.730035,
        -1.427165 -0.674857 -0.725139,
        -1.427165 -0.660665 -0.719260,
        -1.427165 -0.668050 -0.721501,
        -1.427165 -1.496063 -0.639764,
        -1.505906 -1.496063 -0.639764,
        -1.505906 -0.275591 -0.639764,
        -1.505906 -0.236220 0.049213,
        -1.505906 -0.236220 0.797244,
        -1.427165 -0.236220 0.797244,
        -1.427165 -0.019685 0.049213,
        -1.505906 -0.019685 0.049213,
        -1.427165 -0.000000 0.797244,
        -1.427165 -0.000000 0.068898,
        1.427165 -0.000000 0.797244,
        0.777559 -0.610236 -0.639764,
        0.777559 -1.437008 -0.639764,
        0.698819 -1.437008 -0.639764,
        -0.206693 -1.437008 -0.639764,
        -0.285433 -1.437008 -0.639764,
        0.206693 -1.437008 -0.639764,
        0.206693 -0.610236 -0.639764,
        -0.206693 -0.610236 -0.639764,
        0.285433 -1.437008 -0.639764,
        0.285433 -0.610236 -0.639764,
        0.698819 -0.610236 -0.639764,
        -0.777559 -0.610236 -0.639764,
        -0.777559 -1.437008 -0.639764,
        -0.698819 -1.437008 -0.639764,
        -0.698819 -0.610236 -0.639764,
        -0.285433 -0.610236 -0.639764,
        -0.206693 -0.610236 -0.521654,
        0.285433 -0.610236 -0.521654,
        0.777559 -0.610236 -0.521654,
        -0.777559 -0.610236 -0.521654,
        -0.777559 -0.610236 -0.285433,
        -0.777559 -0.610236 -0.127953,
        -0.698819 -0.610236 -0.521654,
        -0.698819 -0.610236 -0.285433,
        -0.206693 -0.610236 -0.285433,
        -0.285433 -0.610236 -0.285433,
        -0.285433 -0.610236 -0.521654,
        -0.285433 -0.610236 -0.127953,
        0.285433 -0.610236 -0.285433,
        0.206693 -0.610236 -0.285433,
        0.206693 -0.610236 -0.521654,
        0.206693 -0.610236 -0.127953,
        0.777559 -0.610236 -0.285433,
        0.698819 -0.610236 -0.285433,
        0.698819 -0.610236 -0.521654,
        0.698819 -0.610236 -0.127953,
        -0.698819 -0.610236 -0.127953,
        0.777559 -0.610236 -0.127953,
        -0.206693 -0.610236 -0.127953,
        0.285433 -0.610236 -0.127953,
        1.427165 -0.663174 -0.719845,
        1.427165 -0.672669 -0.723779,
        1.427165 -0.680822 -0.730035,
        1.427165 -0.297879 -0.714605,
        1.427165 -0.306200 -0.717517,
        1.427165 -0.314961 -0.718504,
        1.427165 -0.652984 -0.718504,
        1.427165 -0.276578 -0.687894,
        1.427165 -0.275591 -0.679134,
        1.427165 -0.275591 -0.639764,
        1.427165 -0.279489 -0.696216,
        1.427165 -0.284180 -0.703681,
        1.427165 -0.290414 -0.709915,
        1.505906 -1.496063 -0.639764,
        1.505906 -0.275591 -0.639764,
        0.777559 -0.196850 -0.757874,
        0.777559 -0.196850 -0.482283,
        0.777559 -0.098425 -0.482283,
        0.698819 -0.098425 -0.482283,
        0.206693 -0.098425 -0.482283,
        -0.206693 -0.098425 -0.482283,
        0.285433 -0.098425 -0.482283,
        -0.285433 -0.098425 -0.482283,
        -0.777559 -0.098425 -0.482283,
        -0.698819 -0.098425 -0.482283,
        1.505906 -0.019685 0.049213,
        1.505906 -0.236220 0.049213,
        1.427165 -0.236220 0.797244,
        1.505906 -0.236220 0.797244,
        -1.505906 -0.000000 0.797244,
        -1.427165 0.004380 0.796750,
        -1.505906 0.004380 0.796750,
        -1.427165 0.008541 0.795294,
        -1.505906 0.008541 0.795294,
        -1.427165 0.012273 0.792949,
        -1.505906 0.012273 0.792949,
        -1.427165 0.015391 0.789833,
        -1.505906 0.015391 0.789833,
        -1.427165 0.017735 0.786100,
        -1.505906 0.017735 0.786100,
        -1.427165 0.019191 0.781939,
        -1.505906 0.019191 0.781939,
        -1.427165 0.019685 0.777559,
        -1.505906 0.019685 0.777559,
        -1.505906 0.019685 0.088583,
        -1.427165 0.019685 0.088583,
        -1.427165 -0.815241 -0.864453,
        -1.427165 -0.835398 -0.875228,
        -1.427165 -0.828013 -0.872987,
        -1.427165 -0.821206 -0.869349,
        -1.427165 -1.490788 -0.856299,
        -1.427165 -1.456693 -0.875984,
        -1.427165 -1.494721 -0.846804,
        -1.427165 -0.843079 -0.875984,
        -1.427165 -1.484532 -0.864453,
        -1.427165 -1.476378 -0.870710,
        -1.427165 -1.466883 -0.874643,
        -1.505906 -0.275591 -0.679134,
        -1.505906 -0.276578 -0.687894,
        -1.505906 -0.279489 -0.696216,
        -1.505906 -0.284180 -0.703681,
        -1.505906 -0.290414 -0.709915,
        -1.505906 -0.297879 -0.714605,
        -1.505906 -0.306200 -0.717517,
        -1.505906 -0.314961 -0.718504,
        -1.505906 -0.652984 -0.718504,
        -1.505906 -0.660665 -0.719260,
        -1.505906 -0.668050 -0.721501,
        -1.505906 -0.674857 -0.725139,
        -1.505906 -0.680822 -0.730035,
        -1.505906 -0.815241 -0.864453,
        -1.505906 -0.821206 -0.869349,
        -1.505906 -0.828013 -0.872987,
        -1.505906 -0.835398 -0.875228,
        -1.505906 -0.843079 -0.875984,
        -1.505906 -1.456693 -0.875984,
        -1.505906 -1.466883 -0.874643,
        -1.505906 -1.476378 -0.870710,
        -1.505906 -1.484532 -0.864453,
        -1.505906 -1.490788 -0.856299,
        -1.505906 -1.494721 -0.846804,
        -1.505906 -1.496063 -0.836614,
        1.427165 0.019685 0.088583,
        1.505906 0.019685 0.088583,
        1.505906 0.019685 0.777559,
        1.427165 0.019685 0.777559,
        1.427165 0.019191 0.781939,
        1.505906 0.019191 0.781939,
        1.427165 0.017735 0.786100,
        1.505906 0.017735 0.786100,
        1.427165 0.015391 0.789833,
        1.505906 0.015391 0.789833,
        1.427165 0.012273 0.792949,
        1.505906 0.012273 0.792949,
        1.427165 0.008541 0.795294,
        1.505906 0.008541 0.795294,
        1.427165 0.004380 0.796750,
        1.505906 0.004380 0.796750,
        1.505906 -0.000000 0.797244,
        1.427165 -0.843079 -0.875984,
        1.427165 -1.456693 -0.875984,
        1.427165 -1.494721 -0.846804,
        1.427165 -0.815241 -0.864453,
        1.427165 -0.821206 -0.869349,
        1.427165 -1.466883 -0.874643,
        1.427165 -1.476378 -0.870710,
        1.427165 -1.484532 -0.864453,
        1.427165 -1.490788 -0.856299,
        1.427165 -0.828013 -0.872987,
        1.427165 -0.835398 -0.875228,
        1.505906 -1.496063 -0.836614,
        1.505906 -1.494721 -0.846804,
        1.505906 -1.490788 -0.856299,
        1.505906 -1.484532 -0.864453,
        1.505906 -1.476378 -0.870710,
        1.505906 -1.466883 -0.874643,
        1.505906 -1.456693 -0.875984,
        1.505906 -0.843079 -0.875984,
        1.505906 -0.835398 -0.875228,
        1.505906 -0.828013 -0.872987,
        1.505906 -0.821206 -0.869349,
        1.505906 -0.815241 -0.864453,
        1.505906 -0.680822 -0.730035,
        1.505906 -0.672669 -0.723779,
        1.505906 -0.663174 -0.719845,
        1.505906 -0.652984 -0.718504,
        1.505906 -0.314961 -0.718504,
        1.505906 -0.306200 -0.717517,
        1.505906 -0.297879 -0.714605,
        1.505906 -0.290414 -0.709915,
        1.505906 -0.284180 -0.703681,
        1.505906 -0.279489 -0.696216,
        1.505906 -0.276578 -0.687894,
        1.505906 -0.275591 -0.679134,
        -0.698819 0.334646 -0.875984,
        -0.777559 0.334646 -0.875984,
        -0.777559 0.344835 -0.874643,
        -0.698819 0.344835 -0.874643,
        -0.777559 0.354331 -0.870710,
        -0.698819 0.354331 -0.870710,
        -0.777559 0.362485 -0.864453,
        -0.698819 0.362485 -0.864453,
        -0.777559 0.368741 -0.856299,
        -0.698819 0.368741 -0.856299,
        -0.777559 0.372674 -0.846804,
        -0.698819 0.372674 -0.846804,
        -0.777559 0.374016 -0.836614,
        -0.698819 0.374016 -0.836614,
        -0.698819 0.374016 -0.797244,
        -0.777559 0.374016 -0.797244,
        -0.777559 0.372674 -0.787054,
        -0.698819 0.372674 -0.787054,
        -0.777559 0.368741 -0.777559,
        -0.698819 0.368741 -0.777559,
        -0.777559 0.362485 -0.769405,
        -0.698819 0.362485 -0.769405,
        -0.777559 0.354331 -0.763148,
        -0.698819 0.354331 -0.763148,
        -0.777559 0.344835 -0.759215,
        -0.698819 0.344835 -0.759215,
        -0.777559 0.334646 -0.757874,
        -0.698819 0.334646 -0.757874,
        -0.698819 0.032808 -0.757874,
        -0.777559 0.032808 -0.757874,
        -0.698819 -0.098425 -0.659449,
        -0.777559 -0.098425 -0.659449,
        -0.698819 -0.039370 -0.875984,
        -0.777559 -0.039370 -0.875984,
        -0.777559 -1.348773 -0.320866,
        -0.777559 -1.535433 -0.187008,
        -0.777559 -1.337511 -0.306189,
        -0.777559 -1.535433 -0.127953,
        -0.777559 -1.322835 -0.294927,
        -0.777559 -1.305743 -0.287848,
        -0.777559 -1.355853 -0.337958,
        -0.777559 -1.358268 -0.356299,
        -0.777559 -1.358268 -0.364173,
        -0.777559 -1.287402 -0.285433,
        -0.698819 -1.535433 -0.187008,
        -0.698819 -1.358268 -0.364173,
        -0.698819 -1.358268 -0.356299,
        -0.698819 -1.355853 -0.337958,
        -0.698819 -1.348773 -0.320866,
        -0.698819 -1.535433 -0.127953,
        -0.698819 -1.337511 -0.306189,
        -0.698819 -1.322835 -0.294927,
        -0.698819 -1.287402 -0.285433,
        -0.698819 -1.305743 -0.287848,
        -0.698819 -1.318898 -0.521654,
        -0.698819 -1.432983 -0.609194,
        -0.698819 -1.349467 -0.525678,
        -0.698819 -1.377953 -0.537477,
        -0.698819 -1.402414 -0.556247,
        -0.698819 -1.421184 -0.580709,
        -0.777559 -1.318898 -0.521654,
        -0.777559 -1.432983 -0.609194,
        -0.777559 -1.421184 -0.580709,
        -0.777559 -1.402414 -0.556247,
        -0.777559 -1.377953 -0.537477,
        -0.777559 -1.349467 -0.525678,
        -0.206693 0.334646 -0.875984,
        -0.285433 0.334646 -0.875984,
        -0.285433 0.344835 -0.874643,
        -0.206693 0.344835 -0.874643,
        -0.285433 0.354331 -0.870710,
        -0.206693 0.354331 -0.870710,
        -0.285433 0.362485 -0.864453,
        -0.206693 0.362485 -0.864453,
        -0.285433 0.368741 -0.856299,
        -0.206693 0.368741 -0.856299,
        -0.285433 0.372674 -0.846804,
        -0.206693 0.372674 -0.846804,
        -0.285433 0.374016 -0.836614,
        -0.206693 0.374016 -0.836614,
        -0.206693 0.374016 -0.797244,
        -0.285433 0.374016 -0.797244,
        -0.285433 0.372674 -0.787054,
        -0.206693 0.372674 -0.787054,
        -0.285433 0.368741 -0.777559,
        -0.206693 0.368741 -0.777559,
        -0.285433 0.362485 -0.769405,
        -0.206693 0.362485 -0.769405,
        -0.285433 0.354331 -0.763148,
        -0.206693 0.354331 -0.763148,
        -0.285433 0.344835 -0.759215,
        -0.206693 0.344835 -0.759215,
        -0.285433 0.334646 -0.757874,
        -0.206693 0.334646 -0.757874,
        -0.206693 0.032808 -0.757874,
        -0.285433 0.032808 -0.757874,
        -0.206693 -0.098425 -0.659449,
        -0.285433 -0.098425 -0.659449,
        -0.206693 -0.039370 -0.875984,
        -0.285433 -0.039370 -0.875984,
        -0.285433 -1.348773 -0.320866,
        -0.285433 -1.535433 -0.187008,
        -0.285433 -1.337511 -0.306189,
        -0.285433 -1.535433 -0.127953,
        -0.285433 -1.322835 -0.294927,
        -0.285433 -1.305743 -0.287848,
        -0.285433 -1.355853 -0.337958,
        -0.285433 -1.358268 -0.356299,
        -0.285433 -1.358268 -0.364173,
        -0.285433 -1.287402 -0.285433,
        -0.206693 -1.535433 -0.187008,
        -0.206693 -1.358268 -0.364173,
        -0.206693 -1.358268 -0.356299,
        -0.206693 -1.355853 -0.337958,
        -0.206693 -1.348773 -0.320866,
        -0.206693 -1.535433 -0.127953,
        -0.206693 -1.337511 -0.306189,
        -0.206693 -1.322835 -0.294927,
        -0.206693 -1.287402 -0.285433,
        -0.206693 -1.305743 -0.287848,
        -0.206693 -1.318898 -0.521654,
        -0.206693 -1.432983 -0.609194,
        -0.206693 -1.349467 -0.525678,
        -0.206693 -1.377953 -0.537477,
        -0.206693 -1.402414 -0.556247,
        -0.206693 -1.421184 -0.580709,
        -0.285433 -1.318898 -0.521654,
        -0.285433 -1.432983 -0.609194,
        -0.285433 -1.421184 -0.580709,
        -0.285433 -1.402414 -0.556247,
        -0.285433 -1.377953 -0.537477,
        -0.285433 -1.349467 -0.525678,
        0.285433 0.334646 -0.875984,
        0.206693 0.334646 -0.875984,
        0.206693 0.344835 -0.874643,
        0.285433 0.344835 -0.874643,
        0.206693 0.354331 -0.870710,
        0.285433 0.354331 -0.870710,
        0.206693 0.362485 -0.864453,
        0.285433 0.362485 -0.864453,
        0.206693 0.368741 -0.856299,
        0.285433 0.368741 -0.856299,
        0.206693 0.372674 -0.846804,
        0.285433 0.372674 -0.846804,
        0.206693 0.374016 -0.836614,
        0.285433 0.374016 -0.836614,
        0.285433 0.374016 -0.797244,
        0.206693 0.374016 -0.797244,
        0.206693 0.372674 -0.787054,
        0.285433 0.372674 -0.787054,
        0.206693 0.368741 -0.777559,
        0.285433 0.368741 -0.777559,
        0.206693 0.362485 -0.769405,
        0.285433 0.362485 -0.769405,
        0.206693 0.354331 -0.763148,
        0.285433 0.354331 -0.763148,
        0.206693 0.344835 -0.759215,
        0.285433 0.344835 -0.759215,
        0.206693 0.334646 -0.757874,
        0.285433 0.334646 -0.757874,
        0.285433 0.032808 -0.757874,
        0.206693 0.032808 -0.757874,
        0.285433 -0.098425 -0.659449,
        0.206693 -0.098425 -0.659449,
        0.285433 -0.039370 -0.875984,
        0.206693 -0.039370 -0.875984,
        0.206693 -1.348773 -0.320866,
        0.206693 -1.535433 -0.187008,
        0.206693 -1.337511 -0.306189,
        0.206693 -1.535433 -0.127953,
        0.206693 -1.322835 -0.294927,
        0.206693 -1.305743 -0.287848,
        0.206693 -1.355853 -0.337958,
        0.206693 -1.358268 -0.356299,
        0.206693 -1.358268 -0.364173,
        0.206693 -1.287402 -0.285433,
        0.285433 -1.535433 -0.187008,
        0.285433 -1.358268 -0.364173,
        0.285433 -1.358268 -0.356299,
        0.285433 -1.355853 -0.337958,
        0.285433 -1.348773 -0.320866,
        0.285433 -1.535433 -0.127953,
        0.285433 -1.337511 -0.306189,
        0.285433 -1.322835 -0.294927,
        0.285433 -1.287402 -0.285433,
        0.285433 -1.305743 -0.287848,
        0.285433 -1.318898 -0.521654,
        0.285433 -1.432983 -0.609194,
        0.285433 -1.349467 -0.525678,
        0.285433 -1.377953 -0.537477,
        0.285433 -1.402414 -0.556247,
        0.285433 -1.421184 -0.580709,
        0.206693 -1.318898 -0.521654,
        0.206693 -1.432983 -0.609194,
        0.206693 -1.421184 -0.580709,
        0.206693 -1.402414 -0.556247,
        0.206693 -1.377953 -0.537477,
        0.206693 -1.349467 -0.525678,
        0.777559 0.334646 -0.875984,
        0.698819 0.334646 -0.875984,
        0.698819 0.344835 -0.874643,
        0.777559 0.344835 -0.874643,
        0.698819 0.354331 -0.870710,
        0.777559 0.354331 -0.870710,
        0.698819 0.362485 -0.864453,
        0.777559 0.362485 -0.864453,
        0.698819 0.368741 -0.856299,
        0.777559 0.368741 -0.856299,
        0.698819 0.372674 -0.846804,
        0.777559 0.372674 -0.846804,
        0.698819 0.374016 -0.836614,
        0.777559 0.374016 -0.836614,
        0.777559 0.374016 -0.797244,
        0.698819 0.374016 -0.797244,
        0.698819 0.372674 -0.787054,
        0.777559 0.372674 -0.787054,
        0.698819 0.368741 -0.777559,
        0.777559 0.368741 -0.777559,
        0.698819 0.362485 -0.769405,
        0.777559 0.362485 -0.769405,
        0.698819 0.354331 -0.763148,
        0.777559 0.354331 -0.763148,
        0.698819 0.344835 -0.759215,
        0.777559 0.344835 -0.759215,
        0.698819 0.334646 -0.757874,
        0.777559 0.334646 -0.757874,
        0.777559 0.032808 -0.757874,
        0.698819 0.032808 -0.757874,
        0.777559 -0.098425 -0.659449,
        0.698819 -0.098425 -0.659449,
        0.777559 -0.039370 -0.875984,
        0.698819 -0.039370 -0.875984,
        0.698819 -1.348773 -0.320866,
        0.698819 -1.535433 -0.187008,
        0.698819 -1.337511 -0.306189,
        0.698819 -1.535433 -0.127953,
        0.698819 -1.322835 -0.294927,
        0.698819 -1.305743 -0.287848,
        0.698819 -1.355853 -0.337958,
        0.698819 -1.358268 -0.356299,
        0.698819 -1.358268 -0.364173,
        0.698819 -1.287402 -0.285433,
        0.777559 -1.535433 -0.187008,
        0.777559 -1.358268 -0.364173,
        0.777559 -1.358268 -0.356299,
        0.777559 -1.355853 -0.337958,
        0.777559 -1.348773 -0.320866,
        0.777559 -1.535433 -0.127953,
        0.777559 -1.337511 -0.306189,
        0.777559 -1.322835 -0.294927,
        0.777559 -1.287402 -0.285433,
        0.777559 -1.305743 -0.287848,
        0.777559 -1.318898 -0.521654,
        0.777559 -1.432983 -0.609194,
        0.777559 -1.349467 -0.525678,
        0.777559 -1.377953 -0.537477,
        0.777559 -1.402414 -0.556247,
        0.777559 -1.421184 -0.580709,
        0.698819 -1.318898 -0.521654,
        0.698819 -1.432983 -0.609194,
        0.698819 -1.421184 -0.580709,
        0.698819 -1.402414 -0.556247,
        0.698819 -1.377953 -0.537477,
        0.698819 -1.349467 -0.525678,
      ]
    }
    coordIndex [
      117, 41, 45, -1,
      45, 41, 42, -1,
      117, 45, 118, -1,
      117, 118, 119, -1,
      119, 118, 120, -1,
      119, 120, 121, -1,
      121, 120, 122, -1,
      121, 122, 123, -1,
      123, 122, 124, -1,
      123, 124, 125, -1,
      125, 124, 126, -1,
      125, 126, 127, -1,
      127, 126, 128, -1,
      127, 128, 129, -1,
      129, 128, 130, -1,
      129, 130, 131, -1,
      132, 131, 133, -1,
      133, 131, 130, -1,
      43, 44, 46, -1,
      46, 44, 132, -1,
      46, 132, 133, -1,
      131, 132, 41, -1,
      41, 132, 44, -1,
      41, 44, 40, -1,
      121, 123, 119, -1,
      119, 123, 125, -1,
      119, 125, 127, -1,
      41, 117, 131, -1,
      131, 117, 119, -1,
      131, 119, 129, -1,
      129, 119, 127, -1,
      46, 133, 45, -1,
      45, 133, 130, -1,
      45, 130, 118, -1,
      118, 130, 128, -1,
      118, 128, 126, -1,
      126, 124, 118, -1,
      118, 124, 122, -1,
      118, 122, 120, -1,
      134, 3, 4, -1,
      135, 136, 4, -1,
      4, 136, 137, -1,
      4, 137, 134, -1,
      138, 139, 140, -1,
      140, 139, 5, -1,
      5, 139, 4, -1,
      4, 139, 141, -1,
      4, 141, 135, -1,
      138, 142, 139, -1,
      139, 142, 143, -1,
      139, 143, 144, -1,
      145, 39, 31, -1,
      31, 39, 32, -1,
      145, 31, 30, -1,
      145, 30, 146, -1,
      146, 30, 29, -1,
      146, 29, 147, -1,
      147, 29, 28, -1,
      147, 28, 148, -1,
      148, 28, 27, -1,
      148, 27, 149, -1,
      149, 27, 26, -1,
      149, 26, 150, -1,
      150, 26, 25, -1,
      150, 25, 151, -1,
      151, 25, 24, -1,
      151, 24, 152, -1,
      153, 152, 23, -1,
      23, 152, 24, -1,
      153, 23, 154, -1,
      154, 23, 35, -1,
      154, 35, 155, -1,
      155, 35, 36, -1,
      155, 36, 156, -1,
      156, 36, 34, -1,
      156, 34, 157, -1,
      157, 34, 33, -1,
      134, 158, 3, -1,
      3, 158, 157, -1,
      3, 157, 33, -1,
      158, 134, 137, -1,
      158, 137, 159, -1,
      159, 137, 136, -1,
      159, 136, 160, -1,
      160, 136, 135, -1,
      160, 135, 161, -1,
      161, 135, 141, -1,
      161, 141, 162, -1,
      163, 162, 139, -1,
      139, 162, 141, -1,
      163, 139, 144, -1,
      163, 144, 164, -1,
      164, 144, 143, -1,
      164, 143, 165, -1,
      165, 143, 142, -1,
      165, 142, 166, -1,
      166, 142, 138, -1,
      166, 138, 167, -1,
      167, 138, 140, -1,
      167, 140, 168, -1,
      168, 140, 5, -1,
      168, 5, 169, -1,
      38, 169, 37, -1,
      37, 169, 5, -1,
      154, 155, 38, -1,
      168, 169, 163, -1,
      154, 38, 153, -1,
      153, 38, 39, -1,
      153, 39, 145, -1,
      157, 158, 162, -1,
      162, 158, 159, -1,
      162, 159, 161, -1,
      161, 159, 160, -1,
      155, 156, 38, -1,
      38, 156, 157, -1,
      38, 157, 169, -1,
      169, 157, 162, -1,
      169, 162, 163, -1,
      163, 164, 165, -1,
      165, 166, 163, -1,
      163, 166, 167, -1,
      163, 167, 168, -1,
      146, 151, 145, -1,
      145, 151, 152, -1,
      145, 152, 153, -1,
      149, 150, 148, -1,
      148, 150, 151, -1,
      148, 151, 147, -1,
      147, 151, 146, -1,
      170, 171, 22, -1,
      22, 171, 113, -1,
      22, 113, 21, -1,
      172, 171, 173, -1,
      173, 171, 170, -1,
      172, 173, 174, -1,
      172, 174, 175, -1,
      175, 174, 176, -1,
      175, 176, 177, -1,
      177, 176, 178, -1,
      177, 178, 179, -1,
      179, 178, 180, -1,
      179, 180, 181, -1,
      181, 180, 182, -1,
      181, 182, 183, -1,
      183, 182, 184, -1,
      183, 184, 185, -1,
      185, 184, 47, -1,
      185, 47, 186, -1,
      116, 186, 115, -1,
      115, 186, 47, -1,
      186, 116, 172, -1,
      171, 172, 113, -1,
      113, 172, 116, -1,
      113, 116, 114, -1,
      177, 179, 185, -1,
      185, 179, 181, -1,
      185, 181, 183, -1,
      186, 172, 185, -1,
      185, 172, 175, -1,
      185, 175, 177, -1,
      173, 170, 22, -1,
      182, 180, 184, -1,
      184, 180, 178, -1,
      184, 178, 176, -1,
      22, 47, 173, -1,
      173, 47, 184, -1,
      173, 184, 174, -1,
      174, 184, 176, -1,
      1, 187, 2, -1,
      2, 187, 188, -1,
      2, 188, 189, -1,
      0, 190, 1, -1,
      1, 190, 191, -1,
      188, 192, 193, -1,
      193, 194, 188, -1,
      188, 194, 195, -1,
      188, 195, 189, -1,
      191, 196, 1, -1,
      1, 196, 197, -1,
      1, 197, 187, -1,
      198, 101, 2, -1,
      2, 101, 20, -1,
      198, 2, 189, -1,
      198, 189, 199, -1,
      199, 189, 195, -1,
      199, 195, 200, -1,
      200, 195, 194, -1,
      200, 194, 201, -1,
      201, 194, 193, -1,
      201, 193, 202, -1,
      202, 193, 192, -1,
      202, 192, 203, -1,
      203, 192, 188, -1,
      203, 188, 204, -1,
      205, 204, 187, -1,
      187, 204, 188, -1,
      205, 187, 197, -1,
      205, 197, 206, -1,
      206, 197, 196, -1,
      206, 196, 207, -1,
      207, 196, 191, -1,
      207, 191, 208, -1,
      208, 191, 190, -1,
      208, 190, 209, -1,
      90, 210, 0, -1,
      0, 210, 209, -1,
      0, 209, 190, -1,
      210, 90, 211, -1,
      211, 90, 89, -1,
      211, 89, 212, -1,
      212, 89, 88, -1,
      212, 88, 213, -1,
      213, 88, 94, -1,
      214, 213, 93, -1,
      93, 213, 94, -1,
      214, 93, 92, -1,
      214, 92, 215, -1,
      215, 92, 91, -1,
      215, 91, 216, -1,
      216, 91, 100, -1,
      216, 100, 217, -1,
      217, 100, 99, -1,
      217, 99, 218, -1,
      218, 99, 98, -1,
      218, 98, 219, -1,
      219, 98, 95, -1,
      219, 95, 220, -1,
      220, 95, 96, -1,
      220, 96, 221, -1,
      102, 221, 97, -1,
      97, 221, 96, -1,
      214, 215, 216, -1,
      209, 210, 205, -1,
      205, 210, 204, -1,
      214, 216, 213, -1,
      213, 216, 217, -1,
      213, 217, 218, -1,
      206, 207, 205, -1,
      205, 207, 208, -1,
      205, 208, 209, -1,
      218, 219, 213, -1,
      213, 219, 220, -1,
      213, 220, 221, -1,
      211, 101, 210, -1,
      210, 101, 198, -1,
      210, 198, 204, -1,
      204, 198, 199, -1,
      204, 199, 200, -1,
      200, 201, 204, -1,
      204, 201, 202, -1,
      204, 202, 203, -1,
      211, 212, 101, -1,
      101, 212, 213, -1,
      101, 213, 102, -1,
      102, 213, 221, -1,
      222, 223, 224, -1,
      222, 224, 225, -1,
      225, 224, 226, -1,
      225, 226, 227, -1,
      227, 226, 228, -1,
      227, 228, 229, -1,
      229, 228, 230, -1,
      229, 230, 231, -1,
      231, 230, 232, -1,
      231, 232, 233, -1,
      233, 232, 234, -1,
      233, 234, 235, -1,
      236, 235, 237, -1,
      237, 235, 234, -1,
      236, 237, 238, -1,
      236, 238, 239, -1,
      239, 238, 240, -1,
      239, 240, 241, -1,
      241, 240, 242, -1,
      241, 242, 243, -1,
      243, 242, 244, -1,
      243, 244, 245, -1,
      245, 244, 246, -1,
      245, 246, 247, -1,
      247, 246, 248, -1,
      247, 248, 249, -1,
      250, 249, 251, -1,
      251, 249, 248, -1,
      252, 250, 253, -1,
      253, 250, 251, -1,
      222, 254, 223, -1,
      223, 254, 255, -1,
      254, 14, 255, -1,
      255, 14, 19, -1,
      18, 111, 19, -1,
      19, 111, 253, -1,
      19, 253, 255, -1,
      255, 253, 251, -1,
      255, 251, 223, -1,
      223, 251, 248, -1,
      226, 234, 228, -1,
      228, 234, 232, -1,
      228, 232, 230, -1,
      244, 242, 240, -1,
      248, 237, 223, -1,
      223, 237, 234, -1,
      223, 234, 224, -1,
      224, 234, 226, -1,
      248, 246, 237, -1,
      237, 246, 244, -1,
      237, 244, 238, -1,
      238, 244, 240, -1,
      247, 249, 236, -1,
      236, 249, 235, -1,
      241, 243, 245, -1,
      231, 233, 229, -1,
      229, 233, 235, -1,
      229, 235, 227, -1,
      247, 236, 245, -1,
      245, 236, 239, -1,
      245, 239, 241, -1,
      112, 15, 252, -1,
      252, 15, 14, -1,
      252, 14, 250, -1,
      250, 14, 254, -1,
      250, 254, 249, -1,
      249, 254, 222, -1,
      249, 222, 235, -1,
      235, 222, 225, -1,
      235, 225, 227, -1,
      112, 252, 111, -1,
      111, 252, 253, -1,
      256, 257, 258, -1,
      258, 257, 259, -1,
      258, 259, 260, -1,
      260, 259, 261, -1,
      256, 262, 257, -1,
      257, 262, 263, -1,
      257, 263, 264, -1,
      69, 68, 259, -1,
      259, 68, 265, -1,
      259, 265, 261, -1,
      266, 267, 268, -1,
      268, 269, 266, -1,
      266, 269, 270, -1,
      266, 270, 271, -1,
      271, 270, 272, -1,
      271, 272, 273, -1,
      71, 84, 274, -1,
      274, 84, 271, -1,
      274, 271, 275, -1,
      275, 271, 273, -1,
      274, 265, 71, -1,
      71, 265, 68, -1,
      268, 263, 269, -1,
      269, 263, 262, -1,
      269, 262, 270, -1,
      270, 262, 256, -1,
      270, 256, 272, -1,
      272, 256, 258, -1,
      272, 258, 273, -1,
      273, 258, 260, -1,
      273, 260, 275, -1,
      275, 260, 261, -1,
      275, 261, 274, -1,
      274, 261, 265, -1,
      268, 267, 263, -1,
      263, 267, 264, -1,
      267, 266, 264, -1,
      264, 266, 257, -1,
      266, 271, 257, -1,
      257, 271, 259, -1,
      259, 271, 69, -1,
      69, 271, 84, -1,
      62, 70, 61, -1,
      61, 70, 276, -1,
      61, 276, 277, -1,
      276, 278, 279, -1,
      279, 280, 276, -1,
      276, 280, 281, -1,
      276, 281, 277, -1,
      282, 67, 59, -1,
      59, 60, 282, -1,
      282, 60, 283, -1,
      282, 283, 284, -1,
      284, 285, 282, -1,
      282, 285, 286, -1,
      282, 286, 287, -1,
      282, 276, 67, -1,
      67, 276, 70, -1,
      276, 282, 287, -1,
      276, 287, 278, -1,
      278, 287, 286, -1,
      278, 286, 279, -1,
      279, 286, 285, -1,
      279, 285, 280, -1,
      280, 285, 284, -1,
      280, 284, 281, -1,
      281, 284, 283, -1,
      281, 283, 277, -1,
      277, 283, 60, -1,
      277, 60, 61, -1,
      288, 289, 290, -1,
      288, 290, 291, -1,
      291, 290, 292, -1,
      291, 292, 293, -1,
      293, 292, 294, -1,
      293, 294, 295, -1,
      295, 294, 296, -1,
      295, 296, 297, -1,
      297, 296, 298, -1,
      297, 298, 299, -1,
      299, 298, 300, -1,
      299, 300, 301, -1,
      302, 301, 303, -1,
      303, 301, 300, -1,
      302, 303, 304, -1,
      302, 304, 305, -1,
      305, 304, 306, -1,
      305, 306, 307, -1,
      307, 306, 308, -1,
      307, 308, 309, -1,
      309, 308, 310, -1,
      309, 310, 311, -1,
      311, 310, 312, -1,
      311, 312, 313, -1,
      313, 312, 314, -1,
      313, 314, 315, -1,
      316, 315, 317, -1,
      317, 315, 314, -1,
      318, 316, 319, -1,
      319, 316, 317, -1,
      288, 320, 289, -1,
      289, 320, 321, -1,
      320, 10, 321, -1,
      321, 10, 16, -1,
      290, 289, 300, -1,
      300, 289, 303, -1,
      296, 294, 292, -1,
      17, 110, 16, -1,
      16, 110, 319, -1,
      16, 319, 321, -1,
      321, 319, 317, -1,
      321, 317, 289, -1,
      289, 317, 314, -1,
      289, 314, 303, -1,
      310, 308, 306, -1,
      290, 300, 292, -1,
      292, 300, 298, -1,
      292, 298, 296, -1,
      314, 312, 303, -1,
      303, 312, 310, -1,
      303, 310, 304, -1,
      304, 310, 306, -1,
      313, 315, 302, -1,
      302, 315, 301, -1,
      307, 309, 311, -1,
      108, 11, 318, -1,
      318, 11, 10, -1,
      318, 10, 316, -1,
      316, 10, 320, -1,
      316, 320, 315, -1,
      315, 320, 288, -1,
      315, 288, 301, -1,
      301, 288, 291, -1,
      301, 291, 293, -1,
      313, 302, 311, -1,
      311, 302, 305, -1,
      311, 305, 307, -1,
      295, 297, 293, -1,
      293, 297, 299, -1,
      293, 299, 301, -1,
      108, 318, 110, -1,
      110, 318, 319, -1,
      322, 323, 324, -1,
      324, 323, 325, -1,
      324, 325, 326, -1,
      326, 325, 327, -1,
      322, 328, 323, -1,
      323, 328, 329, -1,
      323, 329, 330, -1,
      75, 73, 325, -1,
      325, 73, 331, -1,
      325, 331, 327, -1,
      332, 333, 334, -1,
      334, 335, 332, -1,
      332, 335, 336, -1,
      332, 336, 337, -1,
      337, 336, 338, -1,
      337, 338, 339, -1,
      72, 86, 340, -1,
      340, 86, 337, -1,
      340, 337, 341, -1,
      341, 337, 339, -1,
      340, 331, 72, -1,
      72, 331, 73, -1,
      334, 329, 335, -1,
      335, 329, 328, -1,
      335, 328, 336, -1,
      336, 328, 322, -1,
      336, 322, 338, -1,
      338, 322, 324, -1,
      338, 324, 339, -1,
      339, 324, 326, -1,
      339, 326, 341, -1,
      341, 326, 327, -1,
      341, 327, 340, -1,
      340, 327, 331, -1,
      334, 333, 329, -1,
      329, 333, 330, -1,
      333, 332, 330, -1,
      330, 332, 323, -1,
      332, 337, 323, -1,
      323, 337, 325, -1,
      325, 337, 75, -1,
      75, 337, 86, -1,
      55, 64, 51, -1,
      51, 64, 342, -1,
      51, 342, 343, -1,
      342, 344, 345, -1,
      345, 346, 342, -1,
      342, 346, 347, -1,
      342, 347, 343, -1,
      348, 74, 63, -1,
      63, 52, 348, -1,
      348, 52, 349, -1,
      348, 349, 350, -1,
      350, 351, 348, -1,
      348, 351, 352, -1,
      348, 352, 353, -1,
      348, 342, 74, -1,
      74, 342, 64, -1,
      342, 348, 353, -1,
      342, 353, 344, -1,
      344, 353, 352, -1,
      344, 352, 345, -1,
      345, 352, 351, -1,
      345, 351, 346, -1,
      346, 351, 350, -1,
      346, 350, 347, -1,
      347, 350, 349, -1,
      347, 349, 343, -1,
      343, 349, 52, -1,
      343, 52, 51, -1,
      354, 355, 356, -1,
      354, 356, 357, -1,
      357, 356, 358, -1,
      357, 358, 359, -1,
      359, 358, 360, -1,
      359, 360, 361, -1,
      361, 360, 362, -1,
      361, 362, 363, -1,
      363, 362, 364, -1,
      363, 364, 365, -1,
      365, 364, 366, -1,
      365, 366, 367, -1,
      368, 367, 369, -1,
      369, 367, 366, -1,
      368, 369, 370, -1,
      368, 370, 371, -1,
      371, 370, 372, -1,
      371, 372, 373, -1,
      373, 372, 374, -1,
      373, 374, 375, -1,
      375, 374, 376, -1,
      375, 376, 377, -1,
      377, 376, 378, -1,
      377, 378, 379, -1,
      379, 378, 380, -1,
      379, 380, 381, -1,
      382, 381, 383, -1,
      383, 381, 380, -1,
      384, 382, 385, -1,
      385, 382, 383, -1,
      354, 386, 355, -1,
      355, 386, 387, -1,
      386, 6, 387, -1,
      387, 6, 12, -1,
      356, 355, 366, -1,
      366, 355, 369, -1,
      362, 360, 358, -1,
      13, 107, 12, -1,
      12, 107, 385, -1,
      12, 385, 387, -1,
      387, 385, 383, -1,
      387, 383, 355, -1,
      355, 383, 380, -1,
      355, 380, 369, -1,
      376, 374, 372, -1,
      356, 366, 358, -1,
      358, 366, 364, -1,
      358, 364, 362, -1,
      380, 378, 369, -1,
      369, 378, 376, -1,
      369, 376, 370, -1,
      370, 376, 372, -1,
      379, 381, 368, -1,
      368, 381, 367, -1,
      373, 375, 377, -1,
      109, 7, 384, -1,
      384, 7, 6, -1,
      384, 6, 382, -1,
      382, 6, 386, -1,
      382, 386, 381, -1,
      381, 386, 354, -1,
      381, 354, 367, -1,
      367, 354, 357, -1,
      367, 357, 359, -1,
      379, 368, 377, -1,
      377, 368, 371, -1,
      377, 371, 373, -1,
      361, 363, 359, -1,
      359, 363, 365, -1,
      359, 365, 367, -1,
      109, 384, 107, -1,
      107, 384, 385, -1,
      388, 389, 390, -1,
      390, 389, 391, -1,
      390, 391, 392, -1,
      392, 391, 393, -1,
      388, 394, 389, -1,
      389, 394, 395, -1,
      389, 395, 396, -1,
      79, 77, 391, -1,
      391, 77, 397, -1,
      391, 397, 393, -1,
      398, 399, 400, -1,
      400, 401, 398, -1,
      398, 401, 402, -1,
      398, 402, 403, -1,
      403, 402, 404, -1,
      403, 404, 405, -1,
      76, 87, 406, -1,
      406, 87, 403, -1,
      406, 403, 407, -1,
      407, 403, 405, -1,
      406, 397, 76, -1,
      76, 397, 77, -1,
      400, 395, 401, -1,
      401, 395, 394, -1,
      401, 394, 402, -1,
      402, 394, 388, -1,
      402, 388, 404, -1,
      404, 388, 390, -1,
      404, 390, 405, -1,
      405, 390, 392, -1,
      405, 392, 407, -1,
      407, 392, 393, -1,
      407, 393, 406, -1,
      406, 393, 397, -1,
      400, 399, 395, -1,
      395, 399, 396, -1,
      399, 398, 396, -1,
      396, 398, 389, -1,
      398, 403, 389, -1,
      389, 403, 391, -1,
      391, 403, 79, -1,
      79, 403, 87, -1,
      57, 65, 56, -1,
      56, 65, 408, -1,
      56, 408, 409, -1,
      408, 410, 411, -1,
      411, 412, 408, -1,
      408, 412, 413, -1,
      408, 413, 409, -1,
      414, 78, 54, -1,
      54, 53, 414, -1,
      414, 53, 415, -1,
      414, 415, 416, -1,
      416, 417, 414, -1,
      414, 417, 418, -1,
      414, 418, 419, -1,
      414, 408, 78, -1,
      78, 408, 65, -1,
      408, 414, 419, -1,
      408, 419, 410, -1,
      410, 419, 418, -1,
      410, 418, 411, -1,
      411, 418, 417, -1,
      411, 417, 412, -1,
      412, 417, 416, -1,
      412, 416, 413, -1,
      413, 416, 415, -1,
      413, 415, 409, -1,
      409, 415, 53, -1,
      409, 53, 56, -1,
      420, 421, 422, -1,
      420, 422, 423, -1,
      423, 422, 424, -1,
      423, 424, 425, -1,
      425, 424, 426, -1,
      425, 426, 427, -1,
      427, 426, 428, -1,
      427, 428, 429, -1,
      429, 428, 430, -1,
      429, 430, 431, -1,
      431, 430, 432, -1,
      431, 432, 433, -1,
      434, 433, 435, -1,
      435, 433, 432, -1,
      434, 435, 436, -1,
      434, 436, 437, -1,
      437, 436, 438, -1,
      437, 438, 439, -1,
      439, 438, 440, -1,
      439, 440, 441, -1,
      441, 440, 442, -1,
      441, 442, 443, -1,
      443, 442, 444, -1,
      443, 444, 445, -1,
      445, 444, 446, -1,
      445, 446, 447, -1,
      448, 447, 449, -1,
      449, 447, 446, -1,
      450, 448, 451, -1,
      451, 448, 449, -1,
      420, 452, 421, -1,
      421, 452, 453, -1,
      452, 103, 453, -1,
      453, 103, 8, -1,
      422, 421, 432, -1,
      432, 421, 435, -1,
      428, 426, 424, -1,
      9, 106, 8, -1,
      8, 106, 451, -1,
      8, 451, 453, -1,
      453, 451, 449, -1,
      453, 449, 421, -1,
      421, 449, 446, -1,
      421, 446, 435, -1,
      442, 440, 438, -1,
      422, 432, 424, -1,
      424, 432, 430, -1,
      424, 430, 428, -1,
      446, 444, 435, -1,
      435, 444, 442, -1,
      435, 442, 436, -1,
      436, 442, 438, -1,
      445, 447, 434, -1,
      434, 447, 433, -1,
      439, 441, 443, -1,
      105, 104, 450, -1,
      450, 104, 103, -1,
      450, 103, 448, -1,
      448, 103, 452, -1,
      448, 452, 447, -1,
      447, 452, 420, -1,
      447, 420, 433, -1,
      433, 420, 423, -1,
      433, 423, 425, -1,
      445, 434, 443, -1,
      443, 434, 437, -1,
      443, 437, 439, -1,
      427, 429, 425, -1,
      425, 429, 431, -1,
      425, 431, 433, -1,
      105, 450, 106, -1,
      106, 450, 451, -1,
      454, 455, 456, -1,
      456, 455, 457, -1,
      456, 457, 458, -1,
      458, 457, 459, -1,
      454, 460, 455, -1,
      455, 460, 461, -1,
      455, 461, 462, -1,
      83, 81, 457, -1,
      457, 81, 463, -1,
      457, 463, 459, -1,
      464, 465, 466, -1,
      466, 467, 464, -1,
      464, 467, 468, -1,
      464, 468, 469, -1,
      469, 468, 470, -1,
      469, 470, 471, -1,
      80, 85, 472, -1,
      472, 85, 469, -1,
      472, 469, 473, -1,
      473, 469, 471, -1,
      472, 463, 80, -1,
      80, 463, 81, -1,
      466, 461, 467, -1,
      467, 461, 460, -1,
      467, 460, 468, -1,
      468, 460, 454, -1,
      468, 454, 470, -1,
      470, 454, 456, -1,
      470, 456, 471, -1,
      471, 456, 458, -1,
      471, 458, 473, -1,
      473, 458, 459, -1,
      473, 459, 472, -1,
      472, 459, 463, -1,
      466, 465, 461, -1,
      461, 465, 462, -1,
      465, 464, 462, -1,
      462, 464, 455, -1,
      464, 469, 455, -1,
      455, 469, 457, -1,
      457, 469, 83, -1,
      83, 469, 85, -1,
      48, 66, 49, -1,
      49, 66, 474, -1,
      49, 474, 475, -1,
      474, 476, 477, -1,
      477, 478, 474, -1,
      474, 478, 479, -1,
      474, 479, 475, -1,
      480, 82, 58, -1,
      58, 50, 480, -1,
      480, 50, 481, -1,
      480, 481, 482, -1,
      482, 483, 480, -1,
      480, 483, 484, -1,
      480, 484, 485, -1,
      480, 474, 82, -1,
      82, 474, 66, -1,
      474, 480, 485, -1,
      474, 485, 476, -1,
      476, 485, 484, -1,
      476, 484, 477, -1,
      477, 484, 483, -1,
      477, 483, 478, -1,
      478, 483, 482, -1,
      478, 482, 479, -1,
      479, 482, 481, -1,
      479, 481, 475, -1,
      475, 481, 50, -1,
      475, 50, 49, -1,
    ]
  }
}

Shape {
  appearance Appearance {
    material Material {
      diffuseColor 1.0000 1.0000 1.0000
      specularColor 0.8784 0.8784 0.8784
      ambientIntensity 0.2
      transparency 0.0000
      shininess 0.5
    }
  }
  geometry IndexedFaceSet {
    ccw TRUE
    solid FALSE
    coord DEF co Coordinate {
      point [
        -0.307279 -0.855277 -0.836614,
        -0.333685 -0.855277 -0.836614,
        -0.113542 -1.052128 -0.836614,
        -0.060015 -1.052128 -0.836614,
        -0.381698 -1.052128 -0.836614,
        -0.361780 -0.996913 -0.836614,
        -0.280459 -0.996913 -0.836614,
        -0.144006 -0.858317 -0.836614,
        -0.167050 -0.866404 -0.836614,
        -0.186550 -0.879093 -0.836614,
        -0.232859 -1.052128 -0.836614,
        -0.161143 -1.043000 -0.836614,
        -0.138483 -1.049893 -0.836614,
        -0.261667 -1.052128 -0.836614,
        -0.410505 -1.052128 -0.836614,
        -0.208655 -0.998082 -0.836614,
        -0.197611 -1.015445 -0.836614,
        -0.181522 -1.031000 -0.836614,
        -0.115567 -0.855277 -0.836614,
        -0.060015 -0.855277 -0.836614,
        -0.194194 -0.886180 -0.836614,
        -0.205998 -0.901596 -0.836614,
        -0.214287 -0.920702 -0.836614,
        -0.218080 -0.941498 -0.836614,
        -0.218456 -0.951227 -0.836614,
        -0.215699 -0.977568 -0.836614,
        0.084022 -0.855277 -0.836614,
        0.151361 -0.854077 -0.836614,
        0.145191 -0.854503 -0.836614,
        0.122431 -0.860679 -0.836614,
        0.122431 -0.887085 -0.836614,
        0.084022 -1.052128 -0.836614,
        0.266041 -0.929467 -0.836614,
        0.258465 -0.907043 -0.836614,
        0.360092 -0.855277 -0.836614,
        0.168531 -0.874482 -0.836614,
        0.125959 -1.022274 -0.836614,
        0.144604 -0.877591 -0.836614,
        0.122431 -1.020319 -0.836614,
        0.246717 -0.888403 -0.836614,
        0.229538 -0.871883 -0.836614,
        0.211138 -0.861157 -0.836614,
        -0.016804 -0.855277 -0.836614,
        -0.016804 -0.876883 -0.836614,
        0.189543 -0.854672 -0.836614,
        0.182657 -0.854077 -0.836614,
        0.386499 -0.855277 -0.836614,
        0.187913 -0.876654 -0.836614,
        0.202570 -0.881952 -0.836614,
        0.216517 -0.891302 -0.836614,
        0.228350 -0.904490 -0.836614,
        0.236383 -0.919715 -0.836614,
        0.241591 -0.941028 -0.836614,
        0.242462 -0.955803 -0.836614,
        0.240472 -0.977098 -0.836614,
        0.235128 -0.994030 -0.836614,
        0.172957 -1.032923 -0.836614,
        0.217791 -1.017359 -0.836614,
        0.191224 -1.030885 -0.836614,
        0.205703 -1.025565 -0.836614,
        0.226944 -1.007702 -0.836614,
        0.146827 -1.030022 -0.836614,
        0.268869 -0.957416 -0.836614,
        0.360092 -1.030522 -0.836614,
        0.266934 -0.980385 -0.836614,
        0.285673 -1.052128 -0.836614,
        0.386499 -1.052128 -0.836614,
        0.143415 -1.050541 -0.836614,
        0.171213 -1.054436 -0.836614,
        -0.021606 -1.052128 -0.836614,
        0.057615 -0.876883 -0.836614,
        0.057615 -0.941699 -0.836614,
        -0.012003 -0.941699 -0.836614,
        -0.012003 -0.963305 -0.836614,
        0.122431 -1.041925 -0.836614,
        0.260833 -1.001507 -0.836614,
        0.285673 -1.030522 -0.836614,
        0.250322 -1.020032 -0.836614,
        0.235914 -1.035212 -0.836614,
        -0.021606 -1.030522 -0.836614,
        0.057615 -0.963305 -0.836614,
        0.057615 -1.030522 -0.836614,
        0.219931 -1.045464 -0.836614,
        0.200817 -1.052017 -0.836614,
        0.176595 -1.054528 -0.836614,
        0.168756 -0.852876 -0.836614,
        0.285673 -1.030522 -0.828740,
        0.285673 -1.052128 -0.828740,
        0.386499 -1.052128 -0.828740,
        0.386499 -0.855277 -0.828740,
        0.360092 -0.855277 -0.828740,
        0.360092 -1.030522 -0.828740,
        0.122431 -1.020319 -0.828740,
        0.122431 -1.041925 -0.828740,
        0.176595 -1.054528 -0.828740,
        0.171213 -1.054436 -0.828740,
        0.143415 -1.050541 -0.828740,
        0.268869 -0.957416 -0.828740,
        0.266934 -0.980385 -0.828740,
        0.260833 -1.001507 -0.828740,
        0.250322 -1.020032 -0.828740,
        0.235914 -1.035212 -0.828740,
        0.219931 -1.045464 -0.828740,
        0.200817 -1.052017 -0.828740,
        0.168756 -0.852876 -0.828740,
        0.189543 -0.854672 -0.828740,
        0.211138 -0.861157 -0.828740,
        0.229538 -0.871883 -0.828740,
        0.246717 -0.888403 -0.828740,
        0.258465 -0.907043 -0.828740,
        0.266041 -0.929467 -0.828740,
        0.145191 -0.854503 -0.828740,
        0.122431 -0.860679 -0.828740,
        0.122431 -0.887085 -0.828740,
        0.168531 -0.874482 -0.828740,
        0.144604 -0.877591 -0.828740,
        0.242462 -0.955803 -0.828740,
        0.241591 -0.941028 -0.828740,
        0.236383 -0.919715 -0.828740,
        0.228350 -0.904490 -0.828740,
        0.216517 -0.891302 -0.828740,
        0.202570 -0.881952 -0.828740,
        0.187913 -0.876654 -0.828740,
        0.172957 -1.032923 -0.828740,
        0.191224 -1.030885 -0.828740,
        0.205703 -1.025565 -0.828740,
        0.217791 -1.017359 -0.828740,
        0.226944 -1.007702 -0.828740,
        0.235128 -0.994030 -0.828740,
        0.240472 -0.977098 -0.828740,
        0.125959 -1.022274 -0.828740,
        0.146827 -1.030022 -0.828740,
        -0.021606 -1.030522 -0.828740,
        -0.021606 -1.052128 -0.828740,
        0.084022 -1.052128 -0.828740,
        0.084022 -0.855277 -0.828740,
        -0.016804 -0.855277 -0.828740,
        -0.016804 -0.876883 -0.828740,
        0.057615 -0.876883 -0.828740,
        0.057615 -0.941699 -0.828740,
        -0.012003 -0.941699 -0.828740,
        -0.012003 -0.963305 -0.828740,
        0.057615 -0.963305 -0.828740,
        0.057615 -1.030522 -0.828740,
        -0.113542 -1.052128 -0.828740,
        -0.060015 -1.052128 -0.828740,
        -0.060015 -0.855277 -0.828740,
        -0.115567 -0.855277 -0.828740,
        -0.218456 -0.951227 -0.828740,
        -0.218080 -0.941498 -0.828740,
        -0.214287 -0.920702 -0.828740,
        -0.205998 -0.901596 -0.828740,
        -0.194194 -0.886180 -0.828740,
        -0.186550 -0.879093 -0.828740,
        -0.167050 -0.866404 -0.828740,
        -0.144006 -0.858317 -0.828740,
        -0.138483 -1.049893 -0.828740,
        -0.161143 -1.043000 -0.828740,
        -0.181522 -1.031000 -0.828740,
        -0.197611 -1.015445 -0.828740,
        -0.208655 -0.998082 -0.828740,
        -0.215699 -0.977568 -0.828740,
        -0.192049 -0.951789 -0.828740,
        -0.190377 -0.932196 -0.828740,
        -0.185774 -0.916643 -0.828740,
        -0.179035 -0.904557 -0.828740,
        -0.169484 -0.894387 -0.828740,
        -0.155144 -0.885116 -0.828740,
        -0.138888 -0.879391 -0.828740,
        -0.115455 -0.876883 -0.828740,
        -0.086422 -0.876883 -0.828740,
        -0.086422 -1.030522 -0.828740,
        -0.114367 -1.030522 -0.828740,
        -0.135163 -1.028584 -0.828740,
        -0.151726 -1.023422 -0.828740,
        -0.165033 -1.015517 -0.828740,
        -0.176156 -1.004564 -0.828740,
        -0.184400 -0.991123 -0.828740,
        -0.189620 -0.975468 -0.828740,
        -0.115455 -0.876883 -0.836614,
        -0.086422 -0.876883 -0.836614,
        -0.138888 -0.879391 -0.836614,
        -0.155144 -0.885116 -0.836614,
        -0.169484 -0.894387 -0.836614,
        -0.179035 -0.904557 -0.836614,
        -0.185774 -0.916643 -0.836614,
        -0.190377 -0.932196 -0.836614,
        -0.192049 -0.951789 -0.836614,
        -0.189620 -0.975468 -0.836614,
        -0.184400 -0.991123 -0.836614,
        -0.176156 -1.004564 -0.836614,
        -0.165033 -1.015517 -0.836614,
        -0.151726 -1.023422 -0.836614,
        -0.135163 -1.028584 -0.836614,
        -0.114367 -1.030522 -0.836614,
        -0.086422 -1.030522 -0.836614,
        -0.333685 -0.855277 -0.828740,
        -0.410505 -1.052128 -0.828740,
        -0.381698 -1.052128 -0.828740,
        -0.361780 -0.996913 -0.828740,
        -0.280459 -0.996913 -0.828740,
        -0.261667 -1.052128 -0.828740,
        -0.232859 -1.052128 -0.828740,
        -0.307279 -0.855277 -0.828740,
        -0.287098 -0.975308 -0.828740,
        -0.316469 -0.893087 -0.828740,
        -0.318330 -0.886252 -0.828740,
        -0.319619 -0.879283 -0.828740,
        -0.320257 -0.879283 -0.828740,
        -0.321541 -0.886239 -0.828740,
        -0.323295 -0.893087 -0.828740,
        -0.352928 -0.975308 -0.828740,
        -0.287098 -0.975308 -0.836614,
        -0.352928 -0.975308 -0.836614,
        -0.316469 -0.893087 -0.836614,
        -0.318330 -0.886252 -0.836614,
        -0.319619 -0.879283 -0.836614,
        -0.320257 -0.879283 -0.836614,
        -0.321541 -0.886239 -0.836614,
        -0.323295 -0.893087 -0.836614,
      ]
    }
    coordIndex [
      86, 87, 76, -1,
      76, 87, 65, -1,
      87, 88, 65, -1,
      65, 88, 66, -1,
      88, 89, 66, -1,
      66, 89, 46, -1,
      89, 90, 46, -1,
      46, 90, 34, -1,
      90, 91, 34, -1,
      34, 91, 63, -1,
      91, 86, 63, -1,
      63, 86, 76, -1,
      90, 89, 91, -1,
      91, 89, 88, -1,
      91, 88, 86, -1,
      86, 88, 87, -1,
      92, 93, 38, -1,
      38, 93, 74, -1,
      94, 84, 68, -1,
      94, 68, 95, -1,
      95, 68, 67, -1,
      95, 67, 96, -1,
      96, 67, 74, -1,
      96, 74, 93, -1,
      97, 62, 64, -1,
      97, 64, 98, -1,
      98, 64, 75, -1,
      98, 75, 99, -1,
      99, 75, 77, -1,
      99, 77, 100, -1,
      100, 77, 78, -1,
      100, 78, 101, -1,
      101, 78, 82, -1,
      101, 82, 102, -1,
      102, 82, 83, -1,
      102, 83, 103, -1,
      103, 83, 84, -1,
      103, 84, 94, -1,
      104, 85, 105, -1,
      105, 85, 45, -1,
      45, 44, 105, -1,
      105, 44, 41, -1,
      105, 41, 106, -1,
      106, 41, 40, -1,
      106, 40, 107, -1,
      107, 40, 39, -1,
      107, 39, 108, -1,
      108, 39, 33, -1,
      108, 33, 109, -1,
      109, 33, 32, -1,
      109, 32, 110, -1,
      110, 32, 62, -1,
      110, 62, 97, -1,
      85, 104, 27, -1,
      27, 104, 111, -1,
      27, 111, 28, -1,
      28, 111, 112, -1,
      28, 112, 29, -1,
      112, 113, 29, -1,
      29, 113, 30, -1,
      114, 35, 37, -1,
      114, 37, 115, -1,
      115, 37, 30, -1,
      115, 30, 113, -1,
      116, 53, 52, -1,
      116, 52, 117, -1,
      117, 52, 51, -1,
      117, 51, 118, -1,
      118, 51, 50, -1,
      118, 50, 119, -1,
      119, 50, 49, -1,
      119, 49, 120, -1,
      120, 49, 48, -1,
      120, 48, 121, -1,
      121, 48, 47, -1,
      121, 47, 122, -1,
      122, 47, 35, -1,
      122, 35, 114, -1,
      123, 56, 58, -1,
      123, 58, 124, -1,
      124, 58, 59, -1,
      124, 59, 125, -1,
      125, 59, 57, -1,
      125, 57, 126, -1,
      126, 57, 60, -1,
      126, 60, 127, -1,
      127, 60, 55, -1,
      127, 55, 128, -1,
      128, 55, 54, -1,
      128, 54, 129, -1,
      129, 54, 53, -1,
      129, 53, 116, -1,
      92, 38, 36, -1,
      92, 36, 130, -1,
      130, 36, 61, -1,
      130, 61, 131, -1,
      131, 61, 56, -1,
      131, 56, 123, -1,
      124, 94, 123, -1,
      123, 94, 95, -1,
      123, 95, 131, -1,
      131, 95, 96, -1,
      131, 96, 130, -1,
      130, 96, 93, -1,
      130, 93, 92, -1,
      113, 112, 115, -1,
      115, 112, 111, -1,
      115, 111, 114, -1,
      114, 111, 104, -1,
      114, 104, 122, -1,
      122, 104, 105, -1,
      122, 105, 121, -1,
      121, 105, 106, -1,
      121, 106, 120, -1,
      120, 106, 107, -1,
      120, 107, 119, -1,
      119, 107, 108, -1,
      119, 108, 118, -1,
      118, 108, 109, -1,
      118, 109, 117, -1,
      117, 109, 110, -1,
      117, 110, 116, -1,
      116, 110, 97, -1,
      116, 97, 129, -1,
      129, 97, 98, -1,
      129, 98, 128, -1,
      128, 98, 99, -1,
      128, 99, 127, -1,
      127, 99, 100, -1,
      127, 100, 126, -1,
      126, 100, 101, -1,
      126, 101, 125, -1,
      125, 101, 102, -1,
      125, 102, 124, -1,
      124, 102, 103, -1,
      124, 103, 94, -1,
      132, 133, 79, -1,
      79, 133, 69, -1,
      133, 134, 69, -1,
      69, 134, 31, -1,
      134, 135, 31, -1,
      31, 135, 26, -1,
      135, 136, 26, -1,
      26, 136, 42, -1,
      136, 137, 42, -1,
      42, 137, 43, -1,
      137, 138, 43, -1,
      43, 138, 70, -1,
      138, 139, 70, -1,
      70, 139, 71, -1,
      139, 140, 71, -1,
      71, 140, 72, -1,
      140, 141, 72, -1,
      72, 141, 73, -1,
      141, 142, 73, -1,
      73, 142, 80, -1,
      142, 143, 80, -1,
      80, 143, 81, -1,
      143, 132, 81, -1,
      81, 132, 79, -1,
      134, 133, 132, -1,
      132, 143, 134, -1,
      134, 143, 142, -1,
      134, 142, 135, -1,
      137, 136, 138, -1,
      138, 136, 135, -1,
      138, 135, 139, -1,
      139, 135, 142, -1,
      139, 142, 140, -1,
      140, 142, 141, -1,
      144, 145, 2, -1,
      2, 145, 3, -1,
      145, 146, 3, -1,
      3, 146, 19, -1,
      146, 147, 19, -1,
      19, 147, 18, -1,
      148, 24, 23, -1,
      148, 23, 149, -1,
      149, 23, 22, -1,
      149, 22, 150, -1,
      150, 22, 21, -1,
      150, 21, 151, -1,
      151, 21, 20, -1,
      151, 20, 152, -1,
      152, 20, 9, -1,
      152, 9, 153, -1,
      153, 9, 8, -1,
      153, 8, 154, -1,
      154, 8, 7, -1,
      154, 7, 155, -1,
      155, 7, 18, -1,
      155, 18, 147, -1,
      144, 2, 12, -1,
      144, 12, 156, -1,
      156, 12, 11, -1,
      156, 11, 157, -1,
      157, 11, 17, -1,
      157, 17, 158, -1,
      158, 17, 16, -1,
      158, 16, 159, -1,
      159, 16, 15, -1,
      159, 15, 160, -1,
      160, 15, 25, -1,
      160, 25, 161, -1,
      161, 25, 24, -1,
      161, 24, 148, -1,
      161, 148, 162, -1,
      162, 148, 149, -1,
      162, 149, 163, -1,
      163, 149, 150, -1,
      163, 150, 164, -1,
      164, 150, 151, -1,
      164, 151, 165, -1,
      165, 151, 152, -1,
      165, 152, 166, -1,
      166, 152, 153, -1,
      166, 153, 167, -1,
      167, 153, 154, -1,
      167, 154, 168, -1,
      168, 154, 155, -1,
      168, 155, 169, -1,
      169, 155, 147, -1,
      169, 147, 170, -1,
      170, 147, 146, -1,
      170, 146, 171, -1,
      171, 146, 145, -1,
      171, 145, 172, -1,
      172, 145, 144, -1,
      172, 144, 173, -1,
      173, 144, 156, -1,
      173, 156, 174, -1,
      174, 156, 157, -1,
      174, 157, 175, -1,
      175, 157, 158, -1,
      175, 158, 176, -1,
      176, 158, 159, -1,
      176, 159, 177, -1,
      177, 159, 160, -1,
      177, 160, 178, -1,
      178, 160, 161, -1,
      178, 161, 162, -1,
      169, 170, 179, -1,
      179, 170, 180, -1,
      169, 179, 181, -1,
      169, 181, 168, -1,
      168, 181, 182, -1,
      168, 182, 167, -1,
      167, 182, 183, -1,
      167, 183, 166, -1,
      166, 183, 184, -1,
      166, 184, 165, -1,
      165, 184, 185, -1,
      165, 185, 164, -1,
      164, 185, 186, -1,
      164, 186, 163, -1,
      163, 186, 187, -1,
      163, 187, 162, -1,
      162, 187, 188, -1,
      162, 188, 178, -1,
      178, 188, 189, -1,
      178, 189, 177, -1,
      177, 189, 190, -1,
      177, 190, 176, -1,
      176, 190, 191, -1,
      176, 191, 175, -1,
      175, 191, 192, -1,
      175, 192, 174, -1,
      174, 192, 193, -1,
      174, 193, 173, -1,
      173, 193, 194, -1,
      173, 194, 172, -1,
      171, 172, 195, -1,
      195, 172, 194, -1,
      170, 171, 180, -1,
      180, 171, 195, -1,
      196, 197, 1, -1,
      1, 197, 14, -1,
      197, 198, 14, -1,
      14, 198, 4, -1,
      198, 199, 4, -1,
      4, 199, 5, -1,
      199, 200, 5, -1,
      5, 200, 6, -1,
      200, 201, 6, -1,
      6, 201, 13, -1,
      201, 202, 13, -1,
      13, 202, 10, -1,
      202, 203, 10, -1,
      10, 203, 0, -1,
      203, 196, 0, -1,
      0, 196, 1, -1,
      204, 205, 203, -1,
      202, 201, 200, -1,
      205, 206, 203, -1,
      203, 206, 207, -1,
      203, 207, 196, -1,
      196, 207, 208, -1,
      196, 208, 209, -1,
      209, 210, 196, -1,
      196, 210, 211, -1,
      196, 211, 197, -1,
      198, 197, 199, -1,
      199, 197, 211, -1,
      199, 211, 200, -1,
      200, 211, 204, -1,
      200, 204, 202, -1,
      202, 204, 203, -1,
      204, 211, 212, -1,
      212, 211, 213, -1,
      205, 204, 214, -1,
      214, 204, 212, -1,
      205, 214, 215, -1,
      205, 215, 206, -1,
      206, 215, 216, -1,
      206, 216, 207, -1,
      208, 207, 217, -1,
      217, 207, 216, -1,
      208, 217, 218, -1,
      208, 218, 209, -1,
      209, 218, 219, -1,
      209, 219, 210, -1,
      211, 210, 213, -1,
      213, 210, 219, -1,
    ]
  }
}

Shape {
  appearance Appearance {
    material Material {
      diffuseColor 0.5882 0.5725 0.5255
      specularColor 0.0431 0.0392 0.0392
      ambientIntensity 0.2
      transparency 0.0000
      shininess 0.5
    }
  }
  geometry IndexedFaceSet {
    ccw TRUE
    solid FALSE
    coord DEF co Coordinate {
      point [
        -0.885827 -1.594488 0.068898,
        0.885827 -1.594488 0.068898,
        -1.003937 -1.594488 0.442913,
        -1.505906 -1.594488 0.442913,
        -0.885827 -1.594488 0.757874,
        -1.003937 -1.594488 0.718504,
        0.885827 -1.594488 0.757874,
        1.003937 -1.594488 0.442913,
        1.003937 -1.594488 0.718504,
        1.505906 -1.594488 0.442913,
        1.505906 -1.594488 0.718504,
        -1.505906 -1.594488 0.718504,
        -0.885827 -0.000000 0.108268,
        0.885827 -0.000000 0.108268,
        -0.885827 -0.000000 0.718504,
        0.885827 -0.000000 0.718504,
        -0.115455 -0.876883 -0.836614,
        -0.086422 -0.876883 -0.836614,
        -0.138888 -0.879391 -0.836614,
        -0.155144 -0.885116 -0.836614,
        -0.169484 -0.894387 -0.836614,
        -0.179035 -0.904557 -0.836614,
        -0.185774 -0.916643 -0.836614,
        -0.190377 -0.932196 -0.836614,
        -0.192049 -0.951789 -0.836614,
        -0.189620 -0.975468 -0.836614,
        -0.184400 -0.991123 -0.836614,
        -0.176156 -1.004564 -0.836614,
        -0.165033 -1.015517 -0.836614,
        -0.151726 -1.023422 -0.836614,
        -0.135163 -1.028584 -0.836614,
        -0.114367 -1.030522 -0.836614,
        -0.086422 -1.030522 -0.836614,
        -0.287098 -0.975308 -0.836614,
        -0.352928 -0.975308 -0.836614,
        -0.316469 -0.893087 -0.836614,
        -0.318330 -0.886252 -0.836614,
        -0.319619 -0.879283 -0.836614,
        -0.320257 -0.879283 -0.836614,
        -0.321541 -0.886239 -0.836614,
        -0.323295 -0.893087 -0.836614,
        0.885827 -1.555118 0.718504,
        0.885827 -1.555118 0.108268,
        0.620079 -0.767717 0.108268,
        -0.620079 -0.767717 0.108268,
        -0.620079 -1.358268 0.108268,
        -0.885827 -1.555118 0.108268,
        0.620079 -1.358268 0.108268,
        -0.885827 -1.555118 0.718504,
        -0.620079 -0.936121 0.305118,
        -0.620079 -0.767717 0.305118,
        0.620079 -0.936121 0.305118,
        0.620079 -0.767717 0.305118,
        -1.200787 -1.397638 0.718504,
        -1.200787 -0.413386 0.718504,
        -1.200787 -1.397638 0.442913,
        -1.200787 -0.413386 0.442913,
        -1.505906 -0.413386 0.442913,
        -1.505906 -0.413386 0.718504,
        1.200787 -1.397638 0.442913,
        1.200787 -0.413386 0.442913,
        1.200787 -1.397638 0.718504,
        1.200787 -0.413386 0.718504,
        1.505906 -0.413386 0.718504,
        1.505906 -0.413386 0.442913,
      ]
    }
    coordIndex [
      17, 32, 16, -1,
      16, 32, 31, -1,
      25, 24, 16, -1,
      24, 23, 16, -1,
      16, 23, 22, -1,
      16, 22, 18, -1,
      31, 30, 16, -1,
      16, 30, 29, -1,
      16, 29, 28, -1,
      21, 20, 22, -1,
      22, 20, 19, -1,
      22, 19, 18, -1,
      28, 27, 16, -1,
      16, 27, 26, -1,
      16, 26, 25, -1,
      33, 34, 35, -1,
      35, 34, 40, -1,
      35, 40, 36, -1,
      36, 40, 39, -1,
      36, 39, 37, -1,
      37, 39, 38, -1,
      15, 13, 41, -1,
      41, 13, 42, -1,
      41, 42, 6, -1,
      6, 42, 1, -1,
      43, 13, 44, -1,
      44, 13, 12, -1,
      44, 12, 45, -1,
      45, 12, 46, -1,
      45, 46, 47, -1,
      47, 46, 42, -1,
      47, 42, 43, -1,
      43, 42, 13, -1,
      4, 0, 46, -1,
      12, 14, 46, -1,
      46, 14, 48, -1,
      46, 48, 4, -1,
      48, 14, 41, -1,
      41, 14, 15, -1,
      1, 42, 0, -1,
      0, 42, 46, -1,
      4, 48, 6, -1,
      6, 48, 41, -1,
      49, 50, 45, -1,
      45, 50, 44, -1,
      51, 52, 49, -1,
      49, 52, 50, -1,
      47, 43, 51, -1,
      51, 43, 52, -1,
      52, 43, 50, -1,
      50, 43, 44, -1,
      49, 45, 51, -1,
      51, 45, 47, -1,
      53, 54, 55, -1,
      55, 54, 56, -1,
      56, 57, 55, -1,
      55, 57, 3, -1,
      55, 3, 2, -1,
      57, 58, 3, -1,
      3, 58, 11, -1,
      58, 54, 11, -1,
      11, 54, 53, -1,
      11, 53, 5, -1,
      58, 57, 54, -1,
      54, 57, 56, -1,
      5, 53, 2, -1,
      2, 53, 55, -1,
      59, 60, 61, -1,
      61, 60, 62, -1,
      62, 63, 61, -1,
      61, 63, 10, -1,
      61, 10, 8, -1,
      63, 64, 10, -1,
      10, 64, 9, -1,
      64, 60, 9, -1,
      9, 60, 59, -1,
      9, 59, 7, -1,
      64, 63, 60, -1,
      60, 63, 62, -1,
      61, 8, 59, -1,
      59, 8, 7, -1,
    ]
  }
}
