#VRML V2.0 utf8

Shape {
  appearance Appearance {
    material Material {
      diffuseColor 0.2078 0.2078 0.2078
      specularColor 0.0157 0.0157 0.0157
      ambientIntensity 0.2
      transparency 0.0000
      shininess 0.5
    }
  }
  geometry IndexedFaceSet {
    ccw TRUE
    solid FALSE
    coord DEF co Coordinate {
      point [
        0.021005 0.013257 -0.157480,
        0.025778 0.013880 -0.157480,
        0.027731 0.013321 -0.157480,
        0.021107 0.017882 -0.157480,
        0.016558 0.016641 -0.157480,
        0.012717 0.517719 -0.157480,
        0.016558 0.011359 -0.157480,
        0.012717 -0.021889 -0.157480,
        0.016558 -0.015288 -0.157480,
        0.016558 -0.019609 -0.157480,
        0.021429 -0.017229 -0.157480,
        0.026663 -0.017808 -0.157480,
        0.069371 -0.021649 -0.157480,
        0.028312 -0.021889 -0.157480,
        0.049206 -0.021649 -0.157480,
        0.030516 -0.021315 -0.157480,
        0.037949 -0.018601 -0.157480,
        0.036566 0.009185 -0.157480,
        0.037957 0.007575 -0.157480,
        0.031070 -0.016783 -0.157480,
        0.039016 0.005489 -0.157480,
        0.039866 0.002442 -0.157480,
        0.040564 -0.002384 -0.157480,
        0.039639 -0.007164 -0.157480,
        0.033841 -0.015756 -0.157480,
        0.042620 0.008565 -0.157480,
        0.040624 0.011883 -0.157480,
        0.038626 0.013875 -0.157480,
        0.035985 0.015459 -0.157480,
        0.034194 0.010851 -0.157480,
        0.038246 -0.011305 -0.157480,
        0.036921 -0.013416 -0.157480,
        0.035703 -0.014613 -0.157480,
        0.040797 -0.016661 -0.157480,
        0.042503 -0.014738 -0.157480,
        0.049206 -0.017328 -0.157480,
        0.043821 -0.012226 -0.157480,
        0.044907 -0.008541 -0.157480,
        0.045845 -0.002707 -0.157480,
        0.045361 -0.000465 -0.157480,
        0.032070 0.016851 -0.157480,
        0.025822 0.018201 -0.157480,
        0.021822 -0.021572 -0.157480,
        0.024993 -0.021889 -0.157480,
        0.012717 -0.517719 -0.157480,
        0.027391 -0.022130 -0.157480,
        0.064090 -0.017328 -0.157480,
        0.064090 0.017721 -0.157480,
        0.069371 0.017721 -0.157480,
        0.222443 0.517719 -0.157480,
        0.222443 -0.021889 -0.157480,
        0.222443 -0.517719 -0.157480,
        -0.011289 0.013400 -0.157480,
        0.003594 0.013400 -0.157480,
        0.003594 0.000436 -0.157480,
        -0.019931 0.017721 -0.157480,
        -0.010329 0.000436 -0.157480,
        -0.019931 -0.021649 -0.157480,
        -0.010329 -0.003885 -0.157480,
        0.008876 0.017721 -0.157480,
        -0.222443 0.517719 -0.157480,
        -0.011289 0.017721 -0.157480,
        -0.069384 0.017721 -0.157480,
        -0.074666 0.017721 -0.157480,
        -0.222443 -0.021889 -0.157480,
        -0.054500 -0.021649 -0.157480,
        -0.047928 -0.012669 -0.157480,
        -0.045798 -0.015902 -0.157480,
        -0.031042 0.017721 -0.157480,
        -0.033746 0.017177 -0.157480,
        -0.042197 0.014691 -0.157480,
        -0.045391 0.012804 -0.157480,
        -0.047330 0.010887 -0.157480,
        -0.048883 0.008341 -0.157480,
        -0.043713 -0.017814 -0.157480,
        -0.040993 -0.019299 -0.157480,
        -0.036993 -0.020541 -0.157480,
        -0.050261 0.004559 -0.157480,
        -0.051620 -0.001469 -0.157480,
        -0.051013 -0.003824 -0.157480,
        -0.030637 -0.021649 -0.157480,
        -0.090030 -0.021649 -0.157480,
        -0.084268 -0.021649 -0.157480,
        0.003594 -0.003885 -0.157480,
        0.003594 -0.017328 -0.157480,
        -0.012250 -0.017328 -0.157480,
        -0.012250 -0.021649 -0.157480,
        0.008876 -0.021649 -0.157480,
        -0.060262 -0.021649 -0.157480,
        -0.064020 -0.010606 -0.157480,
        -0.080285 -0.010606 -0.157480,
        -0.222443 -0.517719 -0.157480,
        -0.233465 0.068898 -0.031496,
        -0.236220 0.068898 0.000000,
        -0.236220 0.531496 0.000000,
        -0.236220 -0.531496 0.000000,
        -0.236220 -0.068898 0.000000,
        -0.233465 -0.068898 -0.031496,
        -0.217276 0.512552 0.216535,
        -0.217276 -0.512552 0.216535,
        0.217276 -0.512552 0.216535,
        0.236220 -0.531496 0.000000,
        0.236220 0.419291 0.000000,
        0.236220 0.531496 0.000000,
        0.217276 0.512552 0.216535,
        0.236220 -0.419291 0.000000,
        0.236220 -0.281496 0.000000,
        0.236220 0.281496 0.000000,
        0.233465 0.419291 -0.031496,
        0.233465 0.281496 -0.031496,
        0.233465 -0.419291 -0.031496,
        0.233465 -0.281496 -0.031496,
      ]
    }
    coordIndex [
      0, 1, 2, -1,
      3, 4, 5, -1,
      4, 6, 7, -1,
      7, 6, 8, -1,
      7, 8, 9, -1,
      6, 0, 8, -1,
      8, 0, 2, -1,
      8, 2, 10, -1,
      10, 2, 11, -1,
      12, 13, 14, -1,
      14, 13, 15, -1,
      14, 15, 16, -1,
      17, 18, 19, -1,
      19, 18, 20, -1,
      19, 20, 21, -1,
      21, 22, 19, -1,
      19, 22, 23, -1,
      19, 23, 24, -1,
      25, 26, 5, -1,
      5, 26, 27, -1,
      5, 27, 28, -1,
      11, 2, 19, -1,
      19, 2, 29, -1,
      19, 29, 17, -1,
      30, 31, 23, -1,
      23, 31, 32, -1,
      23, 32, 24, -1,
      16, 33, 14, -1,
      14, 33, 34, -1,
      14, 34, 35, -1,
      35, 34, 36, -1,
      36, 37, 35, -1,
      35, 37, 38, -1,
      35, 38, 5, -1,
      5, 38, 39, -1,
      5, 39, 25, -1,
      28, 40, 5, -1,
      5, 40, 41, -1,
      5, 41, 3, -1,
      9, 42, 7, -1,
      7, 42, 43, -1,
      7, 43, 44, -1,
      44, 43, 45, -1,
      44, 45, 13, -1,
      46, 35, 47, -1,
      47, 35, 5, -1,
      47, 5, 48, -1,
      48, 5, 49, -1,
      48, 49, 12, -1,
      12, 49, 50, -1,
      12, 50, 13, -1,
      13, 50, 51, -1,
      13, 51, 44, -1,
      52, 53, 54, -1,
      55, 56, 57, -1,
      57, 56, 58, -1,
      4, 7, 5, -1,
      5, 7, 59, -1,
      5, 59, 60, -1,
      60, 59, 61, -1,
      60, 61, 52, -1,
      60, 62, 63, -1,
      60, 63, 64, -1,
      65, 66, 67, -1,
      54, 56, 52, -1,
      52, 56, 55, -1,
      52, 55, 60, -1,
      60, 55, 68, -1,
      60, 68, 69, -1,
      69, 70, 60, -1,
      60, 70, 71, -1,
      60, 71, 62, -1,
      62, 71, 72, -1,
      62, 72, 73, -1,
      67, 74, 65, -1,
      65, 74, 75, -1,
      65, 75, 76, -1,
      73, 77, 62, -1,
      62, 77, 78, -1,
      62, 78, 65, -1,
      65, 78, 79, -1,
      65, 79, 66, -1,
      7, 80, 57, -1,
      81, 82, 7, -1,
      83, 84, 58, -1,
      58, 84, 85, -1,
      58, 85, 57, -1,
      57, 85, 86, -1,
      57, 86, 7, -1,
      7, 86, 87, -1,
      7, 87, 59, -1,
      76, 80, 65, -1,
      65, 80, 7, -1,
      65, 7, 88, -1,
      88, 7, 82, -1,
      88, 82, 89, -1,
      89, 82, 90, -1,
      63, 81, 64, -1,
      64, 81, 7, -1,
      64, 7, 91, -1,
      91, 7, 44, -1,
      92, 93, 94, -1,
      95, 96, 91, -1,
      91, 96, 97, -1,
      91, 97, 64, -1,
      64, 97, 92, -1,
      64, 92, 60, -1,
      60, 92, 94, -1,
      98, 94, 93, -1,
      98, 93, 99, -1,
      99, 93, 96, -1,
      99, 96, 95, -1,
      100, 99, 101, -1,
      101, 99, 95, -1,
      102, 103, 104, -1,
      101, 105, 100, -1,
      100, 105, 106, -1,
      100, 106, 104, -1,
      104, 106, 107, -1,
      104, 107, 102, -1,
      98, 104, 94, -1,
      94, 104, 103, -1,
      100, 104, 99, -1,
      99, 104, 98, -1,
      95, 91, 101, -1,
      101, 91, 44, -1,
      101, 44, 51, -1,
      60, 94, 5, -1,
      5, 94, 103, -1,
      5, 103, 49, -1,
      103, 102, 49, -1,
      49, 102, 108, -1,
      49, 108, 50, -1,
      50, 108, 109, -1,
      50, 109, 107, -1,
      105, 101, 110, -1,
      110, 101, 51, -1,
      110, 51, 111, -1,
      111, 51, 50, -1,
      111, 50, 106, -1,
      106, 50, 107, -1,
    ]
  }
}

Shape {
  appearance Appearance {
    material Material {
      diffuseColor 0.8314 0.8314 0.8196
      specularColor 0.6667 0.6667 0.6549
      ambientIntensity 0.2
      transparency 0.0000
      shininess 0.5
    }
  }
  geometry IndexedFaceSet {
    ccw TRUE
    solid FALSE
    coord DEF co Coordinate {
      point [
        0.021005 0.013257 -0.157480,
        0.025778 0.013880 -0.157480,
        0.027731 0.013321 -0.157480,
        0.021107 0.017882 -0.157480,
        0.016558 0.016641 -0.157480,
        0.016558 0.011359 -0.157480,
        0.016558 -0.015288 -0.157480,
        0.016558 -0.019609 -0.157480,
        0.021429 -0.017229 -0.157480,
        0.026663 -0.017808 -0.157480,
        0.069371 -0.021649 -0.157480,
        0.028312 -0.021889 -0.157480,
        0.049206 -0.021649 -0.157480,
        0.030516 -0.021315 -0.157480,
        0.037949 -0.018601 -0.157480,
        0.036566 0.009185 -0.157480,
        0.037957 0.007575 -0.157480,
        0.031070 -0.016783 -0.157480,
        0.039016 0.005489 -0.157480,
        0.039866 0.002442 -0.157480,
        0.040564 -0.002384 -0.157480,
        0.039639 -0.007164 -0.157480,
        0.033841 -0.015756 -0.157480,
        0.042620 0.008565 -0.157480,
        0.040624 0.011883 -0.157480,
        0.038626 0.013875 -0.157480,
        0.035985 0.015459 -0.157480,
        0.034194 0.010851 -0.157480,
        0.038246 -0.011305 -0.157480,
        0.036921 -0.013416 -0.157480,
        0.035703 -0.014613 -0.157480,
        0.040797 -0.016661 -0.157480,
        0.042503 -0.014738 -0.157480,
        0.049206 -0.017328 -0.157480,
        0.043821 -0.012226 -0.157480,
        0.044907 -0.008541 -0.157480,
        0.045845 -0.002707 -0.157480,
        0.045361 -0.000465 -0.157480,
        0.032070 0.016851 -0.157480,
        0.025822 0.018201 -0.157480,
        0.021822 -0.021572 -0.157480,
        0.024993 -0.021889 -0.157480,
        0.027391 -0.022130 -0.157480,
        0.064090 -0.017328 -0.157480,
        0.064090 0.017721 -0.157480,
        0.069371 0.017721 -0.157480,
        -0.011289 0.013400 -0.157480,
        0.003594 0.013400 -0.157480,
        0.003594 0.000436 -0.157480,
        -0.019931 0.017721 -0.157480,
        -0.010329 0.000436 -0.157480,
        -0.019931 -0.021649 -0.157480,
        -0.010329 -0.003885 -0.157480,
        0.008876 0.017721 -0.157480,
        -0.011289 0.017721 -0.157480,
        -0.069384 0.017721 -0.157480,
        -0.074666 0.017721 -0.157480,
        -0.054500 -0.021649 -0.157480,
        -0.047928 -0.012669 -0.157480,
        -0.045798 -0.015902 -0.157480,
        -0.031042 0.017721 -0.157480,
        -0.033746 0.017177 -0.157480,
        -0.042197 0.014691 -0.157480,
        -0.045391 0.012804 -0.157480,
        -0.047330 0.010887 -0.157480,
        -0.048883 0.008341 -0.157480,
        -0.043713 -0.017814 -0.157480,
        -0.040993 -0.019299 -0.157480,
        -0.036993 -0.020541 -0.157480,
        -0.050261 0.004559 -0.157480,
        -0.051620 -0.001469 -0.157480,
        -0.051013 -0.003824 -0.157480,
        -0.030637 -0.021649 -0.157480,
        -0.090030 -0.021649 -0.157480,
        -0.084268 -0.021649 -0.157480,
        0.003594 -0.003885 -0.157480,
        0.003594 -0.017328 -0.157480,
        -0.012250 -0.017328 -0.157480,
        -0.012250 -0.021649 -0.157480,
        0.008876 -0.021649 -0.157480,
        -0.060262 -0.021649 -0.157480,
        -0.064020 -0.010606 -0.157480,
        -0.080285 -0.010606 -0.157480,
        -0.233465 0.068898 -0.031496,
        -0.236220 0.068898 0.000000,
        -0.236220 -0.068898 0.000000,
        -0.233465 -0.068898 -0.031496,
        0.236220 0.419291 0.000000,
        0.236220 -0.419291 0.000000,
        0.236220 -0.281496 0.000000,
        0.236220 0.281496 0.000000,
        0.233465 0.419291 -0.031496,
        0.233465 0.281496 -0.031496,
        0.233465 -0.419291 -0.031496,
        0.233465 -0.281496 -0.031496,
        -0.338692 0.068898 -0.019564,
        -0.338692 -0.068898 -0.019564,
        -0.337018 -0.068898 -0.014279,
        -0.337018 0.068898 -0.014279,
        -0.334183 -0.068898 -0.009515,
        -0.334183 0.068898 -0.009515,
        -0.330339 -0.068898 -0.005522,
        -0.330339 0.068898 -0.005522,
        -0.325685 -0.068898 -0.002509,
        -0.325685 0.068898 -0.002509,
        -0.320468 -0.068898 -0.000635,
        -0.320468 0.068898 -0.000635,
        -0.314961 -0.068898 0.000000,
        -0.314961 0.068898 0.000000,
        -0.292697 0.068898 -0.031496,
        -0.292697 -0.068898 -0.031496,
        -0.297181 0.068898 -0.032014,
        -0.297181 -0.068898 -0.032014,
        -0.301430 0.068898 -0.033539,
        -0.301430 -0.068898 -0.033539,
        -0.305219 0.068898 -0.035992,
        -0.305219 -0.068898 -0.035992,
        -0.308350 0.068898 -0.039244,
        -0.308350 -0.068898 -0.039244,
        -0.310657 0.068898 -0.043123,
        -0.310657 -0.068898 -0.043123,
        -0.312021 0.068898 -0.047426,
        -0.312021 -0.068898 -0.047426,
        -0.330599 0.068898 -0.143034,
        -0.330599 -0.068898 -0.143034,
        -0.332274 -0.068898 -0.148319,
        -0.332274 0.068898 -0.148319,
        -0.335108 -0.068898 -0.153083,
        -0.335108 0.068898 -0.153083,
        -0.338953 -0.068898 -0.157077,
        -0.338953 0.068898 -0.157077,
        -0.343606 -0.068898 -0.160089,
        -0.343606 0.068898 -0.160089,
        -0.348824 -0.068898 -0.161963,
        -0.348824 0.068898 -0.161963,
        -0.354331 -0.068898 -0.162598,
        -0.354331 0.068898 -0.162598,
        -0.433071 0.068898 -0.162598,
        -0.433071 -0.068898 -0.162598,
        -0.433071 0.068898 -0.131102,
        -0.433071 -0.068898 -0.131102,
        -0.376594 0.068898 -0.131102,
        -0.376594 -0.068898 -0.131102,
        -0.372110 0.068898 -0.130585,
        -0.372110 -0.068898 -0.130585,
        -0.367861 0.068898 -0.129059,
        -0.367861 -0.068898 -0.129059,
        -0.364072 0.068898 -0.126606,
        -0.364072 -0.068898 -0.126606,
        -0.360941 0.068898 -0.123355,
        -0.360941 -0.068898 -0.123355,
        -0.358634 0.068898 -0.119475,
        -0.358634 -0.068898 -0.119475,
        -0.357270 0.068898 -0.115172,
        -0.357270 -0.068898 -0.115172,
        0.312021 0.419291 -0.047426,
        0.330599 0.419291 -0.143034,
        0.312021 0.281496 -0.047426,
        0.330599 0.281496 -0.143034,
        0.310657 0.419291 -0.043123,
        0.310657 0.281496 -0.043123,
        0.308350 0.419291 -0.039244,
        0.308350 0.281496 -0.039244,
        0.305219 0.419291 -0.035992,
        0.305219 0.281496 -0.035992,
        0.301430 0.419291 -0.033539,
        0.301430 0.281496 -0.033539,
        0.297181 0.419291 -0.032014,
        0.297181 0.281496 -0.032014,
        0.292697 0.419291 -0.031496,
        0.292697 0.281496 -0.031496,
        0.314961 0.419291 0.000000,
        0.314961 0.281496 0.000000,
        0.320468 0.281496 -0.000635,
        0.320468 0.419291 -0.000635,
        0.325685 0.281496 -0.002509,
        0.325685 0.419291 -0.002509,
        0.330339 0.281496 -0.005522,
        0.330339 0.419291 -0.005522,
        0.334183 0.281496 -0.009515,
        0.334183 0.419291 -0.009515,
        0.337018 0.281496 -0.014279,
        0.337018 0.419291 -0.014279,
        0.338692 0.281496 -0.019564,
        0.338692 0.419291 -0.019564,
        0.357270 0.419291 -0.115172,
        0.357270 0.281496 -0.115172,
        0.358634 0.419291 -0.119475,
        0.358634 0.281496 -0.119475,
        0.360941 0.419291 -0.123355,
        0.360941 0.281496 -0.123355,
        0.364072 0.419291 -0.126606,
        0.364072 0.281496 -0.126606,
        0.367861 0.419291 -0.129059,
        0.367861 0.281496 -0.129059,
        0.372110 0.419291 -0.130585,
        0.372110 0.281496 -0.130585,
        0.376594 0.419291 -0.131102,
        0.376594 0.281496 -0.131102,
        0.433071 0.419291 -0.131102,
        0.433071 0.281496 -0.131102,
        0.433071 0.419291 -0.162598,
        0.433071 0.281496 -0.162598,
        0.354331 0.419291 -0.162598,
        0.354331 0.281496 -0.162598,
        0.348824 0.281496 -0.161963,
        0.348824 0.419291 -0.161963,
        0.343606 0.281496 -0.160089,
        0.343606 0.419291 -0.160089,
        0.338953 0.281496 -0.157077,
        0.338953 0.419291 -0.157077,
        0.335108 0.281496 -0.153083,
        0.335108 0.419291 -0.153083,
        0.332274 0.281496 -0.148319,
        0.332274 0.419291 -0.148319,
        0.330599 -0.419291 -0.143034,
        0.312021 -0.419291 -0.047426,
        0.330599 -0.281496 -0.143034,
        0.312021 -0.281496 -0.047426,
        0.332274 -0.281496 -0.148319,
        0.332274 -0.419291 -0.148319,
        0.335108 -0.281496 -0.153083,
        0.335108 -0.419291 -0.153083,
        0.338953 -0.281496 -0.157077,
        0.338953 -0.419291 -0.157077,
        0.343606 -0.281496 -0.160089,
        0.343606 -0.419291 -0.160089,
        0.348824 -0.281496 -0.161963,
        0.348824 -0.419291 -0.161963,
        0.354331 -0.281496 -0.162598,
        0.354331 -0.419291 -0.162598,
        0.433071 -0.419291 -0.162598,
        0.433071 -0.281496 -0.162598,
        0.433071 -0.419291 -0.131102,
        0.433071 -0.281496 -0.131102,
        0.376594 -0.419291 -0.131102,
        0.376594 -0.281496 -0.131102,
        0.372110 -0.419291 -0.130585,
        0.372110 -0.281496 -0.130585,
        0.367861 -0.419291 -0.129059,
        0.367861 -0.281496 -0.129059,
        0.364072 -0.419291 -0.126606,
        0.364072 -0.281496 -0.126606,
        0.360941 -0.419291 -0.123355,
        0.360941 -0.281496 -0.123355,
        0.358634 -0.419291 -0.119475,
        0.358634 -0.281496 -0.119475,
        0.357270 -0.419291 -0.115172,
        0.357270 -0.281496 -0.115172,
        0.338692 -0.419291 -0.019564,
        0.338692 -0.281496 -0.019564,
        0.337018 -0.281496 -0.014279,
        0.337018 -0.419291 -0.014279,
        0.334183 -0.281496 -0.009515,
        0.334183 -0.419291 -0.009515,
        0.330339 -0.281496 -0.005522,
        0.330339 -0.419291 -0.005522,
        0.325685 -0.281496 -0.002509,
        0.325685 -0.419291 -0.002509,
        0.320468 -0.281496 -0.000635,
        0.320468 -0.419291 -0.000635,
        0.314961 -0.281496 0.000000,
        0.314961 -0.419291 0.000000,
        0.292697 -0.419291 -0.031496,
        0.292697 -0.281496 -0.031496,
        0.297181 -0.419291 -0.032014,
        0.297181 -0.281496 -0.032014,
        0.301430 -0.419291 -0.033539,
        0.301430 -0.281496 -0.033539,
        0.305219 -0.419291 -0.035992,
        0.305219 -0.281496 -0.035992,
        0.308350 -0.419291 -0.039244,
        0.308350 -0.281496 -0.039244,
        0.310657 -0.419291 -0.043123,
        0.310657 -0.281496 -0.043123,
        0.069371 -0.021649 -0.153543,
        0.069371 0.017721 -0.153543,
        0.049206 -0.021649 -0.153543,
        0.049206 -0.017328 -0.153543,
        0.064090 -0.017328 -0.153543,
        0.064090 0.017721 -0.153543,
        0.025778 0.013880 -0.153543,
        0.021005 0.013257 -0.153543,
        0.016558 0.011359 -0.153543,
        0.016558 0.016641 -0.153543,
        0.021107 0.017882 -0.153543,
        0.025822 0.018201 -0.153543,
        0.032070 0.016851 -0.153543,
        0.035985 0.015459 -0.153543,
        0.038626 0.013875 -0.153543,
        0.040624 0.011883 -0.153543,
        0.042620 0.008565 -0.153543,
        0.045361 -0.000465 -0.153543,
        0.045845 -0.002707 -0.153543,
        0.027391 -0.022130 -0.153543,
        0.030516 -0.021315 -0.153543,
        0.037949 -0.018601 -0.153543,
        0.040797 -0.016661 -0.153543,
        0.042503 -0.014738 -0.153543,
        0.043821 -0.012226 -0.153543,
        0.044907 -0.008541 -0.153543,
        0.016558 -0.019609 -0.153543,
        0.021822 -0.021572 -0.153543,
        0.016558 -0.015288 -0.153543,
        0.021429 -0.017229 -0.153543,
        0.026663 -0.017808 -0.153543,
        0.031070 -0.016783 -0.153543,
        0.033841 -0.015756 -0.153543,
        0.035703 -0.014613 -0.153543,
        0.036921 -0.013416 -0.153543,
        0.038246 -0.011305 -0.153543,
        0.039639 -0.007164 -0.153543,
        0.040564 -0.002384 -0.153543,
        0.039866 0.002442 -0.153543,
        0.039016 0.005489 -0.153543,
        0.037957 0.007575 -0.153543,
        0.036566 0.009185 -0.153543,
        0.034194 0.010851 -0.153543,
        0.027731 0.013321 -0.153543,
        -0.010329 0.000436 -0.153543,
        -0.010329 -0.003885 -0.153543,
        0.003594 0.000436 -0.153543,
        0.003594 0.013400 -0.153543,
        -0.011289 0.013400 -0.153543,
        -0.011289 0.017721 -0.153543,
        0.008876 0.017721 -0.153543,
        0.008876 -0.021649 -0.153543,
        -0.012250 -0.021649 -0.153543,
        -0.012250 -0.017328 -0.153543,
        0.003594 -0.017328 -0.153543,
        0.003594 -0.003885 -0.153543,
        -0.064020 -0.010606 -0.153543,
        -0.060262 -0.021649 -0.153543,
        -0.080285 -0.010606 -0.153543,
        -0.084268 -0.021649 -0.153543,
        -0.090030 -0.021649 -0.153543,
        -0.074666 0.017721 -0.153543,
        -0.069384 0.017721 -0.153543,
        -0.054500 -0.021649 -0.153543,
        -0.078514 -0.006285 -0.153543,
        -0.065348 -0.006285 -0.153543,
        -0.071222 0.010159 -0.153543,
        -0.075439 0.002189 -0.153543,
        -0.078514 -0.006285 -0.157480,
        -0.065348 -0.006285 -0.157480,
        -0.071222 0.010159 -0.157480,
        -0.075439 0.002189 -0.157480,
        -0.038549 0.011868 -0.153543,
        -0.040545 0.010862 -0.153543,
        -0.042197 0.014691 -0.153543,
        -0.045391 0.012804 -0.153543,
        -0.041982 0.009650 -0.153543,
        -0.047330 0.010887 -0.153543,
        -0.043423 0.007653 -0.153543,
        -0.048883 0.008341 -0.153543,
        -0.045020 0.003743 -0.153543,
        -0.050261 0.004559 -0.153543,
        -0.051620 -0.001469 -0.153543,
        -0.046338 -0.001581 -0.153543,
        -0.051013 -0.003824 -0.153543,
        -0.045605 -0.006315 -0.153543,
        -0.047928 -0.012669 -0.153543,
        -0.044749 -0.009331 -0.153543,
        -0.043711 -0.011386 -0.153543,
        -0.045798 -0.015902 -0.153543,
        -0.042435 -0.012890 -0.153543,
        -0.043713 -0.017814 -0.153543,
        -0.040368 -0.014365 -0.153543,
        -0.040993 -0.019299 -0.153543,
        -0.036322 -0.015993 -0.153543,
        -0.035620 0.012694 -0.153543,
        -0.033746 0.017177 -0.153543,
        -0.031019 0.013400 -0.153543,
        -0.031042 0.017721 -0.153543,
        -0.025213 0.013400 -0.153543,
        -0.019931 0.017721 -0.153543,
        -0.025213 -0.017328 -0.153543,
        -0.019931 -0.021649 -0.153543,
        -0.030802 -0.017328 -0.153543,
        -0.030637 -0.021649 -0.153543,
        -0.036993 -0.020541 -0.153543,
        -0.031019 0.013400 -0.157480,
        -0.035620 0.012694 -0.157480,
        -0.038549 0.011868 -0.157480,
        -0.040545 0.010862 -0.157480,
        -0.041982 0.009650 -0.157480,
        -0.043423 0.007653 -0.157480,
        -0.045020 0.003743 -0.157480,
        -0.046338 -0.001581 -0.157480,
        -0.025213 0.013400 -0.157480,
        -0.025213 -0.017328 -0.157480,
        -0.030802 -0.017328 -0.157480,
        -0.045605 -0.006315 -0.157480,
        -0.044749 -0.009331 -0.157480,
        -0.043711 -0.011386 -0.157480,
        -0.042435 -0.012890 -0.157480,
        -0.040368 -0.014365 -0.157480,
        -0.036322 -0.015993 -0.157480,
      ]
    }
    coordIndex [
      95, 96, 97, -1,
      95, 97, 98, -1,
      98, 97, 99, -1,
      98, 99, 100, -1,
      100, 99, 101, -1,
      100, 101, 102, -1,
      102, 101, 103, -1,
      102, 103, 104, -1,
      104, 103, 105, -1,
      104, 105, 106, -1,
      106, 105, 107, -1,
      106, 107, 108, -1,
      84, 108, 85, -1,
      85, 108, 107, -1,
      109, 83, 110, -1,
      110, 83, 86, -1,
      109, 110, 111, -1,
      111, 110, 112, -1,
      111, 112, 113, -1,
      113, 112, 114, -1,
      113, 114, 115, -1,
      115, 114, 116, -1,
      115, 116, 117, -1,
      117, 116, 118, -1,
      117, 118, 119, -1,
      119, 118, 120, -1,
      119, 120, 121, -1,
      121, 120, 122, -1,
      123, 121, 124, -1,
      124, 121, 122, -1,
      123, 124, 125, -1,
      123, 125, 126, -1,
      126, 125, 127, -1,
      126, 127, 128, -1,
      128, 127, 129, -1,
      128, 129, 130, -1,
      130, 129, 131, -1,
      130, 131, 132, -1,
      132, 131, 133, -1,
      132, 133, 134, -1,
      134, 133, 135, -1,
      134, 135, 136, -1,
      137, 136, 138, -1,
      138, 136, 135, -1,
      139, 137, 140, -1,
      140, 137, 138, -1,
      141, 139, 142, -1,
      142, 139, 140, -1,
      141, 142, 143, -1,
      143, 142, 144, -1,
      143, 144, 145, -1,
      145, 144, 146, -1,
      145, 146, 147, -1,
      147, 146, 148, -1,
      147, 148, 149, -1,
      149, 148, 150, -1,
      149, 150, 151, -1,
      151, 150, 152, -1,
      151, 152, 153, -1,
      153, 152, 154, -1,
      95, 153, 96, -1,
      96, 153, 154, -1,
      136, 137, 139, -1,
      123, 126, 149, -1,
      149, 126, 128, -1,
      149, 128, 147, -1,
      108, 84, 83, -1,
      139, 141, 136, -1,
      136, 141, 143, -1,
      136, 143, 134, -1,
      134, 143, 145, -1,
      134, 145, 132, -1,
      132, 145, 147, -1,
      132, 147, 130, -1,
      130, 147, 128, -1,
      95, 98, 117, -1,
      117, 98, 100, -1,
      117, 100, 115, -1,
      149, 151, 123, -1,
      123, 151, 153, -1,
      123, 153, 121, -1,
      121, 153, 95, -1,
      121, 95, 119, -1,
      119, 95, 117, -1,
      83, 109, 108, -1,
      108, 109, 111, -1,
      108, 111, 106, -1,
      106, 111, 113, -1,
      106, 113, 104, -1,
      104, 113, 115, -1,
      104, 115, 102, -1,
      102, 115, 100, -1,
      135, 133, 146, -1,
      146, 133, 131, -1,
      146, 131, 148, -1,
      86, 85, 110, -1,
      110, 85, 107, -1,
      110, 107, 112, -1,
      112, 107, 114, -1,
      96, 154, 124, -1,
      124, 154, 152, -1,
      124, 152, 125, -1,
      125, 152, 150, -1,
      125, 150, 127, -1,
      127, 150, 148, -1,
      127, 148, 129, -1,
      129, 148, 131, -1,
      107, 105, 114, -1,
      114, 105, 103, -1,
      114, 103, 116, -1,
      140, 138, 142, -1,
      142, 138, 135, -1,
      142, 135, 144, -1,
      144, 135, 146, -1,
      124, 122, 96, -1,
      96, 122, 120, -1,
      96, 120, 97, -1,
      97, 120, 118, -1,
      97, 118, 99, -1,
      99, 118, 116, -1,
      99, 116, 101, -1,
      101, 116, 103, -1,
      155, 156, 157, -1,
      157, 156, 158, -1,
      155, 157, 159, -1,
      159, 157, 160, -1,
      159, 160, 161, -1,
      161, 160, 162, -1,
      161, 162, 163, -1,
      163, 162, 164, -1,
      163, 164, 165, -1,
      165, 164, 166, -1,
      165, 166, 167, -1,
      167, 166, 168, -1,
      167, 168, 169, -1,
      169, 168, 170, -1,
      91, 169, 92, -1,
      92, 169, 170, -1,
      171, 87, 172, -1,
      172, 87, 90, -1,
      171, 172, 173, -1,
      171, 173, 174, -1,
      174, 173, 175, -1,
      174, 175, 176, -1,
      176, 175, 177, -1,
      176, 177, 178, -1,
      178, 177, 179, -1,
      178, 179, 180, -1,
      180, 179, 181, -1,
      180, 181, 182, -1,
      182, 181, 183, -1,
      182, 183, 184, -1,
      185, 184, 186, -1,
      186, 184, 183, -1,
      185, 186, 187, -1,
      187, 186, 188, -1,
      187, 188, 189, -1,
      189, 188, 190, -1,
      189, 190, 191, -1,
      191, 190, 192, -1,
      191, 192, 193, -1,
      193, 192, 194, -1,
      193, 194, 195, -1,
      195, 194, 196, -1,
      195, 196, 197, -1,
      197, 196, 198, -1,
      199, 197, 200, -1,
      200, 197, 198, -1,
      201, 199, 202, -1,
      202, 199, 200, -1,
      203, 201, 204, -1,
      204, 201, 202, -1,
      203, 204, 205, -1,
      203, 205, 206, -1,
      206, 205, 207, -1,
      206, 207, 208, -1,
      208, 207, 209, -1,
      208, 209, 210, -1,
      210, 209, 211, -1,
      210, 211, 212, -1,
      212, 211, 213, -1,
      212, 213, 214, -1,
      214, 213, 158, -1,
      214, 158, 156, -1,
      171, 174, 165, -1,
      165, 174, 176, -1,
      165, 176, 163, -1,
      91, 87, 169, -1,
      169, 87, 171, -1,
      169, 171, 167, -1,
      167, 171, 165, -1,
      184, 185, 156, -1,
      156, 185, 187, -1,
      156, 187, 214, -1,
      214, 187, 189, -1,
      214, 189, 212, -1,
      212, 189, 191, -1,
      203, 206, 193, -1,
      193, 206, 208, -1,
      193, 208, 191, -1,
      191, 208, 210, -1,
      191, 210, 212, -1,
      199, 201, 197, -1,
      197, 201, 203, -1,
      197, 203, 195, -1,
      195, 203, 193, -1,
      156, 155, 184, -1,
      184, 155, 159, -1,
      184, 159, 182, -1,
      182, 159, 161, -1,
      182, 161, 180, -1,
      180, 161, 163, -1,
      180, 163, 178, -1,
      178, 163, 176, -1,
      172, 90, 92, -1,
      183, 181, 162, -1,
      162, 181, 179, -1,
      162, 179, 164, -1,
      204, 202, 200, -1,
      158, 213, 190, -1,
      190, 213, 211, -1,
      190, 211, 192, -1,
      190, 188, 158, -1,
      158, 188, 186, -1,
      158, 186, 157, -1,
      157, 186, 183, -1,
      157, 183, 160, -1,
      160, 183, 162, -1,
      92, 170, 172, -1,
      172, 170, 168, -1,
      172, 168, 173, -1,
      173, 168, 166, -1,
      173, 166, 175, -1,
      175, 166, 164, -1,
      175, 164, 177, -1,
      177, 164, 179, -1,
      200, 198, 204, -1,
      204, 198, 196, -1,
      204, 196, 205, -1,
      205, 196, 194, -1,
      205, 194, 207, -1,
      207, 194, 192, -1,
      207, 192, 209, -1,
      209, 192, 211, -1,
      215, 216, 217, -1,
      217, 216, 218, -1,
      215, 217, 219, -1,
      215, 219, 220, -1,
      220, 219, 221, -1,
      220, 221, 222, -1,
      222, 221, 223, -1,
      222, 223, 224, -1,
      224, 223, 225, -1,
      224, 225, 226, -1,
      226, 225, 227, -1,
      226, 227, 228, -1,
      228, 227, 229, -1,
      228, 229, 230, -1,
      231, 230, 232, -1,
      232, 230, 229, -1,
      233, 231, 234, -1,
      234, 231, 232, -1,
      235, 233, 236, -1,
      236, 233, 234, -1,
      235, 236, 237, -1,
      237, 236, 238, -1,
      237, 238, 239, -1,
      239, 238, 240, -1,
      239, 240, 241, -1,
      241, 240, 242, -1,
      241, 242, 243, -1,
      243, 242, 244, -1,
      243, 244, 245, -1,
      245, 244, 246, -1,
      245, 246, 247, -1,
      247, 246, 248, -1,
      249, 247, 250, -1,
      250, 247, 248, -1,
      249, 250, 251, -1,
      249, 251, 252, -1,
      252, 251, 253, -1,
      252, 253, 254, -1,
      254, 253, 255, -1,
      254, 255, 256, -1,
      256, 255, 257, -1,
      256, 257, 258, -1,
      258, 257, 259, -1,
      258, 259, 260, -1,
      260, 259, 261, -1,
      260, 261, 262, -1,
      88, 262, 89, -1,
      89, 262, 261, -1,
      263, 93, 264, -1,
      264, 93, 94, -1,
      263, 264, 265, -1,
      265, 264, 266, -1,
      265, 266, 267, -1,
      267, 266, 268, -1,
      267, 268, 269, -1,
      269, 268, 270, -1,
      269, 270, 271, -1,
      271, 270, 272, -1,
      271, 272, 273, -1,
      273, 272, 274, -1,
      273, 274, 216, -1,
      216, 274, 218, -1,
      262, 88, 93, -1,
      249, 252, 271, -1,
      271, 252, 254, -1,
      271, 254, 269, -1,
      230, 231, 233, -1,
      215, 220, 243, -1,
      243, 220, 222, -1,
      243, 222, 241, -1,
      243, 245, 215, -1,
      215, 245, 247, -1,
      215, 247, 216, -1,
      216, 247, 249, -1,
      216, 249, 273, -1,
      273, 249, 271, -1,
      93, 263, 262, -1,
      262, 263, 265, -1,
      262, 265, 260, -1,
      260, 265, 267, -1,
      260, 267, 258, -1,
      258, 267, 269, -1,
      258, 269, 256, -1,
      256, 269, 254, -1,
      233, 235, 230, -1,
      230, 235, 237, -1,
      230, 237, 228, -1,
      228, 237, 239, -1,
      228, 239, 226, -1,
      226, 239, 241, -1,
      226, 241, 224, -1,
      224, 241, 222, -1,
      229, 227, 240, -1,
      240, 227, 225, -1,
      240, 225, 242, -1,
      217, 218, 250, -1,
      250, 218, 274, -1,
      250, 274, 251, -1,
      251, 274, 272, -1,
      251, 272, 253, -1,
      253, 272, 270, -1,
      261, 259, 268, -1,
      268, 259, 257, -1,
      268, 257, 270, -1,
      270, 257, 255, -1,
      270, 255, 253, -1,
      94, 89, 264, -1,
      264, 89, 261, -1,
      264, 261, 266, -1,
      266, 261, 268, -1,
      250, 248, 217, -1,
      217, 248, 246, -1,
      217, 246, 219, -1,
      219, 246, 244, -1,
      219, 244, 221, -1,
      221, 244, 242, -1,
      221, 242, 223, -1,
      223, 242, 225, -1,
      234, 232, 236, -1,
      236, 232, 229, -1,
      236, 229, 238, -1,
      238, 229, 240, -1,
      10, 275, 45, -1,
      45, 275, 276, -1,
      12, 277, 10, -1,
      10, 277, 275, -1,
      33, 278, 12, -1,
      12, 278, 277, -1,
      43, 279, 33, -1,
      33, 279, 278, -1,
      44, 280, 43, -1,
      43, 280, 279, -1,
      44, 45, 280, -1,
      280, 45, 276, -1,
      280, 276, 279, -1,
      279, 276, 275, -1,
      279, 275, 278, -1,
      278, 275, 277, -1,
      281, 1, 0, -1,
      281, 0, 282, -1,
      282, 0, 5, -1,
      282, 5, 283, -1,
      4, 284, 5, -1,
      5, 284, 283, -1,
      284, 4, 3, -1,
      284, 3, 285, -1,
      285, 3, 39, -1,
      285, 39, 286, -1,
      286, 39, 38, -1,
      286, 38, 287, -1,
      287, 38, 26, -1,
      287, 26, 288, -1,
      288, 26, 25, -1,
      288, 25, 289, -1,
      289, 25, 24, -1,
      289, 24, 290, -1,
      290, 24, 23, -1,
      290, 23, 291, -1,
      291, 23, 37, -1,
      291, 37, 292, -1,
      292, 37, 36, -1,
      292, 36, 293, -1,
      42, 294, 11, -1,
      11, 294, 295, -1,
      11, 295, 13, -1,
      13, 295, 296, -1,
      13, 296, 14, -1,
      14, 296, 297, -1,
      14, 297, 31, -1,
      31, 297, 298, -1,
      31, 298, 32, -1,
      32, 298, 299, -1,
      32, 299, 34, -1,
      34, 299, 300, -1,
      34, 300, 35, -1,
      35, 300, 293, -1,
      35, 293, 36, -1,
      7, 301, 302, -1,
      294, 42, 41, -1,
      294, 41, 302, -1,
      302, 41, 40, -1,
      302, 40, 7, -1,
      6, 303, 7, -1,
      7, 303, 301, -1,
      303, 6, 8, -1,
      303, 8, 304, -1,
      304, 8, 9, -1,
      304, 9, 305, -1,
      305, 9, 17, -1,
      305, 17, 306, -1,
      306, 17, 22, -1,
      306, 22, 307, -1,
      307, 22, 30, -1,
      307, 30, 308, -1,
      308, 30, 29, -1,
      308, 29, 309, -1,
      309, 29, 28, -1,
      309, 28, 310, -1,
      310, 28, 21, -1,
      310, 21, 311, -1,
      311, 21, 20, -1,
      311, 20, 312, -1,
      312, 20, 19, -1,
      312, 19, 313, -1,
      313, 19, 18, -1,
      313, 18, 314, -1,
      314, 18, 16, -1,
      314, 16, 315, -1,
      315, 16, 15, -1,
      315, 15, 316, -1,
      316, 15, 27, -1,
      316, 27, 317, -1,
      317, 27, 2, -1,
      317, 2, 318, -1,
      318, 2, 1, -1,
      318, 1, 281, -1,
      283, 284, 282, -1,
      282, 284, 285, -1,
      282, 285, 281, -1,
      281, 285, 286, -1,
      281, 286, 318, -1,
      318, 286, 287, -1,
      318, 287, 317, -1,
      311, 299, 310, -1,
      310, 299, 298, -1,
      310, 298, 309, -1,
      309, 298, 297, -1,
      309, 297, 308, -1,
      308, 297, 296, -1,
      287, 288, 317, -1,
      317, 288, 289, -1,
      317, 289, 316, -1,
      316, 289, 290, -1,
      316, 290, 315, -1,
      315, 290, 291, -1,
      315, 291, 314, -1,
      301, 303, 302, -1,
      302, 303, 304, -1,
      302, 304, 294, -1,
      294, 304, 305, -1,
      294, 305, 295, -1,
      295, 305, 306, -1,
      295, 306, 296, -1,
      296, 306, 307, -1,
      296, 307, 308, -1,
      314, 291, 313, -1,
      313, 291, 292, -1,
      313, 292, 312, -1,
      312, 292, 293, -1,
      312, 293, 311, -1,
      311, 293, 300, -1,
      311, 300, 299, -1,
      50, 319, 52, -1,
      52, 319, 320, -1,
      48, 321, 50, -1,
      50, 321, 319, -1,
      47, 322, 48, -1,
      48, 322, 321, -1,
      46, 323, 47, -1,
      47, 323, 322, -1,
      54, 324, 46, -1,
      46, 324, 323, -1,
      53, 325, 54, -1,
      54, 325, 324, -1,
      79, 326, 53, -1,
      53, 326, 325, -1,
      78, 327, 79, -1,
      79, 327, 326, -1,
      77, 328, 78, -1,
      78, 328, 327, -1,
      76, 329, 77, -1,
      77, 329, 328, -1,
      75, 330, 76, -1,
      76, 330, 329, -1,
      75, 52, 330, -1,
      330, 52, 320, -1,
      323, 324, 322, -1,
      322, 324, 325, -1,
      322, 325, 321, -1,
      327, 328, 326, -1,
      326, 328, 329, -1,
      326, 329, 330, -1,
      320, 319, 330, -1,
      330, 319, 321, -1,
      330, 321, 326, -1,
      326, 321, 325, -1,
      81, 331, 80, -1,
      80, 331, 332, -1,
      82, 333, 81, -1,
      81, 333, 331, -1,
      74, 334, 82, -1,
      82, 334, 333, -1,
      73, 335, 74, -1,
      74, 335, 334, -1,
      56, 336, 73, -1,
      73, 336, 335, -1,
      55, 337, 56, -1,
      56, 337, 336, -1,
      57, 338, 55, -1,
      55, 338, 337, -1,
      57, 80, 338, -1,
      338, 80, 332, -1,
      339, 335, 336, -1,
      340, 341, 337, -1,
      337, 341, 336, -1,
      336, 341, 342, -1,
      336, 342, 339, -1,
      338, 332, 331, -1,
      334, 335, 333, -1,
      333, 335, 339, -1,
      333, 339, 331, -1,
      331, 339, 340, -1,
      331, 340, 338, -1,
      338, 340, 337, -1,
      339, 343, 340, -1,
      340, 343, 344, -1,
      341, 345, 346, -1,
      341, 346, 342, -1,
      342, 346, 343, -1,
      342, 343, 339, -1,
      344, 345, 340, -1,
      340, 345, 341, -1,
      347, 348, 349, -1,
      349, 348, 350, -1,
      350, 348, 351, -1,
      350, 351, 352, -1,
      352, 351, 353, -1,
      352, 353, 354, -1,
      354, 353, 355, -1,
      354, 355, 356, -1,
      356, 355, 357, -1,
      357, 355, 358, -1,
      357, 358, 359, -1,
      359, 358, 360, -1,
      359, 360, 361, -1,
      360, 362, 361, -1,
      361, 362, 363, -1,
      361, 363, 364, -1,
      364, 363, 365, -1,
      364, 365, 366, -1,
      366, 365, 367, -1,
      366, 367, 368, -1,
      368, 367, 369, -1,
      347, 349, 370, -1,
      370, 349, 371, -1,
      370, 371, 372, -1,
      372, 371, 373, -1,
      372, 373, 374, -1,
      374, 373, 375, -1,
      374, 375, 376, -1,
      376, 375, 377, -1,
      376, 377, 378, -1,
      378, 377, 379, -1,
      378, 379, 369, -1,
      369, 379, 380, -1,
      369, 380, 368, -1,
      51, 377, 49, -1,
      49, 377, 375, -1,
      72, 379, 51, -1,
      51, 379, 377, -1,
      379, 72, 68, -1,
      379, 68, 380, -1,
      380, 68, 67, -1,
      380, 67, 368, -1,
      368, 67, 66, -1,
      368, 66, 366, -1,
      366, 66, 59, -1,
      366, 59, 364, -1,
      364, 59, 58, -1,
      364, 58, 361, -1,
      361, 58, 71, -1,
      361, 71, 359, -1,
      359, 71, 70, -1,
      359, 70, 357, -1,
      357, 70, 69, -1,
      357, 69, 356, -1,
      356, 69, 65, -1,
      356, 65, 354, -1,
      354, 65, 64, -1,
      354, 64, 352, -1,
      352, 64, 63, -1,
      352, 63, 350, -1,
      350, 63, 62, -1,
      350, 62, 349, -1,
      349, 62, 61, -1,
      349, 61, 371, -1,
      371, 61, 60, -1,
      371, 60, 373, -1,
      60, 49, 373, -1,
      373, 49, 375, -1,
      372, 381, 382, -1,
      372, 382, 370, -1,
      370, 382, 383, -1,
      370, 383, 347, -1,
      347, 383, 384, -1,
      347, 384, 348, -1,
      348, 384, 385, -1,
      348, 385, 351, -1,
      351, 385, 386, -1,
      351, 386, 353, -1,
      353, 386, 387, -1,
      353, 387, 355, -1,
      355, 387, 388, -1,
      355, 388, 358, -1,
      374, 389, 372, -1,
      372, 389, 381, -1,
      376, 390, 374, -1,
      374, 390, 389, -1,
      378, 391, 376, -1,
      376, 391, 390, -1,
      358, 388, 392, -1,
      358, 392, 360, -1,
      360, 392, 393, -1,
      360, 393, 362, -1,
      362, 393, 394, -1,
      362, 394, 363, -1,
      363, 394, 395, -1,
      363, 395, 365, -1,
      365, 395, 396, -1,
      365, 396, 367, -1,
      367, 396, 397, -1,
      367, 397, 369, -1,
      369, 397, 391, -1,
      369, 391, 378, -1,
    ]
  }
}

Shape {
  appearance Appearance {
    material Material {
      diffuseColor 0.2078 0.2078 0.2078
      specularColor 0.0157 0.0157 0.0157
      ambientIntensity 0.2
      transparency 0.0000
      shininess 0.5
    }
  }
  geometry IndexedFaceSet {
    ccw TRUE
    solid FALSE
    coord DEF co Coordinate {
      point [
        -0.078514 -0.006285 -0.157480,
        -0.065348 -0.006285 -0.157480,
        -0.071222 0.010159 -0.157480,
        -0.075439 0.002189 -0.157480,
        -0.031019 0.013400 -0.157480,
        -0.035620 0.012694 -0.157480,
        -0.038549 0.011868 -0.157480,
        -0.040545 0.010862 -0.157480,
        -0.041982 0.009650 -0.157480,
        -0.043423 0.007653 -0.157480,
        -0.045020 0.003743 -0.157480,
        -0.046338 -0.001581 -0.157480,
        -0.025213 0.013400 -0.157480,
        -0.025213 -0.017328 -0.157480,
        -0.030802 -0.017328 -0.157480,
        -0.045605 -0.006315 -0.157480,
        -0.044749 -0.009331 -0.157480,
        -0.043711 -0.011386 -0.157480,
        -0.042435 -0.012890 -0.157480,
        -0.040368 -0.014365 -0.157480,
        -0.036322 -0.015993 -0.157480,
      ]
    }
    coordIndex [
      2, 1, 3, -1,
      3, 1, 0, -1,
      4, 12, 15, -1,
      15, 12, 16, -1,
      6, 5, 10, -1,
      4, 15, 5, -1,
      5, 15, 11, -1,
      5, 11, 10, -1,
      13, 14, 12, -1,
      12, 14, 20, -1,
      12, 20, 19, -1,
      19, 18, 12, -1,
      12, 18, 17, -1,
      12, 17, 16, -1,
      6, 10, 7, -1,
      7, 10, 9, -1,
      7, 9, 8, -1,
    ]
  }
}
