ISO-10303-21;
HEADER;
FILE_DESCRIPTION((''),'2;1');
FILE_NAME('C-2176780-8','2025-04-03T05:28:22',('workeradm'),(''),
'CREO PARAMETRIC BY PTC INC, 2024374','CREO PARAMETRIC BY PTC INC, 2024374','');
FILE_SCHEMA(('AUTOMOTIVE_DESIGN { 1 0 10303 214 1 1 1 1 }'));
ENDSEC;
DATA;
#14=CARTESIAN_POINT('',(-1.85E0,-9.E-1,1.8E0));
#15=DIRECTION('',(0.E0,-1.E0,0.E0));
#16=DIRECTION('',(0.E0,0.E0,1.E0));
#17=AXIS2_PLACEMENT_3D('',#14,#15,#16);
#19=DIRECTION('',(1.E0,0.E0,0.E0));
#20=VECTOR('',#19,3.7E0);
#21=CARTESIAN_POINT('',(-1.85E0,-9.E-1,2.1E0));
#22=LINE('',#21,#20);
#23=CARTESIAN_POINT('',(1.85E0,-9.E-1,1.8E0));
#24=DIRECTION('',(0.E0,-1.E0,0.E0));
#25=DIRECTION('',(1.E0,0.E0,0.E0));
#26=AXIS2_PLACEMENT_3D('',#23,#24,#25);
#28=DIRECTION('',(0.E0,0.E0,-1.E0));
#29=VECTOR('',#28,7.E-1);
#30=CARTESIAN_POINT('',(2.15E0,-9.E-1,1.8E0));
#31=LINE('',#30,#29);
#32=DIRECTION('',(1.E0,0.E0,0.E0));
#33=VECTOR('',#32,8.5E-1);
#34=CARTESIAN_POINT('',(1.3E0,-9.E-1,1.1E0));
#35=LINE('',#34,#33);
#36=DIRECTION('',(0.E0,0.E0,1.E0));
#37=VECTOR('',#36,2.2E0);
#38=CARTESIAN_POINT('',(1.3E0,-9.E-1,-1.1E0));
#39=LINE('',#38,#37);
#40=DIRECTION('',(1.E0,0.E0,0.E0));
#41=VECTOR('',#40,8.5E-1);
#42=CARTESIAN_POINT('',(1.3E0,-9.E-1,-1.1E0));
#43=LINE('',#42,#41);
#44=DIRECTION('',(0.E0,0.E0,-1.E0));
#45=VECTOR('',#44,7.E-1);
#46=CARTESIAN_POINT('',(2.15E0,-9.E-1,-1.1E0));
#47=LINE('',#46,#45);
#48=CARTESIAN_POINT('',(1.85E0,-9.E-1,-1.8E0));
#49=DIRECTION('',(0.E0,-1.E0,0.E0));
#50=DIRECTION('',(0.E0,0.E0,-1.E0));
#51=AXIS2_PLACEMENT_3D('',#48,#49,#50);
#53=DIRECTION('',(-1.E0,0.E0,0.E0));
#54=VECTOR('',#53,3.7E0);
#55=CARTESIAN_POINT('',(1.85E0,-9.E-1,-2.1E0));
#56=LINE('',#55,#54);
#57=CARTESIAN_POINT('',(-1.85E0,-9.E-1,-1.8E0));
#58=DIRECTION('',(0.E0,-1.E0,0.E0));
#59=DIRECTION('',(-1.E0,0.E0,0.E0));
#60=AXIS2_PLACEMENT_3D('',#57,#58,#59);
#62=DIRECTION('',(0.E0,0.E0,1.E0));
#63=VECTOR('',#62,7.E-1);
#64=CARTESIAN_POINT('',(-2.15E0,-9.E-1,-1.8E0));
#65=LINE('',#64,#63);
#66=DIRECTION('',(1.E0,0.E0,0.E0));
#67=VECTOR('',#66,8.5E-1);
#68=CARTESIAN_POINT('',(-2.15E0,-9.E-1,-1.1E0));
#69=LINE('',#68,#67);
#70=DIRECTION('',(0.E0,0.E0,1.E0));
#71=VECTOR('',#70,2.2E0);
#72=CARTESIAN_POINT('',(-1.3E0,-9.E-1,-1.1E0));
#73=LINE('',#72,#71);
#74=DIRECTION('',(1.E0,0.E0,0.E0));
#75=VECTOR('',#74,8.5E-1);
#76=CARTESIAN_POINT('',(-2.15E0,-9.E-1,1.1E0));
#77=LINE('',#76,#75);
#78=DIRECTION('',(0.E0,0.E0,1.E0));
#79=VECTOR('',#78,7.E-1);
#80=CARTESIAN_POINT('',(-2.15E0,-9.E-1,1.1E0));
#81=LINE('',#80,#79);
#82=DIRECTION('',(0.E0,-1.E0,0.E0));
#83=VECTOR('',#82,1.8E0);
#84=CARTESIAN_POINT('',(-2.15E0,9.E-1,1.8E0));
#85=LINE('',#84,#83);
#86=DIRECTION('',(0.E0,1.E0,0.E0));
#87=VECTOR('',#86,9.E-1);
#88=CARTESIAN_POINT('',(-2.15E0,-9.E-1,1.1E0));
#89=LINE('',#88,#87);
#90=DIRECTION('',(0.E0,0.E0,1.E0));
#91=VECTOR('',#90,2.2E0);
#92=CARTESIAN_POINT('',(-2.15E0,0.E0,-1.1E0));
#93=LINE('',#92,#91);
#94=DIRECTION('',(0.E0,1.E0,0.E0));
#95=VECTOR('',#94,9.E-1);
#96=CARTESIAN_POINT('',(-2.15E0,-9.E-1,-1.1E0));
#97=LINE('',#96,#95);
#98=DIRECTION('',(0.E0,-1.E0,0.E0));
#99=VECTOR('',#98,1.8E0);
#100=CARTESIAN_POINT('',(-2.15E0,9.E-1,-1.8E0));
#101=LINE('',#100,#99);
#102=DIRECTION('',(0.E0,1.E0,0.E0));
#103=VECTOR('',#102,5.E-2);
#104=CARTESIAN_POINT('',(-1.3E0,-9.E-1,1.1E0));
#105=LINE('',#104,#103);
#106=DIRECTION('',(-1.E0,0.E0,0.E0));
#107=VECTOR('',#106,8.E-1);
#108=CARTESIAN_POINT('',(-1.3E0,-8.5E-1,1.1E0));
#109=LINE('',#108,#107);
#110=DIRECTION('',(0.E0,1.E0,0.E0));
#111=VECTOR('',#110,8.5E-1);
#112=CARTESIAN_POINT('',(-2.1E0,-8.5E-1,1.1E0));
#113=LINE('',#112,#111);
#114=DIRECTION('',(-1.E0,0.E0,0.E0));
#115=VECTOR('',#114,5.E-2);
#116=CARTESIAN_POINT('',(-2.1E0,0.E0,1.1E0));
#117=LINE('',#116,#115);
#118=DIRECTION('',(-1.E0,0.E0,0.E0));
#119=VECTOR('',#118,5.E-2);
#120=CARTESIAN_POINT('',(2.15E0,0.E0,1.1E0));
#121=LINE('',#120,#119);
#122=DIRECTION('',(0.E0,-1.E0,0.E0));
#123=VECTOR('',#122,8.5E-1);
#124=CARTESIAN_POINT('',(2.1E0,0.E0,1.1E0));
#125=LINE('',#124,#123);
#126=DIRECTION('',(-1.E0,0.E0,0.E0));
#127=VECTOR('',#126,8.E-1);
#128=CARTESIAN_POINT('',(2.1E0,-8.5E-1,1.1E0));
#129=LINE('',#128,#127);
#130=DIRECTION('',(0.E0,-1.E0,0.E0));
#131=VECTOR('',#130,5.E-2);
#132=CARTESIAN_POINT('',(1.3E0,-8.5E-1,1.1E0));
#133=LINE('',#132,#131);
#134=DIRECTION('',(-1.E0,0.E0,0.E0));
#135=VECTOR('',#134,5.E-2);
#136=CARTESIAN_POINT('',(-2.1E0,0.E0,-1.1E0));
#137=LINE('',#136,#135);
#138=DIRECTION('',(0.E0,1.E0,0.E0));
#139=VECTOR('',#138,8.5E-1);
#140=CARTESIAN_POINT('',(-2.1E0,-8.5E-1,-1.1E0));
#141=LINE('',#140,#139);
#142=DIRECTION('',(-1.E0,0.E0,0.E0));
#143=VECTOR('',#142,8.E-1);
#144=CARTESIAN_POINT('',(-1.3E0,-8.5E-1,-1.1E0));
#145=LINE('',#144,#143);
#146=DIRECTION('',(0.E0,1.E0,0.E0));
#147=VECTOR('',#146,5.E-2);
#148=CARTESIAN_POINT('',(-1.3E0,-9.E-1,-1.1E0));
#149=LINE('',#148,#147);
#150=DIRECTION('',(0.E0,-1.E0,0.E0));
#151=VECTOR('',#150,5.E-2);
#152=CARTESIAN_POINT('',(1.3E0,-8.5E-1,-1.1E0));
#153=LINE('',#152,#151);
#154=DIRECTION('',(-1.E0,0.E0,0.E0));
#155=VECTOR('',#154,8.E-1);
#156=CARTESIAN_POINT('',(2.1E0,-8.5E-1,-1.1E0));
#157=LINE('',#156,#155);
#158=DIRECTION('',(0.E0,-1.E0,0.E0));
#159=VECTOR('',#158,8.5E-1);
#160=CARTESIAN_POINT('',(2.1E0,0.E0,-1.1E0));
#161=LINE('',#160,#159);
#162=DIRECTION('',(-1.E0,0.E0,0.E0));
#163=VECTOR('',#162,5.E-2);
#164=CARTESIAN_POINT('',(2.15E0,0.E0,-1.1E0));
#165=LINE('',#164,#163);
#166=DIRECTION('',(0.E0,0.E0,1.E0));
#167=VECTOR('',#166,2.2E0);
#168=CARTESIAN_POINT('',(-2.1E0,0.E0,-1.1E0));
#169=LINE('',#168,#167);
#170=DIRECTION('',(0.E0,1.E0,0.E0));
#171=VECTOR('',#170,7.5E-1);
#172=CARTESIAN_POINT('',(-2.1E0,-8.5E-1,-1.E0));
#173=LINE('',#172,#171);
#174=DIRECTION('',(0.E0,0.E0,1.E0));
#175=VECTOR('',#174,1.E-1);
#176=CARTESIAN_POINT('',(-2.1E0,-8.5E-1,-1.1E0));
#177=LINE('',#176,#175);
#178=DIRECTION('',(0.E0,0.E0,1.E0));
#179=VECTOR('',#178,1.E-1);
#180=CARTESIAN_POINT('',(-2.1E0,-8.5E-1,1.E0));
#181=LINE('',#180,#179);
#182=DIRECTION('',(0.E0,1.E0,0.E0));
#183=VECTOR('',#182,7.5E-1);
#184=CARTESIAN_POINT('',(-2.1E0,-8.5E-1,1.E0));
#185=LINE('',#184,#183);
#186=DIRECTION('',(0.E0,0.E0,1.E0));
#187=VECTOR('',#186,2.E0);
#188=CARTESIAN_POINT('',(-2.1E0,-1.E-1,-1.E0));
#189=LINE('',#188,#187);
#190=DIRECTION('',(-1.E0,0.E0,0.E0));
#191=VECTOR('',#190,1.E-1);
#192=CARTESIAN_POINT('',(-2.1E0,-1.E-1,-1.E0));
#193=LINE('',#192,#191);
#194=DIRECTION('',(0.E0,-1.E0,0.E0));
#195=VECTOR('',#194,8.5E-1);
#196=CARTESIAN_POINT('',(-2.2E0,-1.E-1,-1.E0));
#197=LINE('',#196,#195);
#198=DIRECTION('',(1.E0,0.E0,0.E0));
#199=VECTOR('',#198,8.E-1);
#200=CARTESIAN_POINT('',(-2.2E0,-9.5E-1,-1.E0));
#201=LINE('',#200,#199);
#202=DIRECTION('',(0.E0,1.E0,0.E0));
#203=VECTOR('',#202,1.E-1);
#204=CARTESIAN_POINT('',(-1.4E0,-9.5E-1,-1.E0));
#205=LINE('',#204,#203);
#206=DIRECTION('',(0.E0,-1.E0,0.E0));
#207=VECTOR('',#206,1.E-1);
#208=CARTESIAN_POINT('',(1.4E0,-8.5E-1,-1.E0));
#209=LINE('',#208,#207);
#210=DIRECTION('',(1.E0,0.E0,0.E0));
#211=VECTOR('',#210,8.E-1);
#212=CARTESIAN_POINT('',(1.4E0,-9.5E-1,-1.E0));
#213=LINE('',#212,#211);
#214=DIRECTION('',(0.E0,1.E0,0.E0));
#215=VECTOR('',#214,8.5E-1);
#216=CARTESIAN_POINT('',(2.2E0,-9.5E-1,-1.E0));
#217=LINE('',#216,#215);
#218=DIRECTION('',(-1.E0,0.E0,0.E0));
#219=VECTOR('',#218,1.E-1);
#220=CARTESIAN_POINT('',(2.2E0,-1.E-1,-1.E0));
#221=LINE('',#220,#219);
#222=DIRECTION('',(1.E0,0.E0,0.E0));
#223=VECTOR('',#222,7.E-1);
#224=CARTESIAN_POINT('',(-2.1E0,-8.5E-1,-1.E0));
#225=LINE('',#224,#223);
#226=DIRECTION('',(0.E0,0.E0,1.E0));
#227=VECTOR('',#226,2.E0);
#228=CARTESIAN_POINT('',(-1.4E0,-8.5E-1,-1.E0));
#229=LINE('',#228,#227);
#230=DIRECTION('',(1.E0,0.E0,0.E0));
#231=VECTOR('',#230,7.E-1);
#232=CARTESIAN_POINT('',(-2.1E0,-8.5E-1,1.E0));
#233=LINE('',#232,#231);
#234=DIRECTION('',(0.E0,0.E0,1.E0));
#235=VECTOR('',#234,2.2E0);
#236=CARTESIAN_POINT('',(-1.3E0,-8.5E-1,-1.1E0));
#237=LINE('',#236,#235);
#238=DIRECTION('',(0.E0,0.E0,1.E0));
#239=VECTOR('',#238,2.E0);
#240=CARTESIAN_POINT('',(-1.4E0,-9.5E-1,-1.E0));
#241=LINE('',#240,#239);
#242=DIRECTION('',(0.E0,0.E0,1.E0));
#243=VECTOR('',#242,2.E0);
#244=CARTESIAN_POINT('',(-2.2E0,-9.5E-1,-1.E0));
#245=LINE('',#244,#243);
#246=DIRECTION('',(0.E0,0.E0,1.E0));
#247=VECTOR('',#246,2.E0);
#248=CARTESIAN_POINT('',(-2.2E0,-1.E-1,-1.E0));
#249=LINE('',#248,#247);
#250=DIRECTION('',(0.E0,1.E0,0.E0));
#251=VECTOR('',#250,1.E-1);
#252=CARTESIAN_POINT('',(-1.4E0,-9.5E-1,1.E0));
#253=LINE('',#252,#251);
#254=DIRECTION('',(1.E0,0.E0,0.E0));
#255=VECTOR('',#254,8.E-1);
#256=CARTESIAN_POINT('',(-2.2E0,-9.5E-1,1.E0));
#257=LINE('',#256,#255);
#258=DIRECTION('',(0.E0,-1.E0,0.E0));
#259=VECTOR('',#258,8.5E-1);
#260=CARTESIAN_POINT('',(-2.2E0,-1.E-1,1.E0));
#261=LINE('',#260,#259);
#262=DIRECTION('',(-1.E0,0.E0,0.E0));
#263=VECTOR('',#262,1.E-1);
#264=CARTESIAN_POINT('',(-2.1E0,-1.E-1,1.E0));
#265=LINE('',#264,#263);
#266=DIRECTION('',(-1.E0,0.E0,0.E0));
#267=VECTOR('',#266,1.E-1);
#268=CARTESIAN_POINT('',(2.2E0,-1.E-1,1.E0));
#269=LINE('',#268,#267);
#270=DIRECTION('',(0.E0,1.E0,0.E0));
#271=VECTOR('',#270,8.5E-1);
#272=CARTESIAN_POINT('',(2.2E0,-9.5E-1,1.E0));
#273=LINE('',#272,#271);
#274=DIRECTION('',(1.E0,0.E0,0.E0));
#275=VECTOR('',#274,8.E-1);
#276=CARTESIAN_POINT('',(1.4E0,-9.5E-1,1.E0));
#277=LINE('',#276,#275);
#278=DIRECTION('',(0.E0,-1.E0,0.E0));
#279=VECTOR('',#278,1.E-1);
#280=CARTESIAN_POINT('',(1.4E0,-8.5E-1,1.E0));
#281=LINE('',#280,#279);
#282=DIRECTION('',(0.E0,1.E0,0.E0));
#283=VECTOR('',#282,7.5E-1);
#284=CARTESIAN_POINT('',(2.1E0,-8.5E-1,-1.E0));
#285=LINE('',#284,#283);
#286=DIRECTION('',(0.E0,0.E0,1.E0));
#287=VECTOR('',#286,2.E0);
#288=CARTESIAN_POINT('',(2.1E0,-1.E-1,-1.E0));
#289=LINE('',#288,#287);
#290=DIRECTION('',(0.E0,1.E0,0.E0));
#291=VECTOR('',#290,7.5E-1);
#292=CARTESIAN_POINT('',(2.1E0,-8.5E-1,1.E0));
#293=LINE('',#292,#291);
#294=DIRECTION('',(0.E0,0.E0,1.E0));
#295=VECTOR('',#294,2.2E0);
#296=CARTESIAN_POINT('',(2.1E0,0.E0,-1.1E0));
#297=LINE('',#296,#295);
#298=DIRECTION('',(0.E0,0.E0,1.E0));
#299=VECTOR('',#298,2.E0);
#300=CARTESIAN_POINT('',(2.2E0,-1.E-1,-1.E0));
#301=LINE('',#300,#299);
#302=DIRECTION('',(0.E0,0.E0,1.E0));
#303=VECTOR('',#302,2.E0);
#304=CARTESIAN_POINT('',(2.2E0,-9.5E-1,-1.E0));
#305=LINE('',#304,#303);
#306=DIRECTION('',(0.E0,0.E0,1.E0));
#307=VECTOR('',#306,2.E0);
#308=CARTESIAN_POINT('',(1.4E0,-9.5E-1,-1.E0));
#309=LINE('',#308,#307);
#310=DIRECTION('',(-1.E0,0.E0,0.E0));
#311=VECTOR('',#310,7.E-1);
#312=CARTESIAN_POINT('',(2.1E0,-8.5E-1,-1.E0));
#313=LINE('',#312,#311);
#314=DIRECTION('',(0.E0,0.E0,1.E0));
#315=VECTOR('',#314,1.E-1);
#316=CARTESIAN_POINT('',(2.1E0,-8.5E-1,-1.1E0));
#317=LINE('',#316,#315);
#318=DIRECTION('',(0.E0,0.E0,1.E0));
#319=VECTOR('',#318,1.E-1);
#320=CARTESIAN_POINT('',(2.1E0,-8.5E-1,1.E0));
#321=LINE('',#320,#319);
#322=DIRECTION('',(-1.E0,0.E0,0.E0));
#323=VECTOR('',#322,7.E-1);
#324=CARTESIAN_POINT('',(2.1E0,-8.5E-1,1.E0));
#325=LINE('',#324,#323);
#326=DIRECTION('',(0.E0,0.E0,1.E0));
#327=VECTOR('',#326,2.E0);
#328=CARTESIAN_POINT('',(1.4E0,-8.5E-1,-1.E0));
#329=LINE('',#328,#327);
#330=DIRECTION('',(0.E0,0.E0,1.E0));
#331=VECTOR('',#330,2.2E0);
#332=CARTESIAN_POINT('',(1.3E0,-8.5E-1,-1.1E0));
#333=LINE('',#332,#331);
#334=DIRECTION('',(0.E0,-1.E0,0.E0));
#335=VECTOR('',#334,1.8E0);
#336=CARTESIAN_POINT('',(2.15E0,9.E-1,1.8E0));
#337=LINE('',#336,#335);
#338=DIRECTION('',(0.E0,-1.E0,0.E0));
#339=VECTOR('',#338,1.8E0);
#340=CARTESIAN_POINT('',(2.15E0,9.E-1,-1.8E0));
#341=LINE('',#340,#339);
#342=DIRECTION('',(0.E0,1.E0,0.E0));
#343=VECTOR('',#342,9.E-1);
#344=CARTESIAN_POINT('',(2.15E0,-9.E-1,-1.1E0));
#345=LINE('',#344,#343);
#346=DIRECTION('',(0.E0,0.E0,1.E0));
#347=VECTOR('',#346,2.2E0);
#348=CARTESIAN_POINT('',(2.15E0,0.E0,-1.1E0));
#349=LINE('',#348,#347);
#350=DIRECTION('',(0.E0,1.E0,0.E0));
#351=VECTOR('',#350,9.E-1);
#352=CARTESIAN_POINT('',(2.15E0,-9.E-1,1.1E0));
#353=LINE('',#352,#351);
#354=DIRECTION('',(0.E0,-1.E0,0.E0));
#355=VECTOR('',#354,1.8E0);
#356=CARTESIAN_POINT('',(-1.85E0,9.E-1,2.1E0));
#357=LINE('',#356,#355);
#358=DIRECTION('',(0.E0,-1.E0,0.E0));
#359=VECTOR('',#358,1.8E0);
#360=CARTESIAN_POINT('',(1.85E0,9.E-1,2.1E0));
#361=LINE('',#360,#359);
#362=CARTESIAN_POINT('',(-1.85E0,9.E-1,1.8E0));
#363=DIRECTION('',(0.E0,1.E0,0.E0));
#364=DIRECTION('',(-1.E0,0.E0,0.E0));
#365=AXIS2_PLACEMENT_3D('',#362,#363,#364);
#367=DIRECTION('',(0.E0,0.E0,1.E0));
#368=VECTOR('',#367,3.6E0);
#369=CARTESIAN_POINT('',(-2.15E0,9.E-1,-1.8E0));
#370=LINE('',#369,#368);
#371=CARTESIAN_POINT('',(-1.85E0,9.E-1,-1.8E0));
#372=DIRECTION('',(0.E0,1.E0,0.E0));
#373=DIRECTION('',(0.E0,0.E0,-1.E0));
#374=AXIS2_PLACEMENT_3D('',#371,#372,#373);
#376=DIRECTION('',(-1.E0,0.E0,0.E0));
#377=VECTOR('',#376,3.7E0);
#378=CARTESIAN_POINT('',(1.85E0,9.E-1,-2.1E0));
#379=LINE('',#378,#377);
#380=CARTESIAN_POINT('',(1.85E0,9.E-1,-1.8E0));
#381=DIRECTION('',(0.E0,1.E0,0.E0));
#382=DIRECTION('',(1.E0,0.E0,0.E0));
#383=AXIS2_PLACEMENT_3D('',#380,#381,#382);
#385=DIRECTION('',(0.E0,0.E0,-1.E0));
#386=VECTOR('',#385,3.6E0);
#387=CARTESIAN_POINT('',(2.15E0,9.E-1,1.8E0));
#388=LINE('',#387,#386);
#389=CARTESIAN_POINT('',(1.85E0,9.E-1,1.8E0));
#390=DIRECTION('',(0.E0,1.E0,0.E0));
#391=DIRECTION('',(0.E0,0.E0,1.E0));
#392=AXIS2_PLACEMENT_3D('',#389,#390,#391);
#394=DIRECTION('',(1.E0,0.E0,0.E0));
#395=VECTOR('',#394,3.7E0);
#396=CARTESIAN_POINT('',(-1.85E0,9.E-1,2.1E0));
#397=LINE('',#396,#395);
#398=DIRECTION('',(0.E0,-1.E0,0.E0));
#399=VECTOR('',#398,1.8E0);
#400=CARTESIAN_POINT('',(1.85E0,9.E-1,-2.1E0));
#401=LINE('',#400,#399);
#402=DIRECTION('',(0.E0,-1.E0,0.E0));
#403=VECTOR('',#402,1.8E0);
#404=CARTESIAN_POINT('',(-1.85E0,9.E-1,-2.1E0));
#405=LINE('',#404,#403);
#406=CARTESIAN_POINT('',(-1.3E0,-8.5E-1,-1.1E0));
#407=CARTESIAN_POINT('',(-2.1E0,-8.5E-1,-1.1E0));
#408=VERTEX_POINT('',#406);
#409=VERTEX_POINT('',#407);
#410=CARTESIAN_POINT('',(-2.1E0,0.E0,-1.1E0));
#411=VERTEX_POINT('',#410);
#412=CARTESIAN_POINT('',(2.1E0,0.E0,-1.1E0));
#413=CARTESIAN_POINT('',(2.1E0,-8.5E-1,-1.1E0));
#414=VERTEX_POINT('',#412);
#415=VERTEX_POINT('',#413);
#416=CARTESIAN_POINT('',(1.3E0,-8.5E-1,-1.1E0));
#417=VERTEX_POINT('',#416);
#418=CARTESIAN_POINT('',(-1.3E0,-8.5E-1,1.1E0));
#419=CARTESIAN_POINT('',(-2.1E0,-8.5E-1,1.1E0));
#420=VERTEX_POINT('',#418);
#421=VERTEX_POINT('',#419);
#422=CARTESIAN_POINT('',(-2.1E0,0.E0,1.1E0));
#423=VERTEX_POINT('',#422);
#424=CARTESIAN_POINT('',(2.1E0,0.E0,1.1E0));
#425=CARTESIAN_POINT('',(2.1E0,-8.5E-1,1.1E0));
#426=VERTEX_POINT('',#424);
#427=VERTEX_POINT('',#425);
#428=CARTESIAN_POINT('',(1.3E0,-8.5E-1,1.1E0));
#429=VERTEX_POINT('',#428);
#430=CARTESIAN_POINT('',(-2.15E0,-9.E-1,-1.1E0));
#431=CARTESIAN_POINT('',(-1.3E0,-9.E-1,-1.1E0));
#432=VERTEX_POINT('',#430);
#433=VERTEX_POINT('',#431);
#434=CARTESIAN_POINT('',(1.3E0,-9.E-1,-1.1E0));
#435=CARTESIAN_POINT('',(2.15E0,-9.E-1,-1.1E0));
#436=VERTEX_POINT('',#434);
#437=VERTEX_POINT('',#435);
#438=CARTESIAN_POINT('',(-2.15E0,-9.E-1,1.1E0));
#439=CARTESIAN_POINT('',(-1.3E0,-9.E-1,1.1E0));
#440=VERTEX_POINT('',#438);
#441=VERTEX_POINT('',#439);
#442=CARTESIAN_POINT('',(1.3E0,-9.E-1,1.1E0));
#443=CARTESIAN_POINT('',(2.15E0,-9.E-1,1.1E0));
#444=VERTEX_POINT('',#442);
#445=VERTEX_POINT('',#443);
#446=CARTESIAN_POINT('',(2.15E0,0.E0,-1.1E0));
#447=VERTEX_POINT('',#446);
#448=CARTESIAN_POINT('',(2.15E0,0.E0,1.1E0));
#449=VERTEX_POINT('',#448);
#450=CARTESIAN_POINT('',(-2.15E0,0.E0,-1.1E0));
#451=VERTEX_POINT('',#450);
#452=CARTESIAN_POINT('',(-2.15E0,0.E0,1.1E0));
#453=VERTEX_POINT('',#452);
#454=CARTESIAN_POINT('',(-2.2E0,-1.E-1,-1.E0));
#455=CARTESIAN_POINT('',(-2.2E0,-9.5E-1,-1.E0));
#456=VERTEX_POINT('',#454);
#457=VERTEX_POINT('',#455);
#458=CARTESIAN_POINT('',(-1.4E0,-9.5E-1,-1.E0));
#459=VERTEX_POINT('',#458);
#460=CARTESIAN_POINT('',(-2.2E0,-1.E-1,1.E0));
#461=CARTESIAN_POINT('',(-2.2E0,-9.5E-1,1.E0));
#462=VERTEX_POINT('',#460);
#463=VERTEX_POINT('',#461);
#464=CARTESIAN_POINT('',(-1.4E0,-9.5E-1,1.E0));
#465=VERTEX_POINT('',#464);
#466=CARTESIAN_POINT('',(-2.1E0,-8.5E-1,-1.E0));
#467=CARTESIAN_POINT('',(-1.4E0,-8.5E-1,-1.E0));
#468=VERTEX_POINT('',#466);
#469=VERTEX_POINT('',#467);
#470=CARTESIAN_POINT('',(-2.1E0,-8.5E-1,1.E0));
#471=CARTESIAN_POINT('',(-1.4E0,-8.5E-1,1.E0));
#472=VERTEX_POINT('',#470);
#473=VERTEX_POINT('',#471);
#474=CARTESIAN_POINT('',(-2.1E0,-1.E-1,-1.E0));
#475=VERTEX_POINT('',#474);
#476=CARTESIAN_POINT('',(-2.1E0,-1.E-1,1.E0));
#477=VERTEX_POINT('',#476);
#478=CARTESIAN_POINT('',(1.4E0,-9.5E-1,-1.E0));
#479=CARTESIAN_POINT('',(2.2E0,-9.5E-1,-1.E0));
#480=VERTEX_POINT('',#478);
#481=VERTEX_POINT('',#479);
#482=CARTESIAN_POINT('',(2.2E0,-1.E-1,-1.E0));
#483=VERTEX_POINT('',#482);
#484=CARTESIAN_POINT('',(1.4E0,-9.5E-1,1.E0));
#485=CARTESIAN_POINT('',(2.2E0,-9.5E-1,1.E0));
#486=VERTEX_POINT('',#484);
#487=VERTEX_POINT('',#485);
#488=CARTESIAN_POINT('',(2.2E0,-1.E-1,1.E0));
#489=VERTEX_POINT('',#488);
#490=CARTESIAN_POINT('',(2.1E0,-8.5E-1,-1.E0));
#491=CARTESIAN_POINT('',(2.1E0,-1.E-1,-1.E0));
#492=VERTEX_POINT('',#490);
#493=VERTEX_POINT('',#491);
#494=CARTESIAN_POINT('',(2.1E0,-8.5E-1,1.E0));
#495=CARTESIAN_POINT('',(2.1E0,-1.E-1,1.E0));
#496=VERTEX_POINT('',#494);
#497=VERTEX_POINT('',#495);
#498=CARTESIAN_POINT('',(1.4E0,-8.5E-1,-1.E0));
#499=VERTEX_POINT('',#498);
#500=CARTESIAN_POINT('',(1.4E0,-8.5E-1,1.E0));
#501=VERTEX_POINT('',#500);
#502=CARTESIAN_POINT('',(-1.85E0,-9.E-1,2.1E0));
#503=CARTESIAN_POINT('',(-2.15E0,-9.E-1,1.8E0));
#504=VERTEX_POINT('',#502);
#505=VERTEX_POINT('',#503);
#506=CARTESIAN_POINT('',(-2.15E0,9.E-1,1.8E0));
#507=VERTEX_POINT('',#506);
#508=CARTESIAN_POINT('',(-1.85E0,9.E-1,2.1E0));
#509=VERTEX_POINT('',#508);
#510=CARTESIAN_POINT('',(2.15E0,-9.E-1,1.8E0));
#511=CARTESIAN_POINT('',(1.85E0,-9.E-1,2.1E0));
#512=VERTEX_POINT('',#510);
#513=VERTEX_POINT('',#511);
#514=CARTESIAN_POINT('',(1.85E0,9.E-1,2.1E0));
#515=VERTEX_POINT('',#514);
#516=CARTESIAN_POINT('',(2.15E0,9.E-1,1.8E0));
#517=VERTEX_POINT('',#516);
#518=CARTESIAN_POINT('',(1.85E0,-9.E-1,-2.1E0));
#519=CARTESIAN_POINT('',(2.15E0,-9.E-1,-1.8E0));
#520=VERTEX_POINT('',#518);
#521=VERTEX_POINT('',#519);
#522=CARTESIAN_POINT('',(2.15E0,9.E-1,-1.8E0));
#523=VERTEX_POINT('',#522);
#524=CARTESIAN_POINT('',(1.85E0,9.E-1,-2.1E0));
#525=VERTEX_POINT('',#524);
#526=CARTESIAN_POINT('',(-2.15E0,-9.E-1,-1.8E0));
#527=CARTESIAN_POINT('',(-1.85E0,-9.E-1,-2.1E0));
#528=VERTEX_POINT('',#526);
#529=VERTEX_POINT('',#527);
#530=CARTESIAN_POINT('',(-1.85E0,9.E-1,-2.1E0));
#531=VERTEX_POINT('',#530);
#532=CARTESIAN_POINT('',(-2.15E0,9.E-1,-1.8E0));
#533=VERTEX_POINT('',#532);
#534=CARTESIAN_POINT('',(0.E0,-9.E-1,0.E0));
#535=DIRECTION('',(0.E0,1.E0,0.E0));
#536=DIRECTION('',(1.E0,0.E0,0.E0));
#537=AXIS2_PLACEMENT_3D('',#534,#535,#536);
#538=PLANE('',#537);
#540=ORIENTED_EDGE('',*,*,#539,.F.);
#542=ORIENTED_EDGE('',*,*,#541,.T.);
#544=ORIENTED_EDGE('',*,*,#543,.F.);
#546=ORIENTED_EDGE('',*,*,#545,.T.);
#548=ORIENTED_EDGE('',*,*,#547,.F.);
#550=ORIENTED_EDGE('',*,*,#549,.F.);
#552=ORIENTED_EDGE('',*,*,#551,.T.);
#554=ORIENTED_EDGE('',*,*,#553,.T.);
#556=ORIENTED_EDGE('',*,*,#555,.F.);
#558=ORIENTED_EDGE('',*,*,#557,.T.);
#560=ORIENTED_EDGE('',*,*,#559,.F.);
#562=ORIENTED_EDGE('',*,*,#561,.T.);
#564=ORIENTED_EDGE('',*,*,#563,.T.);
#566=ORIENTED_EDGE('',*,*,#565,.T.);
#568=ORIENTED_EDGE('',*,*,#567,.F.);
#570=ORIENTED_EDGE('',*,*,#569,.T.);
#571=EDGE_LOOP('',(#540,#542,#544,#546,#548,#550,#552,#554,#556,#558,#560,#562,
#564,#566,#568,#570));
#572=FACE_OUTER_BOUND('',#571,.F.);
#574=CARTESIAN_POINT('',(-1.85E0,3.31166E0,1.8E0));
#575=DIRECTION('',(0.E0,-1.E0,0.E0));
#576=DIRECTION('',(0.E0,0.E0,1.E0));
#577=AXIS2_PLACEMENT_3D('',#574,#575,#576);
#578=CYLINDRICAL_SURFACE('',#577,3.E-1);
#579=ORIENTED_EDGE('',*,*,#539,.T.);
#581=ORIENTED_EDGE('',*,*,#580,.F.);
#583=ORIENTED_EDGE('',*,*,#582,.T.);
#585=ORIENTED_EDGE('',*,*,#584,.T.);
#586=EDGE_LOOP('',(#579,#581,#583,#585));
#587=FACE_OUTER_BOUND('',#586,.F.);
#589=CARTESIAN_POINT('',(-2.15E0,-9.E-1,-2.1E0));
#590=DIRECTION('',(-1.E0,0.E0,0.E0));
#591=DIRECTION('',(0.E0,0.E0,1.E0));
#592=AXIS2_PLACEMENT_3D('',#589,#590,#591);
#593=PLANE('',#592);
#594=ORIENTED_EDGE('',*,*,#580,.T.);
#595=ORIENTED_EDGE('',*,*,#569,.F.);
#597=ORIENTED_EDGE('',*,*,#596,.T.);
#599=ORIENTED_EDGE('',*,*,#598,.F.);
#601=ORIENTED_EDGE('',*,*,#600,.F.);
#602=ORIENTED_EDGE('',*,*,#561,.F.);
#604=ORIENTED_EDGE('',*,*,#603,.F.);
#606=ORIENTED_EDGE('',*,*,#605,.T.);
#607=EDGE_LOOP('',(#594,#595,#597,#599,#601,#602,#604,#606));
#608=FACE_OUTER_BOUND('',#607,.F.);
#610=CARTESIAN_POINT('',(0.E0,0.E0,1.1E0));
#611=DIRECTION('',(0.E0,0.E0,1.E0));
#612=DIRECTION('',(1.E0,0.E0,0.E0));
#613=AXIS2_PLACEMENT_3D('',#610,#611,#612);
#614=PLANE('',#613);
#615=ORIENTED_EDGE('',*,*,#567,.T.);
#617=ORIENTED_EDGE('',*,*,#616,.T.);
#619=ORIENTED_EDGE('',*,*,#618,.T.);
#621=ORIENTED_EDGE('',*,*,#620,.T.);
#623=ORIENTED_EDGE('',*,*,#622,.T.);
#624=ORIENTED_EDGE('',*,*,#596,.F.);
#625=EDGE_LOOP('',(#615,#617,#619,#621,#623,#624));
#626=FACE_OUTER_BOUND('',#625,.F.);
#628=CARTESIAN_POINT('',(0.E0,0.E0,1.1E0));
#629=DIRECTION('',(0.E0,0.E0,1.E0));
#630=DIRECTION('',(1.E0,0.E0,0.E0));
#631=AXIS2_PLACEMENT_3D('',#628,#629,#630);
#632=PLANE('',#631);
#633=ORIENTED_EDGE('',*,*,#547,.T.);
#635=ORIENTED_EDGE('',*,*,#634,.T.);
#637=ORIENTED_EDGE('',*,*,#636,.T.);
#639=ORIENTED_EDGE('',*,*,#638,.T.);
#641=ORIENTED_EDGE('',*,*,#640,.T.);
#643=ORIENTED_EDGE('',*,*,#642,.T.);
#644=EDGE_LOOP('',(#633,#635,#637,#639,#641,#643));
#645=FACE_OUTER_BOUND('',#644,.F.);
#647=CARTESIAN_POINT('',(-1.3E0,-9.E-1,-1.1E0));
#648=DIRECTION('',(1.E0,0.E0,0.E0));
#649=DIRECTION('',(0.E0,1.E0,0.E0));
#650=AXIS2_PLACEMENT_3D('',#647,#648,#649);
#651=PLANE('',#650);
#652=ORIENTED_EDGE('',*,*,#565,.F.);
#654=ORIENTED_EDGE('',*,*,#653,.T.);
#656=ORIENTED_EDGE('',*,*,#655,.T.);
#657=ORIENTED_EDGE('',*,*,#616,.F.);
#658=EDGE_LOOP('',(#652,#654,#656,#657));
#659=FACE_OUTER_BOUND('',#658,.F.);
#661=CARTESIAN_POINT('',(0.E0,0.E0,-1.1E0));
#662=DIRECTION('',(0.E0,0.E0,1.E0));
#663=DIRECTION('',(1.E0,0.E0,0.E0));
#664=AXIS2_PLACEMENT_3D('',#661,#662,#663);
#665=PLANE('',#664);
#666=ORIENTED_EDGE('',*,*,#563,.F.);
#667=ORIENTED_EDGE('',*,*,#600,.T.);
#669=ORIENTED_EDGE('',*,*,#668,.F.);
#671=ORIENTED_EDGE('',*,*,#670,.F.);
#673=ORIENTED_EDGE('',*,*,#672,.F.);
#674=ORIENTED_EDGE('',*,*,#653,.F.);
#675=EDGE_LOOP('',(#666,#667,#669,#671,#673,#674));
#676=FACE_OUTER_BOUND('',#675,.F.);
#678=CARTESIAN_POINT('',(0.E0,0.E0,-1.1E0));
#679=DIRECTION('',(0.E0,0.E0,1.E0));
#680=DIRECTION('',(1.E0,0.E0,0.E0));
#681=AXIS2_PLACEMENT_3D('',#678,#679,#680);
#682=PLANE('',#681);
#683=ORIENTED_EDGE('',*,*,#551,.F.);
#685=ORIENTED_EDGE('',*,*,#684,.F.);
#687=ORIENTED_EDGE('',*,*,#686,.F.);
#689=ORIENTED_EDGE('',*,*,#688,.F.);
#691=ORIENTED_EDGE('',*,*,#690,.F.);
#693=ORIENTED_EDGE('',*,*,#692,.F.);
#694=EDGE_LOOP('',(#683,#685,#687,#689,#691,#693));
#695=FACE_OUTER_BOUND('',#694,.F.);
#697=CARTESIAN_POINT('',(-2.1E0,0.E0,-1.1E0));
#698=DIRECTION('',(0.E0,1.E0,0.E0));
#699=DIRECTION('',(-1.E0,0.E0,0.E0));
#700=AXIS2_PLACEMENT_3D('',#697,#698,#699);
#701=PLANE('',#700);
#702=ORIENTED_EDGE('',*,*,#598,.T.);
#703=ORIENTED_EDGE('',*,*,#622,.F.);
#705=ORIENTED_EDGE('',*,*,#704,.F.);
#706=ORIENTED_EDGE('',*,*,#668,.T.);
#707=EDGE_LOOP('',(#702,#703,#705,#706));
#708=FACE_OUTER_BOUND('',#707,.F.);
#710=CARTESIAN_POINT('',(-2.1E0,-8.5E-1,-1.1E0));
#711=DIRECTION('',(1.E0,0.E0,0.E0));
#712=DIRECTION('',(0.E0,1.E0,0.E0));
#713=AXIS2_PLACEMENT_3D('',#710,#711,#712);
#714=PLANE('',#713);
#716=ORIENTED_EDGE('',*,*,#715,.F.);
#718=ORIENTED_EDGE('',*,*,#717,.F.);
#719=ORIENTED_EDGE('',*,*,#670,.T.);
#720=ORIENTED_EDGE('',*,*,#704,.T.);
#721=ORIENTED_EDGE('',*,*,#620,.F.);
#723=ORIENTED_EDGE('',*,*,#722,.F.);
#725=ORIENTED_EDGE('',*,*,#724,.T.);
#727=ORIENTED_EDGE('',*,*,#726,.F.);
#728=EDGE_LOOP('',(#716,#718,#719,#720,#721,#723,#725,#727));
#729=FACE_OUTER_BOUND('',#728,.F.);
#731=CARTESIAN_POINT('',(0.E0,0.E0,-1.E0));
#732=DIRECTION('',(0.E0,0.E0,1.E0));
#733=DIRECTION('',(1.E0,0.E0,0.E0));
#734=AXIS2_PLACEMENT_3D('',#731,#732,#733);
#735=PLANE('',#734);
#737=ORIENTED_EDGE('',*,*,#736,.F.);
#738=ORIENTED_EDGE('',*,*,#715,.T.);
#740=ORIENTED_EDGE('',*,*,#739,.T.);
#742=ORIENTED_EDGE('',*,*,#741,.T.);
#744=ORIENTED_EDGE('',*,*,#743,.T.);
#746=ORIENTED_EDGE('',*,*,#745,.T.);
#747=EDGE_LOOP('',(#737,#738,#740,#742,#744,#746));
#748=FACE_OUTER_BOUND('',#747,.F.);
#750=CARTESIAN_POINT('',(0.E0,0.E0,-1.E0));
#751=DIRECTION('',(0.E0,0.E0,1.E0));
#752=DIRECTION('',(1.E0,0.E0,0.E0));
#753=AXIS2_PLACEMENT_3D('',#750,#751,#752);
#754=PLANE('',#753);
#756=ORIENTED_EDGE('',*,*,#755,.F.);
#758=ORIENTED_EDGE('',*,*,#757,.T.);
#760=ORIENTED_EDGE('',*,*,#759,.T.);
#762=ORIENTED_EDGE('',*,*,#761,.T.);
#764=ORIENTED_EDGE('',*,*,#763,.T.);
#766=ORIENTED_EDGE('',*,*,#765,.T.);
#767=EDGE_LOOP('',(#756,#758,#760,#762,#764,#766));
#768=FACE_OUTER_BOUND('',#767,.F.);
#770=CARTESIAN_POINT('',(-1.3E0,-8.5E-1,-1.1E0));
#771=DIRECTION('',(0.E0,1.E0,0.E0));
#772=DIRECTION('',(-1.E0,0.E0,0.E0));
#773=AXIS2_PLACEMENT_3D('',#770,#771,#772);
#774=PLANE('',#773);
#775=ORIENTED_EDGE('',*,*,#736,.T.);
#777=ORIENTED_EDGE('',*,*,#776,.T.);
#779=ORIENTED_EDGE('',*,*,#778,.F.);
#780=ORIENTED_EDGE('',*,*,#722,.T.);
#781=ORIENTED_EDGE('',*,*,#618,.F.);
#782=ORIENTED_EDGE('',*,*,#655,.F.);
#783=ORIENTED_EDGE('',*,*,#672,.T.);
#784=ORIENTED_EDGE('',*,*,#717,.T.);
#785=EDGE_LOOP('',(#775,#777,#779,#780,#781,#782,#783,#784));
#786=FACE_OUTER_BOUND('',#785,.F.);
#788=CARTESIAN_POINT('',(-1.4E0,-9.5E-1,-1.E0));
#789=DIRECTION('',(1.E0,0.E0,0.E0));
#790=DIRECTION('',(0.E0,1.E0,0.E0));
#791=AXIS2_PLACEMENT_3D('',#788,#789,#790);
#792=PLANE('',#791);
#793=ORIENTED_EDGE('',*,*,#776,.F.);
#794=ORIENTED_EDGE('',*,*,#745,.F.);
#796=ORIENTED_EDGE('',*,*,#795,.T.);
#798=ORIENTED_EDGE('',*,*,#797,.T.);
#799=EDGE_LOOP('',(#793,#794,#796,#798));
#800=FACE_OUTER_BOUND('',#799,.F.);
#802=CARTESIAN_POINT('',(-2.2E0,-9.5E-1,-1.E0));
#803=DIRECTION('',(0.E0,-1.E0,0.E0));
#804=DIRECTION('',(1.E0,0.E0,0.E0));
#805=AXIS2_PLACEMENT_3D('',#802,#803,#804);
#806=PLANE('',#805);
#807=ORIENTED_EDGE('',*,*,#743,.F.);
#809=ORIENTED_EDGE('',*,*,#808,.T.);
#811=ORIENTED_EDGE('',*,*,#810,.T.);
#812=ORIENTED_EDGE('',*,*,#795,.F.);
#813=EDGE_LOOP('',(#807,#809,#811,#812));
#814=FACE_OUTER_BOUND('',#813,.F.);
#816=CARTESIAN_POINT('',(-2.2E0,-1.E-1,-1.E0));
#817=DIRECTION('',(-1.E0,0.E0,0.E0));
#818=DIRECTION('',(0.E0,-1.E0,0.E0));
#819=AXIS2_PLACEMENT_3D('',#816,#817,#818);
#820=PLANE('',#819);
#821=ORIENTED_EDGE('',*,*,#741,.F.);
#823=ORIENTED_EDGE('',*,*,#822,.T.);
#825=ORIENTED_EDGE('',*,*,#824,.T.);
#826=ORIENTED_EDGE('',*,*,#808,.F.);
#827=EDGE_LOOP('',(#821,#823,#825,#826));
#828=FACE_OUTER_BOUND('',#827,.F.);
#830=CARTESIAN_POINT('',(-2.1E0,-1.E-1,-1.E0));
#831=DIRECTION('',(0.E0,1.E0,0.E0));
#832=DIRECTION('',(-1.E0,0.E0,0.E0));
#833=AXIS2_PLACEMENT_3D('',#830,#831,#832);
#834=PLANE('',#833);
#835=ORIENTED_EDGE('',*,*,#726,.T.);
#837=ORIENTED_EDGE('',*,*,#836,.T.);
#838=ORIENTED_EDGE('',*,*,#822,.F.);
#839=ORIENTED_EDGE('',*,*,#739,.F.);
#840=EDGE_LOOP('',(#835,#837,#838,#839));
#841=FACE_OUTER_BOUND('',#840,.F.);
#843=CARTESIAN_POINT('',(0.E0,0.E0,1.E0));
#844=DIRECTION('',(0.E0,0.E0,1.E0));
#845=DIRECTION('',(1.E0,0.E0,0.E0));
#846=AXIS2_PLACEMENT_3D('',#843,#844,#845);
#847=PLANE('',#846);
#848=ORIENTED_EDGE('',*,*,#778,.T.);
#849=ORIENTED_EDGE('',*,*,#797,.F.);
#850=ORIENTED_EDGE('',*,*,#810,.F.);
#851=ORIENTED_EDGE('',*,*,#824,.F.);
#852=ORIENTED_EDGE('',*,*,#836,.F.);
#853=ORIENTED_EDGE('',*,*,#724,.F.);
#854=EDGE_LOOP('',(#848,#849,#850,#851,#852,#853));
#855=FACE_OUTER_BOUND('',#854,.F.);
#857=CARTESIAN_POINT('',(0.E0,0.E0,1.E0));
#858=DIRECTION('',(0.E0,0.E0,1.E0));
#859=DIRECTION('',(1.E0,0.E0,0.E0));
#860=AXIS2_PLACEMENT_3D('',#857,#858,#859);
#861=PLANE('',#860);
#863=ORIENTED_EDGE('',*,*,#862,.T.);
#865=ORIENTED_EDGE('',*,*,#864,.F.);
#867=ORIENTED_EDGE('',*,*,#866,.F.);
#869=ORIENTED_EDGE('',*,*,#868,.F.);
#871=ORIENTED_EDGE('',*,*,#870,.F.);
#873=ORIENTED_EDGE('',*,*,#872,.F.);
#874=EDGE_LOOP('',(#863,#865,#867,#869,#871,#873));
#875=FACE_OUTER_BOUND('',#874,.F.);
#877=CARTESIAN_POINT('',(2.1E0,0.E0,-1.1E0));
#878=DIRECTION('',(-1.E0,0.E0,0.E0));
#879=DIRECTION('',(0.E0,-1.E0,0.E0));
#880=AXIS2_PLACEMENT_3D('',#877,#878,#879);
#881=PLANE('',#880);
#882=ORIENTED_EDGE('',*,*,#755,.T.);
#884=ORIENTED_EDGE('',*,*,#883,.T.);
#885=ORIENTED_EDGE('',*,*,#862,.F.);
#887=ORIENTED_EDGE('',*,*,#886,.T.);
#888=ORIENTED_EDGE('',*,*,#638,.F.);
#890=ORIENTED_EDGE('',*,*,#889,.F.);
#891=ORIENTED_EDGE('',*,*,#688,.T.);
#893=ORIENTED_EDGE('',*,*,#892,.T.);
#894=EDGE_LOOP('',(#882,#884,#885,#887,#888,#890,#891,#893));
#895=FACE_OUTER_BOUND('',#894,.F.);
#897=CARTESIAN_POINT('',(2.2E0,-1.E-1,-1.E0));
#898=DIRECTION('',(0.E0,1.E0,0.E0));
#899=DIRECTION('',(-1.E0,0.E0,0.E0));
#900=AXIS2_PLACEMENT_3D('',#897,#898,#899);
#901=PLANE('',#900);
#902=ORIENTED_EDGE('',*,*,#883,.F.);
#903=ORIENTED_EDGE('',*,*,#765,.F.);
#905=ORIENTED_EDGE('',*,*,#904,.T.);
#906=ORIENTED_EDGE('',*,*,#864,.T.);
#907=EDGE_LOOP('',(#902,#903,#905,#906));
#908=FACE_OUTER_BOUND('',#907,.F.);
#910=CARTESIAN_POINT('',(2.2E0,-9.5E-1,-1.E0));
#911=DIRECTION('',(1.E0,0.E0,0.E0));
#912=DIRECTION('',(0.E0,1.E0,0.E0));
#913=AXIS2_PLACEMENT_3D('',#910,#911,#912);
#914=PLANE('',#913);
#915=ORIENTED_EDGE('',*,*,#763,.F.);
#917=ORIENTED_EDGE('',*,*,#916,.T.);
#918=ORIENTED_EDGE('',*,*,#866,.T.);
#919=ORIENTED_EDGE('',*,*,#904,.F.);
#920=EDGE_LOOP('',(#915,#917,#918,#919));
#921=FACE_OUTER_BOUND('',#920,.F.);
#923=CARTESIAN_POINT('',(1.4E0,-9.5E-1,-1.E0));
#924=DIRECTION('',(0.E0,-1.E0,0.E0));
#925=DIRECTION('',(1.E0,0.E0,0.E0));
#926=AXIS2_PLACEMENT_3D('',#923,#924,#925);
#927=PLANE('',#926);
#928=ORIENTED_EDGE('',*,*,#761,.F.);
#930=ORIENTED_EDGE('',*,*,#929,.T.);
#931=ORIENTED_EDGE('',*,*,#868,.T.);
#932=ORIENTED_EDGE('',*,*,#916,.F.);
#933=EDGE_LOOP('',(#928,#930,#931,#932));
#934=FACE_OUTER_BOUND('',#933,.F.);
#936=CARTESIAN_POINT('',(1.4E0,-8.5E-1,-1.E0));
#937=DIRECTION('',(-1.E0,0.E0,0.E0));
#938=DIRECTION('',(0.E0,-1.E0,0.E0));
#939=AXIS2_PLACEMENT_3D('',#936,#937,#938);
#940=PLANE('',#939);
#942=ORIENTED_EDGE('',*,*,#941,.T.);
#943=ORIENTED_EDGE('',*,*,#870,.T.);
#944=ORIENTED_EDGE('',*,*,#929,.F.);
#945=ORIENTED_EDGE('',*,*,#759,.F.);
#946=EDGE_LOOP('',(#942,#943,#944,#945));
#947=FACE_OUTER_BOUND('',#946,.F.);
#949=CARTESIAN_POINT('',(2.1E0,-8.5E-1,-1.1E0));
#950=DIRECTION('',(0.E0,1.E0,0.E0));
#951=DIRECTION('',(-1.E0,0.E0,0.E0));
#952=AXIS2_PLACEMENT_3D('',#949,#950,#951);
#953=PLANE('',#952);
#954=ORIENTED_EDGE('',*,*,#757,.F.);
#955=ORIENTED_EDGE('',*,*,#892,.F.);
#956=ORIENTED_EDGE('',*,*,#686,.T.);
#958=ORIENTED_EDGE('',*,*,#957,.T.);
#959=ORIENTED_EDGE('',*,*,#640,.F.);
#960=ORIENTED_EDGE('',*,*,#886,.F.);
#961=ORIENTED_EDGE('',*,*,#872,.T.);
#962=ORIENTED_EDGE('',*,*,#941,.F.);
#963=EDGE_LOOP('',(#954,#955,#956,#958,#959,#960,#961,#962));
#964=FACE_OUTER_BOUND('',#963,.F.);
#966=CARTESIAN_POINT('',(1.3E0,-8.5E-1,-1.1E0));
#967=DIRECTION('',(-1.E0,0.E0,0.E0));
#968=DIRECTION('',(0.E0,-1.E0,0.E0));
#969=AXIS2_PLACEMENT_3D('',#966,#967,#968);
#970=PLANE('',#969);
#971=ORIENTED_EDGE('',*,*,#549,.T.);
#972=ORIENTED_EDGE('',*,*,#642,.F.);
#973=ORIENTED_EDGE('',*,*,#957,.F.);
#974=ORIENTED_EDGE('',*,*,#684,.T.);
#975=EDGE_LOOP('',(#971,#972,#973,#974));
#976=FACE_OUTER_BOUND('',#975,.F.);
#978=CARTESIAN_POINT('',(2.15E0,0.E0,-1.1E0));
#979=DIRECTION('',(0.E0,1.E0,0.E0));
#980=DIRECTION('',(-1.E0,0.E0,0.E0));
#981=AXIS2_PLACEMENT_3D('',#978,#979,#980);
#982=PLANE('',#981);
#984=ORIENTED_EDGE('',*,*,#983,.F.);
#985=ORIENTED_EDGE('',*,*,#690,.T.);
#986=ORIENTED_EDGE('',*,*,#889,.T.);
#987=ORIENTED_EDGE('',*,*,#636,.F.);
#988=EDGE_LOOP('',(#984,#985,#986,#987));
#989=FACE_OUTER_BOUND('',#988,.F.);
#991=CARTESIAN_POINT('',(2.15E0,-9.E-1,2.1E0));
#992=DIRECTION('',(1.E0,0.E0,0.E0));
#993=DIRECTION('',(0.E0,0.E0,-1.E0));
#994=AXIS2_PLACEMENT_3D('',#991,#992,#993);
#995=PLANE('',#994);
#997=ORIENTED_EDGE('',*,*,#996,.F.);
#999=ORIENTED_EDGE('',*,*,#998,.T.);
#1001=ORIENTED_EDGE('',*,*,#1000,.T.);
#1002=ORIENTED_EDGE('',*,*,#553,.F.);
#1003=ORIENTED_EDGE('',*,*,#692,.T.);
#1004=ORIENTED_EDGE('',*,*,#983,.T.);
#1005=ORIENTED_EDGE('',*,*,#634,.F.);
#1006=ORIENTED_EDGE('',*,*,#545,.F.);
#1007=EDGE_LOOP('',(#997,#999,#1001,#1002,#1003,#1004,#1005,#1006));
#1008=FACE_OUTER_BOUND('',#1007,.F.);
#1010=CARTESIAN_POINT('',(1.85E0,3.31166E0,1.8E0));
#1011=DIRECTION('',(0.E0,-1.E0,0.E0));
#1012=DIRECTION('',(1.E0,0.E0,0.E0));
#1013=AXIS2_PLACEMENT_3D('',#1010,#1011,#1012);
#1014=CYLINDRICAL_SURFACE('',#1013,3.E-1);
#1015=ORIENTED_EDGE('',*,*,#543,.T.);
#1017=ORIENTED_EDGE('',*,*,#1016,.F.);
#1019=ORIENTED_EDGE('',*,*,#1018,.T.);
#1020=ORIENTED_EDGE('',*,*,#996,.T.);
#1021=EDGE_LOOP('',(#1015,#1017,#1019,#1020));
#1022=FACE_OUTER_BOUND('',#1021,.F.);
#1024=CARTESIAN_POINT('',(-2.15E0,-9.E-1,2.1E0));
#1025=DIRECTION('',(0.E0,0.E0,1.E0));
#1026=DIRECTION('',(1.E0,0.E0,0.E0));
#1027=AXIS2_PLACEMENT_3D('',#1024,#1025,#1026);
#1028=PLANE('',#1027);
#1029=ORIENTED_EDGE('',*,*,#584,.F.);
#1031=ORIENTED_EDGE('',*,*,#1030,.T.);
#1032=ORIENTED_EDGE('',*,*,#1016,.T.);
#1033=ORIENTED_EDGE('',*,*,#541,.F.);
#1034=EDGE_LOOP('',(#1029,#1031,#1032,#1033));
#1035=FACE_OUTER_BOUND('',#1034,.F.);
#1037=CARTESIAN_POINT('',(0.E0,9.E-1,0.E0));
#1038=DIRECTION('',(0.E0,1.E0,0.E0));
#1039=DIRECTION('',(1.E0,0.E0,0.E0));
#1040=AXIS2_PLACEMENT_3D('',#1037,#1038,#1039);
#1041=PLANE('',#1040);
#1042=ORIENTED_EDGE('',*,*,#582,.F.);
#1043=ORIENTED_EDGE('',*,*,#605,.F.);
#1045=ORIENTED_EDGE('',*,*,#1044,.F.);
#1047=ORIENTED_EDGE('',*,*,#1046,.F.);
#1049=ORIENTED_EDGE('',*,*,#1048,.F.);
#1050=ORIENTED_EDGE('',*,*,#998,.F.);
#1051=ORIENTED_EDGE('',*,*,#1018,.F.);
#1052=ORIENTED_EDGE('',*,*,#1030,.F.);
#1053=EDGE_LOOP('',(#1042,#1043,#1045,#1047,#1049,#1050,#1051,#1052));
#1054=FACE_OUTER_BOUND('',#1053,.F.);
#1056=CARTESIAN_POINT('',(-1.85E0,3.31166E0,-1.8E0));
#1057=DIRECTION('',(0.E0,-1.E0,0.E0));
#1058=DIRECTION('',(-1.E0,0.E0,0.E0));
#1059=AXIS2_PLACEMENT_3D('',#1056,#1057,#1058);
#1060=CYLINDRICAL_SURFACE('',#1059,3.E-1);
#1061=ORIENTED_EDGE('',*,*,#559,.T.);
#1063=ORIENTED_EDGE('',*,*,#1062,.F.);
#1064=ORIENTED_EDGE('',*,*,#1044,.T.);
#1065=ORIENTED_EDGE('',*,*,#603,.T.);
#1066=EDGE_LOOP('',(#1061,#1063,#1064,#1065));
#1067=FACE_OUTER_BOUND('',#1066,.F.);
#1069=CARTESIAN_POINT('',(2.15E0,-9.E-1,-2.1E0));
#1070=DIRECTION('',(0.E0,0.E0,-1.E0));
#1071=DIRECTION('',(-1.E0,0.E0,0.E0));
#1072=AXIS2_PLACEMENT_3D('',#1069,#1070,#1071);
#1073=PLANE('',#1072);
#1075=ORIENTED_EDGE('',*,*,#1074,.F.);
#1076=ORIENTED_EDGE('',*,*,#1046,.T.);
#1077=ORIENTED_EDGE('',*,*,#1062,.T.);
#1078=ORIENTED_EDGE('',*,*,#557,.F.);
#1079=EDGE_LOOP('',(#1075,#1076,#1077,#1078));
#1080=FACE_OUTER_BOUND('',#1079,.F.);
#1082=CARTESIAN_POINT('',(1.85E0,3.31166E0,-1.8E0));
#1083=DIRECTION('',(0.E0,-1.E0,0.E0));
#1084=DIRECTION('',(0.E0,0.E0,-1.E0));
#1085=AXIS2_PLACEMENT_3D('',#1082,#1083,#1084);
#1086=CYLINDRICAL_SURFACE('',#1085,3.E-1);
#1087=ORIENTED_EDGE('',*,*,#555,.T.);
#1088=ORIENTED_EDGE('',*,*,#1000,.F.);
#1089=ORIENTED_EDGE('',*,*,#1048,.T.);
#1090=ORIENTED_EDGE('',*,*,#1074,.T.);
#1091=EDGE_LOOP('',(#1087,#1088,#1089,#1090));
#1092=FACE_OUTER_BOUND('',#1091,.F.);
#1098=PLANE_ANGLE_MEASURE_WITH_UNIT(PLANE_ANGLE_MEASURE(1.745329251994E-2),
#1097);
#1099=(CONVERSION_BASED_UNIT('DEGREE',#1098)NAMED_UNIT(*)PLANE_ANGLE_UNIT());
#1101=UNCERTAINTY_MEASURE_WITH_UNIT(LENGTH_MEASURE(1.E-3),#1096,
'distance_accuracy_value',
'Maximum model space distance between geometric entities at asserted connectivities');
#1104=APPLICATION_CONTEXT('automotive_design');
#1105=APPLICATION_PROTOCOL_DEFINITION('international standard',
'automotive_design',2001,#1104);
#1106=PRODUCT_DEFINITION_CONTEXT('part definition',#1104,'design');
#1107=PRODUCT_CONTEXT('',#1104,'mechanical');
#1108=PRODUCT('C-2176780-8','C-2176780-8','NOT SPECIFIED',(#1107));
#1109=PRODUCT_DEFINITION_FORMATION('4','LAST_VERSION',#1108);
#1117=DERIVED_UNIT_ELEMENT(#1116,2.E0);
#1118=DERIVED_UNIT((#1117));
#1119=MEASURE_REPRESENTATION_ITEM('surface area measure',AREA_MEASURE(
6.819840674278E1),#1118);
#1124=DERIVED_UNIT_ELEMENT(#1123,3.E0);
#1125=DERIVED_UNIT((#1124));
#1126=MEASURE_REPRESENTATION_ITEM('volume measure',VOLUME_MEASURE(
3.261493797691E1),#1125);
#1130=CARTESIAN_POINT('centre point',(0.E0,-5.745833394832E-3,0.E0));
#1135=DERIVED_UNIT_ELEMENT(#1134,2.E0);
#1136=DERIVED_UNIT((#1135));
#1137=MEASURE_REPRESENTATION_ITEM('surface area measure',AREA_MEASURE(
6.819840674278E1),#1136);
#1142=DERIVED_UNIT_ELEMENT(#1141,3.E0);
#1143=DERIVED_UNIT((#1142));
#1144=MEASURE_REPRESENTATION_ITEM('volume measure',VOLUME_MEASURE(
3.261493797691E1),#1143);
#1148=CARTESIAN_POINT('centre point',(0.E0,-5.745833394832E-3,0.E0));
#1153=PRODUCT_RELATED_PRODUCT_CATEGORY('part','',(#1108));
#1=DRAUGHTING_PRE_DEFINED_COLOUR('green');
#2=COLOUR_RGB('',1.1E-2,1.2E-2,1.E0);
#3=COLOUR_RGB('',4.1E-1,2.61589E-1,1.12848E-1);
#4=COLOUR_RGB('',5.04854E-1,1.5455E-2,1.5455E-2);
#5=COLOUR_RGB('',6.35294E-1,6.86275E-1,7.4902E-1);
#6=COLOUR_RGB('',6.40777E-1,6.40777E-1,6.40777E-1);
#7=COLOUR_RGB('',6.69062E-1,6.69903E-1,6.55217E-1);
#8=COLOUR_RGB('',9.21569E-1,7.05882E-1,4.70588E-1);
#9=DRAUGHTING_PRE_DEFINED_COLOUR('red');
#10=DRAUGHTING_PRE_DEFINED_COLOUR('yellow');
#11=COLOUR_RGB('',1.E0,1.E0,5.3E-1);
#12=COLOUR_RGB('',1.E0,1.E0,9.49E-1);
#13=DRAUGHTING_PRE_DEFINED_COLOUR('white');
#18=CIRCLE('',#17,3.E-1);
#27=CIRCLE('',#26,3.E-1);
#52=CIRCLE('',#51,3.E-1);
#61=CIRCLE('',#60,3.E-1);
#366=CIRCLE('',#365,3.E-1);
#375=CIRCLE('',#374,3.E-1);
#384=CIRCLE('',#383,3.E-1);
#393=CIRCLE('',#392,3.E-1);
#539=EDGE_CURVE('',#504,#505,#18,.T.);
#541=EDGE_CURVE('',#504,#513,#22,.T.);
#543=EDGE_CURVE('',#512,#513,#27,.T.);
#545=EDGE_CURVE('',#512,#445,#31,.T.);
#547=EDGE_CURVE('',#444,#445,#35,.T.);
#549=EDGE_CURVE('',#436,#444,#39,.T.);
#551=EDGE_CURVE('',#436,#437,#43,.T.);
#553=EDGE_CURVE('',#437,#521,#47,.T.);
#555=EDGE_CURVE('',#520,#521,#52,.T.);
#557=EDGE_CURVE('',#520,#529,#56,.T.);
#559=EDGE_CURVE('',#528,#529,#61,.T.);
#561=EDGE_CURVE('',#528,#432,#65,.T.);
#563=EDGE_CURVE('',#432,#433,#69,.T.);
#565=EDGE_CURVE('',#433,#441,#73,.T.);
#567=EDGE_CURVE('',#440,#441,#77,.T.);
#569=EDGE_CURVE('',#440,#505,#81,.T.);
#573=ADVANCED_FACE('',(#572),#538,.F.);
#580=EDGE_CURVE('',#507,#505,#85,.T.);
#582=EDGE_CURVE('',#507,#509,#366,.T.);
#584=EDGE_CURVE('',#509,#504,#357,.T.);
#588=ADVANCED_FACE('',(#587),#578,.T.);
#596=EDGE_CURVE('',#440,#453,#89,.T.);
#598=EDGE_CURVE('',#451,#453,#93,.T.);
#600=EDGE_CURVE('',#432,#451,#97,.T.);
#603=EDGE_CURVE('',#533,#528,#101,.T.);
#605=EDGE_CURVE('',#533,#507,#370,.T.);
#609=ADVANCED_FACE('',(#608),#593,.T.);
#616=EDGE_CURVE('',#441,#420,#105,.T.);
#618=EDGE_CURVE('',#420,#421,#109,.T.);
#620=EDGE_CURVE('',#421,#423,#113,.T.);
#622=EDGE_CURVE('',#423,#453,#117,.T.);
#627=ADVANCED_FACE('',(#626),#614,.F.);
#634=EDGE_CURVE('',#445,#449,#353,.T.);
#636=EDGE_CURVE('',#449,#426,#121,.T.);
#638=EDGE_CURVE('',#426,#427,#125,.T.);
#640=EDGE_CURVE('',#427,#429,#129,.T.);
#642=EDGE_CURVE('',#429,#444,#133,.T.);
#646=ADVANCED_FACE('',(#645),#632,.F.);
#653=EDGE_CURVE('',#433,#408,#149,.T.);
#655=EDGE_CURVE('',#408,#420,#237,.T.);
#660=ADVANCED_FACE('',(#659),#651,.F.);
#668=EDGE_CURVE('',#411,#451,#137,.T.);
#670=EDGE_CURVE('',#409,#411,#141,.T.);
#672=EDGE_CURVE('',#408,#409,#145,.T.);
#677=ADVANCED_FACE('',(#676),#665,.T.);
#684=EDGE_CURVE('',#417,#436,#153,.T.);
#686=EDGE_CURVE('',#415,#417,#157,.T.);
#688=EDGE_CURVE('',#414,#415,#161,.T.);
#690=EDGE_CURVE('',#447,#414,#165,.T.);
#692=EDGE_CURVE('',#437,#447,#345,.T.);
#696=ADVANCED_FACE('',(#695),#682,.T.);
#704=EDGE_CURVE('',#411,#423,#169,.T.);
#709=ADVANCED_FACE('',(#708),#701,.F.);
#715=EDGE_CURVE('',#468,#475,#173,.T.);
#717=EDGE_CURVE('',#409,#468,#177,.T.);
#722=EDGE_CURVE('',#472,#421,#181,.T.);
#724=EDGE_CURVE('',#472,#477,#185,.T.);
#726=EDGE_CURVE('',#475,#477,#189,.T.);
#730=ADVANCED_FACE('',(#729),#714,.F.);
#736=EDGE_CURVE('',#468,#469,#225,.T.);
#739=EDGE_CURVE('',#475,#456,#193,.T.);
#741=EDGE_CURVE('',#456,#457,#197,.T.);
#743=EDGE_CURVE('',#457,#459,#201,.T.);
#745=EDGE_CURVE('',#459,#469,#205,.T.);
#749=ADVANCED_FACE('',(#748),#735,.F.);
#755=EDGE_CURVE('',#492,#493,#285,.T.);
#757=EDGE_CURVE('',#492,#499,#313,.T.);
#759=EDGE_CURVE('',#499,#480,#209,.T.);
#761=EDGE_CURVE('',#480,#481,#213,.T.);
#763=EDGE_CURVE('',#481,#483,#217,.T.);
#765=EDGE_CURVE('',#483,#493,#221,.T.);
#769=ADVANCED_FACE('',(#768),#754,.F.);
#776=EDGE_CURVE('',#469,#473,#229,.T.);
#778=EDGE_CURVE('',#472,#473,#233,.T.);
#787=ADVANCED_FACE('',(#786),#774,.F.);
#795=EDGE_CURVE('',#459,#465,#241,.T.);
#797=EDGE_CURVE('',#465,#473,#253,.T.);
#801=ADVANCED_FACE('',(#800),#792,.T.);
#808=EDGE_CURVE('',#457,#463,#245,.T.);
#810=EDGE_CURVE('',#463,#465,#257,.T.);
#815=ADVANCED_FACE('',(#814),#806,.T.);
#822=EDGE_CURVE('',#456,#462,#249,.T.);
#824=EDGE_CURVE('',#462,#463,#261,.T.);
#829=ADVANCED_FACE('',(#828),#820,.T.);
#836=EDGE_CURVE('',#477,#462,#265,.T.);
#842=ADVANCED_FACE('',(#841),#834,.T.);
#856=ADVANCED_FACE('',(#855),#847,.T.);
#862=EDGE_CURVE('',#496,#497,#293,.T.);
#864=EDGE_CURVE('',#489,#497,#269,.T.);
#866=EDGE_CURVE('',#487,#489,#273,.T.);
#868=EDGE_CURVE('',#486,#487,#277,.T.);
#870=EDGE_CURVE('',#501,#486,#281,.T.);
#872=EDGE_CURVE('',#496,#501,#325,.T.);
#876=ADVANCED_FACE('',(#875),#861,.T.);
#883=EDGE_CURVE('',#493,#497,#289,.T.);
#886=EDGE_CURVE('',#496,#427,#321,.T.);
#889=EDGE_CURVE('',#414,#426,#297,.T.);
#892=EDGE_CURVE('',#415,#492,#317,.T.);
#896=ADVANCED_FACE('',(#895),#881,.F.);
#904=EDGE_CURVE('',#483,#489,#301,.T.);
#909=ADVANCED_FACE('',(#908),#901,.T.);
#916=EDGE_CURVE('',#481,#487,#305,.T.);
#922=ADVANCED_FACE('',(#921),#914,.T.);
#929=EDGE_CURVE('',#480,#486,#309,.T.);
#935=ADVANCED_FACE('',(#934),#927,.T.);
#941=EDGE_CURVE('',#499,#501,#329,.T.);
#948=ADVANCED_FACE('',(#947),#940,.T.);
#957=EDGE_CURVE('',#417,#429,#333,.T.);
#965=ADVANCED_FACE('',(#964),#953,.F.);
#977=ADVANCED_FACE('',(#976),#970,.F.);
#983=EDGE_CURVE('',#447,#449,#349,.T.);
#990=ADVANCED_FACE('',(#989),#982,.F.);
#996=EDGE_CURVE('',#517,#512,#337,.T.);
#998=EDGE_CURVE('',#517,#523,#388,.T.);
#1000=EDGE_CURVE('',#523,#521,#341,.T.);
#1009=ADVANCED_FACE('',(#1008),#995,.T.);
#1016=EDGE_CURVE('',#515,#513,#361,.T.);
#1018=EDGE_CURVE('',#515,#517,#393,.T.);
#1023=ADVANCED_FACE('',(#1022),#1014,.T.);
#1030=EDGE_CURVE('',#509,#515,#397,.T.);
#1036=ADVANCED_FACE('',(#1035),#1028,.T.);
#1044=EDGE_CURVE('',#531,#533,#375,.T.);
#1046=EDGE_CURVE('',#525,#531,#379,.T.);
#1048=EDGE_CURVE('',#523,#525,#384,.T.);
#1055=ADVANCED_FACE('',(#1054),#1041,.T.);
#1062=EDGE_CURVE('',#531,#529,#405,.T.);
#1068=ADVANCED_FACE('',(#1067),#1060,.T.);
#1074=EDGE_CURVE('',#525,#520,#401,.T.);
#1081=ADVANCED_FACE('',(#1080),#1073,.T.);
#1093=ADVANCED_FACE('',(#1092),#1086,.T.);
#1094=CLOSED_SHELL('',(#573,#588,#609,#627,#646,#660,#677,#696,#709,#730,#749,
#769,#787,#801,#815,#829,#842,#856,#876,#896,#909,#922,#935,#948,#965,#977,#990,
#1009,#1023,#1036,#1055,#1068,#1081,#1093));
#1095=MANIFOLD_SOLID_BREP('',#1094);
#1096=(LENGTH_UNIT()NAMED_UNIT(*)SI_UNIT(.MILLI.,.METRE.));
#1097=(NAMED_UNIT(*)PLANE_ANGLE_UNIT()SI_UNIT($,.RADIAN.));
#1100=(NAMED_UNIT(*)SI_UNIT($,.STERADIAN.)SOLID_ANGLE_UNIT());
#1102=(GEOMETRIC_REPRESENTATION_CONTEXT(3)GLOBAL_UNCERTAINTY_ASSIGNED_CONTEXT((
#1101))GLOBAL_UNIT_ASSIGNED_CONTEXT((#1096,#1099,#1100))REPRESENTATION_CONTEXT(
'ID1','3'));
#1103=ADVANCED_BREP_SHAPE_REPRESENTATION('',(#1095),#1102);
#1110=PRODUCT_DEFINITION('part definition','',#1109,#1106);
#1111=PRODUCT_DEFINITION_SHAPE('','SHAPE FOR C-2176780-8.',#1110);
#1112=SHAPE_ASPECT('','solid data associated with C-2176780-8',#1111,.F.);
#1113=PROPERTY_DEFINITION('',
'shape for solid data with which properties are associated',#1112);
#1114=SHAPE_REPRESENTATION('',(#1095),#1102);
#1115=SHAPE_DEFINITION_REPRESENTATION(#1113,#1114);
#1116=(LENGTH_UNIT()NAMED_UNIT(*)SI_UNIT(.MILLI.,.METRE.));
#1120=PROPERTY_DEFINITION('geometric validation property','area of C-2176780-8',
#1112);
#1121=REPRESENTATION('surface area',(#1119),#1102);
#1122=PROPERTY_DEFINITION_REPRESENTATION(#1120,#1121);
#1123=(LENGTH_UNIT()NAMED_UNIT(*)SI_UNIT(.MILLI.,.METRE.));
#1127=PROPERTY_DEFINITION('geometric validation property',
'volume of C-2176780-8',#1112);
#1128=REPRESENTATION('volume',(#1126),#1102);
#1129=PROPERTY_DEFINITION_REPRESENTATION(#1127,#1128);
#1131=PROPERTY_DEFINITION('geometric validation property',
'centroid of C-2176780-8',#1112);
#1132=REPRESENTATION('centroid',(#1130),#1102);
#1133=PROPERTY_DEFINITION_REPRESENTATION(#1131,#1132);
#1134=(LENGTH_UNIT()NAMED_UNIT(*)SI_UNIT(.MILLI.,.METRE.));
#1138=PROPERTY_DEFINITION('geometric validation property','area of C-2176780-8',
#1111);
#1139=REPRESENTATION('surface area',(#1137),#1102);
#1140=PROPERTY_DEFINITION_REPRESENTATION(#1138,#1139);
#1141=(LENGTH_UNIT()NAMED_UNIT(*)SI_UNIT(.MILLI.,.METRE.));
#1145=PROPERTY_DEFINITION('geometric validation property',
'volume of C-2176780-8',#1111);
#1146=REPRESENTATION('volume',(#1144),#1102);
#1147=PROPERTY_DEFINITION_REPRESENTATION(#1145,#1146);
#1149=PROPERTY_DEFINITION('geometric validation property',
'centroid of C-2176780-8',#1111);
#1150=REPRESENTATION('centroid',(#1148),#1102);
#1151=PROPERTY_DEFINITION_REPRESENTATION(#1149,#1150);
#1152=SHAPE_DEFINITION_REPRESENTATION(#1111,#1103);
ENDSEC;
END-ISO-10303-21;
